<svg width="110" height="107" viewBox="0 0 110 107" fill="none" xmlns="http://www.w3.org/2000/svg">
<g filter="url(#filter0_d)">
<path d="M34.2579 97.3582C35.3815 97.3583 36.5031 97.2667 37.6118 97.0844C37.9676 97.0268 38.3334 96.9567 38.6959 96.8762C40.7279 96.4273 42.68 95.6726 44.4856 94.638C49.8751 91.5599 54.1202 85.9405 56.4388 78.8151C57.219 76.4027 57.7707 73.9222 58.0865 71.4065C58.8549 71.4816 59.6302 71.5235 60.4132 71.5235C65.1609 71.5235 70.1484 70.1506 75.0482 67.4704C81.3817 64.0057 86.9899 58.6513 91.2664 51.9861C100.932 36.9271 101.196 19.048 91.8965 9.47499C90.3006 7.82889 88.4385 6.46364 86.3887 5.43663C80.2219 2.34256 72.6301 2.44018 65.0125 5.71095C57.5068 8.93331 50.6359 14.9746 45.6652 22.7206C44.1957 25.0087 42.9176 27.4141 41.8438 29.9124C37.4883 26.7096 32.6 24.8658 27.5901 24.8027C26.0213 24.7831 24.4554 24.9436 22.9232 25.2808C22.2194 25.4355 21.5245 25.6284 20.8415 25.8585C14.2984 28.0446 9.01034 33.4922 5.95174 41.1984C2.93756 48.7886 2.36899 57.92 4.35022 66.9078C8.27045 84.701 21.0049 97.3582 34.2579 97.3582ZM90.6699 12.8918C93.8851 16.8624 95.5864 22.3995 95.4888 28.6793C95.3781 35.8344 92.9257 43.5012 88.5839 50.2648C84.5947 56.4822 79.3852 61.4649 73.5186 64.6741C68.5214 67.4076 63.2813 68.6517 58.5772 68.2511C67.8437 60.9736 74.0835 50.5194 76.0905 38.909C77.6941 29.685 82.1621 21.2003 88.8604 14.6593L90.6699 12.8918ZM83.4943 11.216L85.9462 8.82195C86.1455 8.93929 86.3459 9.05982 86.5439 9.18592C87.2111 9.61447 87.848 10.0885 88.45 10.6048L86.6335 12.3778C79.4554 19.387 74.6676 28.4791 72.9496 38.3635C71.2142 48.4025 66.082 57.5404 58.4126 64.2466C58.3696 62.9573 58.2728 61.6595 58.1224 60.3533C64.7118 53.5007 69.1008 44.8336 70.7251 35.4667C72.3102 26.2363 76.7807 17.746 83.4943 11.216ZM48.3473 24.4421C57.1643 10.7016 71.8662 3.60581 82.8448 7.39614L81.2676 8.9361C74.0736 15.933 69.2831 25.0306 67.5846 34.9212C66.2136 42.8326 62.7247 50.2248 57.4888 56.3121C57.4185 55.9579 57.3458 55.6035 57.2677 55.2491C55.155 45.6603 50.4429 37.4788 44.4155 32.0184C45.4887 29.3767 46.805 26.8404 48.3473 24.4421ZM29.1227 30.6137L29.1478 28.0836C34.2294 28.6084 39.353 31.311 43.7336 35.8105C48.725 40.9386 52.4263 48.0858 54.1559 55.9352C55.8162 63.4728 55.5504 71.2483 53.409 77.8293C51.7697 82.8658 49.094 87.0362 45.7228 89.889C47.1056 78.1877 44.1018 66.3892 37.2918 56.7737C31.9614 49.261 29.1049 40.2738 29.1197 31.0621C29.1197 30.9135 29.1197 30.7667 29.1217 30.6137H29.1227ZM22.8971 31.9857L22.9296 28.5592C23.1545 28.4994 23.3804 28.4438 23.6079 28.3938C24.3832 28.2235 25.1692 28.1067 25.9605 28.0442L25.9354 30.5786C25.9332 30.7408 25.9332 30.9006 25.9332 31.0627C25.9171 40.9337 28.978 50.5643 34.69 58.6147C41.1301 67.7074 43.9206 78.8871 42.5088 89.9396L42.2173 92.2428C41.2596 92.7368 40.2581 93.1408 39.2257 93.4495L39.4448 91.7125C39.6965 89.7199 39.8229 87.7135 39.8233 85.705C39.8405 75.8318 36.7795 66.1987 31.0662 58.1463C25.6446 50.5097 22.7842 41.3505 22.8961 31.9857H22.8971ZM19.7295 29.7507L19.7086 31.9546C19.5889 41.9894 22.6541 51.8037 28.4637 59.9867C33.7952 67.501 36.652 76.4903 36.6364 85.7039C36.6359 87.5785 36.5177 89.4512 36.2826 91.3111L35.9312 94.0896C30.258 94.6275 24.3578 92.3576 19.1898 87.615C13.5211 82.4124 9.35659 74.815 7.46341 66.2221C3.94859 50.2792 9.29483 34.8563 19.7295 29.7507Z" fill="#532F24"/>
<path d="M57.8033 23.0538C58.206 23.0542 58.5939 22.9017 58.8884 22.627C59.557 22.0051 60.2598 21.4038 60.9774 20.84C61.142 20.7107 61.2794 20.5502 61.382 20.3678C61.4845 20.1853 61.5501 19.9844 61.575 19.7766C61.5999 19.5688 61.5837 19.3581 61.5272 19.1566C61.4706 18.9551 61.375 18.7667 61.2457 18.6021C61.1163 18.4375 60.9559 18.3001 60.7734 18.1975C60.5909 18.095 60.3901 18.0294 60.1823 18.0045C59.9744 17.9796 59.7638 17.9958 59.5622 18.0524C59.3607 18.1089 59.1723 18.2045 59.0077 18.3339C58.2212 18.9514 57.4506 19.611 56.7167 20.293C56.4823 20.511 56.319 20.7946 56.248 21.1068C56.1771 21.419 56.2018 21.7453 56.319 22.0433C56.4361 22.3412 56.6403 22.597 56.9049 22.7772C57.1695 22.9575 57.4823 23.0538 57.8025 23.0538H57.8033Z" fill="#532F24"/>
<path d="M49.6593 32.8401C49.8467 32.9335 50.0506 32.9889 50.2594 33.0034C50.4682 33.0179 50.6778 32.991 50.8762 32.9244C51.0746 32.8578 51.258 32.7527 51.4158 32.6152C51.5735 32.4777 51.7027 32.3104 51.7958 32.123C52.8113 30.0816 54.0347 28.1505 55.4464 26.3602C55.5791 26.1962 55.6779 26.0075 55.7371 25.805C55.7963 25.6026 55.8147 25.3904 55.7913 25.1807C55.7679 24.9711 55.7031 24.7682 55.6007 24.5838C55.4982 24.3994 55.3602 24.2372 55.1946 24.1065C55.029 23.9759 54.8391 23.8794 54.636 23.8227C54.4328 23.766 54.2204 23.7501 54.0111 23.7761C53.8018 23.8021 53.5997 23.8694 53.4165 23.9741C53.2334 24.0787 53.0729 24.2187 52.9443 24.3859C51.3962 26.3486 50.055 28.4658 48.9418 30.7039C48.7537 31.0824 48.7237 31.52 48.8582 31.9206C48.9928 32.3212 49.281 32.652 49.6593 32.8401Z" fill="#532F24"/>
<path d="M18.8263 82.3255C19.1011 82.6468 19.4922 82.8458 19.9136 82.8787C20.3351 82.9116 20.7524 82.7758 21.0737 82.501C21.395 82.2263 21.594 81.8351 21.6269 81.4137C21.6598 80.9922 21.5239 80.5749 21.2492 80.2536C20.6557 79.5594 20.084 78.832 19.5509 78.0917C19.3038 77.7487 18.9306 77.5179 18.5134 77.4501C18.0962 77.3823 17.6691 77.483 17.3261 77.73C16.9831 77.9771 16.7523 78.3503 16.6845 78.7675C16.6166 79.1847 16.7173 79.6118 16.9644 79.9548C17.5499 80.7668 18.1763 81.5643 18.8263 82.3255Z" fill="#532F24"/>
<path d="M22.7582 86.2664C24.6545 87.8952 26.7138 89.3238 28.9035 90.5297C29.0869 90.6314 29.2886 90.6959 29.497 90.7195C29.7053 90.7431 29.9163 90.7253 30.1178 90.6672C30.3193 90.6092 30.5074 90.5119 30.6712 90.3809C30.8351 90.25 30.9714 90.0881 31.0726 89.9044C31.1737 89.7206 31.2376 89.5188 31.2605 89.3103C31.2835 89.1019 31.2651 88.8909 31.2063 88.6896C31.1476 88.4883 31.0497 88.3005 30.9183 88.1371C30.7869 87.9737 30.6245 87.8378 30.4405 87.7372C28.4433 86.6375 26.5649 85.3345 24.8352 83.8491C24.5141 83.5776 24.0987 83.444 23.6795 83.4775C23.2604 83.5109 22.8714 83.7086 22.5974 84.0276C22.3234 84.3466 22.1865 84.7609 22.2166 85.1803C22.2467 85.5997 22.4414 85.9903 22.7582 86.2668V86.2664Z" fill="#532F24"/>
</g>
<defs>
<filter id="filter0_d" x="0" y="0" width="113" height="111" filterUnits="userSpaceOnUse" color-interpolation-filters="sRGB">
<feFlood flood-opacity="0" result="BackgroundImageFix"/>
<feColorMatrix in="SourceAlpha" type="matrix" values="0 0 0 0 0 0 0 0 0 0 0 0 0 0 0 0 0 0 127 0"/>
<feOffset dx="7" dy="5"/>
<feGaussianBlur stdDeviation="2"/>
<feColorMatrix type="matrix" values="0 0 0 0 0 0 0 0 0 0 0 0 0 0 0 0 0 0 0.25 0"/>
<feBlend mode="normal" in2="BackgroundImageFix" result="effect1_dropShadow"/>
<feBlend mode="normal" in="SourceGraphic" in2="effect1_dropShadow" result="shape"/>
</filter>
</defs>
</svg>
