<svg width="367" height="359" viewBox="0 0 367 359" fill="none" xmlns="http://www.w3.org/2000/svg">
<g clip-path="url(#clip0)" filter="url(#filter0_d)">
<path d="M134.838 189.77L108.611 155.289L125.035 26.8347C125.297 24.746 127.077 23.1817 129.182 23.1897L276.323 23.1896L271.672 136.31L251.185 220.103H190.016L134.838 189.77Z" fill="#9DC4FF"/>
<path d="M300.958 191.488C301.262 193.491 300.076 195.421 298.151 196.055L284.241 200.705L276.323 203.345L275.862 203.638L251.185 220.103L276.323 23.1896L300.958 191.488Z" fill="#88B8FF"/>
<path d="M284.241 144.69V200.705L276.323 203.345L275.862 203.638V144.69C275.862 142.376 277.738 140.5 280.051 140.5C282.365 140.5 284.241 142.376 284.241 144.69Z" fill="#5E76F1"/>
<path d="M250.724 60.8966H242.345C240.031 60.8966 238.155 59.0208 238.155 56.7069C238.155 54.393 240.031 52.5172 242.345 52.5172H250.724C253.038 52.5172 254.914 54.393 254.914 56.7069C254.914 59.0208 253.038 60.8966 250.724 60.8966Z" fill="#5E76F1"/>
<path d="M225.586 60.8966H217.207C214.893 60.8966 213.017 59.0208 213.017 56.7069C213.017 54.393 214.893 52.5172 217.207 52.5172H225.586C227.9 52.5172 229.776 54.393 229.776 56.7069C229.776 59.0208 227.9 60.8966 225.586 60.8966Z" fill="#5E76F1"/>
<path d="M200.448 60.8966H192.069C189.755 60.8966 187.879 59.0208 187.879 56.7069C187.879 54.393 189.755 52.5172 192.069 52.5172H200.448C202.762 52.5172 204.638 54.393 204.638 56.7069C204.638 59.0208 202.762 60.8966 200.448 60.8966Z" fill="#5E76F1"/>
<path d="M174.929 60.8966H166.55C164.236 60.8966 162.36 59.0208 162.36 56.7069C162.36 54.393 164.236 52.5172 166.55 52.5172H174.929C177.243 52.5172 179.118 54.393 179.118 56.7069C179.118 59.0208 177.243 60.8966 174.929 60.8966Z" fill="#5E76F1"/>
<path d="M149.791 60.8966H141.412C139.098 60.8966 137.222 59.0208 137.222 56.7069C137.222 54.393 139.098 52.5172 141.412 52.5172H149.791C152.105 52.5172 153.981 54.393 153.981 56.7069C153.981 59.0208 152.105 60.8966 149.791 60.8966Z" fill="#5E76F1"/>
<path d="M153.185 94.4138C151.098 94.4141 149.329 95.9505 149.037 98.0169L141.831 148.293C141.661 149.495 142.021 150.712 142.817 151.628C143.614 152.544 144.769 153.07 145.983 153.069H222.402C224.489 153.069 226.258 151.532 226.55 149.466L233.756 99.19C233.926 97.9886 233.567 96.7725 232.771 95.8564C231.975 94.9402 230.822 94.414 229.608 94.4138H153.185Z" fill="#ECF0F1"/>
<path d="M187.712 191.404H187.67C177.363 201.208 169.529 193.75 159.222 204.057C148.706 214.531 156.583 222.408 146.067 232.882C135.718 243.188 127.926 235.731 117.577 245.535C116.816 244.299 116.144 243.011 115.566 241.68C109.784 228.064 114.728 209.043 129.015 194.882C130.844 193.054 132.789 191.346 134.838 189.77C151.555 176.95 172.503 175.4 184.193 187.005C184.547 187.337 184.87 187.702 185.156 188.094C186.093 189.13 186.947 190.236 187.712 191.404Z" fill="#A56A43"/>
<path d="M190.016 220.103C187.254 228.413 182.541 235.941 176.274 242.057C158.887 259.444 134.168 262.922 121.096 249.934C120.822 249.676 120.57 249.396 120.342 249.096C120.26 249.023 120.19 248.938 120.133 248.844C119.186 247.817 118.331 246.71 117.577 245.535C127.925 235.731 135.718 243.188 146.067 232.882C156.583 222.408 148.706 214.531 159.222 204.057C169.529 193.751 177.363 201.208 187.67 191.404H187.712C188.473 192.625 189.145 193.899 189.723 195.217C192.765 203.216 192.869 212.035 190.016 220.103Z" fill="#805333"/>
<path d="M90.7632 222.91C90.7632 240.046 103.5 240.298 103.919 257.056V257.098C102.55 257.389 101.165 257.599 99.771 257.727C76.9374 259.486 57.9582 235.396 58.0001 205.44C57.9582 181.517 70.1082 161.281 86.6155 155.08C87.9567 154.535 89.3451 154.114 90.7632 153.823C91.1822 170.582 103.919 170.833 103.919 187.969C103.919 205.44 90.7632 205.44 90.7632 222.91Z" fill="#CF976A"/>
<path d="M129.015 194.882C113.345 210.425 108.904 231.835 117.577 245.535C118.388 246.804 119.314 247.996 120.342 249.096C116.662 252.044 112.512 254.353 108.066 255.925C106.713 256.413 105.327 256.805 103.919 257.098V257.056C103.5 240.298 90.7632 240.046 90.7632 222.911C90.7632 205.44 103.919 205.44 103.919 187.969C103.919 170.833 91.1821 170.582 90.7632 153.823C92.1316 153.529 93.5168 153.319 94.9109 153.195C95.7182 153.111 96.5293 153.069 97.3409 153.069C101.205 153.085 105.03 153.839 108.611 155.29C121.138 160.233 130.984 173.221 134.838 189.77C132.789 191.347 130.843 193.054 129.015 194.882Z" fill="#CB8252"/>
<path d="M208.827 119.552H166.931C164.617 119.552 162.741 117.676 162.741 115.362C162.741 113.048 164.617 111.172 166.931 111.172H208.827C211.141 111.172 213.017 113.048 213.017 115.362C213.017 117.676 211.141 119.552 208.827 119.552Z" fill="#BDC3C7"/>
<path d="M200.448 136.31H171.121C168.807 136.31 166.931 134.435 166.931 132.121C166.931 129.807 168.807 127.931 171.121 127.931H200.448C202.762 127.931 204.638 129.807 204.638 132.121C204.638 134.435 202.762 136.31 200.448 136.31Z" fill="#BDC3C7"/>
<path d="M198.731 220.103H190.016C193.516 210.665 192.673 200.163 187.712 191.404C186.695 189.819 185.516 188.345 184.192 187.005C172.503 175.4 151.555 176.95 134.838 189.77C130.984 173.221 121.138 160.233 108.611 155.289L109.7 146.743L111.711 147.497C124.578 153.125 134.604 163.741 139.489 176.908C146.97 173.001 155.265 170.905 163.705 170.791C173.516 170.577 183.011 174.27 190.1 181.056C191.835 182.827 193.393 184.763 194.75 186.838C200.638 196.893 202.079 208.943 198.731 220.103Z" fill="#5E76F1"/>
<path d="M100.651 237.784C105.083 242.831 107.694 249.218 108.067 255.925C106.713 256.413 105.327 256.805 103.919 257.098C102.55 257.389 101.165 257.599 99.771 257.727C99.771 257.559 99.7291 257.349 99.7291 257.14C99.605 251.828 97.5667 246.74 93.9893 242.811C84.1009 231.355 84.1009 214.382 93.9893 202.926C97.7379 198.853 99.7909 193.504 99.7291 187.969C99.8116 182.463 97.7711 177.137 94.0312 173.096C89.6304 168.079 87.0218 161.741 86.6155 155.08C87.9568 154.535 89.3452 154.114 90.7633 153.823C92.1317 153.529 93.5169 153.319 94.911 153.195C94.9458 153.374 94.9598 153.557 94.9529 153.739C95.077 159.051 97.1153 164.139 100.693 168.068C110.581 179.524 110.581 196.497 100.693 207.953C96.9441 212.026 94.8912 217.376 94.9529 222.91C94.8705 228.416 96.9109 233.742 100.651 237.784Z" fill="#805333"/>
<path d="M189.723 195.217C185.406 199.015 179.957 201.283 174.221 201.669C164.835 202.188 157.334 209.671 156.792 219.056C155.769 232.177 145.323 242.588 132.199 243.566C127.807 243.758 123.636 245.546 120.468 248.593C120.342 248.677 120.258 248.761 120.133 248.845C119.186 247.818 118.331 246.71 117.577 245.535C116.816 244.299 116.144 243.011 115.566 241.68C119.887 237.923 125.314 235.673 131.026 235.27C140.429 234.773 147.955 227.284 148.497 217.883C149.52 204.778 159.942 194.375 173.048 193.374C177.433 193.186 181.601 191.415 184.779 188.388C184.894 188.277 185.021 188.179 185.156 188.095C186.093 189.13 186.947 190.236 187.712 191.404C188.473 192.625 189.145 193.899 189.723 195.217Z" fill="#603E26"/>
</g>
<defs>
<filter id="filter0_d" x="0" y="-4" width="367" height="367" filterUnits="userSpaceOnUse" color-interpolation-filters="sRGB">
<feFlood flood-opacity="0" result="BackgroundImageFix"/>
<feColorMatrix in="SourceAlpha" type="matrix" values="0 0 0 0 0 0 0 0 0 0 0 0 0 0 0 0 0 0 127 0"/>
<feOffset dx="4" dy="39"/>
<feGaussianBlur stdDeviation="31"/>
<feColorMatrix type="matrix" values="0 0 0 0 0 0 0 0 0 0 0 0 0 0 0 0 0 0 0.25 0"/>
<feBlend mode="normal" in2="BackgroundImageFix" result="effect1_dropShadow"/>
<feBlend mode="normal" in="SourceGraphic" in2="effect1_dropShadow" result="shape"/>
</filter>
<clipPath id="clip0">
<rect width="243" height="243" fill="white" transform="translate(58 19)"/>
</clipPath>
</defs>
</svg>
