<svg width="1494" height="269" viewBox="0 0 1494 269" fill="none" xmlns="http://www.w3.org/2000/svg">
<g id="bottom_shelf">
<g id="upper_shlef" filter="url(#filter0_d)">
<path id="Rectangle 10" d="M115.5 206L1477.5 210V243L115.5 243.5V206Z" fill="#77410F"/>
<path id="Rectangle 11" d="M16 170H1354.5L1477.5 210H115L16 170Z" fill="#854C17"/>
<path id="Rectangle 12" d="M16 170L116 210L115.5 243.5L16.5 200L16 170Z" fill="#8C4F16"/>
</g>
<g id="pinkBag" clip-path="url(#clip0)">
<g id="Page 1">
<g id="066   Coffee Beans">
<path id="Shape" d="M1172.84 170.77L1146.61 136.289L1163.03 7.83461C1163.3 5.74591 1165.08 4.18163 1167.18 4.18961L1314.32 4.18958L1309.67 117.31L1289.19 201.103H1228.02L1172.84 170.77Z" fill="#E9AFFD"/>
<path id="Shape_2" d="M1338.96 172.488C1339.26 174.491 1338.08 176.421 1336.15 177.055L1322.24 181.705L1314.32 184.345L1313.86 184.638L1289.19 201.103L1314.32 4.18958L1338.96 172.488Z" fill="#D5A6E4"/>
<g id="Group">
<path id="Shape_3" d="M1322.24 125.69V181.705L1314.32 184.345L1313.86 184.638V125.69C1313.86 123.376 1315.74 121.5 1318.05 121.5C1320.37 121.5 1322.24 123.376 1322.24 125.69Z" fill="#B15EF1"/>
<path id="Shape_4" d="M1288.72 41.8965H1280.34C1278.03 41.8965 1276.16 40.0208 1276.16 37.7069C1276.16 35.393 1278.03 33.5172 1280.34 33.5172H1288.72C1291.04 33.5172 1292.91 35.393 1292.91 37.7069C1292.91 40.0208 1291.04 41.8965 1288.72 41.8965Z" fill="#B15EF1"/>
<path id="Shape_5" d="M1263.59 41.8965H1255.21C1252.89 41.8965 1251.02 40.0208 1251.02 37.7069C1251.02 35.393 1252.89 33.5172 1255.21 33.5172H1263.59C1265.9 33.5172 1267.78 35.393 1267.78 37.7069C1267.78 40.0208 1265.9 41.8965 1263.59 41.8965Z" fill="#B15EF1"/>
<path id="Shape_6" d="M1238.45 41.8965H1230.07C1227.76 41.8965 1225.88 40.0208 1225.88 37.7069C1225.88 35.393 1227.76 33.5172 1230.07 33.5172H1238.45C1240.76 33.5172 1242.64 35.393 1242.64 37.7069C1242.64 40.0208 1240.76 41.8965 1238.45 41.8965Z" fill="#B15EF1"/>
<path id="Shape_7" d="M1212.93 41.8965H1204.55C1202.24 41.8965 1200.36 40.0208 1200.36 37.7069C1200.36 35.393 1202.24 33.5172 1204.55 33.5172H1212.93C1215.24 33.5172 1217.12 35.393 1217.12 37.7069C1217.12 40.0208 1215.24 41.8965 1212.93 41.8965Z" fill="#B15EF1"/>
<path id="Shape_8" d="M1187.79 41.8965H1179.41C1177.1 41.8965 1175.22 40.0208 1175.22 37.7069C1175.22 35.393 1177.1 33.5172 1179.41 33.5172H1187.79C1190.11 33.5172 1191.98 35.393 1191.98 37.7069C1191.98 40.0208 1190.11 41.8965 1187.79 41.8965Z" fill="#B15EF1"/>
</g>
<path id="Shape_9" d="M1191.18 75.4138C1189.1 75.4141 1187.33 76.9505 1187.04 79.0169L1179.83 129.293C1179.66 130.495 1180.02 131.712 1180.82 132.628C1181.61 133.544 1182.77 134.07 1183.98 134.069H1260.4C1262.49 134.069 1264.26 132.532 1264.55 130.466L1271.76 80.19C1271.93 78.9886 1271.57 77.7725 1270.77 76.8564C1269.98 75.9402 1268.82 75.414 1267.61 75.4138H1191.18Z" fill="#ECF0F1"/>
<path id="Shape_10" d="M1225.71 172.404H1225.67C1215.36 182.208 1207.53 174.75 1197.22 185.057C1186.71 195.531 1194.58 203.408 1184.07 213.882C1173.72 224.188 1165.93 216.731 1155.58 226.535C1154.82 225.299 1154.14 224.011 1153.57 222.68C1147.78 209.064 1152.73 190.043 1167.01 175.882C1168.84 174.054 1170.79 172.346 1172.84 170.77C1189.56 157.95 1210.5 156.4 1222.19 168.005C1222.55 168.337 1222.87 168.702 1223.16 169.094C1224.09 170.13 1224.95 171.236 1225.71 172.404V172.404Z" fill="#A56A43"/>
<path id="Shape_11" d="M1228.02 201.103C1225.25 209.413 1220.54 216.941 1214.27 223.057C1196.89 240.444 1172.17 243.922 1159.1 230.934C1158.82 230.676 1158.57 230.395 1158.34 230.096C1158.26 230.023 1158.19 229.938 1158.13 229.844C1157.19 228.817 1156.33 227.71 1155.58 226.535C1165.93 216.731 1173.72 224.188 1184.07 213.882C1194.58 203.408 1186.71 195.531 1197.22 185.057C1207.53 174.75 1215.36 182.208 1225.67 172.404H1225.71C1226.47 173.625 1227.14 174.899 1227.72 176.217C1230.76 184.216 1230.87 193.035 1228.02 201.103V201.103Z" fill="#805333"/>
<path id="Shape_12" d="M1128.76 203.91C1128.76 221.046 1141.5 221.297 1141.92 238.056V238.098C1140.55 238.389 1139.16 238.599 1137.77 238.726C1114.94 240.486 1095.96 216.396 1096 186.44C1095.96 162.517 1108.11 142.281 1124.62 136.08C1125.96 135.535 1127.35 135.114 1128.76 134.823C1129.18 151.582 1141.92 151.833 1141.92 168.969C1141.92 186.44 1128.76 186.44 1128.76 203.91Z" fill="#CF976A"/>
<path id="Shape_13" d="M1167.01 175.882C1151.35 191.425 1146.9 212.834 1155.58 226.535C1156.39 227.804 1157.31 228.996 1158.34 230.096C1154.66 233.044 1150.51 235.353 1146.07 236.925C1144.71 237.413 1143.33 237.805 1141.92 238.098V238.056C1141.5 221.298 1128.76 221.046 1128.76 203.911C1128.76 186.44 1141.92 186.44 1141.92 168.969C1141.92 151.833 1129.18 151.582 1128.76 134.823C1130.13 134.529 1131.52 134.319 1132.91 134.195C1133.72 134.111 1134.53 134.069 1135.34 134.069C1139.2 134.085 1143.03 134.839 1146.61 136.289C1159.14 141.233 1168.98 154.221 1172.84 170.77C1170.79 172.347 1168.84 174.054 1167.01 175.882V175.882Z" fill="#CB8252"/>
<path id="Shape_14" d="M1246.83 100.552H1204.93C1202.62 100.552 1200.74 98.6759 1200.74 96.362C1200.74 94.0481 1202.62 92.1724 1204.93 92.1724H1246.83C1249.14 92.1724 1251.02 94.0481 1251.02 96.362C1251.02 98.6759 1249.14 100.552 1246.83 100.552Z" fill="#BDC3C7"/>
<path id="Shape_15" d="M1238.45 117.31H1209.12C1206.81 117.31 1204.93 115.434 1204.93 113.121C1204.93 110.807 1206.81 108.931 1209.12 108.931H1238.45C1240.76 108.931 1242.64 110.807 1242.64 113.121C1242.64 115.434 1240.76 117.31 1238.45 117.31Z" fill="#BDC3C7"/>
<path id="Shape_16" d="M1236.73 201.103H1228.02C1231.52 191.665 1230.67 181.163 1225.71 172.404C1224.7 170.819 1223.52 169.345 1222.19 168.005C1210.5 156.4 1189.56 157.95 1172.84 170.77C1168.98 154.221 1159.14 141.233 1146.61 136.289L1147.7 127.743L1149.71 128.497C1162.58 134.125 1172.6 144.741 1177.49 157.908C1184.97 154.001 1193.27 151.905 1201.71 151.791C1211.52 151.577 1221.01 155.27 1228.1 162.056C1229.84 163.826 1231.39 165.763 1232.75 167.838C1238.64 177.893 1240.08 189.943 1236.73 201.103V201.103Z" fill="#B15EF1"/>
<path id="Shape_17" d="M1138.65 218.784C1143.08 223.831 1145.69 230.218 1146.07 236.925C1144.71 237.412 1143.33 237.804 1141.92 238.098C1140.55 238.389 1139.16 238.599 1137.77 238.726C1137.77 238.559 1137.73 238.349 1137.73 238.14C1137.61 232.828 1135.57 227.74 1131.99 223.811C1122.1 212.355 1122.1 195.382 1131.99 183.926C1135.74 179.853 1137.79 174.504 1137.73 168.969C1137.81 163.463 1135.77 158.137 1132.03 154.095C1127.63 149.078 1125.02 142.741 1124.62 136.08C1125.96 135.535 1127.35 135.114 1128.76 134.823C1130.13 134.529 1131.52 134.319 1132.91 134.195C1132.95 134.374 1132.96 134.557 1132.95 134.739C1133.08 140.051 1135.12 145.139 1138.69 149.068C1148.58 160.524 1148.58 177.497 1138.69 188.953C1134.94 193.026 1132.89 198.376 1132.95 203.91C1132.87 209.416 1134.91 214.742 1138.65 218.784V218.784Z" fill="#805333"/>
<path id="Shape_18" d="M1227.72 176.217C1223.41 180.015 1217.96 182.283 1212.22 182.669C1202.83 183.188 1195.33 190.671 1194.79 200.056C1193.77 213.177 1183.32 223.588 1170.2 224.566C1165.81 224.758 1161.64 226.545 1158.47 229.593C1158.34 229.677 1158.26 229.761 1158.13 229.845C1157.19 228.817 1156.33 227.71 1155.58 226.535C1154.82 225.299 1154.14 224.011 1153.57 222.68C1157.89 218.923 1163.31 216.673 1169.03 216.27C1178.43 215.773 1185.95 208.284 1186.5 198.883C1187.52 185.778 1197.94 175.375 1211.05 174.373C1215.43 174.186 1219.6 172.415 1222.78 169.388C1222.89 169.277 1223.02 169.179 1223.16 169.094C1224.09 170.13 1224.95 171.236 1225.71 172.404C1226.47 173.625 1227.14 174.899 1227.72 176.217Z" fill="#603E26"/>
</g>
</g>
</g>
<g id="orangeBag" clip-path="url(#clip1)">
<g id="Page 1_2">
<g id="066   Coffee Beans_2">
<path id="Shape_19" d="M703.838 170.77L677.611 136.289L694.035 7.83461C694.297 5.74591 696.077 4.18163 698.182 4.18961L845.323 4.18958L840.672 117.31L820.185 201.103H759.016L703.838 170.77Z" fill="#F6AC67"/>
<path id="Shape_20" d="M869.958 172.488C870.262 174.491 869.076 176.421 867.151 177.055L853.241 181.705L845.323 184.345L844.862 184.638L820.185 201.103L845.323 4.18958L869.958 172.488Z" fill="#F2A660"/>
<g id="Group_2">
<path id="Shape_21" d="M853.241 125.69V181.705L845.323 184.345L844.862 184.638V125.69C844.862 123.376 846.738 121.5 849.052 121.5C851.366 121.5 853.241 123.376 853.241 125.69Z" fill="#FC891E"/>
<path id="Shape_22" d="M819.724 41.8965H811.345C809.031 41.8965 807.155 40.0208 807.155 37.7069C807.155 35.393 809.031 33.5172 811.345 33.5172H819.724C822.038 33.5172 823.914 35.393 823.914 37.7069C823.914 40.0208 822.038 41.8965 819.724 41.8965Z" fill="#FC891E"/>
<path id="Shape_23" d="M794.586 41.8965H786.207C783.893 41.8965 782.017 40.0208 782.017 37.7069C782.017 35.393 783.893 33.5172 786.207 33.5172H794.586C796.9 33.5172 798.776 35.393 798.776 37.7069C798.776 40.0208 796.9 41.8965 794.586 41.8965Z" fill="#FC891E"/>
<path id="Shape_24" d="M769.448 41.8965H761.069C758.755 41.8965 756.879 40.0208 756.879 37.7069C756.879 35.393 758.755 33.5172 761.069 33.5172H769.448C771.762 33.5172 773.638 35.393 773.638 37.7069C773.638 40.0208 771.762 41.8965 769.448 41.8965Z" fill="#FC891E"/>
<path id="Shape_25" d="M743.929 41.8965H735.55C733.236 41.8965 731.36 40.0208 731.36 37.7069C731.36 35.393 733.236 33.5172 735.55 33.5172H743.929C746.243 33.5172 748.119 35.393 748.119 37.7069C748.119 40.0208 746.243 41.8965 743.929 41.8965Z" fill="#FC891E"/>
<path id="Shape_26" d="M718.791 41.8965H710.412C708.098 41.8965 706.222 40.0208 706.222 37.7069C706.222 35.393 708.098 33.5172 710.412 33.5172H718.791C721.105 33.5172 722.981 35.393 722.981 37.7069C722.981 40.0208 721.105 41.8965 718.791 41.8965Z" fill="#FC891E"/>
</g>
<path id="Shape_27" d="M722.185 75.4138C720.098 75.4141 718.329 76.9505 718.037 79.0169L710.831 129.293C710.661 130.495 711.021 131.712 711.817 132.628C712.614 133.544 713.769 134.07 714.983 134.069H791.402C793.489 134.069 795.258 132.532 795.55 130.466L802.756 80.19C802.926 78.9886 802.567 77.7725 801.771 76.8564C800.975 75.9402 799.822 75.414 798.608 75.4138H722.185Z" fill="#ECF0F1"/>
<path id="Shape_28" d="M756.712 172.404H756.67C746.363 182.208 738.529 174.75 728.222 185.057C717.706 195.531 725.583 203.408 715.067 213.882C704.718 224.188 696.926 216.731 686.577 226.535C685.816 225.299 685.144 224.011 684.566 222.68C678.784 209.064 683.728 190.043 698.015 175.882C699.844 174.054 701.789 172.346 703.838 170.77C720.555 157.95 741.503 156.4 753.193 168.005C753.547 168.337 753.87 168.702 754.156 169.094C755.093 170.13 755.947 171.236 756.712 172.404V172.404Z" fill="#A56A43"/>
<path id="Shape_29" d="M759.016 201.103C756.254 209.413 751.541 216.941 745.274 223.057C727.887 240.444 703.168 243.922 690.096 230.934C689.822 230.676 689.57 230.395 689.342 230.096C689.26 230.023 689.19 229.938 689.133 229.844C688.186 228.817 687.331 227.71 686.577 226.535C696.925 216.731 704.718 224.188 715.067 213.882C725.583 203.408 717.706 195.531 728.222 185.057C738.529 174.75 746.363 182.208 756.67 172.404H756.712C757.473 173.625 758.145 174.899 758.723 176.217C761.765 184.216 761.869 193.035 759.016 201.103V201.103Z" fill="#805333"/>
<path id="Shape_30" d="M659.763 203.91C659.763 221.046 672.5 221.297 672.919 238.056V238.098C671.55 238.389 670.165 238.599 668.771 238.726C645.937 240.486 626.958 216.396 627 186.44C626.958 162.517 639.108 142.281 655.615 136.08C656.957 135.535 658.345 135.114 659.763 134.823C660.182 151.582 672.919 151.833 672.919 168.969C672.919 186.44 659.763 186.44 659.763 203.91Z" fill="#CF976A"/>
<path id="Shape_31" d="M698.015 175.882C682.345 191.425 677.904 212.834 686.577 226.535C687.388 227.804 688.314 228.996 689.342 230.096C685.662 233.044 681.512 235.353 677.066 236.925C675.713 237.413 674.327 237.805 672.919 238.098V238.056C672.5 221.298 659.763 221.046 659.763 203.911C659.763 186.44 672.919 186.44 672.919 168.969C672.919 151.833 660.182 151.582 659.763 134.823C661.132 134.529 662.517 134.319 663.911 134.195C664.718 134.111 665.529 134.069 666.341 134.069C670.205 134.085 674.03 134.839 677.611 136.289C690.138 141.233 699.984 154.221 703.838 170.77C701.789 172.347 699.843 174.054 698.015 175.882V175.882Z" fill="#CB8252"/>
<path id="Shape_32" d="M777.828 100.552H735.931C733.617 100.552 731.741 98.6759 731.741 96.362C731.741 94.0481 733.617 92.1724 735.931 92.1724H777.828C780.142 92.1724 782.017 94.0481 782.017 96.362C782.017 98.6759 780.142 100.552 777.828 100.552Z" fill="#BDC3C7"/>
<path id="Shape_33" d="M769.448 117.31H740.121C737.807 117.31 735.931 115.434 735.931 113.121C735.931 110.807 737.807 108.931 740.121 108.931H769.448C771.762 108.931 773.638 110.807 773.638 113.121C773.638 115.434 771.762 117.31 769.448 117.31Z" fill="#BDC3C7"/>
<path id="Shape_34" d="M767.731 201.103H759.016C762.516 191.665 761.673 181.163 756.712 172.404C755.695 170.819 754.516 169.345 753.192 168.005C741.503 156.4 720.555 157.95 703.838 170.77C699.984 154.221 690.138 141.233 677.611 136.289L678.7 127.743L680.711 128.497C693.578 134.125 703.604 144.741 708.489 157.908C715.97 154.001 724.265 151.905 732.705 151.791C742.516 151.577 752.011 155.27 759.1 162.056C760.835 163.826 762.393 165.763 763.75 167.838C769.638 177.893 771.079 189.943 767.731 201.103V201.103Z" fill="#FC891E"/>
<path id="Shape_35" d="M669.651 218.784C674.083 223.831 676.694 230.218 677.067 236.925C675.713 237.412 674.327 237.804 672.919 238.098C671.55 238.389 670.165 238.599 668.771 238.726C668.771 238.559 668.729 238.349 668.729 238.14C668.605 232.828 666.567 227.74 662.989 223.811C653.101 212.355 653.101 195.382 662.989 183.926C666.738 179.853 668.791 174.504 668.729 168.969C668.812 163.463 666.771 158.137 663.031 154.095C658.63 149.078 656.022 142.741 655.616 136.08C656.957 135.535 658.345 135.114 659.763 134.823C661.132 134.529 662.517 134.319 663.911 134.195C663.946 134.374 663.96 134.557 663.953 134.739C664.077 140.051 666.115 145.139 669.693 149.068C679.581 160.524 679.581 177.497 669.693 188.953C665.944 193.026 663.891 198.376 663.953 203.91C663.87 209.416 665.911 214.742 669.651 218.784V218.784Z" fill="#805333"/>
<path id="Shape_36" d="M758.723 176.217C754.406 180.015 748.957 182.283 743.221 182.669C733.835 183.188 726.334 190.671 725.792 200.056C724.769 213.177 714.323 223.588 701.199 224.566C696.807 224.758 692.636 226.545 689.468 229.593C689.342 229.677 689.258 229.761 689.133 229.845C688.186 228.817 687.331 227.71 686.577 226.535C685.816 225.299 685.144 224.011 684.566 222.68C688.887 218.923 694.314 216.673 700.026 216.27C709.429 215.773 716.955 208.284 717.497 198.883C718.52 185.778 728.942 175.375 742.048 174.373C746.433 174.186 750.601 172.415 753.779 169.388C753.894 169.277 754.021 169.179 754.156 169.094C755.093 170.13 755.947 171.236 756.712 172.404C757.473 173.625 758.145 174.899 758.723 176.217Z" fill="#603E26"/>
</g>
</g>
</g>
<g id="greenBag" clip-path="url(#clip2)">
<g id="greenBag_2">
<g id="066   Coffee Beans_3">
<path id="Shape_37" d="M284.838 170.77L258.611 136.289L275.035 7.83461C275.297 5.74591 277.077 4.18163 279.182 4.18961L426.323 4.18958L421.672 117.31L401.185 201.103H340.016L284.838 170.77Z" fill="#98D683"/>
<path id="Shape_38" d="M450.958 172.488C451.262 174.491 450.076 176.421 448.151 177.055L434.241 181.705L426.323 184.345L425.862 184.638L401.185 201.103L426.323 4.18958L450.958 172.488Z" fill="#86C770"/>
<g id="Group_3">
<path id="Shape_39" d="M434.241 125.69V181.705L426.323 184.345L425.862 184.638V125.69C425.862 123.376 427.738 121.5 430.052 121.5C432.366 121.5 434.241 123.376 434.241 125.69Z" fill="#A5FF7B"/>
<path id="Shape_40" d="M400.724 41.8965H392.345C390.031 41.8965 388.155 40.0208 388.155 37.7069C388.155 35.393 390.031 33.5172 392.345 33.5172H400.724C403.038 33.5172 404.914 35.393 404.914 37.7069C404.914 40.0208 403.038 41.8965 400.724 41.8965Z" fill="#A5FF7B"/>
<path id="Shape_41" d="M375.586 41.8965H367.207C364.893 41.8965 363.017 40.0208 363.017 37.7069C363.017 35.393 364.893 33.5172 367.207 33.5172H375.586C377.9 33.5172 379.776 35.393 379.776 37.7069C379.776 40.0208 377.9 41.8965 375.586 41.8965Z" fill="#A5FF7B"/>
<path id="Shape_42" d="M350.448 41.8965H342.069C339.755 41.8965 337.879 40.0208 337.879 37.7069C337.879 35.393 339.755 33.5172 342.069 33.5172H350.448C352.762 33.5172 354.638 35.393 354.638 37.7069C354.638 40.0208 352.762 41.8965 350.448 41.8965Z" fill="#A5FF7B"/>
<path id="Shape_43" d="M324.929 41.8965H316.55C314.236 41.8965 312.36 40.0208 312.36 37.7069C312.36 35.393 314.236 33.5172 316.55 33.5172H324.929C327.243 33.5172 329.119 35.393 329.119 37.7069C329.119 40.0208 327.243 41.8965 324.929 41.8965Z" fill="#A5FF7B"/>
<path id="Shape_44" d="M299.791 41.8965H291.412C289.098 41.8965 287.222 40.0208 287.222 37.7069C287.222 35.393 289.098 33.5172 291.412 33.5172H299.791C302.105 33.5172 303.981 35.393 303.981 37.7069C303.981 40.0208 302.105 41.8965 299.791 41.8965Z" fill="#A5FF7B"/>
</g>
<path id="Shape_45" d="M303.185 75.4138C301.098 75.4141 299.329 76.9505 299.037 79.0169L291.831 129.293C291.661 130.495 292.021 131.712 292.817 132.628C293.614 133.544 294.769 134.07 295.983 134.069H372.402C374.489 134.069 376.258 132.532 376.55 130.466L383.756 80.19C383.926 78.9886 383.567 77.7725 382.771 76.8564C381.975 75.9402 380.822 75.414 379.608 75.4138H303.185Z" fill="#ECF0F1"/>
<path id="Shape_46" d="M337.712 172.404H337.67C327.363 182.208 319.529 174.75 309.222 185.057C298.706 195.531 306.583 203.408 296.067 213.882C285.718 224.188 277.926 216.731 267.577 226.535C266.816 225.299 266.144 224.011 265.566 222.68C259.784 209.064 264.728 190.043 279.015 175.882C280.844 174.054 282.789 172.346 284.838 170.77C301.555 157.95 322.503 156.4 334.193 168.005C334.547 168.337 334.87 168.702 335.156 169.094C336.093 170.13 336.947 171.236 337.712 172.404V172.404Z" fill="#A56A43"/>
<path id="Shape_47" d="M340.016 201.103C337.254 209.413 332.541 216.941 326.274 223.057C308.887 240.444 284.168 243.922 271.096 230.934C270.822 230.676 270.57 230.395 270.342 230.096C270.26 230.023 270.19 229.938 270.133 229.844C269.186 228.817 268.331 227.71 267.577 226.535C277.925 216.731 285.718 224.188 296.067 213.882C306.583 203.408 298.706 195.531 309.222 185.057C319.529 174.75 327.363 182.208 337.67 172.404H337.712C338.473 173.625 339.145 174.899 339.723 176.217C342.765 184.216 342.869 193.035 340.016 201.103V201.103Z" fill="#805333"/>
<path id="Shape_48" d="M240.763 203.91C240.763 221.046 253.5 221.297 253.919 238.056V238.098C252.55 238.389 251.165 238.599 249.771 238.726C226.937 240.486 207.958 216.396 208 186.44C207.958 162.517 220.108 142.281 236.615 136.08C237.957 135.535 239.345 135.114 240.763 134.823C241.182 151.582 253.919 151.833 253.919 168.969C253.919 186.44 240.763 186.44 240.763 203.91Z" fill="#CF976A"/>
<path id="Shape_49" d="M279.015 175.882C263.345 191.425 258.904 212.834 267.577 226.535C268.388 227.804 269.314 228.996 270.342 230.096C266.662 233.044 262.512 235.353 258.066 236.925C256.713 237.413 255.327 237.805 253.919 238.098V238.056C253.5 221.298 240.763 221.046 240.763 203.911C240.763 186.44 253.919 186.44 253.919 168.969C253.919 151.833 241.182 151.582 240.763 134.823C242.132 134.529 243.517 134.319 244.911 134.195C245.718 134.111 246.529 134.069 247.341 134.069C251.205 134.085 255.03 134.839 258.611 136.289C271.138 141.233 280.984 154.221 284.838 170.77C282.789 172.347 280.843 174.054 279.015 175.882V175.882Z" fill="#CB8252"/>
<path id="Shape_50" d="M358.828 100.552H316.931C314.617 100.552 312.741 98.6759 312.741 96.362C312.741 94.0481 314.617 92.1724 316.931 92.1724H358.828C361.142 92.1724 363.017 94.0481 363.017 96.362C363.017 98.6759 361.142 100.552 358.828 100.552Z" fill="#BDC3C7"/>
<path id="Shape_51" d="M350.448 117.31H321.121C318.807 117.31 316.931 115.434 316.931 113.121C316.931 110.807 318.807 108.931 321.121 108.931H350.448C352.762 108.931 354.638 110.807 354.638 113.121C354.638 115.434 352.762 117.31 350.448 117.31Z" fill="#BDC3C7"/>
<path id="Shape_52" d="M348.731 201.103H340.016C343.516 191.665 342.673 181.163 337.712 172.404C336.695 170.819 335.516 169.345 334.192 168.005C322.503 156.4 301.555 157.95 284.838 170.77C280.984 154.221 271.138 141.233 258.611 136.289L259.7 127.743L261.711 128.497C274.578 134.125 284.604 144.741 289.489 157.908C296.97 154.001 305.265 151.905 313.705 151.791C323.516 151.577 333.011 155.27 340.1 162.056C341.835 163.826 343.393 165.763 344.75 167.838C350.638 177.893 352.079 189.943 348.731 201.103V201.103Z" fill="#A5FF7B"/>
<path id="Shape_53" d="M250.651 218.784C255.083 223.831 257.694 230.218 258.067 236.925C256.713 237.412 255.327 237.804 253.919 238.098C252.55 238.389 251.165 238.599 249.771 238.726C249.771 238.559 249.729 238.349 249.729 238.14C249.605 232.828 247.567 227.74 243.989 223.811C234.101 212.355 234.101 195.382 243.989 183.926C247.738 179.853 249.791 174.504 249.729 168.969C249.812 163.463 247.771 158.137 244.031 154.095C239.63 149.078 237.022 142.741 236.616 136.08C237.957 135.535 239.345 135.114 240.763 134.823C242.132 134.529 243.517 134.319 244.911 134.195C244.946 134.374 244.96 134.557 244.953 134.739C245.077 140.051 247.115 145.139 250.693 149.068C260.581 160.524 260.581 177.497 250.693 188.953C246.944 193.026 244.891 198.376 244.953 203.91C244.87 209.416 246.911 214.742 250.651 218.784V218.784Z" fill="#805333"/>
<path id="Shape_54" d="M339.723 176.217C335.406 180.015 329.957 182.283 324.221 182.669C314.835 183.188 307.334 190.671 306.792 200.056C305.769 213.177 295.323 223.588 282.199 224.566C277.807 224.758 273.636 226.545 270.468 229.593C270.342 229.677 270.258 229.761 270.133 229.845C269.186 228.817 268.331 227.71 267.577 226.535C266.816 225.299 266.144 224.011 265.566 222.68C269.887 218.923 275.314 216.673 281.026 216.27C290.429 215.773 297.955 208.284 298.497 198.883C299.52 185.778 309.942 175.375 323.048 174.373C327.433 174.186 331.601 172.415 334.779 169.388C334.894 169.277 335.021 169.179 335.156 169.094C336.093 170.13 336.947 171.236 337.712 172.404C338.473 173.625 339.145 174.899 339.723 176.217Z" fill="#603E26"/>
</g>
</g>
</g>
</g>
<defs>
<filter id="filter0_d" x="0" y="163" width="1493.5" height="105.5" filterUnits="userSpaceOnUse" color-interpolation-filters="sRGB">
<feFlood flood-opacity="0" result="BackgroundImageFix"/>
<feColorMatrix in="SourceAlpha" type="matrix" values="0 0 0 0 0 0 0 0 0 0 0 0 0 0 0 0 0 0 127 0"/>
<feOffset dy="9"/>
<feGaussianBlur stdDeviation="8"/>
<feColorMatrix type="matrix" values="0 0 0 0 0 0 0 0 0 0 0 0 0 0 0 0 0 0 0.25 0"/>
<feBlend mode="normal" in2="BackgroundImageFix" result="effect1_dropShadow"/>
<feBlend mode="normal" in="SourceGraphic" in2="effect1_dropShadow" result="shape"/>
</filter>
<clipPath id="clip0">
<rect width="243" height="243" fill="white" transform="translate(1096)"/>
</clipPath>
<clipPath id="clip1">
<rect width="243" height="243" fill="white" transform="translate(627)"/>
</clipPath>
<clipPath id="clip2">
<rect width="243" height="243" fill="white" transform="translate(208)"/>
</clipPath>
</defs>
</svg>
