<svg width="604" height="604" viewBox="0 0 604 604" fill="none" xmlns="http://www.w3.org/2000/svg">
<g clip-path="url(#clip0)">
<path d="M213.76 348.053C237.762 360.86 230.522 388.489 230.522 388.489C241.162 366.672 272.783 373.686 272.783 373.686C252.145 364.249 254.541 331.862 254.541 331.862C244.182 352.445 213.76 348.053 213.76 348.053Z" fill="#B9A185"/>
<path d="M251.398 330.281C242.316 348.329 214.538 344.615 214.261 344.576C212.569 344.337 210.943 345.357 210.416 346.964C209.887 348.585 210.598 350.35 212.102 351.152C233.303 362.465 227.383 386.586 227.123 387.595C226.663 389.346 227.608 391.157 229.304 391.782C231.001 392.412 232.894 391.651 233.683 390.028C242.973 370.988 271.737 377.053 272.028 377.119C273.686 377.483 275.353 376.61 276.013 375.075C276.051 374.987 276.087 374.893 276.117 374.801C276.688 373.093 275.882 371.237 274.249 370.49C256.099 362.188 258.029 332.41 258.053 332.111C258.172 330.443 257.096 328.914 255.479 328.468C253.858 328.03 252.151 328.786 251.398 330.281ZM261.111 369.061C253.11 369.084 242.795 370.647 234.96 377.174C234.653 369.563 232.47 359.755 224.744 351.859C232.795 351.36 243.456 349.188 251.253 341.997C251.995 349.989 254.327 360.977 261.111 369.061Z" fill="#3A312A"/>
<path d="M230.218 410.486C247.195 419.545 242.075 439.087 242.075 439.087C249.598 423.652 271.963 428.615 271.963 428.615C257.369 421.941 259.063 399.033 259.063 399.033C251.737 413.591 230.218 410.486 230.218 410.486Z" fill="#B9A185"/>
<path d="M255.924 397.454C249.836 409.544 230.902 407.033 230.714 407.007C229.024 406.764 227.403 407.761 226.875 409.392C226.341 411.016 227.055 412.783 228.56 413.584C242.82 421.196 238.844 437.513 238.67 438.196C238.212 439.942 239.157 441.754 240.853 442.378C242.55 443.008 244.443 442.248 245.236 440.626C251.442 427.893 271.013 432.003 271.204 432.046C272.86 432.414 274.535 431.545 275.196 430.01C275.236 429.918 275.27 429.828 275.299 429.736C275.874 428.03 275.066 426.168 273.429 425.419C261.254 419.855 262.556 399.488 262.571 399.29C262.694 397.614 261.62 396.091 260.003 395.645C258.386 395.199 256.675 395.953 255.924 397.454ZM261.673 424.38C256.754 424.621 251.004 425.761 246.183 429.06C245.659 424.106 243.943 418.669 240.107 414.02C245.124 413.482 251.083 411.974 255.937 408.226C256.59 413.226 258.137 419.347 261.673 424.38Z" fill="#3A312A"/>
<path d="M172.806 385.799C189.783 394.858 184.664 414.401 184.664 414.401C192.187 398.966 214.556 403.931 214.556 403.931C199.962 397.257 201.656 374.348 201.656 374.348C194.326 388.904 172.806 385.799 172.806 385.799Z" fill="#B9A185"/>
<path d="M198.513 372.767C192.428 384.86 173.495 382.348 173.302 382.321C171.617 382.079 170.013 383.083 169.464 384.706C168.933 386.331 169.644 388.097 171.152 388.9C185.408 396.509 181.433 412.827 181.263 413.511C180.805 415.258 181.75 417.069 183.445 417.693C185.139 418.322 187.036 417.563 187.827 415.935C194.034 403.208 213.605 407.319 213.797 407.361C215.453 407.729 217.126 406.854 217.786 405.32C217.824 405.231 217.858 405.141 217.894 405.047C218.465 403.339 217.659 401.483 216.022 400.734C203.848 395.166 205.148 374.803 205.166 374.601C205.287 372.93 204.211 371.401 202.593 370.954C200.974 370.512 199.268 371.268 198.513 372.767ZM204.262 399.693C199.346 399.937 193.592 401.075 188.772 404.373C188.248 399.42 186.535 393.985 182.698 389.34C187.711 388.8 193.675 387.289 198.529 383.542C199.183 388.541 200.73 394.662 204.262 399.693Z" fill="#3A312A"/>
<path d="M311.157 216.177C281.681 218.759 259.107 235.908 260.733 254.475C262.364 273.043 287.579 285.998 317.057 283.412C346.532 280.824 369.105 263.675 367.479 245.108C365.846 226.544 340.632 213.589 311.157 216.177Z" fill="#A06E5C"/>
<path d="M310.85 212.677C279.49 215.43 255.436 234.315 257.231 254.783C258.127 265.009 265.092 273.968 276.846 280.003C288.062 285.768 302.453 288.224 317.361 286.911C332.27 285.604 346.015 280.682 356.055 273.051C362.114 268.451 366.433 263.179 368.844 257.579C370.622 253.45 371.36 249.144 370.977 244.799C370.085 234.575 363.118 225.62 351.367 219.58C340.148 213.82 325.757 211.364 310.85 212.677ZM348.15 225.835C357.678 230.73 363.293 237.683 363.975 245.42C364.65 253.149 360.331 260.978 351.8 267.455C342.799 274.292 330.351 278.715 316.746 279.91C303.145 281.107 290.115 278.917 280.06 273.752C270.533 268.858 264.913 261.903 264.24 254.169C263.952 250.926 264.531 247.727 265.853 244.658C271.294 232.021 289.338 221.618 311.461 219.676C325.066 218.48 338.096 220.67 348.15 225.835Z" fill="#3A312A"/>
<path d="M339.695 230.341C328.706 231.226 318.81 237.051 311.839 246.744L310.781 248.217C305.067 256.174 297.042 260.964 288.182 261.709C279.312 262.454 270.578 259.062 263.585 252.148L263.378 251.945C261.998 250.579 259.767 250.596 258.404 251.978C257.051 253.36 257.056 255.584 258.438 256.946L258.643 257.153C267.119 265.532 277.82 269.635 288.775 268.715C299.715 267.794 309.56 261.972 316.497 252.319L317.554 250.85C323.297 242.861 331.362 238.069 340.257 237.349C349.186 236.629 357.953 240.095 364.943 247.107C366.315 248.484 368.542 248.485 369.918 247.119C370.244 246.79 370.491 246.413 370.661 246.018C371.214 244.736 370.969 243.196 369.926 242.145C361.452 233.647 350.715 229.454 339.695 230.341Z" fill="#3A312A"/>
<path d="M320.114 153.501C290.94 148.56 264.764 159.452 261.648 177.828C258.527 196.202 279.645 215.103 308.817 220.049C337.991 224.99 364.166 214.098 367.287 195.724C370.404 177.348 349.285 158.446 320.114 153.501Z" fill="#A06E5C"/>
<path d="M320.698 150.025C289.66 144.771 261.628 156.977 258.171 177.23C254.734 197.486 277.19 218.248 308.228 223.502C336.252 228.253 361.843 218.764 369.073 201.962C369.849 200.158 370.417 198.26 370.752 196.302C374.183 176.038 351.734 155.284 320.698 150.025ZM363.815 195.127C361.03 211.563 336.614 221.184 309.402 216.573C282.189 211.962 262.319 194.838 265.107 178.408C265.356 176.926 265.782 175.51 266.368 174.148C272.306 160.358 294.752 152.765 319.52 156.963C346.732 161.564 366.602 178.687 363.815 195.127Z" fill="#3A312A"/>
<path d="M344.135 174.403C333.28 172.486 322.237 175.625 313.039 183.244L311.645 184.398C304.102 190.652 295.122 193.263 286.368 191.746C277.6 190.228 270.005 184.735 264.998 176.299L264.848 176.045C263.864 174.371 261.711 173.814 260.036 174.798C258.365 175.784 257.799 177.932 258.786 179.612L258.938 179.871C265.019 190.119 274.333 196.795 285.165 198.672C295.98 200.542 306.979 197.4 316.136 189.807L317.53 188.653C325.104 182.373 334.12 179.773 342.907 181.329C351.729 182.885 359.334 188.457 364.323 197.005C365.301 198.681 367.455 199.248 369.136 198.272C369.811 197.875 370.306 197.291 370.594 196.622C371.02 195.634 370.985 194.463 370.405 193.461C364.352 183.101 355.025 176.33 344.135 174.403Z" fill="#3A312A"/>
<path d="M348.89 93.5582C319.416 96.146 296.838 113.294 298.465 131.86C300.095 150.429 325.31 163.384 354.788 160.798C384.267 158.212 406.841 141.062 405.21 122.494C403.581 103.931 378.367 90.9764 348.89 93.5582Z" fill="#A06E5C"/>
<path d="M348.583 90.0577C348.581 90.0619 348.581 90.0619 348.583 90.0577C317.223 92.8112 293.168 111.71 294.965 132.174C296.76 152.642 323.736 167.051 355.096 164.298C379.864 162.128 400.077 149.883 406.592 134.752C408.326 130.724 409.092 126.49 408.71 122.19C406.92 101.724 379.945 87.3102 348.583 90.0577ZM401.707 122.801C403.158 139.404 381.983 154.878 354.483 157.293C326.984 159.704 303.43 148.161 301.971 131.554C301.689 128.309 302.267 125.114 303.588 122.045C309.031 109.404 327.069 99.0032 349.192 97.0608C376.69 94.6499 400.247 106.199 401.707 122.801Z" fill="#3A312A"/>
<path d="M377.426 107.726C366.436 108.611 356.545 114.438 349.574 124.131L348.516 125.604C342.798 133.559 334.771 138.354 325.917 139.096C317.046 139.845 308.309 136.447 301.331 129.545L301.122 129.336C299.745 127.971 297.52 127.976 296.149 129.355C294.783 130.731 294.782 132.957 296.167 134.325L296.376 134.534C304.852 142.913 315.555 147.022 326.51 146.102C337.45 145.181 347.295 139.359 354.233 129.706L355.291 128.233C361.034 120.244 369.095 115.45 377.992 114.736C386.921 114.016 395.688 117.482 402.678 124.494C404.05 125.871 406.277 125.872 407.649 124.504C407.979 124.177 408.224 123.805 408.398 123.401C408.95 122.119 408.706 120.579 407.662 119.532C399.187 111.035 388.446 106.839 377.426 107.726Z" fill="#3A312A"/>
<path d="M330.679 319.055C312.144 317.029 294.505 339.215 291.284 368.612C288.067 398.011 300.483 423.485 319.018 425.51C337.559 427.533 355.197 405.347 358.414 375.948C361.64 346.553 349.217 321.082 330.679 319.055Z" fill="#A06E5C"/>
<path d="M331.067 315.559C310.627 313.328 291.213 336.963 287.789 368.231C286.162 383.101 288.308 397.532 293.832 408.866C299.622 420.738 308.432 427.889 318.64 429.005C328.848 430.12 338.995 425.042 347.217 414.701C350.565 410.49 353.428 405.603 355.743 400.225C358.86 392.986 360.977 384.863 361.913 376.332C365.336 345.053 351.501 317.794 331.067 315.559ZM354.92 375.567C353.433 389.138 348.742 401.48 341.707 410.328C335.049 418.706 327.123 422.862 319.4 422.017C311.678 421.173 304.843 415.409 300.154 405.784C295.204 395.629 293.298 382.563 294.783 368.996C295.664 360.929 297.661 353.442 300.467 346.926C307.203 331.282 318.59 321.266 330.296 322.547C346.878 324.361 357.924 348.144 354.92 375.567Z" fill="#3A312A"/>
<path d="M328.253 316.074C318.257 322.722 312.042 332.431 310.76 343.409C309.482 354.355 313.264 365.184 321.42 373.912L322.656 375.231C329.344 382.392 332.478 391.193 331.48 400.017C330.478 408.863 325.439 416.757 317.291 422.261L317.05 422.427C315.441 423.514 315.023 425.701 316.11 427.309C317.203 428.915 319.389 429.337 320.996 428.244L321.235 428.083C327.916 423.566 332.881 417.674 335.773 410.956C337.158 407.74 338.069 404.34 338.467 400.809C339.703 389.905 335.913 379.118 327.794 370.43L326.558 369.111C319.838 361.922 316.709 353.083 317.746 344.226C318.785 335.331 323.898 327.415 332.148 321.929C333.768 320.852 334.203 318.672 333.13 317.054C332.053 315.435 329.867 314.999 328.253 316.074Z" fill="#3A312A"/>
<path d="M323.643 281.814C296.466 270.128 268.458 274.533 261.085 291.656C253.714 308.775 269.769 332.131 296.945 343.817C324.126 355.505 352.136 351.096 359.507 333.977C366.881 316.853 350.824 293.502 323.643 281.814Z" fill="#A06E5C"/>
<path d="M257.855 290.267C249.728 309.14 266.641 334.613 295.555 347.046C324.473 359.48 354.616 354.24 362.742 335.368C370.868 316.495 353.951 291.02 325.033 278.585C296.119 266.153 265.981 271.395 257.855 290.267ZM356.277 332.588C349.684 347.9 323.691 351.491 298.336 340.588C272.984 329.688 257.718 308.355 264.311 293.043C270.904 277.732 296.897 274.14 322.253 285.043C347.608 295.946 362.87 317.276 356.277 332.588Z" fill="#3A312A"/>
<path d="M309.746 309.063L308.118 309.857C299.306 314.15 289.972 314.571 281.82 311.031C273.658 307.481 267.577 300.357 264.7 290.959L264.612 290.677C264.04 288.821 262.071 287.78 260.214 288.352C258.358 288.924 257.316 290.893 257.89 292.744L257.975 293.02C261.463 304.415 268.936 313.099 279.019 317.479C289.087 321.848 300.512 321.385 311.2 316.175L312.829 315.381C321.675 311.068 331.051 310.665 339.223 314.249C347.425 317.845 353.498 325.056 356.329 334.539C356.883 336.401 358.841 337.458 360.705 336.904C361.74 336.596 362.531 335.845 362.93 334.921C363.243 334.193 363.316 333.353 363.067 332.528C359.639 321.029 352.176 312.255 342.046 307.809C331.952 303.384 320.48 303.828 309.746 309.063Z" fill="#3A312A"/>
<path d="M333.184 207.487C316.063 214.878 311.691 242.874 323.416 270.023C335.145 297.174 358.531 313.194 375.652 305.802C392.773 298.411 397.147 270.411 385.416 243.265C373.691 216.115 350.305 200.095 333.184 207.487Z" fill="#A06E5C"/>
<path d="M331.789 204.256C312.916 212.404 307.711 242.532 320.189 271.416C332.666 300.303 358.173 317.175 377.045 309.027C383.613 306.196 388.521 300.703 391.609 293.531C397.4 280.082 396.784 260.708 388.647 241.874C376.17 212.986 350.665 196.11 331.789 204.256ZM382.189 244.657C393.133 269.986 389.574 295.964 374.257 302.571C358.943 309.181 337.584 293.952 326.645 268.626C319.266 251.552 318.483 234.175 323.448 222.643C325.847 217.072 329.589 212.862 334.577 210.712C349.891 204.103 371.25 219.331 382.189 244.657Z" fill="#3A312A"/>
<path d="M330.117 206.078L329.982 206.344C324.683 217.02 324.157 228.463 328.48 238.568C332.796 248.655 341.419 256.16 352.772 259.711L354.503 260.251C363.894 263.183 370.982 269.32 374.462 277.538C377.952 285.78 377.44 295.191 372.956 304.03C372.102 305.781 372.776 307.874 374.512 308.75C376.24 309.623 378.36 308.925 379.236 307.194C379.655 306.358 380.044 305.523 380.408 304.678C384.706 294.698 384.911 284.183 380.937 274.796C376.642 264.649 367.998 257.1 356.602 253.535L354.866 252.993C345.514 250.078 338.439 243.966 334.945 235.803C331.449 227.622 331.933 218.289 336.285 209.468L336.417 209.206C337.23 207.468 336.57 205.355 334.832 204.493C333.09 203.63 330.981 204.337 330.117 206.078Z" fill="#3A312A"/>
<path d="M422.215 65.83C395.035 54.1424 367.025 58.5507 359.653 75.6701C352.28 92.7936 368.337 116.145 395.518 127.833C422.695 139.519 450.703 135.115 458.076 117.991C465.447 100.872 449.392 77.5158 422.215 65.83Z" fill="#A06E5C"/>
<path d="M356.419 74.2789C348.291 93.1556 365.205 118.625 394.128 131.061C423.042 143.494 453.18 138.252 461.306 119.38C469.433 100.507 452.518 75.0379 423.604 62.6051C394.683 50.1646 364.545 55.4065 356.419 74.2789ZM454.846 116.602C448.253 131.913 422.259 135.505 396.908 124.604C371.553 113.701 356.287 92.3686 362.88 77.057C369.472 61.7455 395.464 58.1583 420.823 69.0627C446.176 79.9593 461.438 101.29 454.846 116.602Z" fill="#3A312A"/>
<path d="M408.311 93.0747L406.687 93.8712C397.877 98.1696 388.536 98.5828 380.389 95.0445C372.224 91.4991 366.142 84.3694 363.264 74.9605L363.174 74.6828C362.6 72.8317 360.629 71.7947 358.771 72.3708C356.918 72.9446 355.887 74.9125 356.461 76.7738L356.54 77.0317C360.028 88.427 367.504 97.1126 377.583 101.491C387.649 105.864 399.079 105.403 409.773 100.191L411.397 99.3944C420.243 95.0816 429.619 94.6787 437.788 98.2608C445.99 101.857 452.064 109.063 454.894 118.551C455.447 120.413 457.41 121.471 459.269 120.916C460.31 120.606 461.1 119.859 461.498 118.934C461.811 118.207 461.882 117.36 461.636 116.542C458.207 105.043 450.74 96.2667 440.614 91.8231C430.521 87.3982 419.049 87.8415 408.311 93.0747Z" fill="#3A312A"/>
<path d="M439.301 32.7832C412.074 44.3589 395.922 67.6529 403.219 84.8015C410.52 101.952 438.506 106.467 465.736 94.8871C492.965 83.3071 509.119 60.0192 501.822 42.8706C494.521 25.7202 466.531 21.2032 439.301 32.7832Z" fill="#A06E5C"/>
<path d="M478.597 23.5817C466.142 21.5741 451.697 23.6887 437.928 29.547C424.155 35.4035 412.612 44.3363 405.423 54.6981C397.9 65.5487 395.961 76.7327 399.985 86.1762C408.029 105.086 438.146 110.442 467.113 98.1251C480.886 92.2687 492.43 83.3359 499.616 72.968C501.515 70.2369 503.053 67.4854 504.233 64.7443C507.742 56.5967 508.067 48.56 505.058 41.4917C501.038 32.05 491.639 25.6868 478.597 23.5817ZM498.584 44.2435C501.624 51.39 499.94 60.1628 493.842 68.9655C487.396 78.2515 476.928 86.3066 464.363 91.6509C438.958 102.456 412.986 98.7619 406.459 83.4244C404.224 78.1732 404.543 72.0476 407.286 65.6783C408.278 63.3744 409.584 61.0361 411.204 58.6982C417.65 49.4122 428.117 41.3571 440.681 36.017C453.246 30.6727 466.316 28.719 477.475 30.5181C488.049 32.2298 495.543 37.1012 498.584 44.2435Z" fill="#3A312A"/>
<path d="M470.827 37.4253C460.651 41.6648 453.054 50.2665 449.423 61.6399L448.874 63.3668C445.899 72.6955 439.75 79.7421 431.561 83.1869C423.358 86.6448 413.998 86.1181 405.225 81.7178L404.963 81.5853C403.232 80.7067 401.114 81.4003 400.239 83.1316C399.367 84.914 400.054 86.978 401.784 87.8566L402.058 87.9946C412.714 93.3385 424.163 93.9319 434.294 89.6683C444.409 85.4077 451.961 76.8168 455.577 65.5017L456.126 63.7747C459.106 54.3883 465.293 47.3477 473.531 43.9145C481.799 40.4692 491.213 41.0544 500.032 45.5587C501.76 46.4414 503.879 45.7581 504.767 44.0322C504.804 43.9583 504.834 43.8868 504.867 43.8112C505.591 42.1295 504.895 40.146 503.236 39.2982C492.541 33.8376 481.032 33.1738 470.827 37.4253Z" fill="#3A312A"/>
<path d="M344.239 156.69C330.125 168.872 334.355 196.894 353.686 219.277C373.027 241.659 400.139 249.929 414.257 237.749C428.375 225.568 424.145 197.546 404.808 175.166C385.473 152.781 358.357 144.51 344.239 156.69Z" fill="#A06E5C"/>
<path d="M373.595 149.607C360.958 145.752 349.718 147.322 341.945 154.029C334.17 160.741 330.972 171.628 332.944 184.683C334.829 197.148 341.248 210.247 351.032 221.574C360.809 232.893 372.84 241.155 384.905 244.833C397.543 248.688 408.782 247.118 416.557 240.407C419.561 237.817 421.884 234.6 423.486 230.88C426.033 224.964 426.767 217.772 425.559 209.753C423.673 197.288 417.25 184.187 407.468 172.866C397.691 161.547 385.66 153.285 373.595 149.607ZM402.15 177.461C411.073 187.789 416.915 199.634 418.605 210.804C420.199 221.39 417.844 230.008 411.959 235.086C406.079 240.161 397.202 241.237 386.959 238.108C376.144 234.813 365.279 227.306 356.352 216.975C347.425 206.645 341.585 194.806 339.897 183.632C338.886 176.959 339.457 171.061 341.488 166.344C342.677 163.582 344.37 161.225 346.543 159.35C352.417 154.277 361.3 153.199 371.539 156.326C382.352 159.625 393.223 167.13 402.15 177.461Z" fill="#3A312A"/>
<path d="M344.909 153.341C342.988 153.043 341.192 154.353 340.892 156.277L340.849 156.563C339.007 168.332 341.925 179.407 349.08 187.75C356.222 196.078 366.704 200.655 378.599 200.632L380.41 200.628C390.253 200.611 398.859 204.346 404.643 211.138C410.445 217.958 412.758 227.094 411.154 236.863C410.843 238.777 412.143 240.586 414.058 240.897C415.686 241.168 417.234 240.269 417.859 238.819C417.969 238.562 418.052 238.289 418.099 237.995C420.042 226.155 417.168 214.999 410 206.581C402.856 198.188 392.344 193.578 380.396 193.597L378.589 193.603C368.787 193.618 360.208 189.914 354.422 183.171C348.627 176.414 346.28 167.348 347.799 157.638L347.844 157.348C348.138 155.437 346.825 153.636 344.909 153.341Z" fill="#3A312A"/>
<path d="M420.471 116.445C391.731 123.489 372.036 143.874 376.475 161.976C380.914 180.078 407.811 189.043 436.548 181.997C465.289 174.954 484.988 154.57 480.543 136.47C476.104 118.369 449.21 109.405 420.471 116.445Z" fill="#A06E5C"/>
<path d="M460.734 113.693C448.768 109.703 434.168 109.469 419.633 113.03C405.097 116.595 392.267 123.55 383.499 132.625C374.321 142.121 370.616 152.845 373.058 162.814C377.95 182.77 406.806 192.905 437.384 185.416C459.192 180.07 476.077 167.171 482.189 152.978C484.645 147.273 485.364 141.354 483.963 135.634C481.517 125.664 473.267 117.871 460.734 113.693ZM477.128 137.304C481.102 153.487 462.523 172.01 435.71 178.583C408.897 185.155 383.857 177.328 379.887 161.136C378.863 156.949 379.353 152.501 381.268 148.053C382.803 144.488 385.249 140.926 388.557 137.505C396.415 129.374 408.041 123.108 421.309 119.859C434.569 116.607 447.781 116.788 458.505 120.363C468.668 123.746 475.278 129.767 477.128 137.304Z" fill="#3A312A"/>
<path d="M450.839 126.105C440.111 128.652 431.221 135.915 425.812 146.554L424.986 148.172C420.547 156.906 413.346 162.863 404.708 164.943C396.053 167.031 386.903 165.01 378.943 159.241L378.708 159.07C377.133 157.934 374.934 158.284 373.793 159.856C372.659 161.436 373.006 163.629 374.581 164.764L374.817 164.935C384.469 171.925 395.671 174.356 406.358 171.776C417.028 169.199 425.872 161.951 431.261 151.358L432.081 149.743C436.544 140.975 443.78 135.007 452.466 132.943C461.178 130.874 470.373 132.964 478.35 138.831C479.913 139.982 482.116 139.648 483.267 138.085C483.429 137.861 483.563 137.63 483.666 137.39C484.3 135.919 483.862 134.156 482.518 133.169C472.846 126.061 461.595 123.55 450.839 126.105Z" fill="#3A312A"/>
<path d="M785.038 143.874C780.834 146.76 776.038 148.474 771.11 148.956C766.211 149.426 761.166 148.686 756.472 146.668L479.005 27.3593L312.265 414.6L589.732 533.908C599.1 537.936 605.758 546.484 607.343 556.558C609.097 567.591 615.859 575.192 624.301 578.822C638.342 584.86 657.025 579.884 664.977 561.415L830.122 177.878C840.938 152.759 809.622 127.021 785.038 143.874Z" fill="#FCE8CB"/>
<path d="M783.046 140.974C779.405 143.479 775.159 145.027 770.773 145.453C766.379 145.875 761.912 145.181 757.862 143.439L480.395 24.1303C478.611 23.3634 476.542 24.1875 475.774 25.97L309.035 413.211C308.267 414.993 309.092 417.061 310.875 417.828L489.793 494.762C491.577 495.529 493.646 494.704 494.414 492.922C495.183 491.135 494.357 489.071 492.574 488.304L316.886 412.76L480.845 31.9769L755.081 149.896C760.217 152.105 765.874 152.988 771.449 152.45C777.022 151.907 782.409 149.943 787.029 146.773C799.217 138.416 811.997 142.392 819.228 148.336C825.97 153.876 832.023 164.57 826.893 176.485L661.747 560.026C654.415 577.053 637.7 580.757 625.692 575.593C617.67 572.144 612.25 565.005 610.819 556.01C609.035 544.685 601.672 535.215 591.127 530.681L523.187 501.468C521.403 500.701 519.336 501.521 518.566 503.307C517.799 505.09 518.623 507.158 520.406 507.925L588.346 537.139C596.662 540.714 602.466 548.178 603.871 557.107C605.689 568.537 612.631 577.631 622.911 582.051C638.264 588.653 659.403 583.253 668.209 562.8L833.354 179.263C838.846 166.508 835.056 152.237 823.696 142.903C811.686 133.04 795.733 132.279 783.046 140.974Z" fill="#3A312A"/>
<path d="M477.189 31.5759L314.193 410.122C307.821 424.921 314.659 442.081 329.466 448.448L364.971 463.715C379.777 470.081 396.948 463.245 403.32 448.446L566.316 69.8997C572.688 55.1011 565.85 37.9405 551.043 31.574L515.538 16.307C500.732 9.94055 483.563 16.7731 477.189 31.5759Z" fill="#FCE8CB"/>
<path d="M473.959 30.1869L310.963 408.733C303.834 425.289 311.511 444.554 328.075 451.677L363.58 466.944C380.145 474.066 399.42 466.395 406.55 449.835L521.604 182.632C522.371 180.849 521.547 178.781 519.764 178.014C517.98 177.247 515.91 178.071 515.143 179.853L400.09 447.057C394.494 460.052 379.363 466.077 366.361 460.486L330.856 445.219C317.854 439.629 311.828 424.506 317.424 411.511L480.419 32.965C486.015 19.9699 501.146 13.9453 514.148 19.5358L549.653 34.8028C562.655 40.3934 568.681 55.5156 563.085 68.5106L528.05 149.878C527.282 151.66 528.107 153.729 529.89 154.496C531.674 155.263 533.743 154.439 534.511 152.656L569.546 71.2887C576.675 54.7328 568.998 35.4677 552.434 28.3452L516.929 13.0782C500.364 5.95573 481.087 13.6309 473.959 30.1869Z" fill="#3A312A"/>
<path d="M616.494 220.235C570.583 204.245 520.386 228.481 504.381 274.369C488.377 320.257 512.621 370.418 558.533 386.407C604.44 402.395 654.636 378.16 670.639 332.276C686.644 286.388 662.402 236.223 616.494 220.235Z" fill="#B9A185"/>
<path d="M503.409 267.169C483.454 313.512 504.944 367.441 551.314 387.379C597.684 407.318 651.646 385.833 671.601 339.49C691.557 293.144 670.067 239.215 623.697 219.276C577.327 199.337 523.365 220.823 503.409 267.169ZM665.14 336.712C646.717 379.498 596.902 399.329 554.095 380.922C511.288 362.515 491.447 312.733 509.869 269.947C528.292 227.162 578.109 207.327 620.916 225.734C663.723 244.141 683.563 293.927 665.14 336.712Z" fill="#3A312A"/>
<path d="M601.61 271.139C573.31 258.97 544.147 263.555 536.47 281.385C528.794 299.211 545.512 323.529 573.812 335.698C602.112 347.867 631.28 343.279 638.956 325.453C646.633 307.624 629.91 283.308 601.61 271.139Z" fill="#A06E5C"/>
<path d="M533.24 279.996C524.809 299.575 542.384 326.011 572.421 338.927C602.458 351.842 633.756 346.421 642.186 326.843C650.618 307.26 633.037 280.826 603 267.91C572.963 254.995 541.672 260.413 533.24 279.996ZM635.725 324.064C628.828 340.082 601.676 343.853 575.202 332.469C548.728 321.086 532.803 298.792 539.7 282.774C546.597 266.757 573.745 262.984 600.22 274.368C626.694 285.752 642.624 308.042 635.725 324.064Z" fill="#3A312A"/>
<path d="M587.205 299.638L585.509 300.464C576.301 304.955 566.533 305.389 558.007 301.688C549.464 297.979 543.103 290.525 540.099 280.714L540.012 280.417C539.446 278.56 537.485 277.512 535.628 278.074C533.769 278.639 532.716 280.598 533.282 282.456L533.371 282.758C536.99 294.579 544.744 303.593 555.206 308.136C565.646 312.67 577.504 312.189 588.595 306.783L590.289 305.952C599.538 301.444 609.34 301.025 617.891 304.771C626.47 308.535 632.826 316.071 635.781 325.997C636.337 327.855 638.297 328.917 640.156 328.361C641.193 328.05 641.987 327.305 642.385 326.38C642.7 325.649 642.767 324.81 642.523 323.988C638.965 312.059 631.22 302.944 620.712 298.336C610.243 293.74 598.344 294.204 587.205 299.638Z" fill="#3A312A"/>
<path d="M787.03 146.773C782.403 149.936 777.01 151.902 771.443 152.443C765.876 152.984 760.209 152.101 755.081 149.897L569.98 70.3046L556.17 102.378L741.271 181.97C746.399 184.175 752.067 185.053 757.633 184.516C763.199 183.975 768.592 182.009 773.221 178.842C785.396 170.48 798.179 174.472 805.418 180.42C812.149 185.94 818.217 196.636 813.081 208.563L826.891 176.489C832.027 164.562 825.959 153.866 819.229 148.346C811.987 142.403 799.205 138.411 787.03 146.773Z" fill="#CCAE8B"/>
<path d="M482.157 28.919L468.346 60.9926C472.981 50.2299 485.519 45.2377 496.308 49.8769L539.877 68.6111C550.666 73.2503 555.659 85.781 551.025 96.5436L564.835 64.4701C569.47 53.7075 564.476 41.1768 553.687 36.5375L510.118 17.8034C499.329 13.1642 486.791 18.1564 482.157 28.919Z" fill="#CCAE8B"/>
</g>
<defs>
<clipPath id="clip0">
<rect width="604" height="604" fill="white"/>
</clipPath>
</defs>
</svg>
