<svg width="276" height="276" viewBox="0 0 276 276" fill="none" xmlns="http://www.w3.org/2000/svg">
<rect width="276" height="276" fill="#B5A595"/>
<path d="M74.5407 111.941C68.3236 118.341 64.9678 126.99 65.2402 135.909C65.7878 150.465 72.0349 164.223 82.6342 174.214C92.7268 184.78 106.552 190.978 121.154 191.484C130.037 191.73 138.65 188.413 145.075 182.274C151.291 175.872 154.645 167.224 154.371 158.306C153.823 143.753 147.579 129.997 136.986 120.004C117.597 100.616 89.5934 96.9862 74.5407 111.941V111.941ZM88.6647 168.154C79.734 159.721 74.4081 148.163 73.8002 135.896C73.7627 132.528 74.334 129.182 75.4866 126.017C79.2243 128.232 83.4152 129.571 87.7445 129.934C97.3569 130.436 105.044 138.106 105.566 147.717C106.635 161.095 117.271 171.712 130.651 172.755C133.808 172.966 136.875 173.896 139.618 175.473C139.404 175.704 139.246 175.986 139.023 176.209C127.322 187.833 104.736 184.217 88.6818 168.154H88.6647ZM145.786 158.31C145.824 161.677 145.255 165.024 144.104 168.188C140.365 165.972 136.172 164.633 131.841 164.272C122.237 163.764 114.559 156.101 114.032 146.497C112.964 133.12 102.33 122.505 88.9514 121.459C85.7956 121.247 82.7301 120.315 79.9891 118.737C80.2031 118.506 80.3572 118.228 80.5798 118.005C85.4008 113.425 91.858 110.97 98.5044 111.192C110.831 111.758 122.457 117.088 130.93 126.06C139.861 134.492 145.189 146.047 145.803 158.314L145.786 158.31Z" fill="#2F2724"/>
<path d="M155.313 186.438C155.257 188.46 156.624 190.246 158.591 190.718C161.115 191.318 163.701 191.614 166.295 191.6C190.863 191.553 210.807 165.633 210.769 133.82C210.812 105.619 195.327 81.6809 173.961 76.8959C171.43 76.3182 168.844 76.0225 166.248 76.0142C151.867 76.0613 138.347 85.0878 130.082 100.17C129.308 101.515 129.322 103.173 130.118 104.504C130.915 105.835 132.369 106.631 133.92 106.584C135.47 106.538 136.874 105.656 137.589 104.279C144.437 91.7945 154.889 84.5913 166.265 84.5913C166.95 84.5913 167.644 84.6213 168.345 84.6812C167.48 88.7393 165.583 92.5058 162.837 95.6166C157.894 101.234 155.207 108.482 155.291 115.964C155.209 123.466 157.908 130.732 162.867 136.362C166.68 140.529 168.768 145.989 168.709 151.637C168.789 157.264 166.703 162.707 162.884 166.84C158.118 172.269 155.435 179.215 155.313 186.438ZM169.724 171.989C179.793 160.267 179.793 142.948 169.724 131.226C165.908 127.062 163.818 121.603 163.877 115.955C163.797 110.327 165.884 104.884 169.706 100.753C173.149 96.7162 175.546 91.8952 176.687 86.7142C191.547 92.9373 202.234 112.142 202.2 133.794C202.234 160.895 186.12 182.971 166.278 183.014C165.572 183.014 164.887 182.988 164.215 182.933C165.077 178.868 166.974 175.095 169.724 171.98V171.989Z" fill="#2F2724"/>
<path d="M31 131.654C31 134.018 32.9162 135.934 35.28 135.934H48.12C50.4838 135.934 52.4 134.018 52.4 131.654C52.4 129.29 50.4838 127.374 48.12 127.374H35.28C32.9162 127.374 31 129.29 31 131.654Z" fill="#2F2724"/>
<path d="M223.6 131.654C223.6 134.018 225.516 135.934 227.88 135.934H240.72C243.084 135.934 245 134.018 245 131.654C245 129.29 243.084 127.374 240.72 127.374H227.88C225.516 127.374 223.6 129.29 223.6 131.654Z" fill="#2F2724"/>
<path d="M58.0194 172.888L46.8914 179.308C45.5562 180.067 44.7302 181.483 44.7268 183.019C44.7234 184.555 45.5433 185.975 46.8751 186.74C48.2069 187.505 49.8464 187.497 51.1714 186.721L62.2994 180.301C63.6345 179.541 64.4606 178.125 64.464 176.589C64.4673 175.053 63.6475 173.634 62.3157 172.869C60.9839 172.104 59.3443 172.111 58.0194 172.888V172.888Z" fill="#2F2724"/>
<path d="M224.82 76.5877L213.692 83.0077C212.357 83.7668 211.53 85.1831 211.527 86.719C211.524 88.2548 212.344 89.6748 213.675 90.4397C215.007 91.2047 216.647 91.1974 217.972 90.4207L229.1 84.0007C230.435 83.2416 231.261 81.8253 231.264 80.2894C231.268 78.7536 230.448 77.3336 229.116 76.5687C227.784 75.8037 226.145 75.811 224.82 76.5877V76.5877Z" fill="#2F2724"/>
<path d="M213.7 180.301L224.828 186.721C225.478 187.098 226.216 187.296 226.968 187.294C228.905 187.294 230.6 185.993 231.102 184.122C231.603 182.251 230.785 180.276 229.108 179.308L217.98 172.888C216.655 172.111 215.015 172.104 213.683 172.869C212.352 173.634 211.532 175.053 211.535 176.589C211.539 178.125 212.365 179.541 213.7 180.301V180.301Z" fill="#2F2724"/>
<path d="M62.2995 83.0077L51.1715 76.5877C49.1263 75.4249 46.5259 76.1309 45.3495 78.1683C44.1731 80.2058 44.8619 82.8108 46.8915 84.0007L58.0195 90.4207C59.3444 91.1974 60.984 91.2047 62.3158 90.4397C63.6476 89.6748 64.4674 88.2548 64.4641 86.719C64.4607 85.1831 63.6346 83.7668 62.2995 83.0077V83.0077Z" fill="#2F2724"/>
</svg>
