<svg width="165" height="89" viewBox="0 0 165 89" fill="none" xmlns="http://www.w3.org/2000/svg">
<path d="M33.5216 27.6704C28.7351 32.5983 26.1514 39.2565 26.3612 46.1232C26.7828 57.33 31.5924 67.922 39.7527 75.6147C47.5229 83.7489 58.1667 88.5208 69.409 88.9106C76.2482 89.0995 82.8791 86.5463 87.8255 81.8195C92.6108 76.891 95.1933 70.2329 94.9826 63.3667C94.5605 52.1624 89.7536 41.5723 81.5977 33.8784C66.6707 18.9514 45.1106 16.1572 33.5216 27.6704ZM44.3955 70.9488C37.5198 64.4566 33.4195 55.5582 32.9515 46.1133C32.9226 43.5207 33.3624 40.9443 34.2498 38.5081C37.1275 40.213 40.354 41.2438 43.6871 41.5232C51.0876 41.9097 57.0055 47.8148 57.4081 55.2145C58.2307 65.5144 66.4195 73.6878 76.7209 74.4911C79.1514 74.6537 81.5125 75.3694 83.6242 76.5835C83.4595 76.7615 83.3376 76.9789 83.1662 77.1503C74.1573 86.0999 56.7688 83.3155 44.4087 70.9488H44.3955ZM88.3725 63.37C88.4025 65.9624 87.9638 68.5388 87.0776 70.9752C84.1992 69.2692 80.9713 68.2383 77.637 67.9601C70.2427 67.569 64.3312 61.6689 63.9259 54.2754C63.1035 43.9766 54.9165 35.8036 44.6163 34.9988C42.1867 34.835 39.8266 34.1182 37.7163 32.9031C37.881 32.7251 37.9997 32.511 38.171 32.3396C41.8827 28.8131 46.8541 26.9233 51.9711 27.0937C61.4616 27.5295 70.4121 31.6338 76.9351 38.5411C83.811 45.0324 87.9135 53.9291 88.3857 63.3733L88.3725 63.37Z" fill="#2F2724"/>
<path d="M95.7075 85.0257C95.6644 86.5825 96.7173 87.9569 98.2316 88.3208C100.175 88.7829 102.166 89.0108 104.163 88.9996C123.077 88.9634 138.432 69.008 138.403 44.5151C138.436 22.8034 126.514 4.3737 110.064 0.689725C108.116 0.245012 106.125 0.017359 104.127 0.0109253C93.0549 0.0471719 82.6456 6.99663 76.2827 18.6087C75.6867 19.6437 75.6973 20.9201 76.3105 21.945C76.9237 22.9698 78.0434 23.5827 79.2372 23.5468C80.4309 23.5109 81.5118 22.8319 82.0623 21.7721C87.3346 12.1601 95.3813 6.61439 104.14 6.61439C104.667 6.61439 105.201 6.63746 105.741 6.68359C105.075 9.80795 103.614 12.7077 101.5 15.1027C97.6951 19.4273 95.6257 25.0077 95.6911 30.7678C95.6278 36.5435 97.7056 42.1381 101.523 46.4725C104.459 49.6808 106.067 53.8843 106.021 58.2328C106.083 62.565 104.477 66.7551 101.537 69.9372C97.8674 74.1173 95.8017 79.4644 95.7075 85.0257ZM106.802 73.9012C114.555 64.8766 114.555 51.543 106.802 42.5183C103.864 39.3124 102.255 35.1094 102.301 30.7612C102.239 26.4283 103.846 22.2377 106.789 19.0569C109.44 15.9493 111.285 12.2376 112.163 8.24879C123.604 13.0399 131.832 27.8252 131.806 44.4954C131.832 65.3602 119.426 82.3566 104.15 82.3895C103.606 82.3895 103.079 82.3698 102.561 82.3269C103.225 79.1977 104.686 76.293 106.802 73.8947V73.9012Z" fill="#2F2724"/>
<path d="M0 42.8478C0 44.6676 1.47529 46.1429 3.29514 46.1429H13.1806C15.0004 46.1429 16.4757 44.6676 16.4757 42.8478C16.4757 41.0279 15.0004 39.5526 13.1806 39.5526H3.29514C1.47529 39.5526 0 41.0279 0 42.8478Z" fill="#2F2724"/>
<path d="M148.281 42.8478C148.281 44.6676 149.757 46.1429 151.577 46.1429H161.462C163.282 46.1429 164.757 44.6676 164.757 42.8478C164.757 41.0279 163.282 39.5526 161.462 39.5526H151.577C149.757 39.5526 148.281 41.0279 148.281 42.8478Z" fill="#2F2724"/>
<path d="M20.802 74.5932L12.2346 79.5359C11.2067 80.1204 10.5707 81.2108 10.5681 82.3932C10.5655 83.5757 11.1967 84.6688 12.222 85.2578C13.2474 85.8467 14.5097 85.8411 15.5298 85.2431L24.0971 80.3004C25.1251 79.716 25.761 78.6256 25.7636 77.4431C25.7662 76.2607 25.1351 75.1675 24.1097 74.5786C23.0844 73.9896 21.8221 73.9952 20.802 74.5932Z" fill="#2F2724"/>
<path d="M149.221 0.452478L140.653 5.3952C139.625 5.97963 138.989 7.07003 138.987 8.25247C138.984 9.43492 139.615 10.5281 140.641 11.1171C141.666 11.706 142.928 11.7004 143.948 11.1024L152.516 6.15967C153.544 5.57524 154.18 4.48483 154.182 3.30239C154.185 2.11994 153.554 1.02675 152.528 0.437809C151.503 -0.151137 150.241 -0.145539 149.221 0.452478Z" fill="#2F2724"/>
<path d="M140.66 80.3004L149.227 85.2431C149.727 85.5335 150.296 85.6859 150.875 85.6847C152.366 85.6846 153.671 84.6829 154.057 83.2424C154.443 81.8019 153.814 80.2817 152.522 79.5359L143.955 74.5932C142.935 73.9952 141.672 73.9896 140.647 74.5786C139.622 75.1675 138.991 76.2607 138.993 77.4431C138.996 78.6256 139.632 79.716 140.66 80.3004Z" fill="#2F2724"/>
<path d="M24.0972 5.39522L15.5298 0.452502C13.9552 -0.442757 11.9532 0.100773 11.0475 1.66942C10.1418 3.23806 10.672 5.24362 12.2346 6.15969L20.802 11.1024C21.8221 11.7004 23.0844 11.706 24.1097 11.1171C25.1351 10.5281 25.7663 9.43494 25.7637 8.2525C25.7611 7.07005 25.1251 5.97965 24.0972 5.39522Z" fill="#2F2724"/>
</svg>
