<svg width="322" height="226" viewBox="0 0 322 226" fill="none" xmlns="http://www.w3.org/2000/svg">
<g id="orangebag__shelf">
<g id="upper_shlef" filter="url(#filter0_d)">
<path id="Rectangle 10" d="M35.7437 163L306 167V200L35.7437 200.5V163Z" fill="#77410F"/>
<path id="Rectangle 11" d="M16 127H281.594L306 167H35.6442L16 127Z" fill="#854C17"/>
<path id="Rectangle 12" d="M16 127L35.8426 167L35.7434 200.5L16.0992 157L16 127Z" fill="#8C4F16"/>
</g>
<g id="redBag" clip-path="url(#clip0)">
<g id="redBag_2">
<g id="066   Coffee Beans">
<path id="Shape" d="M122.558 141.255L100.864 112.733L114.449 6.48054C114.666 4.75285 116.138 3.45895 117.879 3.46554L239.588 3.46552L235.742 97.0345L218.795 166.345H168.199L122.558 141.255Z" fill="#F6AC67"/>
<path id="Shape_2" d="M259.965 142.675C260.217 144.332 259.235 145.929 257.643 146.453L246.138 150.299L239.588 152.483L239.207 152.725L218.795 166.345L239.588 3.46552L259.965 142.675Z" fill="#F2A660"/>
<g id="Group">
<path id="Shape_3" d="M246.138 103.966V150.299L239.588 152.483L239.207 152.725V103.966C239.207 102.052 240.758 100.5 242.672 100.5C244.586 100.5 246.138 102.052 246.138 103.966Z" fill="#FC891E"/>
<path id="Shape_4" d="M218.414 34.6552H211.483C209.569 34.6552 208.017 33.1036 208.017 31.1896C208.017 29.2757 209.569 27.7241 211.483 27.7241H218.414C220.328 27.7241 221.879 29.2757 221.879 31.1896C221.879 33.1036 220.328 34.6552 218.414 34.6552Z" fill="#FC891E"/>
<path id="Shape_5" d="M197.62 34.6552H190.689C188.775 34.6552 187.224 33.1036 187.224 31.1896C187.224 29.2757 188.775 27.7241 190.689 27.7241H197.62C199.534 27.7241 201.086 29.2757 201.086 31.1896C201.086 33.1036 199.534 34.6552 197.62 34.6552Z" fill="#FC891E"/>
<path id="Shape_6" d="M176.827 34.6552H169.896C167.982 34.6552 166.431 33.1036 166.431 31.1896C166.431 29.2757 167.982 27.7241 169.896 27.7241H176.827C178.741 27.7241 180.293 29.2757 180.293 31.1896C180.293 33.1036 178.741 34.6552 176.827 34.6552Z" fill="#FC891E"/>
<path id="Shape_7" d="M155.719 34.6552H148.788C146.874 34.6552 145.322 33.1036 145.322 31.1896C145.322 29.2757 146.874 27.7241 148.788 27.7241H155.719C157.633 27.7241 159.184 29.2757 159.184 31.1896C159.184 33.1036 157.633 34.6552 155.719 34.6552Z" fill="#FC891E"/>
<path id="Shape_8" d="M134.926 34.6552H127.995C126.081 34.6552 124.529 33.1036 124.529 31.1896C124.529 29.2757 126.081 27.7241 127.995 27.7241H134.926C136.84 27.7241 138.391 29.2757 138.391 31.1896C138.391 33.1036 136.84 34.6552 134.926 34.6552Z" fill="#FC891E"/>
</g>
<path id="Shape_9" d="M137.733 62.3793C136.007 62.3796 134.544 63.6504 134.302 65.3597L128.342 106.946C128.201 107.94 128.499 108.947 129.158 109.705C129.817 110.463 130.772 110.897 131.776 110.897H194.987C196.713 110.896 198.176 109.626 198.418 107.916L204.379 66.33C204.519 65.3362 204.222 64.3304 203.564 63.5726C202.906 62.8148 201.951 62.3795 200.948 62.3793H137.733Z" fill="#ECF0F1"/>
<path id="Shape_10" d="M166.292 142.606H166.258C157.733 150.715 151.252 144.547 142.727 153.072C134.028 161.736 140.544 168.251 131.845 176.915C123.285 185.44 116.839 179.271 108.28 187.38C107.65 186.359 107.094 185.293 106.616 184.192C101.834 172.929 105.923 157.196 117.74 145.482C119.253 143.97 120.862 142.558 122.558 141.254C136.385 130.65 153.713 129.368 163.381 138.967C163.675 139.242 163.941 139.544 164.178 139.868C164.953 140.725 165.66 141.64 166.292 142.606V142.606Z" fill="#A56A43"/>
<path id="Shape_11" d="M168.199 166.345C165.914 173.219 162.016 179.445 156.832 184.504C142.45 198.886 122.003 201.762 111.191 191.019C110.964 190.806 110.755 190.574 110.567 190.326C110.499 190.266 110.441 190.196 110.394 190.118C109.611 189.269 108.904 188.353 108.28 187.381C116.84 179.271 123.285 185.44 131.845 176.915C140.544 168.251 134.029 161.736 142.727 153.072C151.252 144.547 157.733 150.715 166.258 142.606H166.293C166.922 143.616 167.478 144.67 167.956 145.76C170.472 152.376 170.558 159.671 168.199 166.345V166.345Z" fill="#805333"/>
<path id="Shape_12" d="M86.1004 168.667C86.1004 182.841 96.6356 183.049 96.9822 196.911V196.945C95.8498 197.186 94.7042 197.36 93.5513 197.465C74.6642 198.921 58.9654 178.994 59.0001 154.216C58.9654 134.427 69.0154 117.689 82.6696 112.56C83.779 112.109 84.9274 111.761 86.1004 111.52C86.447 125.382 96.9822 125.59 96.9822 139.764C96.9822 154.216 86.1004 154.216 86.1004 168.667Z" fill="#CF976A"/>
<path id="Shape_13" d="M117.74 145.482C104.779 158.34 101.106 176.048 108.279 187.381C108.95 188.43 109.716 189.416 110.567 190.326C107.522 192.765 104.09 194.674 100.413 195.975C99.2932 196.378 98.1467 196.703 96.9818 196.945V196.911C96.6353 183.049 86.1001 182.841 86.1001 168.667C86.1001 154.216 96.9818 154.216 96.9818 139.764C96.9818 125.59 86.4466 125.382 86.1001 111.52C87.232 111.277 88.3778 111.103 89.531 111.001C90.1987 110.931 90.8696 110.897 91.541 110.897C94.737 110.91 97.901 111.533 100.863 112.733C111.225 116.823 119.369 127.566 122.557 141.255C120.862 142.558 119.253 143.971 117.74 145.482V145.482Z" fill="#CB8252"/>
<path id="Shape_14" d="M183.759 83.1724H149.104C147.19 83.1724 145.638 81.6209 145.638 79.7069C145.638 77.793 147.19 76.2414 149.104 76.2414H183.759C185.673 76.2414 187.224 77.793 187.224 79.7069C187.224 81.6209 185.673 83.1724 183.759 83.1724Z" fill="#BDC3C7"/>
<path id="Shape_15" d="M176.828 97.0345H152.569C150.655 97.0345 149.104 95.4829 149.104 93.569C149.104 91.655 150.655 90.1035 152.569 90.1035H176.828C178.742 90.1035 180.293 91.655 180.293 93.569C180.293 95.4829 178.742 97.0345 176.828 97.0345Z" fill="#BDC3C7"/>
<path id="Shape_16" d="M175.407 166.345H168.199C171.094 158.538 170.397 149.851 166.293 142.606C165.452 141.295 164.476 140.075 163.382 138.967C153.713 129.368 136.385 130.65 122.558 141.254C119.37 127.566 111.226 116.823 100.864 112.733L101.765 105.664L103.428 106.287C114.071 110.943 122.364 119.724 126.405 130.615C132.593 127.383 139.454 125.65 146.435 125.556C154.551 125.379 162.404 128.433 168.268 134.046C169.704 135.511 170.992 137.113 172.115 138.829C176.984 147.146 178.177 157.113 175.407 166.345V166.345Z" fill="#FC891E"/>
<path id="Shape_17" d="M94.2789 180.969C97.945 185.144 100.105 190.428 100.413 195.975C99.2934 196.378 98.1469 196.702 96.982 196.945C95.8497 197.186 94.704 197.36 93.5512 197.465C93.5512 197.326 93.5165 197.153 93.5165 196.98C93.4139 192.586 91.7279 188.377 88.7687 185.128C80.5895 175.651 80.5895 161.613 88.7687 152.136C91.8694 148.768 93.5676 144.342 93.5165 139.764C93.5847 135.21 91.8969 130.805 88.8034 127.462C85.1632 123.312 83.0055 118.07 82.6694 112.56C83.7789 112.109 84.9273 111.761 86.1003 111.52C87.2322 111.277 88.378 111.103 89.5312 111C89.5599 111.149 89.5715 111.3 89.5658 111.451C89.6685 115.845 91.3545 120.054 94.3136 123.303C102.493 132.779 102.493 146.818 94.3136 156.295C91.2129 159.663 89.5147 164.088 89.5658 168.667C89.4976 173.221 91.1854 177.626 94.2789 180.969V180.969Z" fill="#805333"/>
<path id="Shape_18" d="M167.956 145.76C164.385 148.901 159.878 150.777 155.133 151.097C147.37 151.526 141.165 157.716 140.717 165.478C139.871 176.332 131.23 184.943 120.374 185.752C116.742 185.911 113.291 187.389 110.671 189.91C110.567 189.98 110.498 190.049 110.394 190.118C109.611 189.269 108.904 188.353 108.28 187.381C107.65 186.359 107.094 185.293 106.616 184.192C110.191 181.085 114.679 179.223 119.404 178.89C127.182 178.479 133.407 172.284 133.855 164.508C134.702 153.668 143.322 145.063 154.163 144.235C157.79 144.08 161.238 142.615 163.867 140.111C163.962 140.019 164.066 139.938 164.178 139.868C164.953 140.725 165.66 141.64 166.292 142.606C166.922 143.616 167.478 144.67 167.956 145.76Z" fill="#603E26"/>
</g>
</g>
</g>
</g>
<defs>
<filter id="filter0_d" x="0" y="120" width="322" height="105.5" filterUnits="userSpaceOnUse" color-interpolation-filters="sRGB">
<feFlood flood-opacity="0" result="BackgroundImageFix"/>
<feColorMatrix in="SourceAlpha" type="matrix" values="0 0 0 0 0 0 0 0 0 0 0 0 0 0 0 0 0 0 127 0"/>
<feOffset dy="9"/>
<feGaussianBlur stdDeviation="8"/>
<feColorMatrix type="matrix" values="0 0 0 0 0 0 0 0 0 0 0 0 0 0 0 0 0 0 0.25 0"/>
<feBlend mode="normal" in2="BackgroundImageFix" result="effect1_dropShadow"/>
<feBlend mode="normal" in="SourceGraphic" in2="effect1_dropShadow" result="shape"/>
</filter>
<clipPath id="clip0">
<rect width="201" height="201" fill="white" transform="translate(59)"/>
</clipPath>
</defs>
</svg>
