<svg width="518" height="506" viewBox="0 0 518 506" fill="none" xmlns="http://www.w3.org/2000/svg">
<g clip-path="url(#clip0)" filter="url(#filter0_d)">
<path d="M182.585 293.887L140.061 237.98L166.69 29.7033C167.115 26.3166 170.002 23.7803 173.415 23.7933L411.989 23.7932L404.448 207.207L371.23 343.069H272.051L182.585 293.887Z" fill="#897668"/>
<path d="M451.932 296.672C452.425 299.92 450.501 303.05 447.38 304.077L424.827 311.617L411.988 315.897L411.241 316.372L371.23 343.069L411.988 23.7932L431.96 160.233L451.932 296.672Z" fill="#7A6A5E"/>
<path d="M424.827 220.793V311.617L411.988 315.897L411.241 316.372V220.793C411.241 217.041 414.282 214 418.034 214C421.786 214 424.827 217.041 424.827 220.793Z" fill="#B5A595"/>
<path d="M370.483 84.9312H356.896C353.145 84.9312 350.103 81.8898 350.103 78.1381C350.103 74.3863 353.145 71.345 356.896 71.345H370.483C374.234 71.345 377.276 74.3863 377.276 78.1381C377.276 81.8898 374.234 84.9312 370.483 84.9312Z" fill="#B5A595"/>
<path d="M329.724 84.9312H316.137C312.386 84.9312 309.344 81.8898 309.344 78.1381C309.344 74.3863 312.386 71.345 316.137 71.345H329.724C333.475 71.345 336.517 74.3863 336.517 78.1381C336.517 81.8898 333.475 84.9312 329.724 84.9312Z" fill="#B5A595"/>
<path d="M288.965 84.9312H275.379C271.627 84.9312 268.586 81.8898 268.586 78.1381C268.586 74.3863 271.627 71.345 275.379 71.345H288.965C292.717 71.345 295.758 74.3863 295.758 78.1381C295.758 81.8898 292.717 84.9312 288.965 84.9312Z" fill="#B5A595"/>
<path d="M247.588 84.9312H234.002C230.25 84.9312 227.209 81.8898 227.209 78.1381C227.209 74.3863 230.25 71.345 234.002 71.345H247.588C251.34 71.345 254.382 74.3863 254.382 78.1381C254.382 81.8898 251.34 84.9312 247.588 84.9312Z" fill="#B5A595"/>
<path d="M206.83 84.9312H193.244C189.492 84.9312 186.451 81.8898 186.451 78.1381C186.451 74.3863 189.492 71.345 193.244 71.345H206.83C210.582 71.345 213.623 74.3863 213.623 78.1381C213.623 81.8898 210.582 84.9312 206.83 84.9312Z" fill="#B5A595"/>
<path d="M212.332 139.276C208.949 139.276 206.081 141.767 205.607 145.118L193.923 226.635C193.648 228.584 194.231 230.557 195.523 232.043C196.814 233.529 198.687 234.381 200.655 234.379H324.561C327.945 234.379 330.813 231.888 331.286 228.537L342.971 147.02C343.246 145.072 342.663 143.1 341.373 141.615C340.083 140.129 338.213 139.276 336.245 139.276H212.332Z" fill="#ECF0F1"/>
<path d="M268.314 296.536H268.246C251.535 312.432 238.832 300.34 222.121 317.051C205.071 334.034 217.842 346.805 200.791 363.788C184.012 380.499 171.377 368.407 154.598 384.303C153.364 382.3 152.274 380.212 151.337 378.054C141.963 355.976 149.978 325.135 173.143 302.175C176.108 299.211 179.262 296.443 182.585 293.887C209.69 273.1 243.655 270.587 262.608 289.404C263.183 289.942 263.706 290.534 264.171 291.17C265.689 292.848 267.074 294.643 268.314 296.536Z" fill="#A56A43"/>
<path d="M272.051 343.069C267.572 356.543 259.931 368.748 249.769 378.665C221.578 406.856 181.499 412.495 160.304 391.436C159.86 391.018 159.451 390.563 159.081 390.077C158.949 389.959 158.834 389.822 158.742 389.67C157.207 388.004 155.821 386.209 154.598 384.303C171.377 368.407 184.012 380.499 200.791 363.788C217.842 346.805 205.071 334.034 222.121 317.052C238.832 300.34 251.536 312.432 268.247 296.536H268.314C269.548 298.516 270.638 300.582 271.575 302.718C276.507 315.688 276.676 329.987 272.051 343.069Z" fill="#805333"/>
<path d="M111.122 347.621C111.122 375.404 131.773 375.812 132.452 402.984V403.052C130.233 403.524 127.987 403.865 125.727 404.071C88.7048 406.924 57.932 367.864 57.9999 319.293C57.932 280.505 77.632 247.694 104.397 237.64C106.572 236.757 108.823 236.075 111.122 235.602C111.801 262.775 132.452 263.182 132.452 290.966C132.452 319.293 111.122 319.293 111.122 347.621Z" fill="#CF976A"/>
<path d="M173.143 302.175C147.737 327.377 140.536 362.09 154.598 384.303C155.913 386.361 157.413 388.294 159.081 390.078C153.114 394.858 146.386 398.601 139.177 401.15C136.983 401.941 134.736 402.576 132.452 403.052V402.984C131.773 375.812 111.122 375.404 111.122 347.621C111.122 319.293 132.452 319.293 132.452 290.966C132.452 263.182 111.801 262.775 111.122 235.602C113.341 235.125 115.587 234.785 117.847 234.583C119.156 234.448 120.471 234.38 121.787 234.38C128.052 234.406 134.254 235.628 140.06 237.98C160.372 245.996 176.336 267.054 182.585 293.887C179.262 296.443 176.108 299.211 173.143 302.175Z" fill="#CB8252"/>
<path d="M302.552 180.034H234.62C230.869 180.034 227.827 176.993 227.827 173.241C227.827 169.49 230.869 166.448 234.62 166.448H302.552C306.303 166.448 309.345 169.49 309.345 173.241C309.345 176.993 306.303 180.034 302.552 180.034Z" fill="#BDC3C7"/>
<path d="M288.965 207.207H241.414C237.662 207.207 234.621 204.166 234.621 200.414C234.621 196.662 237.662 193.621 241.414 193.621H288.965C292.717 193.621 295.759 196.662 295.759 200.414C295.759 204.166 292.717 207.207 288.965 207.207Z" fill="#BDC3C7"/>
<path d="M286.18 343.069H272.051C277.726 327.766 276.359 310.738 268.314 296.536C266.666 293.966 264.754 291.576 262.608 289.404C243.655 270.587 209.69 273.1 182.585 293.887C176.336 267.054 160.372 245.996 140.061 237.98L141.827 224.122L145.088 225.345C165.949 234.471 182.205 251.684 190.126 273.032C202.256 266.697 215.706 263.299 229.39 263.114C245.298 262.767 260.692 268.754 272.187 279.757C275 282.628 277.526 285.768 279.727 289.132C289.272 305.435 291.61 324.974 286.18 343.069Z" fill="#B5A595"/>
<path d="M127.154 371.736C134.34 379.919 138.574 390.276 139.177 401.15C136.983 401.941 134.736 402.576 132.452 403.052C130.233 403.524 127.987 403.865 125.727 404.071C125.727 403.799 125.659 403.46 125.659 403.12C125.458 394.507 122.153 386.257 116.353 379.888C100.32 361.312 100.32 333.793 116.353 315.217C122.431 308.614 125.759 299.94 125.659 290.966C125.793 282.039 122.485 273.403 116.421 266.85C109.285 258.716 105.056 248.441 104.397 237.64C106.572 236.757 108.823 236.075 111.122 235.602C113.341 235.125 115.587 234.785 117.847 234.583C117.903 234.874 117.926 235.17 117.915 235.466C118.116 244.079 121.421 252.329 127.222 258.699C143.255 277.274 143.255 304.793 127.222 323.369C121.144 329.972 117.815 338.646 117.915 347.62C117.781 356.547 121.09 365.183 127.154 371.736Z" fill="#805333"/>
<path d="M271.575 302.718C264.576 308.876 255.742 312.553 246.441 313.18C231.222 314.022 219.06 326.154 218.181 341.371C216.523 362.645 199.586 379.525 178.306 381.111C171.185 381.423 164.422 384.321 159.285 389.262C159.081 389.398 158.946 389.534 158.742 389.67C157.207 388.005 155.821 386.209 154.598 384.303C153.364 382.3 152.274 380.212 151.337 378.054C158.344 371.962 167.142 368.314 176.404 367.66C191.651 366.855 203.852 354.712 204.731 339.469C206.391 318.221 223.288 301.352 244.539 299.729C251.648 299.426 258.407 296.554 263.559 291.645C263.746 291.466 263.951 291.307 264.171 291.17C265.689 292.849 267.075 294.643 268.315 296.536C269.548 298.516 270.638 300.582 271.575 302.718Z" fill="#603E26"/>
</g>
<defs>
<filter id="filter0_d" x="0" y="-6" width="518" height="518" filterUnits="userSpaceOnUse" color-interpolation-filters="sRGB">
<feFlood flood-opacity="0" result="BackgroundImageFix"/>
<feColorMatrix in="SourceAlpha" type="matrix" values="0 0 0 0 0 0 0 0 0 0 0 0 0 0 0 0 0 0 127 0"/>
<feOffset dx="4" dy="39"/>
<feGaussianBlur stdDeviation="31"/>
<feColorMatrix type="matrix" values="0 0 0 0 0 0 0 0 0 0 0 0 0 0 0 0 0 0 0.25 0"/>
<feBlend mode="normal" in2="BackgroundImageFix" result="effect1_dropShadow"/>
<feBlend mode="normal" in="SourceGraphic" in2="effect1_dropShadow" result="shape"/>
</filter>
<clipPath id="clip0">
<rect width="394" height="394" fill="white" transform="translate(58 17)"/>
</clipPath>
</defs>
</svg>
