<svg width="164" height="162" viewBox="0 0 164 162" fill="none" xmlns="http://www.w3.org/2000/svg">
<g clip-path="url(#clip0)" filter="url(#filter0_d)">
<path d="M76.5 19.125C74.7405 19.125 73.3125 17.697 73.3125 15.9375V3.1875C73.3125 1.428 74.7405 0 76.5 0C78.2595 0 79.6875 1.428 79.6875 3.1875V15.9375C79.6875 17.697 78.2595 19.125 76.5 19.125Z" fill="#FCE728"/>
<path d="M119.327 36.8602C118.511 36.8602 117.695 36.5479 117.071 35.9295C115.827 34.6864 115.827 32.6655 117.071 31.4224L126.085 22.4081C127.328 21.165 129.349 21.165 130.592 22.4081C131.835 23.6512 131.835 25.6721 130.592 26.9152L121.578 35.9295C120.959 36.5479 120.143 36.8602 119.327 36.8602Z" fill="#FCE728"/>
<path d="M149.812 79.6875H137.062C135.303 79.6875 133.875 78.2595 133.875 76.5C133.875 74.7405 135.303 73.3125 137.062 73.3125H149.812C151.572 73.3125 153 74.7405 153 76.5C153 78.2595 151.572 79.6875 149.812 79.6875Z" fill="#FCE728"/>
<path d="M128.342 131.529C127.526 131.529 126.71 131.217 126.085 130.598L117.071 121.584C115.827 120.341 115.827 118.32 117.071 117.077C118.314 115.834 120.335 115.834 121.578 117.077L130.592 126.091C131.835 127.334 131.835 129.355 130.592 130.598C129.974 131.217 129.158 131.529 128.342 131.529Z" fill="#FCE728"/>
<path d="M76.5 153C74.7405 153 73.3125 151.572 73.3125 149.812V137.062C73.3125 135.303 74.7405 133.875 76.5 133.875C78.2595 133.875 79.6875 135.303 79.6875 137.062V149.812C79.6875 151.572 78.2595 153 76.5 153Z" fill="#FCE728"/>
<path d="M24.6585 131.529C23.8425 131.529 23.0265 131.217 22.4017 130.598C21.1586 129.355 21.1586 127.334 22.4017 126.091L31.416 117.077C32.6591 115.834 34.68 115.834 35.9231 117.077C37.1662 118.32 37.1662 120.341 35.9231 121.584L26.9088 130.598C26.2905 131.217 25.4745 131.529 24.6585 131.529Z" fill="#FCE728"/>
<path d="M15.9375 79.6875H3.1875C1.428 79.6875 0 78.2595 0 76.5C0 74.7405 1.428 73.3125 3.1875 73.3125H15.9375C17.697 73.3125 19.125 74.7405 19.125 76.5C19.125 78.2595 17.697 79.6875 15.9375 79.6875Z" fill="#FCE728"/>
<path d="M33.6728 36.8602C32.8568 36.8602 32.0408 36.5479 31.416 35.9295L22.4082 26.9152C21.165 25.6721 21.165 23.6512 22.4082 22.4081C23.6513 21.165 25.6722 21.165 26.9153 22.4081L35.9295 31.4224C37.1727 32.6655 37.1727 34.6864 35.9295 35.9295C35.3048 36.5479 34.4888 36.8602 33.6728 36.8602Z" fill="#FCE728"/>
<path d="M67.4028 127.5C67.0267 127.5 66.657 127.436 66.2872 127.302C64.8911 126.78 64.0432 125.364 64.2408 123.898L69.6787 82.875H47.8125C46.6076 82.875 45.5047 82.1929 44.9629 81.1155C44.421 80.0381 44.5357 78.744 45.2625 77.775L83.5125 26.775C84.3986 25.5892 85.9732 25.1685 87.3183 25.755C88.6698 26.3351 89.454 27.7567 89.2117 29.2102L83.4487 63.75H105.187C106.36 63.75 107.438 64.3939 107.992 65.4266C108.547 66.4594 108.49 67.7089 107.852 68.697L70.0676 126.072C69.462 126.984 68.4483 127.5 67.4028 127.5ZM54.1875 76.5H73.3125C74.2368 76.5 75.1038 76.9016 75.7095 77.5901C76.3151 78.2722 76.5956 79.1966 76.4745 80.1082L72.3881 110.951L99.2715 70.125H79.6875C78.7503 70.125 77.8642 69.717 77.2522 68.9966C76.6466 68.2826 76.3852 67.3328 76.5446 66.4148L80.7712 41.055L54.1875 76.5Z" fill="#FCE728"/>
</g>
<defs>
<filter id="filter0_d" x="0" y="0" width="164" height="162" filterUnits="userSpaceOnUse" color-interpolation-filters="sRGB">
<feFlood flood-opacity="0" result="BackgroundImageFix"/>
<feColorMatrix in="SourceAlpha" type="matrix" values="0 0 0 0 0 0 0 0 0 0 0 0 0 0 0 0 0 0 127 0"/>
<feOffset dx="7" dy="5"/>
<feGaussianBlur stdDeviation="2"/>
<feColorMatrix type="matrix" values="0 0 0 0 0 0 0 0 0 0 0 0 0 0 0 0 0 0 0.25 0"/>
<feBlend mode="normal" in2="BackgroundImageFix" result="effect1_dropShadow"/>
<feBlend mode="normal" in="SourceGraphic" in2="effect1_dropShadow" result="shape"/>
</filter>
<clipPath id="clip0">
<rect width="153" height="153" fill="white"/>
</clipPath>
</defs>
</svg>
