<svg width="164" height="164" viewBox="0 0 164 164" fill="none" xmlns="http://www.w3.org/2000/svg">
<path d="M123.641 16.9766C123.641 18.7458 122.207 20.1797 120.438 20.1797C118.668 20.1797 117.234 18.7458 117.234 16.9766C117.234 15.2073 118.668 13.7734 120.438 13.7734C122.207 13.7734 123.641 15.2073 123.641 16.9766Z" fill="white"/>
<path d="M130.904 59.1163C130.546 59.1326 130.201 59.1413 129.852 59.1463L131.795 53.8537C132.723 51.3262 130.293 48.8413 127.745 49.7209C123.257 51.2674 121.285 52.2433 118.046 53.0842C109.579 45.4742 97.081 45.1439 88.1536 50.6318C80.8264 55.1362 76.8388 62.9188 78.1763 72.0839C63.8311 70.117 52.0984 63.4605 42.4077 51.8204C41.7283 51.0046 40.6898 50.578 39.6337 50.6818C38.5777 50.7857 37.6418 51.405 37.1338 52.3372C33.1061 59.7281 32.8559 68.593 37.0024 76.1204C35.3758 76.1742 34.0295 77.4467 33.9131 79.0958C33.5228 84.6174 36.024 92.4451 42.2288 97.8191C41.1815 98.6474 40.7498 100.049 41.174 101.334C43.3211 107.85 47.7792 112.889 53.5661 115.692C47.7842 118.144 43.1184 119.709 35.4471 122.232C34.2347 122.63 33.3751 123.711 33.2588 124.982C33.1424 126.253 33.7918 127.473 34.9116 128.085C37.384 129.436 46.1176 133.949 54.751 135.303C73.8534 138.3 95.2467 135.89 109.676 122.895C121.923 111.867 125.922 96.1111 125.085 79.7151C124.959 77.239 125.636 74.8792 126.993 73.0699C127.588 72.2754 124.682 76.1504 133.633 64.205C135.213 62.0416 133.589 59.0049 130.904 59.1163ZM121.865 69.2299C119.616 72.2328 118.486 76.0703 118.686 80.0405C119.534 96.6079 115.06 109.425 105.389 118.135C94.1945 128.216 76.0981 132.166 55.7432 128.973C52.0321 128.391 48.1958 127.089 45.0202 125.788C51.449 123.576 56.4176 121.602 64.4429 117.804C67.4221 116.394 66.5663 111.922 63.2768 111.713C57.3523 111.334 52.42 108.463 49.3882 103.802C50.9973 103.709 52.5501 103.447 54.0953 103.017C57.2572 102.135 57.1921 97.6013 53.9977 96.8193C46.3228 94.94 42.1787 89.2382 40.8011 84.1144C42.0023 84.4398 43.3961 84.6687 45.6621 84.8927C48.8515 85.2055 50.4655 81.144 47.9468 79.1796C41.6632 74.2773 39.1445 66.9152 40.99 59.8382C52.0621 71.3382 65.8018 77.7482 81.9062 78.9106C84.1384 79.0645 86.0265 77.0888 85.0718 73.7481C82.0914 63.2128 88.579 57.8888 91.5068 56.0896C97.5703 52.3622 107.217 51.8204 113.915 57.9852C115.365 59.3328 117.338 59.862 119.188 59.4041C120.788 59.0062 122.11 58.5858 123.399 58.1303L122.267 61.2121C121.584 63.0727 122.739 65.1021 124.685 65.4662C123.94 66.461 123.015 67.6947 121.865 69.2299Z" fill="white"/>
<path d="M147.984 0H16.0156C7.18451 0 0 7.18451 0 16.0156V147.984C0 156.815 7.18451 164 16.0156 164H147.984C156.815 164 164 156.815 164 147.984V16.0156C164 7.18451 156.815 0 147.984 0ZM157.594 147.984C157.594 153.283 153.283 157.594 147.984 157.594H16.0156C10.7167 157.594 6.40625 153.283 6.40625 147.984V16.0156C6.40625 10.7167 10.7167 6.40625 16.0156 6.40625H147.984C153.283 6.40625 157.594 10.7167 157.594 16.0156V147.984Z" fill="white"/>
<path d="M43.5625 20.1797H107.625C109.394 20.1797 110.828 18.7458 110.828 16.9766C110.828 15.2073 109.394 13.7734 107.625 13.7734H43.5625C41.7933 13.7734 40.3594 15.2073 40.3594 16.9766C40.3594 18.7458 41.7933 20.1797 43.5625 20.1797Z" fill="white"/>
</svg>
