<svg width="74" height="36" viewBox="0 0 74 36" fill="none" xmlns="http://www.w3.org/2000/svg">
<path d="M0.846825 15.855C0.847694 15.8541 0.848412 15.8531 0.849426 15.8522L15.9338 0.84064C17.0638 -0.28393 18.8916 -0.279746 20.0165 0.850454C21.1412 1.98051 21.1369 3.80831 20.0068 4.93303L9.87918 15.0116H71.0165C72.6109 15.0116 73.9033 16.304 73.9033 17.8984C73.9033 19.4928 72.6109 20.7853 71.0165 20.7853H9.87933L20.0067 30.8638C21.1367 31.9885 21.141 33.8163 20.0163 34.9464C18.8915 36.0767 17.0635 36.0806 15.9336 34.9562L0.849281 19.9446C0.848412 19.9438 0.847687 19.9427 0.84668 19.9419C-0.283951 18.8134 -0.280342 16.9797 0.846825 15.855Z" fill="#CC1414"/>
</svg>
