<svg width="162" height="162" viewBox="0 0 162 162" fill="none" xmlns="http://www.w3.org/2000/svg">
<g clip-path="url(#clip0)">
<path d="M159.989 23.0579L158.288 23.0415C157.917 19.5306 156.561 16.1962 154.376 13.4227L155.62 12.2027C155.828 11.999 155.994 11.7564 156.108 11.4887C156.222 11.221 156.282 10.9335 156.285 10.6426C156.287 10.3516 156.233 10.063 156.124 9.7931C156.016 9.52321 155.855 9.27737 155.651 9.06962C155.448 8.86186 155.205 8.69626 154.937 8.58226C154.67 8.46827 154.382 8.40811 154.091 8.40524C153.8 8.40236 153.512 8.45681 153.242 8.56548C152.972 8.67416 152.726 8.83492 152.518 9.03861L151.278 10.2561C148.545 8.01173 145.233 6.58772 141.724 6.14919L141.741 4.45325C141.744 4.16228 141.69 3.87357 141.581 3.60362C141.473 3.33367 141.312 3.08777 141.108 2.87997C140.905 2.67217 140.662 2.50654 140.394 2.39254C140.127 2.27855 139.839 2.21843 139.548 2.21562C139.256 2.20781 138.965 2.25883 138.693 2.36567C138.421 2.4725 138.174 2.63295 137.965 2.83748C137.756 3.042 137.591 3.28642 137.479 3.55617C137.367 3.82593 137.31 4.11551 137.312 4.40769L137.294 6.09856C133.775 6.46866 130.433 7.8291 127.656 10.022L126.439 8.78169C126.235 8.57393 125.992 8.40835 125.725 8.29438C125.457 8.18042 125.169 8.12031 124.878 8.11749C124.587 8.11467 124.298 8.16919 124.029 8.27794C123.759 8.38669 123.513 8.54755 123.305 8.75131C123.097 8.95508 122.932 9.19777 122.818 9.46553C122.704 9.73329 122.644 10.0209 122.641 10.3119C122.635 10.8995 122.863 11.4654 123.275 11.885L124.404 13.0355L116.834 20.4533L115.706 19.3041C115.295 18.8845 114.733 18.6456 114.146 18.6399C113.558 18.6342 112.992 18.8622 112.573 19.2737C112.153 19.6852 111.914 20.2466 111.908 20.8343C111.903 21.422 112.131 21.9878 112.542 22.4074L113.667 23.5541L106.108 30.9668L104.984 29.8214C104.572 29.4019 104.011 29.1629 103.423 29.1572C102.836 29.1515 102.27 29.3795 101.85 29.7911C101.431 30.2026 101.192 30.7639 101.186 31.3516C101.18 31.9393 101.408 32.5052 101.82 32.9248L102.942 34.0638L95.3727 41.4854L94.2526 40.3388C93.8368 39.9444 93.2843 39.7265 92.7112 39.731C92.1382 39.7354 91.5891 39.9618 91.1795 40.3626C90.7698 40.7634 90.5315 41.3074 90.5145 41.8802C90.4976 42.4531 90.7033 43.0102 91.0885 43.4345L92.215 44.5862L84.6503 52.0028L83.5214 50.8523C83.1098 50.4328 82.5485 50.1938 81.9608 50.1881C81.3731 50.1824 80.8073 50.4104 80.3877 50.822C79.9681 51.2335 79.7292 51.7948 79.7235 52.3825C79.7178 52.9702 79.9458 53.5361 80.3573 53.9556L81.485 55.1048L69.4489 66.9118C66.4632 66.0919 63.3294 65.967 60.288 66.5466C57.2465 67.1263 54.3783 68.3951 51.9035 70.2556L51.3707 70.6594L50.0317 67.9421C48.1825 64.258 44.9511 61.455 41.0427 60.1448C37.1344 58.8345 32.8664 59.1235 29.1703 60.9487C25.4743 62.7738 22.6503 65.9869 21.3146 69.8866C19.9789 73.7863 20.2401 78.0561 22.0411 81.764L26.019 89.8235L23.5624 91.6852C21.4021 93.3159 19.5913 95.3638 18.2373 97.7075C16.8834 100.051 16.0139 102.643 15.6804 105.329C15.347 108.015 15.5564 110.741 16.2961 113.344C17.0359 115.948 18.291 118.376 19.987 120.486L15.6054 124.789C14.6843 125.689 13.9498 126.762 13.4438 127.947C12.9379 129.131 12.6704 130.404 12.6568 131.692C12.6432 132.979 12.8836 134.257 13.3644 135.452C13.8451 136.647 14.5568 137.736 15.4586 138.655L25.8481 149.246C27.6728 151.101 30.1589 152.156 32.7607 152.179C35.3625 152.203 37.8674 151.194 39.7257 149.372L44.0288 145.148L44.9287 146.065C45.3397 146.484 45.9004 146.723 46.4873 146.729C47.0743 146.734 47.6394 146.507 48.0586 146.096L54.0931 140.185L54.1095 140.173L59.8162 134.578C59.863 134.533 59.9086 134.485 59.9504 134.435L80.4674 114.335C80.4813 114.322 80.4978 114.313 80.5117 114.299L85.9716 108.946C85.9843 108.933 85.9931 108.918 86.0058 108.905L98.9557 96.2111C99.1637 96.0077 99.3296 95.7652 99.4438 95.4977C99.5581 95.2301 99.6184 94.9426 99.6215 94.6517C99.6245 94.3608 99.5702 94.0721 99.4616 93.8022C99.353 93.5322 99.1923 93.2864 98.9886 93.0787L98.0887 92.1611L108.15 82.298L109.279 83.4485C109.691 83.8681 110.252 84.107 110.84 84.1127C111.428 84.1184 111.993 83.8904 112.413 83.4789C112.833 83.0674 113.072 82.506 113.077 81.9183C113.083 81.3306 112.855 80.7648 112.443 80.3452L111.316 79.196L118.883 71.7782L120.014 72.9312C120.218 73.1389 120.461 73.3045 120.729 73.4185C120.996 73.5324 121.284 73.5925 121.575 73.5954C121.866 73.5982 122.155 73.5437 122.425 73.4349C122.694 73.3262 122.94 73.1653 123.148 72.9615C123.356 72.7578 123.521 72.5151 123.635 72.2473C123.749 71.9796 123.809 71.692 123.812 71.401C123.815 71.11 123.761 70.8213 123.652 70.5514C123.543 70.2815 123.382 70.0356 123.178 69.8279L122.048 68.6761L129.608 61.2646L130.737 62.4138C131.148 62.8334 131.71 63.0723 132.297 63.078C132.885 63.0837 133.451 62.8557 133.87 62.4442C134.29 62.0327 134.529 61.4713 134.535 60.8836C134.54 60.296 134.312 59.7301 133.901 59.3105L132.774 58.1626L140.348 50.7384L141.463 51.8889C141.874 52.3085 142.436 52.5474 143.024 52.5531C143.611 52.5588 144.177 52.3308 144.597 51.9193C145.016 51.5077 145.255 50.9464 145.261 50.3587C145.267 49.771 145.039 49.2051 144.627 48.7856L143.504 47.6465L151.074 40.2261L152.194 41.3728C152.61 41.7672 153.162 41.985 153.736 41.9806C154.309 41.9761 154.858 41.7497 155.267 41.349C155.677 40.9482 155.915 40.4042 155.932 39.8314C155.949 39.2585 155.743 38.7014 155.358 38.2771L154.146 37.0355C156.387 34.3021 157.808 30.9893 158.244 27.4813L159.941 27.4978H159.963C160.55 27.5008 161.115 27.2703 161.532 26.8571C161.95 26.4439 162.186 25.8817 162.189 25.2943C162.192 24.7069 161.961 24.1423 161.548 23.7248C161.135 23.3073 160.573 23.0711 159.985 23.0681L159.989 23.0579ZM32.828 76.4268C32.4129 75.5785 32.3495 74.6006 32.6514 73.7057C32.9533 72.8108 33.5963 72.0713 34.4404 71.6478C35.1242 71.3127 35.8964 71.2025 36.6466 71.333C37.3968 71.4635 38.0865 71.828 38.617 72.3743C38.8729 72.6319 39.0827 72.9316 39.2372 73.2602L41.6051 78.0468L35.7959 82.4411L32.828 76.4268ZM25.457 71.2618C26.0701 69.4535 27.1365 67.8325 28.5545 66.5538C29.9726 65.275 31.6947 64.3812 33.5566 63.9577C35.4185 63.5342 37.3579 63.5951 39.1895 64.1347C41.0211 64.6743 42.6838 65.6744 44.0187 67.0397C44.8444 67.8813 45.5328 68.8473 46.0589 69.9025L47.7713 73.3767L45.2008 75.3245L43.2251 71.3251C42.8594 70.5604 42.3679 69.8626 41.7709 69.2608C40.5876 68.0519 39.0527 67.2476 37.3852 66.9626C35.7177 66.6776 34.0027 66.9265 32.485 67.6738C30.5842 68.6171 29.135 70.2758 28.4555 72.2861C27.776 74.2965 27.9216 76.4942 28.8603 78.3974L55.5776 132.543L53.1983 134.873L30.8473 89.6045C30.822 89.5438 30.7916 89.4855 30.76 89.4261L26.0088 79.8073C25.3571 78.4899 24.9728 77.0565 24.8781 75.5898C24.7834 74.123 24.9801 72.6521 25.457 71.2618ZM28.3275 129.144L35.6175 136.574L32.8837 139.255L25.6 131.819L28.3275 129.144ZM36.6249 146.215C35.6057 147.214 34.2314 147.769 32.8038 147.756C31.3762 147.743 30.012 147.164 29.0109 146.146L18.6189 135.547C18.1257 135.043 17.7368 134.446 17.4743 133.792C17.2117 133.137 17.0807 132.437 17.0887 131.732C17.0967 131.027 17.2435 130.33 17.5208 129.682C17.7982 129.033 18.2005 128.446 18.7049 127.953L23.008 123.727L25.2204 125.982L20.9172 130.206C20.4985 130.617 20.2601 131.178 20.2544 131.765C20.2487 132.352 20.4761 132.917 20.8869 133.337L31.265 143.931C31.4736 144.142 31.722 144.309 31.9957 144.424C32.2695 144.538 32.5631 144.596 32.8597 144.596C33.4393 144.596 33.9958 144.369 34.4101 143.963L38.7195 139.737L40.9331 141.991L36.6249 146.215ZM46.5461 141.389L24.4686 118.885C22.8972 117.28 21.686 115.359 20.9156 113.249C20.1453 111.14 19.8336 108.89 20.0013 106.65C20.1689 104.411 20.8121 102.233 21.888 100.261C22.9639 98.2897 24.4477 96.5703 26.2404 95.2176L28.0212 93.8697L49.8735 138.137L46.5461 141.389ZM78.9879 109.582L72.4864 102.959C72.3408 102.811 72.2259 102.635 72.1484 102.442C72.0709 102.249 72.0322 102.042 72.0346 101.834C72.0374 101.618 72.0837 101.405 72.1707 101.208C72.2576 101.01 72.3835 100.832 72.5408 100.684C72.8409 100.39 73.245 100.228 73.6647 100.232C74.0844 100.236 74.4853 100.406 74.7797 100.705L81.2762 107.331L78.9879 109.582ZM84.4491 104.23L77.9514 97.6033C76.8238 96.4901 75.3038 95.8648 73.7193 95.8622C72.1349 95.8596 70.6129 96.4798 69.4816 97.5892C68.3503 98.6986 67.7003 100.208 67.672 101.792C67.6436 103.377 68.2391 104.908 69.3299 106.058L75.8251 112.681L58.9024 129.273L37.7905 86.4847L54.5715 73.7931C57.639 71.4857 61.4397 70.3702 65.2677 70.6538C69.0956 70.9373 72.6905 72.6005 75.3847 75.3346L88.0409 88.244L88.051 88.2566L88.0624 88.2667L93.3211 93.6292C93.3376 93.6469 93.3489 93.6684 93.3667 93.6862C93.3844 93.7039 93.4046 93.7153 93.4223 93.7317L94.2716 94.5987L84.4491 104.23ZM79.8422 73.5526L134.502 19.9787C135.801 18.7057 137.55 17.9975 139.369 18.0081C141.187 18.0188 142.928 18.7475 144.212 20.0356L144.419 20.2584C145.056 20.9019 145.559 21.6659 145.897 22.5058C146.235 23.3457 146.403 24.2446 146.39 25.15C146.382 26.0558 146.194 26.951 145.839 27.7843C145.484 28.6177 144.968 29.3727 144.321 30.0062L89.6685 83.5738L79.8422 73.5526ZM92.7693 86.7353L147.422 33.1665C148.484 32.1264 149.331 30.8866 149.914 29.5183C150.496 28.15 150.803 26.6801 150.816 25.193C150.838 23.7142 150.567 22.2456 150.018 20.8724C149.469 19.4991 148.652 18.2485 147.616 17.193L147.406 16.9703C146.365 15.9086 145.125 15.0624 143.757 14.4801C142.389 13.8978 140.919 13.5908 139.432 13.5766C137.945 13.5624 136.47 13.8412 135.091 14.3973C133.712 14.9533 132.456 15.7756 131.395 16.8171L76.6098 70.5201C75.7649 69.8494 74.8672 69.2479 73.9254 68.7217L129.083 14.6479L129.093 14.6403L129.1 14.6301L129.186 14.5529C131.93 11.8704 135.623 10.3821 139.459 10.4131H139.497C141.4 10.4306 143.28 10.8252 145.029 11.574C146.777 12.3228 148.36 13.4111 149.686 14.7757L149.836 14.925C151.171 16.2834 152.225 17.8918 152.938 19.6579C153.65 21.4241 154.007 23.3134 153.989 25.2178C153.97 27.1222 153.577 29.0042 152.83 30.7563C152.083 32.5083 150.999 34.0959 149.638 35.4282L94.9879 88.9983L92.7693 86.7353Z" fill="url(#paint0_linear)"/>
<path d="M32.3218 116.04C31.9106 115.62 31.3496 115.381 30.7621 115.375C30.1747 115.369 29.6089 115.597 29.1894 116.008C28.7698 116.419 28.5307 116.98 28.5248 117.568C28.5189 118.155 28.7465 118.721 29.1577 119.14L33.2292 123.292C33.4328 123.499 33.6754 123.665 33.943 123.779C34.2106 123.893 34.498 123.953 34.7889 123.956C35.0798 123.959 35.3684 123.905 35.6382 123.796C35.9081 123.688 36.1539 123.527 36.3617 123.323C36.5694 123.12 36.735 122.877 36.8491 122.61C36.9631 122.342 37.0233 122.055 37.0262 121.764C37.0292 121.473 36.9748 121.184 36.8662 120.914C36.7576 120.644 36.5969 120.399 36.3933 120.191L32.3218 116.04Z" fill="url(#paint1_linear)"/>
<path d="M66.1165 85.9671L57.9241 93.9975C57.5045 94.4086 57.2655 94.9697 57.2595 95.5571C57.2536 96.1445 57.4813 96.7103 57.8925 97.1299C58.3037 97.5495 58.8647 97.7885 59.4521 97.7944C60.0396 97.8004 60.6053 97.5727 61.0249 97.1615L69.216 89.1299C69.6356 88.7188 69.8747 88.158 69.8808 87.5706C69.8868 86.9833 69.6593 86.4176 69.2483 85.9981C68.8373 85.5785 68.2764 85.3394 67.6891 85.3333C67.1017 85.3273 66.5361 85.5548 66.1165 85.9658V85.9671Z" fill="url(#paint2_linear)"/>
<path d="M63.3625 79.9959C62.951 79.5767 62.3899 79.3381 61.8026 79.3324C61.2152 79.3267 60.6496 79.5544 60.2301 79.9655L52.0389 87.9959C51.6194 88.4073 51.3804 88.9684 51.3746 89.556C51.3687 90.1436 51.5966 90.7094 52.0079 91.129C52.4193 91.5485 52.9805 91.7875 53.568 91.7933C54.1556 91.7991 54.7214 91.5713 55.141 91.16L63.3321 83.1296C63.7513 82.7179 63.99 82.1566 63.9957 81.569C64.0014 80.9814 63.7737 80.4156 63.3625 79.9959Z" fill="url(#paint3_linear)"/>
<path d="M13.1997 22.8431L14.9007 22.8266C15.2722 19.3158 16.6283 15.9814 18.8127 13.2079L17.5686 11.9878C17.3609 11.7841 17.1953 11.5415 17.0813 11.2739C16.9673 11.0062 16.9071 10.7187 16.9042 10.4277C16.9013 10.1368 16.9558 9.84814 17.0645 9.57825C17.1732 9.30837 17.3339 9.06253 17.5376 8.85477C17.7413 8.64702 17.9839 8.48142 18.2516 8.36742C18.5193 8.25343 18.8068 8.19327 19.0977 8.19039C19.3886 8.18751 19.6773 8.24196 19.9472 8.35064C20.2171 8.45931 20.4629 8.62008 20.6707 8.82376L21.911 10.0413C24.6436 7.79688 27.9563 6.37288 31.4652 5.93434L31.4474 4.2384C31.4444 3.94744 31.4988 3.65873 31.6074 3.38878C31.716 3.11883 31.8768 2.87293 32.0805 2.66512C32.2842 2.45732 32.5268 2.29169 32.7945 2.1777C33.0622 2.06371 33.3498 2.00359 33.6408 2.00078C33.9329 1.99296 34.2235 2.04399 34.4955 2.15082C34.7674 2.25766 35.0151 2.41811 35.2237 2.62263C35.4324 2.82716 35.5978 3.07157 35.71 3.34133C35.8223 3.61109 35.8791 3.90067 35.8771 4.19284L35.8949 5.88372C39.4138 6.25381 42.7557 7.61426 45.5326 9.80716L46.7501 8.56684C46.9539 8.35909 47.1966 8.1935 47.4643 8.07954C47.7321 7.96558 48.0197 7.90547 48.3107 7.90265C48.6017 7.89983 48.8904 7.95435 49.1603 8.0631C49.4302 8.17185 49.6761 8.3327 49.8838 8.53647C50.0916 8.74023 50.2572 8.98293 50.3711 9.25069C50.4851 9.51845 50.5452 9.80603 50.548 10.097C50.5537 10.6847 50.3257 11.2506 49.9142 11.6702L48.7852 12.8206L56.355 20.2384L57.4826 19.0893C57.8941 18.6697 58.4555 18.4308 59.0432 18.4251C59.6309 18.4194 60.1967 18.6473 60.6163 19.0589C61.0359 19.4704 61.2748 20.0317 61.2805 20.6194C61.2862 21.2071 61.0582 21.773 60.6467 22.1926L59.5215 23.3392L67.0811 30.752L68.205 29.6066C68.6165 29.187 69.1779 28.9481 69.7655 28.9424C70.3532 28.9367 70.9191 29.1647 71.3387 29.5762C71.7583 29.9877 71.9972 30.5491 72.0029 31.1368C72.0086 31.7245 71.7806 32.2903 71.3691 32.7099L70.2465 33.849L77.8162 41.2706L78.9362 40.1239C79.352 39.7296 79.9045 39.5117 80.4776 39.5161C81.0507 39.5206 81.5997 39.747 82.0094 40.1478C82.419 40.5486 82.6573 41.0925 82.6743 41.6654C82.6913 42.2382 82.4855 42.7953 82.1003 43.2197L80.9739 44.3714L88.5385 51.7879L89.6675 50.6375C90.079 50.2179 90.6404 49.979 91.228 49.9733C91.8157 49.9676 92.3816 50.1956 92.8012 50.6071C93.2207 51.0186 93.4597 51.58 93.4654 52.1677C93.4711 52.7553 93.2431 53.3212 92.8315 53.7408L91.7039 54.89L103.74 66.697C106.726 65.8771 109.859 65.7522 112.901 66.3318C115.942 66.9114 118.811 68.1802 121.285 70.0408L121.818 70.4445L123.157 67.7272C125.006 64.0431 128.238 61.2401 132.146 59.9299C136.054 58.6197 140.322 58.9087 144.018 60.7338C147.715 62.559 150.539 65.772 151.874 69.6718C153.21 73.5715 152.949 77.8412 151.148 81.5491L147.17 89.6086L149.626 91.4704C151.787 93.101 153.598 95.1489 154.952 97.4926C156.305 99.8363 157.175 102.428 157.508 105.114C157.842 107.8 157.632 110.526 156.893 113.129C156.153 115.733 154.898 118.161 153.202 120.271L157.583 124.574C158.505 125.474 159.239 126.547 159.745 127.732C160.251 128.916 160.518 130.189 160.532 131.477C160.546 132.765 160.305 134.043 159.824 135.237C159.344 136.432 158.632 137.521 157.73 138.44L147.341 149.031C145.516 150.886 143.03 151.941 140.428 151.965C137.826 151.988 135.321 150.979 133.463 149.158L129.16 144.933L128.26 145.85C127.849 146.269 127.288 146.508 126.702 146.514C126.115 146.519 125.549 146.292 125.13 145.881L119.096 139.97L119.079 139.958L113.373 134.364C113.326 134.318 113.28 134.27 113.238 134.221L92.7214 114.12C92.7075 114.107 92.6911 114.098 92.6771 114.085L87.2172 108.731C87.2046 108.718 87.1957 108.703 87.1831 108.69L74.2332 95.9962C74.0252 95.7928 73.8593 95.5504 73.745 95.2828C73.6308 95.0152 73.5704 94.7278 73.5674 94.4368C73.5643 94.1459 73.6186 93.8572 73.7272 93.5873C73.8358 93.3174 73.9966 93.0715 74.2003 92.8638L75.1001 91.9462L65.0384 82.0832L63.9095 83.2337C63.4979 83.6532 62.9366 83.8922 62.3489 83.8979C61.7612 83.9036 61.1954 83.6756 60.7758 83.264C60.3562 82.8525 60.1173 82.2912 60.1116 81.7035C60.1059 81.1158 60.3339 80.5499 60.7454 80.1303L61.8731 78.9812L54.3059 71.5633L53.1744 72.7163C52.9707 72.9241 52.728 73.0897 52.4602 73.2036C52.1925 73.3176 51.9049 73.3777 51.6139 73.3805C51.3229 73.3833 51.0342 73.3288 50.7643 73.2201C50.4944 73.1113 50.2485 72.9505 50.0408 72.7467C49.833 72.5429 49.6674 72.3002 49.5534 72.0325C49.4395 71.7647 49.3794 71.4771 49.3765 71.1861C49.3737 70.8951 49.4283 70.6065 49.537 70.3365C49.6458 70.0666 49.8066 69.8208 50.0104 69.613L51.1406 68.4613L43.581 61.0498L42.4521 62.199C42.0405 62.6186 41.4792 62.8575 40.8915 62.8632C40.3038 62.8689 39.738 62.6409 39.3184 62.2293C38.8988 61.8178 38.6599 61.2565 38.6542 60.6688C38.6485 60.0811 38.8765 59.5152 39.288 59.0957L40.4144 57.9477L32.8409 50.5236L31.7259 51.674C31.3144 52.0936 30.753 52.3325 30.1653 52.3382C29.5777 52.3439 29.0118 52.1159 28.5922 51.7044C28.1726 51.2929 27.9337 50.7315 27.928 50.1439C27.9223 49.5562 28.1503 48.9903 28.5618 48.5707L29.6844 47.4317L22.1147 40.0113L20.9947 41.158C20.5789 41.5523 20.0264 41.7702 19.4533 41.7658C18.8802 41.7613 18.3312 41.5349 17.9215 41.1341C17.5119 40.7333 17.2735 40.1894 17.2566 39.6165C17.2396 39.0437 17.4454 38.4866 17.8306 38.0622L19.0431 36.8207C16.8015 34.0873 15.3805 30.7745 14.945 27.2665L13.2478 27.2829H13.2262C12.6388 27.2859 12.0743 27.0555 11.6568 26.6422C11.2393 26.229 11.003 25.6669 11 25.0795C10.997 24.492 11.2274 23.9275 11.6407 23.51C12.0539 23.0925 12.616 22.8562 13.2035 22.8532L13.1997 22.8431ZM140.361 76.212C140.776 75.3636 140.839 74.3858 140.537 73.4909C140.236 72.596 139.593 71.8565 138.748 71.433C138.065 71.0979 137.292 70.9877 136.542 71.1182C135.792 71.2487 135.102 71.6131 134.572 72.1594C134.316 72.4171 134.106 72.7168 133.952 73.0454L131.584 77.832L137.393 82.2262L140.361 76.212ZM147.732 71.047C147.119 69.2386 146.052 67.6177 144.634 66.3389C143.216 65.0602 141.494 64.1664 139.632 63.7429C137.77 63.3193 135.831 63.3803 133.999 63.9198C132.168 64.4594 130.505 65.4596 129.17 66.8248C128.344 67.6665 127.656 68.6325 127.13 69.6877L125.418 73.1618L127.988 75.1096L129.964 71.1102C130.329 70.3456 130.821 69.6478 131.418 69.046C132.601 67.8371 134.136 67.0328 135.804 66.7478C137.471 66.4628 139.186 66.7116 140.704 67.4589C142.605 68.4022 144.054 70.061 144.733 72.0713C145.413 74.0816 145.267 76.2794 144.329 78.1825L117.611 132.329L119.991 134.659L142.342 89.3897C142.367 89.3289 142.397 89.2707 142.429 89.2112L147.18 79.5925C147.832 78.2751 148.216 76.8416 148.311 75.3749C148.405 73.9082 148.209 72.4372 147.732 71.047ZM144.861 128.929L137.571 136.36L140.305 139.04L147.589 131.605L144.861 128.929ZM136.564 146C137.583 147 138.957 147.554 140.385 147.541C141.813 147.528 143.177 146.949 144.178 145.931L154.57 135.332C155.063 134.828 155.452 134.231 155.715 133.577C155.977 132.922 156.108 132.222 156.1 131.517C156.092 130.812 155.945 130.115 155.668 129.467C155.391 128.818 154.988 128.231 154.484 127.738L150.181 123.512L147.968 125.768L152.272 129.991C152.69 130.402 152.929 130.963 152.934 131.55C152.94 132.137 152.713 132.703 152.302 133.122L141.924 143.717C141.715 143.927 141.467 144.095 141.193 144.209C140.919 144.323 140.626 144.381 140.329 144.381C139.75 144.381 139.193 144.154 138.779 143.748L134.469 139.522L132.256 141.776L136.564 146ZM126.643 141.174L148.72 118.67C150.292 117.065 151.503 115.144 152.273 113.034C153.044 110.925 153.355 108.675 153.188 106.436C153.02 104.196 152.377 102.018 151.301 100.046C150.225 98.0749 148.741 96.3555 146.948 95.0027L145.168 93.6548L123.315 137.923L126.643 141.174ZM94.2009 109.368L100.702 102.745C100.848 102.596 100.963 102.42 101.04 102.227C101.118 102.034 101.157 101.827 101.154 101.619C101.151 101.403 101.105 101.19 101.018 100.993C100.931 100.795 100.805 100.617 100.648 100.469C100.348 100.176 99.9438 100.013 99.5241 100.017C99.1045 100.021 98.7035 100.191 98.4091 100.49L91.9127 107.116L94.2009 109.368ZM88.7398 104.015L95.2375 97.3884C96.3651 96.2753 97.885 95.65 99.4695 95.6473C101.054 95.6447 102.576 96.265 103.707 97.3743C104.839 98.4837 105.488 99.9933 105.517 101.578C105.545 103.162 104.95 104.694 103.859 105.843L97.3637 112.466L114.286 129.058L135.398 86.2699L118.617 73.5782C115.55 71.2709 111.749 70.1554 107.921 70.4389C104.093 70.7224 100.498 72.3857 97.8042 75.1197L85.1479 88.0291L85.1378 88.0418L85.1264 88.0519L79.8677 93.4144C79.8513 93.4321 79.8399 93.4536 79.8222 93.4713C79.8045 93.489 79.7842 93.5004 79.7665 93.5169L78.9173 94.3838L88.7398 104.015ZM93.3466 73.3377L38.6868 19.7638C37.388 18.4909 35.6388 17.7826 33.8202 17.7933C32.0015 17.804 30.2608 18.5327 28.9769 19.8208L28.7694 20.0435C28.1324 20.6871 27.6301 21.4511 27.2917 22.291C26.9534 23.1309 26.7858 24.0298 26.7988 24.9352C26.8073 25.841 26.9944 26.7362 27.3495 27.5695C27.7046 28.4028 28.2206 29.1579 28.8681 29.7914L83.5203 83.359L93.3466 73.3377ZM80.4196 86.5205L25.7673 32.9516C24.7045 31.9115 23.8575 30.6717 23.275 29.3034C22.6925 27.9351 22.3859 26.4653 22.3729 24.9782C22.3504 23.4994 22.6217 22.0308 23.1709 20.6575C23.7201 19.2843 24.5364 18.0337 25.5724 16.9782L25.7825 16.7554C26.8236 15.6938 28.0637 14.8476 29.4319 14.2653C30.8001 13.683 32.2696 13.376 33.7565 13.3617C35.2434 13.3475 36.7185 13.6264 38.0976 14.1824C39.4767 14.7384 40.7327 15.5607 41.7939 16.6023L96.5791 70.3053C97.424 69.6345 98.3217 69.0331 99.2634 68.5068L44.1062 14.433L44.0961 14.4254L44.0885 14.4153L44.0024 14.3381C41.2592 11.6555 37.5661 10.1672 33.7294 10.1982H33.6914C31.7891 10.2157 29.9091 10.6103 28.1603 11.3592C26.4115 12.108 24.8286 13.1962 23.5031 14.5608L23.3525 14.7102C22.0177 16.0686 20.9638 17.6769 20.2513 19.4431C19.5387 21.2092 19.1815 23.0986 19.1999 25.003C19.2184 26.9074 19.6122 28.7894 20.3588 30.5414C21.1055 32.2934 22.1903 33.881 23.5512 35.2133L78.2009 88.7834L80.4196 86.5205Z" fill="url(#paint4_linear)"/>
<path d="M135.867 115.825C136.278 115.405 136.839 115.166 137.427 115.16C138.014 115.154 138.58 115.382 139 115.793C139.419 116.204 139.658 116.765 139.664 117.353C139.67 117.94 139.442 118.506 139.031 118.926L134.96 123.077C134.756 123.285 134.514 123.45 134.246 123.564C133.978 123.678 133.691 123.738 133.4 123.741C133.109 123.744 132.82 123.69 132.551 123.581C132.281 123.473 132.035 123.312 131.827 123.108C131.619 122.905 131.454 122.662 131.34 122.395C131.226 122.127 131.166 121.84 131.163 121.549C131.16 121.258 131.214 120.969 131.323 120.699C131.431 120.43 131.592 120.184 131.796 119.976L135.867 115.825Z" fill="url(#paint5_linear)"/>
<path d="M102.072 85.7522L110.265 93.7826C110.684 94.1938 110.923 94.7548 110.929 95.3423C110.935 95.9297 110.708 96.4954 110.296 96.915C109.885 97.3346 109.324 97.5737 108.737 97.5796C108.149 97.5855 107.584 97.3579 107.164 96.9467L98.9728 88.915C98.5532 88.504 98.3141 87.9431 98.308 87.3558C98.302 86.7685 98.5295 86.2028 98.9405 85.7832C99.3515 85.3636 99.9124 85.1245 100.5 85.1185C101.087 85.1124 101.653 85.3399 102.072 85.7509V85.7522Z" fill="url(#paint6_linear)"/>
<path d="M104.826 79.781C105.238 79.3619 105.799 79.1232 106.386 79.1175C106.974 79.1118 107.539 79.3396 107.959 79.7507L116.15 87.7811C116.569 88.1924 116.808 88.7536 116.814 89.3412C116.82 89.9287 116.592 90.4945 116.181 90.9141C115.77 91.3337 115.208 91.5727 114.621 91.5785C114.033 91.5843 113.467 91.3565 113.048 90.9451L104.857 82.9147C104.437 82.503 104.199 81.9417 104.193 81.3542C104.187 80.7666 104.415 80.2008 104.826 79.781Z" fill="url(#paint7_linear)"/>
<g filter="url(#filter0_d)">
<circle cx="86.5566" cy="76.6699" r="48.8848" fill="#151515"/>
</g>
<g clip-path="url(#clip1)">
<path d="M87.4037 40.7852H85.2539C70.7245 40.7852 59.0515 51.5709 59.0515 64.832V78.529C59.0515 83.018 61.8449 87.0431 66.3139 88.3977V97.0457C66.3139 105.596 81.8204 112.293 84.6973 112.293H87.9604C90.8367 112.293 106.538 105.596 106.538 97.0457V88.3977C111.007 87.0436 113.8 83.0174 113.8 78.529V64.832C113.801 51.5709 101.933 40.7852 87.4037 40.7852ZM86.3288 79.3253C88.8064 79.3253 90.1674 85.6427 90.1674 87.7364C90.1674 89.7427 89.0158 90.0127 87.8888 90.0127C87.6675 90.0127 87.4289 90.0035 87.1772 89.9932C86.6417 89.9715 86.0153 89.9715 85.4822 89.9932C85.2299 90.0041 84.9919 90.0127 84.7694 90.0127C84.2333 90.0127 83.6229 89.9623 83.163 89.5876C82.7042 89.2146 82.4908 88.626 82.4908 87.7364C82.4908 85.6427 83.8518 79.3253 86.3288 79.3253ZM70.6382 72.087C71.6164 70.9073 73.0122 70.1974 74.57 70.0922L77.0362 69.924C80.3313 69.706 82.9056 71.3999 82.9056 73.6905C82.9056 75.8826 80.702 78.7206 77.8897 80.1514L75.7502 81.2389C74.9956 81.6233 74.237 81.8178 73.4985 81.8178C71.4127 81.8178 69.8853 80.3018 69.6033 77.9558L69.4076 76.3214C69.2229 74.7717 69.6594 73.2683 70.6382 72.087ZM102.919 90.0859L97.5991 91.8913V94.9816C97.5991 95.0594 97.5356 95.1401 97.5196 95.2139C97.3949 97.9026 94.9836 99.4443 90.958 99.4443H81.5269C78.3794 99.4443 75.253 97.9061 75.253 94.9816V91.8913L69.8481 90.0859C69.2635 89.8891 68.9334 89.2564 69.1302 88.6712C69.3258 88.0865 69.9534 87.7702 70.5369 87.9681L76.7004 90.0293C77.1557 90.1826 77.4875 90.6088 77.4875 91.0893V94.9828C77.4875 95.6504 77.8897 96.1424 78.5041 96.4936C78.5813 95.9519 79.1007 95.5337 79.6637 95.5337C80.2804 95.5337 80.8393 96.0342 80.8393 96.6509V97.1509C80.8393 97.1847 81.2683 97.2104 81.5263 97.2104H83.0738V96.6504C83.0738 96.0337 83.5743 95.5331 84.191 95.5331C84.8077 95.5331 85.3083 96.0337 85.3083 96.6504V97.2104H87.5427V96.6504C87.5427 96.0337 88.0433 95.5331 88.66 95.5331C89.2767 95.5331 89.7772 96.0337 89.7772 96.6504V97.2104H90.9574C91.248 97.2104 91.4528 97.1921 92.0117 97.1647V96.6509C92.0117 96.0342 92.4625 95.5337 93.0792 95.5337C93.685 95.5337 94.1501 96.0159 94.1684 96.6178C94.8069 96.2848 95.3023 95.7728 95.3023 94.9834C95.3023 94.9147 95.3629 94.8478 95.3629 94.782V91.0899C95.3629 90.6093 95.6135 90.1831 96.0688 90.0298L102.178 87.9687C102.764 87.7707 103.411 88.0871 103.606 88.6717C103.805 89.2558 103.504 89.8891 102.919 90.0859ZM103.935 76.3208L103.74 77.9546C103.459 80.3013 101.93 81.8172 99.845 81.8172C99.1059 81.8172 98.3485 81.6227 97.5928 81.2383L95.4539 80.1508C92.641 78.7201 90.438 75.8826 90.438 73.6899C90.438 71.3993 93.0197 69.7072 96.3068 69.9234L98.7736 70.0916C100.331 70.1974 101.727 70.9068 102.705 72.087C103.685 73.2683 104.121 74.7717 103.935 76.3208Z" fill="#D20C0C"/>
</g>
</g>
<defs>
<filter id="filter0_d" x="27.6719" y="26.7852" width="119.77" height="119.77" filterUnits="userSpaceOnUse" color-interpolation-filters="sRGB">
<feFlood flood-opacity="0" result="BackgroundImageFix"/>
<feColorMatrix in="SourceAlpha" type="matrix" values="0 0 0 0 0 0 0 0 0 0 0 0 0 0 0 0 0 0 127 0"/>
<feOffset dx="1" dy="10"/>
<feGaussianBlur stdDeviation="5.5"/>
<feColorMatrix type="matrix" values="0 0 0 0 0 0 0 0 0 0 0 0 0 0 0 0 0 0 0.25 0"/>
<feBlend mode="normal" in2="BackgroundImageFix" result="effect1_dropShadow"/>
<feBlend mode="normal" in="SourceGraphic" in2="effect1_dropShadow" result="shape"/>
</filter>
<linearGradient id="paint0_linear" x1="87.4226" y1="2.21484" x2="87.4226" y2="152.18" gradientUnits="userSpaceOnUse">
<stop stop-color="#FE0101"/>
<stop offset="0.463542" stop-color="#C23F3F"/>
<stop offset="1" stop-color="#AD1212"/>
</linearGradient>
<linearGradient id="paint1_linear" x1="32.7755" y1="115.375" x2="32.7755" y2="123.956" gradientUnits="userSpaceOnUse">
<stop stop-color="#FE0101"/>
<stop offset="0.463542" stop-color="#C23F3F"/>
<stop offset="1" stop-color="#AD1212"/>
</linearGradient>
<linearGradient id="paint2_linear" x1="63.5702" y1="85.3332" x2="63.5702" y2="97.7945" gradientUnits="userSpaceOnUse">
<stop stop-color="#FE0101"/>
<stop offset="0.463542" stop-color="#C23F3F"/>
<stop offset="1" stop-color="#AD1212"/>
</linearGradient>
<linearGradient id="paint3_linear" x1="57.6851" y1="79.3323" x2="57.6851" y2="91.7934" gradientUnits="userSpaceOnUse">
<stop stop-color="#FE0101"/>
<stop offset="0.463542" stop-color="#C23F3F"/>
<stop offset="1" stop-color="#AD1212"/>
</linearGradient>
<linearGradient id="paint4_linear" x1="85.7663" y1="2" x2="85.7663" y2="151.965" gradientUnits="userSpaceOnUse">
<stop stop-color="#FE0101"/>
<stop offset="0.463542" stop-color="#C23F3F"/>
<stop offset="1" stop-color="#AD1212"/>
</linearGradient>
<linearGradient id="paint5_linear" x1="135.413" y1="115.16" x2="135.413" y2="123.741" gradientUnits="userSpaceOnUse">
<stop stop-color="#FE0101"/>
<stop offset="0.463542" stop-color="#C23F3F"/>
<stop offset="1" stop-color="#AD1212"/>
</linearGradient>
<linearGradient id="paint6_linear" x1="104.619" y1="85.1183" x2="104.619" y2="97.5797" gradientUnits="userSpaceOnUse">
<stop stop-color="#FE0101"/>
<stop offset="0.463542" stop-color="#C23F3F"/>
<stop offset="1" stop-color="#AD1212"/>
</linearGradient>
<linearGradient id="paint7_linear" x1="110.504" y1="79.1174" x2="110.504" y2="91.5786" gradientUnits="userSpaceOnUse">
<stop stop-color="#FE0101"/>
<stop offset="0.463542" stop-color="#C23F3F"/>
<stop offset="1" stop-color="#AD1212"/>
</linearGradient>
<clipPath id="clip0">
<rect width="162" height="162" fill="white"/>
</clipPath>
<clipPath id="clip1">
<rect width="71.5078" height="71.5078" fill="white" transform="translate(50.6719 40.7852)"/>
</clipPath>
</defs>
</svg>
