<svg width="60" height="60" viewBox="0 0 60 60" fill="none" xmlns="http://www.w3.org/2000/svg">
<g clip-path="url(#clip0)">
<path d="M59.041 27.6689L37.3729 6.00028C36.7543 5.38175 35.93 5.04224 35.0509 5.04224C34.171 5.04224 33.3471 5.38223 32.7285 6.00028L30.7612 7.96807C30.1432 8.58562 29.8027 9.41049 29.8027 10.29C29.8027 11.169 30.1432 12.0217 30.7612 12.6392L43.4021 25.3079H3.24144C1.43072 25.3079 0 26.7255 0 28.5367V31.3186C0 33.1298 1.43072 34.6903 3.24144 34.6903H43.5455L30.7617 47.4297C30.1437 48.0482 29.8032 48.8507 29.8032 49.7302C29.8032 50.6087 30.1437 51.4228 30.7617 52.0409L32.729 54.0023C33.3475 54.6209 34.1714 54.9579 35.0514 54.9579C35.9305 54.9579 36.7548 54.6165 37.3734 53.9979L59.0415 32.3298C59.6615 31.7093 60.0025 30.8811 60 30.0006C60.002 29.1172 59.6615 28.2884 59.041 27.6689Z" fill="white"/>
</g>
<defs>
<clipPath id="clip0">
<rect width="60" height="60" fill="white"/>
</clipPath>
</defs>
</svg>
