<svg width="44" height="44" viewBox="0 0 44 44" fill="none" xmlns="http://www.w3.org/2000/svg">
<path d="M7.05802 30.6367C7.33167 30.5339 7.57739 30.3683 7.77543 30.1533C7.97346 29.9383 8.11829 29.6798 8.19828 29.3986C8.27827 29.1174 8.29118 28.8214 8.23598 28.5344C8.18078 28.2473 8.05901 27.9772 7.88044 27.7457C7.83536 27.6858 7.80349 27.6171 7.78692 27.5439C7.77036 27.4708 7.76947 27.395 7.78433 27.3215C7.79919 27.248 7.82946 27.1785 7.87313 27.1176C7.9168 27.0567 7.9729 27.0057 8.03771 26.968L17.6995 21.3296C16.8444 22.2631 16.3079 23.4441 16.1676 24.7023C16.0272 25.9604 16.2901 27.2306 16.9185 28.3296C17.6327 29.5841 18.7849 30.5307 20.154 30.988C19.6883 30.5682 19.2923 30.077 18.981 29.5327C17.3594 26.6985 18.3193 23.0745 21.1251 21.4365C21.8409 21.0173 22.6381 20.7562 23.4633 20.6711C24.2884 20.5859 25.1221 20.6786 25.9084 20.9429C25.2105 20.3135 24.371 19.8618 23.4612 19.626C22.5514 19.3903 21.5982 19.3776 20.6824 19.5889L32.4758 12.7057C32.1094 12.5845 31.7908 12.3505 31.5655 12.0372C31.4776 11.9146 31.4046 11.7818 31.3481 11.6419C31.3198 11.5729 31.277 11.5108 31.2226 11.4598C31.1682 11.4088 31.1034 11.3702 31.0327 11.3465C30.9621 11.3227 30.8871 11.3145 30.8129 11.3223C30.7388 11.3302 30.6672 11.3539 30.603 11.3918L5.97521 25.7649C5.9104 25.8026 5.8543 25.8535 5.81063 25.9145C5.76696 25.9754 5.73669 26.0449 5.72183 26.1184C5.70697 26.1919 5.70786 26.2677 5.72442 26.3408C5.74099 26.4139 5.77286 26.4827 5.81794 26.5426C5.99838 26.7734 6.12174 27.0436 6.17798 27.3311C6.23423 27.6186 6.22176 27.9153 6.1416 28.1971C6.06143 28.4789 5.91584 28.7378 5.71668 28.9526C5.51752 29.1675 5.27043 29.3323 4.99552 29.4335C4.92401 29.4611 4.85933 29.5039 4.80595 29.5589C4.75257 29.6139 4.71177 29.6798 4.68636 29.7521C4.66095 29.8244 4.65153 29.9014 4.65877 29.9777C4.666 30.054 4.68971 30.1278 4.72826 30.1941L9.25287 38.0978C9.28999 38.1644 9.34135 38.2221 9.4033 38.2666C9.46525 38.3111 9.53626 38.3415 9.61127 38.3554C9.68627 38.3694 9.76344 38.3666 9.83726 38.3473C9.91108 38.328 9.97973 38.2927 10.0383 38.2439C10.1822 38.1222 10.3436 38.0228 10.517 37.9491C10.5237 37.9463 10.5305 37.9443 10.5372 37.9415L6.79076 31.3972C6.75221 31.331 6.7285 31.2571 6.72127 31.1808C6.71403 31.1045 6.72345 31.0276 6.74886 30.9553C6.77427 30.8829 6.81507 30.817 6.86845 30.762C6.92183 30.707 6.98651 30.6642 7.05802 30.6367Z" fill="#D4E1F4"/>
<path d="M21.4476 1.42208C21.1374 1.23885 20.794 1.11885 20.4372 1.06901C20.0804 1.01918 19.7172 1.0405 19.3687 1.13174C19.0202 1.22298 18.6932 1.38234 18.4065 1.60061C18.1199 1.81889 17.8794 2.09176 17.6987 2.40349L5.48711 23.4796L6.23047 23.9104L18.4422 2.8343C18.5659 2.62075 18.7307 2.43382 18.9271 2.2843C19.1234 2.13477 19.3474 2.0256 19.5862 1.96309C19.8249 1.90058 20.0737 1.88597 20.3181 1.92009C20.5626 1.95422 20.7978 2.03641 21.0103 2.16192L32.0317 8.67186L32.4688 7.93202L21.4476 1.42208Z" fill="#599BFF"/>
<path d="M22.2062 4.30487C22.0809 4.34113 21.9641 4.40241 21.8631 4.485C21.762 4.56759 21.6788 4.66979 21.6183 4.78543C21.5828 4.85296 21.5421 4.91761 21.4965 4.97879C21.3038 5.23404 21.0297 5.41572 20.7195 5.49367C20.4094 5.57163 20.0819 5.54117 19.7914 5.40736C19.6854 5.35862 19.5857 5.29737 19.4942 5.22492C19.3882 5.14077 19.2652 5.08045 19.1338 5.04808C19.0023 5.01571 18.8654 5.01203 18.7324 5.03731C18.5975 5.06285 18.4698 5.11715 18.3578 5.19652C18.2459 5.27589 18.1523 5.37847 18.0836 5.49725L8.77654 21.5599L9.52015 21.9908L18.8268 5.92797C18.8336 5.916 18.843 5.90567 18.8542 5.89768C18.8655 5.8897 18.8783 5.88426 18.8919 5.88174C18.9036 5.87917 18.9158 5.87928 18.9274 5.88207C18.9391 5.88485 18.95 5.89023 18.9593 5.89781C19.1045 6.01287 19.2629 6.11012 19.4312 6.1875C19.9009 6.40321 20.4301 6.45178 20.9312 6.32516C21.4322 6.19853 21.8749 5.90433 22.1856 5.49141C22.2581 5.39417 22.3227 5.29139 22.3791 5.18401C22.3852 5.1714 22.3939 5.16019 22.4045 5.15108C22.4152 5.14198 22.4276 5.13516 22.441 5.13107C22.4516 5.12794 22.4627 5.12709 22.4737 5.12857C22.4846 5.13005 22.4951 5.13383 22.5045 5.13967L30.2388 9.7081L30.6759 8.96818L22.9415 4.39974C22.832 4.33446 22.7102 4.29235 22.5837 4.27603C22.4573 4.25971 22.3288 4.26953 22.2062 4.30487Z" fill="#599BFF"/>
<path d="M42.5715 21.7996L35.3261 9.14273C34.9643 8.51451 34.3687 8.05484 33.6694 7.86398L33.6621 7.86209C32.9593 7.67618 32.2113 7.77668 31.5825 8.14155L2.4383 25.151C1.80599 25.52 1.34508 26.1239 1.15594 26.8312C0.966802 27.5385 1.06475 28.2919 1.42845 28.9273L8.67375 41.5841C9.0357 42.2123 9.63125 42.672 10.3306 42.863C10.5611 42.925 10.7988 42.9563 11.0375 42.9562C11.5221 42.9566 11.9983 42.8286 12.4174 42.5852L41.5616 25.5759C42.1939 25.2068 42.6548 24.6029 42.844 23.8956C43.0331 23.1884 42.9352 22.435 42.5715 21.7996ZM42.0148 23.6693C41.9512 23.9122 41.8401 24.1402 41.6879 24.3401C41.5358 24.5399 41.3456 24.7077 41.1283 24.8337L11.9843 41.843C11.7712 41.9674 11.5355 42.0484 11.2909 42.0812C11.0463 42.1141 10.7976 42.0982 10.5591 42.0344C10.3207 41.9706 10.0972 41.8603 9.90168 41.7098C9.70612 41.5592 9.5423 41.3714 9.41969 41.1572L2.17421 28.5003C1.92306 28.0616 1.85542 27.5414 1.98602 27.0531C2.11662 26.5647 2.43489 26.1477 2.87151 25.893L32.0158 8.8838C32.3029 8.71709 32.629 8.62941 32.9611 8.62968C33.1246 8.62958 33.2874 8.65108 33.4453 8.69362L33.4513 8.69516C33.928 8.82693 34.3336 9.14104 34.5806 9.56958L41.8258 22.2266C42.0772 22.6635 42.1452 23.1823 42.0148 23.6693Z" fill="#042FB9"/>
<path d="M35.1515 12.4701C35.0886 12.359 35.0036 12.2621 34.9018 12.1852C34.7999 12.1083 34.6834 12.0532 34.5593 12.0232C34.4325 11.9927 34.3008 11.9883 34.1721 12.01C34.0435 12.0318 33.9206 12.0794 33.8109 12.1499C33.7466 12.1911 33.6792 12.2272 33.6094 12.2579C33.3157 12.3846 32.9875 12.4069 32.6794 12.3213C32.3713 12.2357 32.1017 12.0472 31.9155 11.7871C31.8475 11.6923 31.7911 11.5897 31.7474 11.4814C31.6969 11.3558 31.6199 11.2426 31.5216 11.1494C31.4234 11.0562 31.3062 10.9853 31.178 10.9416C31.0482 10.8971 30.9103 10.8812 30.7737 10.8948C30.6372 10.9084 30.5052 10.9512 30.3866 11.0204L5.75849 25.3945C5.64009 25.4638 5.53783 25.5574 5.45851 25.6693C5.3792 25.7812 5.32467 25.9087 5.29855 26.0434C5.27251 26.1759 5.27502 26.3124 5.30591 26.4438C5.33681 26.5753 5.39539 26.6986 5.47773 26.8056C5.54884 26.8979 5.60865 26.9984 5.65588 27.1049C5.73612 27.2836 5.77876 27.4769 5.78116 27.6727C5.78356 27.8686 5.74566 28.0629 5.66983 28.2435C5.59399 28.4241 5.48184 28.5872 5.34032 28.7226C5.19881 28.8581 5.03097 28.963 4.84721 29.0308C4.71817 29.0784 4.6011 29.1536 4.50419 29.2512C4.40728 29.3487 4.33288 29.4663 4.28621 29.5957C4.23774 29.7279 4.21878 29.8691 4.23066 30.0095C4.24253 30.1498 4.28496 30.2858 4.35496 30.4081L8.87948 38.312C8.94919 38.4344 9.04509 38.5399 9.16031 38.621C9.27553 38.702 9.40724 38.7566 9.54601 38.7809C9.68184 38.8048 9.82128 38.7985 9.9544 38.7624C10.0875 38.7264 10.211 38.6614 10.3162 38.5721C10.427 38.4783 10.5514 38.4018 10.6851 38.3452C10.9749 38.2252 11.2965 38.2056 11.5988 38.2896C11.901 38.3735 12.1664 38.5562 12.3528 38.8084C12.4208 38.9009 12.4777 39.0011 12.5225 39.1068C12.5746 39.2302 12.6525 39.3411 12.7509 39.432C12.8493 39.5229 12.9659 39.5918 13.0931 39.634C13.222 39.677 13.3586 39.692 13.4937 39.678C13.6289 39.664 13.7595 39.6213 13.8768 39.5527L38.4962 25.184C38.6134 25.1153 38.7147 25.0228 38.7937 24.9123C38.8727 24.8018 38.9275 24.676 38.9545 24.5429C38.9813 24.412 38.9802 24.277 38.9513 24.1466C38.9224 24.0162 38.8663 23.8933 38.7867 23.7861C38.7324 23.7131 38.685 23.6352 38.645 23.5535C38.48 23.2196 38.4519 22.8344 38.5666 22.48C38.6814 22.1257 38.9299 21.8301 39.2593 21.6563C39.3745 21.5952 39.4763 21.5117 39.5588 21.4107C39.6412 21.3097 39.7026 21.1933 39.7394 21.0682C39.7754 20.9458 39.7861 20.8173 39.771 20.6906C39.7559 20.5639 39.7152 20.4416 39.6515 20.3311L35.1515 12.4701ZM38.9139 20.8289C38.9096 20.8434 38.9024 20.8569 38.8927 20.8685C38.883 20.8802 38.871 20.8897 38.8575 20.8966C38.75 20.9535 38.6472 21.0188 38.5499 21.0918C38.1251 21.4129 37.8252 21.8718 37.7018 22.3897C37.5783 22.9077 37.639 23.4525 37.8733 23.9307C37.9367 24.0606 38.0121 24.1843 38.0984 24.3002C38.1058 24.3104 38.1109 24.3221 38.1133 24.3344C38.1158 24.3467 38.1157 24.3595 38.1128 24.3717C38.1099 24.3862 38.104 24.4 38.0955 24.412C38.087 24.4241 38.076 24.4343 38.0633 24.4419L13.444 38.8102C13.4323 38.8172 13.4192 38.8216 13.4056 38.8231C13.392 38.8246 13.3782 38.8231 13.3652 38.8188C13.3539 38.8153 13.3435 38.8094 13.3348 38.8015C13.3261 38.7935 13.3192 38.7837 13.3147 38.7728C13.244 38.6053 13.1539 38.4467 13.0462 38.3001C12.8342 38.0141 12.558 37.7817 12.2398 37.6217C11.9217 37.4618 11.5704 37.3787 11.2143 37.379C10.9171 37.3786 10.6228 37.4382 10.3492 37.5542C10.1357 37.6448 9.93711 37.7671 9.76017 37.917C9.75126 37.9247 9.74073 37.9302 9.72937 37.9332C9.718 37.9362 9.70611 37.9365 9.6946 37.9342C9.68019 37.9316 9.66653 37.9259 9.65464 37.9174C9.64274 37.9089 9.6329 37.8978 9.62585 37.885L5.10115 29.9807C5.09337 29.967 5.08866 29.9517 5.08736 29.936C5.08605 29.9202 5.08818 29.9044 5.09359 29.8896C5.09751 29.8777 5.10402 29.8668 5.11265 29.8577C5.12129 29.8486 5.13183 29.8416 5.14352 29.8371C5.43782 29.7288 5.7067 29.5611 5.93348 29.3445C6.16025 29.1279 6.34007 28.867 6.46176 28.5779C6.58345 28.2889 6.64442 27.978 6.64088 27.6644C6.63734 27.3508 6.56936 27.0413 6.44118 26.7551C6.36594 26.5859 6.27073 26.4264 6.15758 26.2799C6.1499 26.2696 6.14453 26.2578 6.14185 26.2453C6.13916 26.2328 6.13922 26.2198 6.14203 26.2073C6.1448 26.1927 6.15064 26.1788 6.15918 26.1666C6.16771 26.1544 6.17873 26.1441 6.19153 26.1364L30.8195 11.7628C30.8314 11.7558 30.8447 11.7514 30.8584 11.75C30.8721 11.7486 30.886 11.7502 30.8991 11.7547C30.9105 11.7583 30.921 11.7645 30.9298 11.7727C30.9386 11.7809 30.9454 11.791 30.9498 11.8022C31.0189 11.974 31.1084 12.1369 31.2162 12.2875C31.5177 12.7072 31.9537 13.0112 32.4518 13.149C32.9499 13.2867 33.4801 13.25 33.9544 13.0449C34.0654 12.996 34.1725 12.9386 34.2746 12.873C34.2862 12.8651 34.2992 12.8597 34.313 12.8571C34.3267 12.8544 34.3409 12.8546 34.3545 12.8576C34.3653 12.8601 34.3754 12.8649 34.3842 12.8717C34.3929 12.8784 34.4001 12.887 34.4053 12.8967L38.9053 20.7576C38.9116 20.7682 38.9157 20.78 38.9172 20.7923C38.9187 20.8046 38.9176 20.817 38.9139 20.8289Z" fill="#042FB9"/>
<path d="M23.6134 19.2198C22.8161 19.0045 21.9838 18.9504 21.1653 19.0606C20.3468 19.1709 19.5585 19.4432 18.8465 19.8618C15.8418 21.6154 14.8099 25.5095 16.546 28.5424C16.954 29.2649 17.5017 29.899 18.1571 30.4077C18.8125 30.9165 19.5626 31.2899 20.3636 31.506C21.1647 31.7222 22.0008 31.7768 22.8232 31.6668C23.6455 31.5567 24.4378 31.2842 25.1539 30.8651C28.1586 29.1119 29.1906 25.2174 27.4544 22.1844C27.0435 21.4597 26.4922 20.8241 25.8326 20.3151C25.1731 19.806 24.4186 19.4337 23.6134 19.2198ZM24.7203 30.1229C24.1062 30.484 23.4262 30.7191 22.7202 30.8142C22.0142 30.9093 21.2963 30.8626 20.6086 30.6768C19.9132 30.4919 19.2616 30.1701 18.6921 29.7303C18.1226 29.2905 17.6466 28.7415 17.2918 28.1154C15.789 25.4904 16.6808 22.1207 19.2797 20.6045C19.8982 20.2441 20.582 20.0101 21.2916 19.916C22.0011 19.8219 22.7223 19.8696 23.4133 20.0564C24.1043 20.2431 24.7513 20.5651 25.3169 21.0038C25.8825 21.4425 26.3554 21.9891 26.7082 22.6119C28.211 25.2365 27.3195 28.6061 24.7203 30.1229Z" fill="#042FB9"/>
<path d="M13.3148 29.394C13.2574 29.2956 13.1632 29.224 13.053 29.1949C12.9428 29.1659 12.8256 29.1819 12.7272 29.2393L9.99452 30.8344C9.94578 30.8628 9.90313 30.9006 9.86899 30.9455C9.83485 30.9905 9.80989 31.0417 9.79554 31.0962C9.78119 31.1508 9.77773 31.2077 9.78536 31.2636C9.79299 31.3195 9.81156 31.3734 9.84 31.4221C9.86845 31.4708 9.90622 31.5135 9.95115 31.5476C9.99608 31.5818 10.0473 31.6067 10.1019 31.6211C10.1564 31.6354 10.2133 31.6389 10.2692 31.6313C10.3251 31.6236 10.379 31.6051 10.4277 31.5766L13.1605 29.9819C13.2093 29.9534 13.2519 29.9156 13.2861 29.8707C13.3202 29.8257 13.3451 29.7745 13.3595 29.7199C13.3738 29.6653 13.3772 29.6084 13.3696 29.5525C13.3619 29.4966 13.3433 29.4427 13.3148 29.394Z" fill="#042FB9"/>
<path d="M13.6182 30.7961L10.8858 32.3908C10.837 32.4193 10.7944 32.457 10.7602 32.502C10.7261 32.5469 10.7011 32.5981 10.6868 32.6527C10.6724 32.7073 10.669 32.7641 10.6766 32.82C10.6842 32.8759 10.7028 32.9298 10.7313 32.9785C10.7597 33.0273 10.7975 33.0699 10.8424 33.1041C10.8873 33.1382 10.9385 33.1632 10.9931 33.1775C11.0477 33.1919 11.1046 33.1953 11.1605 33.1877C11.2164 33.1801 11.2702 33.1615 11.319 33.1331L14.0518 31.5383C14.1005 31.5099 14.1432 31.4721 14.1773 31.4272C14.2115 31.3822 14.2364 31.331 14.2508 31.2765C14.2651 31.2219 14.2686 31.165 14.2609 31.1091C14.2533 31.0532 14.2348 30.9993 14.2063 30.9506C14.1779 30.9019 14.1401 30.8592 14.0952 30.8251C14.0502 30.7909 13.999 30.766 13.9444 30.7516C13.8899 30.7373 13.833 30.7338 13.7771 30.7414C13.7212 30.7491 13.6673 30.7676 13.6186 30.7961H13.6182Z" fill="#042FB9"/>
<path d="M33.4227 17.6584C33.3653 17.56 33.2711 17.4884 33.1609 17.4593C33.0507 17.4303 32.9335 17.4463 32.8351 17.5037L30.1023 19.0984C30.0535 19.1268 30.0109 19.1646 29.9767 19.2095C29.9426 19.2544 29.9176 19.3056 29.9033 19.3602C29.8889 19.4148 29.8855 19.4717 29.8931 19.5276C29.9007 19.5835 29.9193 19.6373 29.9477 19.6861C29.9762 19.7348 30.014 19.7775 30.0589 19.8116C30.1038 19.8458 30.155 19.8707 30.2096 19.8851C30.2642 19.8994 30.3211 19.9029 30.377 19.8952C30.4329 19.8876 30.4867 19.869 30.5355 19.8406L33.2683 18.2459C33.3666 18.1884 33.4381 18.0942 33.4671 17.9841C33.4961 17.8739 33.4801 17.7568 33.4227 17.6584Z" fill="#042FB9"/>
<path d="M33.7262 19.061L30.9933 20.6557C30.9441 20.6839 30.9009 20.7215 30.8663 20.7665C30.8316 20.8114 30.8063 20.8628 30.7916 20.9176C30.7769 20.9725 30.7732 21.0296 30.7808 21.0859C30.7883 21.1421 30.807 21.1963 30.8356 21.2453C30.8642 21.2943 30.9022 21.3372 30.9475 21.3714C30.9927 21.4056 31.0443 21.4306 31.0993 21.4448C31.1542 21.4589 31.2114 21.4621 31.2676 21.4541C31.3238 21.446 31.3778 21.4269 31.4266 21.3979L34.1589 19.8032C34.2574 19.7458 34.3289 19.6516 34.3579 19.5413C34.3869 19.4311 34.3709 19.3139 34.3135 19.2155C34.256 19.1171 34.1618 19.0455 34.0516 19.0165C33.9414 18.9875 33.8242 19.0035 33.7257 19.061H33.7262Z" fill="#042FB9"/>
<path d="M23.8371 25.1163L22.7721 25.7378L22.6126 25.4549L23.6944 24.8235C23.7437 24.7953 23.7869 24.7577 23.8215 24.7127C23.8561 24.6677 23.8815 24.6164 23.8962 24.5616C23.9109 24.5067 23.9145 24.4496 23.907 24.3933C23.8994 24.3371 23.8808 24.2829 23.8522 24.2339C23.8236 24.1849 23.7856 24.142 23.7403 24.1078C23.695 24.0735 23.6434 24.0486 23.5885 24.0344C23.5336 24.0203 23.4763 24.0171 23.4202 24.0251C23.364 24.0332 23.31 24.0523 23.2612 24.0813L22.1903 24.7063L21.988 24.3473L22.6153 21.9239C22.6303 21.869 22.6342 21.8116 22.6269 21.7552C22.6195 21.6988 22.6011 21.6444 22.5725 21.5951C22.544 21.5459 22.5059 21.5028 22.4606 21.4684C22.4153 21.434 22.3636 21.409 22.3085 21.3947C22.2534 21.3804 22.196 21.3773 22.1397 21.3853C22.0834 21.3934 22.0292 21.4126 21.9804 21.4418C21.9315 21.471 21.8889 21.5096 21.8551 21.5554C21.8213 21.6012 21.797 21.6532 21.7834 21.7085L21.2168 23.897L19.0459 23.324C18.9359 23.2956 18.8192 23.3119 18.7212 23.3693C18.6233 23.4267 18.552 23.5206 18.523 23.6304C18.4941 23.7402 18.5097 23.857 18.5666 23.9553C18.6235 24.0536 18.717 24.1253 18.8267 24.1549L21.2543 24.7956L21.4481 25.1394L20.3653 25.7715C20.316 25.7996 20.2728 25.8373 20.2382 25.8822C20.2036 25.9272 20.1782 25.9786 20.1635 26.0334C20.1489 26.0882 20.1452 26.1454 20.1527 26.2016C20.1603 26.2579 20.1789 26.3121 20.2075 26.3611C20.2361 26.4101 20.2742 26.4529 20.3194 26.4872C20.3647 26.5214 20.4163 26.5463 20.4712 26.5605C20.5262 26.5747 20.5834 26.5778 20.6396 26.5698C20.6957 26.5617 20.7497 26.5426 20.7985 26.5136L21.8705 25.888L22.03 26.1709L20.9411 26.8064C20.8918 26.8346 20.8486 26.8722 20.814 26.9172C20.7794 26.9621 20.754 27.0135 20.7393 27.0683C20.7246 27.1231 20.721 27.1803 20.7285 27.2366C20.7361 27.2928 20.7547 27.347 20.7833 27.396C20.8119 27.445 20.8499 27.4879 20.8952 27.5221C20.9405 27.5563 20.9921 27.5813 21.047 27.5954C21.1019 27.6096 21.1592 27.6128 21.2153 27.6047C21.2715 27.5967 21.3255 27.5776 21.3743 27.5486L22.4521 26.9196L22.8057 27.5469C22.8617 27.6462 22.9548 27.7192 23.0646 27.7498C23.1744 27.7804 23.2918 27.7661 23.3911 27.7102C23.4904 27.6542 23.5633 27.5611 23.594 27.4513C23.6246 27.3415 23.6103 27.2241 23.5543 27.1248L23.1944 26.4866L24.2705 25.8586C24.3673 25.8004 24.4372 25.7063 24.4652 25.5969C24.4932 25.4875 24.477 25.3714 24.42 25.2738C24.3631 25.1763 24.27 25.105 24.161 25.0756C24.0519 25.0461 23.9357 25.0608 23.8373 25.1164L23.8371 25.1163Z" fill="#042FB9"/>
</svg>
