<svg width="61" height="61" viewBox="0 0 61 61" fill="none" xmlns="http://www.w3.org/2000/svg">
<g clip-path="url(#clip0)">
<path d="M5.55029 43.4955L33.5087 20.6205C34.0525 20.1769 34.8532 20.2583 35.2967 20.8022C35.4814 21.0286 35.5824 21.3118 35.5827 21.6041V59.7291C35.5833 60.2894 35.2167 60.7841 34.6804 60.9466C34.5609 60.9826 34.4366 61.0006 34.3119 61C33.8868 60.9997 33.4901 60.7871 33.2545 60.4332L23.4639 45.75H6.35342C5.65156 45.7491 5.08326 45.1795 5.0841 44.4777C5.08457 44.097 5.25566 43.7365 5.55029 43.4955Z" fill="#FD445F"/>
<path d="M34.3118 12.7084C35.0136 12.7084 35.5827 12.1394 35.5827 11.4375V1.27087C35.5825 0.569016 35.0136 0 34.3118 0C33.6099 0 33.0409 0.569016 33.0409 1.27087V11.4375C33.0409 12.1394 33.6099 12.7084 34.3118 12.7084Z" fill="#455A64"/>
<path d="M44.4784 22.875H54.645C55.3469 22.875 55.9159 22.306 55.9159 21.6041C55.9159 20.9023 55.3469 20.3333 54.645 20.3333H44.4784C43.7766 20.3333 43.2075 20.9023 43.2075 21.6041C43.2075 22.306 43.7766 22.875 44.4784 22.875Z" fill="#455A64"/>
<path d="M13.9784 22.875H24.145C24.8469 22.875 25.4159 22.306 25.4159 21.6041C25.4159 20.9023 24.8469 20.3333 24.145 20.3333H13.9784C13.2766 20.3333 12.7075 20.9023 12.7075 21.6041C12.7075 22.306 13.2766 22.875 13.9784 22.875Z" fill="#455A64"/>
<path d="M41.4995 15.6871C41.8368 15.6877 42.1605 15.5543 42.3993 15.316L49.5897 8.13334C50.0887 7.63426 50.0887 6.82529 49.5897 6.32621C49.0906 5.82713 48.2816 5.82713 47.7825 6.32621L40.6023 13.5166C40.1054 14.0122 40.1044 14.8169 40.6 15.3138C40.839 15.5534 41.1637 15.6878 41.502 15.6872H41.4995V15.6871Z" fill="#455A64"/>
<path d="M48.6899 37.2533C49.3918 37.2547 49.9617 36.6866 49.9631 35.9847C49.9637 35.6464 49.8293 35.3217 49.5897 35.0827L42.3993 27.8924C41.8945 27.4048 41.0899 27.4188 40.6023 27.9236C40.1267 28.4161 40.1267 29.1968 40.6023 29.6892L47.7825 36.8821C48.0232 37.1223 48.35 37.256 48.6899 37.2533Z" fill="#455A64"/>
<path d="M27.1239 15.6872C27.8258 15.6885 28.3957 15.1205 28.3971 14.4186C28.3976 14.0803 28.2633 13.7556 28.0237 13.5166L20.8409 6.32623C20.3361 5.83859 19.5316 5.85265 19.0439 6.35745C18.5683 6.84998 18.5683 7.6307 19.0439 8.12311L26.2242 15.3135C26.4626 15.5527 26.7863 15.6872 27.1239 15.6872Z" fill="#455A64"/>
</g>
<defs>
<clipPath id="clip0">
<rect width="61" height="61" fill="white" transform="matrix(-1 0 0 1 61 0)"/>
</clipPath>
</defs>
</svg>
