<svg width="109" height="109" viewBox="0 0 109 109" fill="none" xmlns="http://www.w3.org/2000/svg">
<g clip-path="url(#clip0)">
<g filter="url(#filter0_d)">
<path d="M90.3697 86.1962C84.9715 86.1962 80.5797 81.8045 80.5797 76.4062V51.6517C80.5797 50.3708 79.5374 49.3287 78.2565 49.3287H67.1457C66.0874 49.3287 65.2297 48.4709 65.2297 47.4126C65.2297 46.3544 66.0874 45.4966 67.1457 45.4966H78.2565C81.6504 45.4966 84.4118 48.2578 84.4118 51.6517V76.4062C84.4118 79.6915 87.0844 82.3642 90.3697 82.3642C93.655 82.3642 96.3277 79.6915 96.3277 76.4062V41.8764C96.3277 40.4141 95.7754 39.0224 94.7727 37.958L89.5607 32.4254C88.835 31.6551 88.8712 30.4425 89.6414 29.717C90.4117 28.9914 91.6241 29.0274 92.3498 29.7979L97.5618 35.3305C99.237 37.1087 100.16 39.4335 100.16 41.8766V76.4064C100.16 81.8045 95.7678 86.1962 90.3697 86.1962Z" fill="#8C4C17"/>
<path d="M82.4289 23.9983C81.9859 23.9983 81.5409 23.8457 81.179 23.5338L75.3362 18.4996L67.5613 17.641C66.5096 17.5248 65.751 16.578 65.8671 15.5264C65.9833 14.4745 66.9315 13.7164 67.9819 13.8322L76.3473 14.7559C76.732 14.7983 77.0945 14.9562 77.3877 15.2087L83.6805 20.6308C84.482 21.3217 84.5721 22.5313 83.8812 23.3331C83.5023 23.7727 82.9671 23.9983 82.4289 23.9983Z" fill="#8C4C17"/>
<path d="M71.8853 97.2097H13.8077V11.1776C13.8077 8.23823 16.1905 5.85535 19.1299 5.85535H66.563C69.5024 5.85535 71.8853 8.23823 71.8853 11.1776V97.2097Z" fill="#FF624B"/>
<path d="M63.3971 39.3449H22.2958C21.12 39.3449 20.1669 38.3918 20.1669 37.216V14.5264C20.1669 13.3506 21.12 12.3975 22.2958 12.3975H63.3971C64.5729 12.3975 65.526 13.3506 65.526 14.5264V37.216C65.526 38.3918 64.5729 39.3449 63.3971 39.3449Z" fill="#FFEACF"/>
<path d="M52.6368 34.4725C52.8712 33.5401 52.9765 32.5563 52.9297 31.5406C52.6894 26.3148 48.4005 22.087 43.1717 21.9228C37.4485 21.7429 32.7524 26.329 32.7524 32.0119C32.7524 32.8614 32.8584 33.6859 33.0564 34.4738C33.1505 34.8481 33.4939 35.1059 33.8796 35.1059H51.8129C52.1991 35.1057 52.5425 34.8472 52.6368 34.4725Z" fill="#FFA730"/>
<path d="M42.8474 30.1085C42.3818 30.1085 41.9205 29.9058 41.6048 29.5156C41.0504 28.8298 41.1569 27.8246 41.8426 27.27L54.1362 17.3312C54.8219 16.7768 55.8272 16.8833 56.3817 17.569C56.9361 18.2547 56.8297 19.26 56.1439 19.8146L43.8504 29.7534C43.5546 29.9922 43.1998 30.1085 42.8474 30.1085Z" fill="#FF4B34"/>
<path d="M100.66 25.6823L95.1764 20.6C95.0386 20.4722 94.8634 20.3845 94.6725 20.3479L85.5273 18.5922C85.4036 18.5686 85.2804 18.5692 85.1614 18.5875L85.1471 18.5728L85.1254 18.5941C84.8427 18.6473 84.591 18.8106 84.4467 19.0561C84.3873 19.1572 84.3524 19.2649 84.3364 19.3741L78.8294 24.8182C78.2062 25.4341 78.1984 26.4408 78.8117 27.0667L88.2796 36.7275C88.8929 37.3532 89.8952 37.3613 90.5183 36.7452L96.7788 30.5564C96.839 30.5207 96.8963 30.4802 96.9478 30.4323L100.66 26.992C101.051 26.6305 101.051 26.0442 100.66 25.6823ZM96.247 28.4627L88.3479 21.0257L93.9742 22.1057L98.5403 26.3372L96.247 28.4627Z" fill="#FFA730"/>
<path d="M29.7745 5.85535H19.1299C16.1905 5.85535 13.8077 8.23823 13.8077 11.1776V97.2097H24.4522V11.1776C24.4522 8.23823 26.8351 5.85535 29.7745 5.85535Z" fill="#FF4B34"/>
<path d="M24.4522 12.3975H22.2958C21.12 12.3975 20.1669 13.3506 20.1669 14.5264V37.216C20.1669 38.3918 21.12 39.3449 22.2958 39.3449H24.4522V12.3975Z" fill="#FFD59A"/>
<path d="M75.5172 103.145H10.1757C8.99995 103.145 8.04684 102.191 8.04684 101.016V93.6158C8.04684 92.44 8.99995 91.4869 10.1757 91.4869H75.5172C76.693 91.4869 77.6461 92.44 77.6461 93.6158V101.016C77.6461 102.191 76.693 103.145 75.5172 103.145Z" fill="#FF9079"/>
<path d="M18.6914 101.016V93.6158C18.6914 92.44 19.6445 91.4869 20.8203 91.4869H10.1757C8.99995 91.4869 8.04684 92.44 8.04684 93.6158V101.016C8.04684 102.191 8.99995 103.145 10.1757 103.145H20.8203C19.6445 103.145 18.6914 102.191 18.6914 101.016Z" fill="#FF624B"/>
<path d="M34.7885 64.2359C34.7885 64.2359 34.7665 56.304 42.1843 49.582C42.5602 49.2414 43.1327 49.2414 43.5087 49.582C50.9264 56.304 50.9045 64.2359 50.9045 64.2359L50.8804 64.2376C50.8947 64.4332 50.9045 64.63 50.9045 64.8292C50.9045 69.2795 47.2968 72.8871 42.8466 72.8871C38.3963 72.8871 34.7887 69.2795 34.7887 64.8292C34.7887 64.63 34.7985 64.4332 34.8125 64.2376L34.7885 64.2359Z" fill="#FFD551"/>
<path d="M39.472 64.8292C39.472 64.63 39.4818 64.4332 39.4959 64.2376L39.472 64.2359C39.472 64.2359 39.4582 57.556 45.1882 51.2613C44.6742 50.6969 44.119 50.1351 43.5085 49.582C43.1325 49.2414 42.56 49.2414 42.1841 49.582C34.7663 56.304 34.7882 64.2359 34.7882 64.2359L34.8121 64.2376C34.7978 64.4332 34.7882 64.63 34.7882 64.8292C34.7882 69.2795 38.3959 72.8871 42.8462 72.8871C43.6609 72.8871 44.4467 72.7651 45.188 72.5403C41.8803 71.5372 39.472 68.465 39.472 64.8292Z" fill="#FFC34C"/>
<path d="M66.9022 51.6477C66.1969 51.6477 65.6248 51.0758 65.6248 50.3703V47.0511C65.6248 46.3456 66.1969 45.7738 66.9022 45.7738C67.6075 45.7738 68.1795 46.3456 68.1795 47.0511V50.3703C68.1795 51.0758 67.6075 51.6477 66.9022 51.6477Z" fill="#FF9079"/>
<path d="M66.9022 87.9485C66.1969 87.9485 65.6248 87.3767 65.6248 86.6712V54.9258C65.6248 54.2203 66.1969 53.6484 66.9022 53.6484C67.6075 53.6484 68.1795 54.2203 68.1795 54.9258V86.6712C68.1795 87.3767 67.6075 87.9485 66.9022 87.9485Z" fill="#FF9079"/>
<path d="M88.6636 34.1415C88.323 34.1415 87.9834 34.0063 87.732 33.7382L81.7634 27.3788C81.2806 26.8644 81.3063 26.0561 81.8207 25.5732C82.335 25.0906 83.1434 25.116 83.6262 25.6305L89.5948 31.99C90.0776 32.5043 90.0519 33.3127 89.5375 33.7955C89.291 34.0269 88.977 34.1415 88.6636 34.1415Z" fill="#FFB74B"/>
<path d="M61.5254 36.383C60.8201 36.383 60.2481 35.8112 60.2481 35.1057V17.724C60.2481 17.0185 60.8201 16.4467 61.5254 16.4467C62.2307 16.4467 62.8027 17.0185 62.8027 17.724V35.1057C62.8027 35.8112 62.2307 36.383 61.5254 36.383Z" fill="#FCF9DE"/>
<path d="M30.5142 81.2874C32.2779 81.2874 33.7076 79.8576 33.7076 78.094C33.7076 76.3304 32.2779 74.9006 30.5142 74.9006C28.7506 74.9006 27.3209 76.3304 27.3209 78.094C27.3209 79.8576 28.7506 81.2874 30.5142 81.2874Z" fill="#FF4B34"/>
<path d="M37.9818 87.4736C39.7455 87.4736 41.1752 86.0439 41.1752 84.2803C41.1752 82.5166 39.7455 81.0869 37.9818 81.0869C36.2182 81.0869 34.7885 82.5166 34.7885 84.2803C34.7885 86.0439 36.2182 87.4736 37.9818 87.4736Z" fill="#FF4B34"/>
<path d="M30.5142 20.9174C32.2779 20.9174 33.7076 19.4876 33.7076 17.724C33.7076 15.9604 32.2779 14.5306 30.5142 14.5306C28.7506 14.5306 27.3209 15.9604 27.3209 17.724C27.3209 19.4876 28.7506 20.9174 30.5142 20.9174Z" fill="#FFD59A"/>
</g>
</g>
<defs>
<filter id="filter0_d" x="7.04684" y="5.85535" width="100.906" height="105.289" filterUnits="userSpaceOnUse" color-interpolation-filters="sRGB">
<feFlood flood-opacity="0" result="BackgroundImageFix"/>
<feColorMatrix in="SourceAlpha" type="matrix" values="0 0 0 0 0 0 0 0 0 0 0 0 0 0 0 0 0 0 127 0"/>
<feOffset dx="3" dy="4"/>
<feGaussianBlur stdDeviation="2"/>
<feColorMatrix type="matrix" values="0 0 0 0 0 0 0 0 0 0 0 0 0 0 0 0 0 0 0.25 0"/>
<feBlend mode="normal" in2="BackgroundImageFix" result="effect1_dropShadow"/>
<feBlend mode="normal" in="SourceGraphic" in2="effect1_dropShadow" result="shape"/>
</filter>
<clipPath id="clip0">
<rect width="109" height="109" fill="white"/>
</clipPath>
</defs>
</svg>
