<svg width="357" height="357" viewBox="0 0 357 357" fill="none" xmlns="http://www.w3.org/2000/svg">
<g clip-path="url(#clip0)">
<g filter="url(#filter0_d)">
<path d="M226.469 231.571L210.982 230.84C209.214 230.636 207.946 229.037 208.15 227.268C208.355 225.5 209.953 224.232 211.722 224.437L227.209 225.167C228.978 225.371 230.245 226.97 230.041 228.739C229.837 230.508 228.237 231.776 226.469 231.571Z" fill="#585A60"/>
<path d="M212.059 162.893L199.541 172.147C198.131 173.233 196.106 172.971 195.02 171.561C193.934 170.15 194.203 168.137 195.606 167.04L208.125 157.786C209.535 156.7 211.559 156.962 212.645 158.373C213.721 159.77 213.484 161.789 212.059 162.893Z" fill="#585A60"/>
<path d="M139.471 138.328C137.704 138.111 136.447 136.503 136.663 134.737L138.461 118.56C138.676 116.793 140.284 115.536 142.051 115.752C143.818 115.968 145.075 117.576 144.859 119.342L143.061 135.519C142.845 137.287 141.237 138.544 139.471 138.328Z" fill="#585A60"/>
</g>
<g filter="url(#filter1_d)">
<path d="M126.376 205.327L94.8715 167.351C92.9197 164.998 89.4287 164.673 87.0761 166.625C84.7227 168.577 84.3971 172.068 86.3493 174.421L117.837 212.376C119.799 209.047 122.871 206.574 126.376 205.327Z" fill="#BABABA"/>
</g>
<g filter="url(#filter2_d)">
<path d="M90.7251 170.657L121.671 207.959C123.123 206.796 124.713 205.918 126.376 205.326L94.871 167.351C92.2186 164.153 87.1115 164.917 85.5082 168.742C87.4005 168.412 89.4114 169.073 90.7251 170.657Z" fill="#989DA0"/>
</g>
<g filter="url(#filter3_d)">
<path d="M231.032 236.429C227.956 236.023 225.79 233.201 226.197 230.123C229.864 202.34 221.462 174.256 203.147 153.073C167.761 112.146 105.675 107.639 64.7476 143.025C62.4 145.055 58.8517 144.797 56.8223 142.449C54.7931 140.102 55.0507 136.554 57.398 134.524C103.119 94.9927 172.111 99.9988 211.646 145.724C232.059 169.333 241.424 200.631 237.337 231.594C236.93 234.672 234.107 236.835 231.032 236.429Z" fill="#FF8828"/>
</g>
<g filter="url(#filter4_d)">
<path d="M218.014 153.85L209.106 160.711C223.242 180.767 229.438 205.561 226.197 230.124C225.519 235.252 231.561 238.465 235.443 235.108C236.448 234.24 237.149 233.014 237.337 231.595C240.97 204.062 233.962 176.27 218.014 153.85Z" fill="#F94134"/>
</g>
<g filter="url(#filter5_d)">
<path d="M41.3902 141.836L29.8128 151.846C29.3638 152.234 29.3145 152.912 29.7027 153.361L45.112 171.183C45.5002 171.632 46.1785 171.682 46.6275 171.294L49.4942 168.815C49.9432 168.427 49.9924 167.748 49.6042 167.299L43.6758 160.443L50.0393 154.941C50.4883 154.552 50.5375 153.874 50.1494 153.425L48.4049 151.408C48.0167 150.959 47.3384 150.909 46.8894 151.298L40.5259 156.8L36.9024 152.609L44.8001 145.78C45.249 145.392 45.2983 144.714 44.9101 144.265L42.9054 141.946C42.5175 141.497 41.8392 141.448 41.3902 141.836Z" fill="#585A60"/>
<path d="M232.703 260.416L224.339 267.647L220.763 263.511L227.619 257.583C228.068 257.195 228.118 256.516 227.729 256.067L225.985 254.05C225.597 253.601 224.919 253.552 224.47 253.94L217.613 259.868L214.345 256.088L222.462 249.069C222.911 248.681 222.961 248.003 222.572 247.554L220.567 245.235C220.179 244.786 219.501 244.737 219.052 245.125L207.255 255.325C206.806 255.713 206.757 256.391 207.145 256.84L222.554 274.662C222.942 275.111 223.621 275.16 224.07 274.772L236.112 264.36C236.561 263.972 236.611 263.293 236.222 262.844L234.218 260.526C233.83 260.077 233.151 260.028 232.703 260.416Z" fill="#585A60"/>
</g>
<g filter="url(#filter6_d)">
<path d="M118 204.671C111.139 210.604 110.383 221.012 116.315 227.873C122.248 234.735 132.657 235.491 139.518 229.558C146.379 223.626 147.135 213.217 141.203 206.355C135.27 199.493 124.862 198.738 118 204.671Z" fill="#DDDBDB"/>
</g>
<g filter="url(#filter7_d)">
<path d="M122.583 222.454C117.587 216.675 117.335 208.379 121.48 202.361C111.803 207.132 109.313 219.774 116.316 227.873C123.315 235.968 136.184 235.339 142.306 226.448C135.752 229.68 127.58 228.233 122.583 222.454Z" fill="#BABABA"/>
</g>
<g filter="url(#filter8_d)">
<path d="M75.0315 154.919C73.6849 156.083 71.6496 155.936 70.4851 154.589L61.4663 144.158C60.3018 142.811 60.4499 140.776 61.7964 139.611C63.143 138.447 65.1783 138.595 66.3428 139.942L75.3616 150.372C76.5258 151.719 76.378 153.755 75.0315 154.919Z" fill="#585A60"/>
</g>
<g filter="url(#filter9_d)">
<path d="M57.398 134.524C55.0504 136.554 54.7934 140.103 56.8223 142.449C58.852 144.797 62.4004 145.054 64.7476 143.025C86.7631 123.99 114.9 116.505 141.712 120.016L143.081 108.815C111.9 104.773 81.1368 113.999 57.398 134.524Z" fill="#3A984D"/>
</g>
<g filter="url(#filter10_d)">
<path d="M133.936 212.638C136.408 215.498 136.095 219.819 133.235 222.292C130.376 224.763 126.054 224.45 123.582 221.59C121.11 218.732 121.424 214.409 124.283 211.937C127.142 209.465 131.464 209.78 133.936 212.638Z" fill="#BABABA"/>
</g>
<g filter="url(#filter11_d)">
<path d="M127.475 210.398C122.3 211.381 120.143 217.613 123.582 221.59C127.017 225.564 133.496 224.338 135.22 219.355C130.04 220.339 125.756 215.373 127.475 210.398Z" fill="#989DA0"/>
</g>
<g filter="url(#filter12_d)">
<path d="M232.849 232.603C236.792 202.737 227.759 172.547 208.068 149.774C169.936 105.671 103.389 100.835 59.2823 138.971C58.0271 140.056 57.3946 141.591 57.4111 143.13C59.4867 144.871 62.5732 144.906 64.6883 143.077C105.616 107.69 167.702 112.198 203.088 153.125C221.404 174.308 229.805 202.392 226.138 230.175C225.753 233.088 227.675 235.77 230.491 236.392C231.845 235.485 232.652 234.096 232.849 232.603Z" fill="#F2721C"/>
</g>
<g filter="url(#filter13_d)">
<path d="M232.849 232.603C236.383 205.828 229.483 178.796 213.83 157.078L209.048 160.761C221.823 178.897 228.565 201.607 226.658 225.249C226.265 230.089 225.151 232.87 228.231 235.318C228.89 235.838 229.667 236.21 230.49 236.392C231.845 235.485 232.652 234.096 232.849 232.603Z" fill="#FF5246"/>
</g>
<g filter="url(#filter14_d)">
<path d="M141.652 120.068L142.367 114.229C112.11 110.191 82.2825 119.084 59.2823 138.971C58.0271 140.056 57.3946 141.591 57.4111 143.13C59.4309 144.822 62.5491 144.927 64.6883 143.077C86.7578 123.995 115.627 116.378 141.652 120.068Z" fill="#34AA47"/>
</g>
</g>
<defs>
<filter id="filter0_d" x="124.081" y="114.405" width="111.305" height="133.86" filterUnits="userSpaceOnUse" color-interpolation-filters="sRGB">
<feFlood flood-opacity="0" result="BackgroundImageFix"/>
<feColorMatrix in="SourceAlpha" type="matrix" values="0 0 0 0 0 0 0 0 0 0 0 0 0 0 0 0 0 0 127 0"/>
<feOffset dy="4"/>
<feGaussianBlur stdDeviation="2"/>
<feColorMatrix type="matrix" values="0 0 0 0 0 0 0 0 0 0 0 0 0 0 0 0 0 0 0.25 0"/>
<feBlend mode="normal" in2="BackgroundImageFix" result="effect1_dropShadow"/>
<feBlend mode="normal" in="SourceGraphic" in2="effect1_dropShadow" result="shape"/>
</filter>
<filter id="filter1_d" x="81.0595" y="165.255" width="49.3355" height="55.2063" filterUnits="userSpaceOnUse" color-interpolation-filters="sRGB">
<feFlood flood-opacity="0" result="BackgroundImageFix"/>
<feColorMatrix in="SourceAlpha" type="matrix" values="0 0 0 0 0 0 0 0 0 0 0 0 0 0 0 0 0 0 127 0"/>
<feOffset dy="4"/>
<feGaussianBlur stdDeviation="2"/>
<feColorMatrix type="matrix" values="0 0 0 0 0 0 0 0 0 0 0 0 0 0 0 0 0 0 0.25 0"/>
<feBlend mode="normal" in2="BackgroundImageFix" result="effect1_dropShadow"/>
<feBlend mode="normal" in="SourceGraphic" in2="effect1_dropShadow" result="shape"/>
</filter>
<filter id="filter2_d" x="81.4994" y="165.257" width="48.8835" height="50.7967" filterUnits="userSpaceOnUse" color-interpolation-filters="sRGB">
<feFlood flood-opacity="0" result="BackgroundImageFix"/>
<feColorMatrix in="SourceAlpha" type="matrix" values="0 0 0 0 0 0 0 0 0 0 0 0 0 0 0 0 0 0 127 0"/>
<feOffset dy="4"/>
<feGaussianBlur stdDeviation="2"/>
<feColorMatrix type="matrix" values="0 0 0 0 0 0 0 0 0 0 0 0 0 0 0 0 0 0 0.25 0"/>
<feBlend mode="normal" in2="BackgroundImageFix" result="effect1_dropShadow"/>
<feBlend mode="normal" in="SourceGraphic" in2="effect1_dropShadow" result="shape"/>
</filter>
<filter id="filter3_d" x="49.1476" y="63" width="220.902" height="228.844" filterUnits="userSpaceOnUse" color-interpolation-filters="sRGB">
<feFlood flood-opacity="0" result="BackgroundImageFix"/>
<feColorMatrix in="SourceAlpha" type="matrix" values="0 0 0 0 0 0 0 0 0 0 0 0 0 0 0 0 0 0 127 0"/>
<feOffset dy="4"/>
<feGaussianBlur stdDeviation="2"/>
<feColorMatrix type="matrix" values="0 0 0 0 0 0 0 0 0 0 0 0 0 0 0 0 0 0 0.25 0"/>
<feBlend mode="normal" in2="BackgroundImageFix" result="effect1_dropShadow"/>
<feBlend mode="normal" in="SourceGraphic" in2="effect1_dropShadow" result="shape"/>
</filter>
<filter id="filter4_d" x="179.113" y="153.369" width="90.5599" height="93.4187" filterUnits="userSpaceOnUse" color-interpolation-filters="sRGB">
<feFlood flood-opacity="0" result="BackgroundImageFix"/>
<feColorMatrix in="SourceAlpha" type="matrix" values="0 0 0 0 0 0 0 0 0 0 0 0 0 0 0 0 0 0 127 0"/>
<feOffset dy="4"/>
<feGaussianBlur stdDeviation="2"/>
<feColorMatrix type="matrix" values="0 0 0 0 0 0 0 0 0 0 0 0 0 0 0 0 0 0 0.25 0"/>
<feBlend mode="normal" in2="BackgroundImageFix" result="effect1_dropShadow"/>
<feBlend mode="normal" in="SourceGraphic" in2="effect1_dropShadow" result="shape"/>
</filter>
<filter id="filter5_d" x="25" y="141.133" width="215.925" height="142.342" filterUnits="userSpaceOnUse" color-interpolation-filters="sRGB">
<feFlood flood-opacity="0" result="BackgroundImageFix"/>
<feColorMatrix in="SourceAlpha" type="matrix" values="0 0 0 0 0 0 0 0 0 0 0 0 0 0 0 0 0 0 127 0"/>
<feOffset dy="4"/>
<feGaussianBlur stdDeviation="2"/>
<feColorMatrix type="matrix" values="0 0 0 0 0 0 0 0 0 0 0 0 0 0 0 0 0 0 0.25 0"/>
<feBlend mode="normal" in2="BackgroundImageFix" result="effect1_dropShadow"/>
<feBlend mode="normal" in="SourceGraphic" in2="effect1_dropShadow" result="shape"/>
</filter>
<filter id="filter6_d" x="108.317" y="200.672" width="40.8851" height="40.8854" filterUnits="userSpaceOnUse" color-interpolation-filters="sRGB">
<feFlood flood-opacity="0" result="BackgroundImageFix"/>
<feColorMatrix in="SourceAlpha" type="matrix" values="0 0 0 0 0 0 0 0 0 0 0 0 0 0 0 0 0 0 127 0"/>
<feOffset dy="4"/>
<feGaussianBlur stdDeviation="2"/>
<feColorMatrix type="matrix" values="0 0 0 0 0 0 0 0 0 0 0 0 0 0 0 0 0 0 0.25 0"/>
<feBlend mode="normal" in2="BackgroundImageFix" result="effect1_dropShadow"/>
<feBlend mode="normal" in="SourceGraphic" in2="effect1_dropShadow" result="shape"/>
</filter>
<filter id="filter7_d" x="108.317" y="202.361" width="37.989" height="39.1923" filterUnits="userSpaceOnUse" color-interpolation-filters="sRGB">
<feFlood flood-opacity="0" result="BackgroundImageFix"/>
<feColorMatrix in="SourceAlpha" type="matrix" values="0 0 0 0 0 0 0 0 0 0 0 0 0 0 0 0 0 0 127 0"/>
<feOffset dy="4"/>
<feGaussianBlur stdDeviation="2"/>
<feColorMatrix type="matrix" values="0 0 0 0 0 0 0 0 0 0 0 0 0 0 0 0 0 0 0.25 0"/>
<feBlend mode="normal" in2="BackgroundImageFix" result="effect1_dropShadow"/>
<feBlend mode="normal" in="SourceGraphic" in2="effect1_dropShadow" result="shape"/>
</filter>
<filter id="filter8_d" x="56.6812" y="138.826" width="23.4654" height="24.8777" filterUnits="userSpaceOnUse" color-interpolation-filters="sRGB">
<feFlood flood-opacity="0" result="BackgroundImageFix"/>
<feColorMatrix in="SourceAlpha" type="matrix" values="0 0 0 0 0 0 0 0 0 0 0 0 0 0 0 0 0 0 127 0"/>
<feOffset dy="4"/>
<feGaussianBlur stdDeviation="2"/>
<feColorMatrix type="matrix" values="0 0 0 0 0 0 0 0 0 0 0 0 0 0 0 0 0 0 0.25 0"/>
<feBlend mode="normal" in2="BackgroundImageFix" result="effect1_dropShadow"/>
<feBlend mode="normal" in="SourceGraphic" in2="effect1_dropShadow" result="shape"/>
</filter>
<filter id="filter9_d" x="49.1476" y="81.1342" width="102.89" height="98.4781" filterUnits="userSpaceOnUse" color-interpolation-filters="sRGB">
<feFlood flood-opacity="0" result="BackgroundImageFix"/>
<feColorMatrix in="SourceAlpha" type="matrix" values="0 0 0 0 0 0 0 0 0 0 0 0 0 0 0 0 0 0 127 0"/>
<feOffset dy="4"/>
<feGaussianBlur stdDeviation="2"/>
<feColorMatrix type="matrix" values="0 0 0 0 0 0 0 0 0 0 0 0 0 0 0 0 0 0 0.25 0"/>
<feBlend mode="normal" in2="BackgroundImageFix" result="effect1_dropShadow"/>
<feBlend mode="normal" in="SourceGraphic" in2="effect1_dropShadow" result="shape"/>
</filter>
<filter id="filter10_d" x="117.915" y="210.271" width="21.6875" height="21.6875" filterUnits="userSpaceOnUse" color-interpolation-filters="sRGB">
<feFlood flood-opacity="0" result="BackgroundImageFix"/>
<feColorMatrix in="SourceAlpha" type="matrix" values="0 0 0 0 0 0 0 0 0 0 0 0 0 0 0 0 0 0 127 0"/>
<feOffset dy="4"/>
<feGaussianBlur stdDeviation="2"/>
<feColorMatrix type="matrix" values="0 0 0 0 0 0 0 0 0 0 0 0 0 0 0 0 0 0 0.25 0"/>
<feBlend mode="normal" in2="BackgroundImageFix" result="effect1_dropShadow"/>
<feBlend mode="normal" in="SourceGraphic" in2="effect1_dropShadow" result="shape"/>
</filter>
<filter id="filter11_d" x="117.913" y="210.398" width="21.3071" height="21.5578" filterUnits="userSpaceOnUse" color-interpolation-filters="sRGB">
<feFlood flood-opacity="0" result="BackgroundImageFix"/>
<feColorMatrix in="SourceAlpha" type="matrix" values="0 0 0 0 0 0 0 0 0 0 0 0 0 0 0 0 0 0 127 0"/>
<feOffset dy="4"/>
<feGaussianBlur stdDeviation="2"/>
<feColorMatrix type="matrix" values="0 0 0 0 0 0 0 0 0 0 0 0 0 0 0 0 0 0 0.25 0"/>
<feBlend mode="normal" in2="BackgroundImageFix" result="effect1_dropShadow"/>
<feBlend mode="normal" in="SourceGraphic" in2="effect1_dropShadow" result="shape"/>
</filter>
<filter id="filter12_d" x="52.1535" y="69.9792" width="212.389" height="220.182" filterUnits="userSpaceOnUse" color-interpolation-filters="sRGB">
<feFlood flood-opacity="0" result="BackgroundImageFix"/>
<feColorMatrix in="SourceAlpha" type="matrix" values="0 0 0 0 0 0 0 0 0 0 0 0 0 0 0 0 0 0 127 0"/>
<feOffset dy="4"/>
<feGaussianBlur stdDeviation="2"/>
<feColorMatrix type="matrix" values="0 0 0 0 0 0 0 0 0 0 0 0 0 0 0 0 0 0 0.25 0"/>
<feBlend mode="normal" in2="BackgroundImageFix" result="effect1_dropShadow"/>
<feBlend mode="normal" in="SourceGraphic" in2="effect1_dropShadow" result="shape"/>
</filter>
<filter id="filter13_d" x="179.046" y="156.82" width="85.1793" height="88.3416" filterUnits="userSpaceOnUse" color-interpolation-filters="sRGB">
<feFlood flood-opacity="0" result="BackgroundImageFix"/>
<feColorMatrix in="SourceAlpha" type="matrix" values="0 0 0 0 0 0 0 0 0 0 0 0 0 0 0 0 0 0 127 0"/>
<feOffset dy="4"/>
<feGaussianBlur stdDeviation="2"/>
<feColorMatrix type="matrix" values="0 0 0 0 0 0 0 0 0 0 0 0 0 0 0 0 0 0 0.25 0"/>
<feBlend mode="normal" in2="BackgroundImageFix" result="effect1_dropShadow"/>
<feBlend mode="normal" in="SourceGraphic" in2="effect1_dropShadow" result="shape"/>
</filter>
<filter id="filter14_d" x="52.1535" y="87.2805" width="96.7963" height="92.332" filterUnits="userSpaceOnUse" color-interpolation-filters="sRGB">
<feFlood flood-opacity="0" result="BackgroundImageFix"/>
<feColorMatrix in="SourceAlpha" type="matrix" values="0 0 0 0 0 0 0 0 0 0 0 0 0 0 0 0 0 0 127 0"/>
<feOffset dy="4"/>
<feGaussianBlur stdDeviation="2"/>
<feColorMatrix type="matrix" values="0 0 0 0 0 0 0 0 0 0 0 0 0 0 0 0 0 0 0.25 0"/>
<feBlend mode="normal" in2="BackgroundImageFix" result="effect1_dropShadow"/>
<feBlend mode="normal" in="SourceGraphic" in2="effect1_dropShadow" result="shape"/>
</filter>
<clipPath id="clip0">
<rect width="253" height="253" fill="white" transform="translate(0 165.474) rotate(-40.8473)"/>
</clipPath>
</defs>
</svg>
