<svg width="108" height="111" viewBox="0 0 108 111" fill="none" xmlns="http://www.w3.org/2000/svg">
<g filter="url(#filter0_d)">
<path d="M59.1317 25.5051L74.5947 10.0421L74.5814 9.91445L88.1284 8.50644C89.5054 8.36322 90.7377 9.36369 90.8809 10.7407C91.0242 12.1177 90.0237 13.35 88.6467 13.4932L77.0259 14.701L62.6765 29.0505L59.1317 25.5051Z" fill="#FCE575"/>
<path d="M86.5588 11.4047C87.9358 11.2615 88.9363 10.0292 88.7931 8.65222C88.7887 8.60898 88.78 8.56742 88.7733 8.52502C89.871 8.69546 90.7609 9.58351 90.8812 10.7405C91.0244 12.1175 90.0239 13.3498 88.6469 13.493L77.0261 14.7009L62.6767 29.0503L60.5886 26.9622L74.9381 12.6128L86.5588 11.4047Z" fill="#FFD551"/>
<path d="M11.5676 102.671C13.315 102.671 14.7317 101.255 14.7317 99.5074V78.0472L31.671 60.8879C32.8987 59.6442 32.8858 57.6409 31.6421 56.4133C30.3984 55.1856 28.3954 55.1987 27.1675 56.4422L9.31584 74.5256C8.73133 75.1179 8.40353 75.9163 8.40353 76.7485V99.5072C8.40353 101.255 9.82019 102.671 11.5676 102.671Z" fill="#8C4C17"/>
<path d="M13.1467 69.1117L18.9726 74.9376C19.7963 75.7613 21.1319 75.7613 21.9557 74.9376L26.8787 70.0145L18.0698 61.2056L13.1467 66.1286C12.323 66.9523 12.323 68.288 13.1467 69.1117Z" fill="#FF9079"/>
<path d="M17.6302 70.6122L22.5532 65.6891L26.8787 70.0146L21.9557 74.9377C21.1319 75.7614 19.7963 75.7614 18.9726 74.9377L14.6471 70.6122C15.471 71.4361 16.8065 71.4361 17.6302 70.6122Z" fill="#FF624B"/>
<path d="M59.2315 37.6621L67.4087 29.4849C68.0676 28.8259 68.0676 27.7573 67.4087 27.0983L61.1664 20.856C60.5074 20.1971 59.4388 20.1971 58.7798 20.856L50.6026 29.0332L59.2315 37.6621Z" fill="#FF9079"/>
<path d="M62.8279 22.5176L67.3536 27.0432C68.0432 27.7328 68.0432 28.8506 67.3536 29.5401L59.2317 37.6621L54.706 33.1364L62.8279 25.0144C63.5173 24.3249 63.5173 23.2071 62.8279 22.5176Z" fill="#FF624B"/>
<path d="M32.8128 76.611C33.2986 76.611 33.7844 76.4258 34.1552 76.0549L43.5959 66.6142C44.1439 66.0662 44.9031 65.766 45.6772 65.7798L50.9787 65.9006C52.0282 65.9204 52.896 65.0942 52.92 64.0461C52.9438 62.9979 52.1136 62.1288 51.0654 62.1048L45.7639 61.9839C43.9554 61.9436 42.189 62.6518 40.9115 63.9294L31.4708 73.3701C30.7294 74.1116 30.7294 75.3135 31.4708 76.0549C31.841 76.4256 32.3268 76.611 32.8128 76.611Z" fill="#FFA730"/>
<path d="M56.0644 42.1765L65.7965 51.9085L39.0511 78.6539C37.9987 79.7063 36.3555 79.8839 35.1027 79.0804L25.3895 72.8515L16.5805 64.0425C15.0978 62.5598 15.0978 60.1556 16.5805 58.6729L44.5707 30.6827L56.0644 42.1765ZM31.5223 71.1969C30.9506 71.7685 31.0536 72.7224 31.7341 73.1588L35.7391 75.7272C36.3656 76.1288 37.187 76.0402 37.7133 75.5139L61.3185 51.9087L56.0644 46.6547L31.5223 71.1969Z" fill="#FF624B"/>
<path d="M61.3185 51.9088L56.0644 46.6547L48.3794 54.3398L34.6465 40.6069L44.5707 30.6827L56.0644 42.1765L65.7965 51.9088L55.8723 61.833L53.6334 59.5938L61.3185 51.9088Z" fill="#FF4B34"/>
<path d="M39.1416 24.6205L47.7801 22.4728L50.2803 24.973L69.8269 44.5195C70.7543 45.447 70.7543 46.9506 69.8269 47.8781L58.8556 58.8494L37.6298 37.6236L35.1295 35.1233L33.0024 32.9962C32.0749 32.0687 32.0749 30.5652 33.0024 29.6377L36.5603 26.0798C37.272 25.3679 38.1645 24.8635 39.1416 24.6205Z" fill="#FF624B"/>
<path d="M31.3478 71.4152C30.9838 71.9877 31.1342 72.7741 31.7341 73.1588L35.7391 75.7272C36.3656 76.1288 37.187 76.0402 37.7133 75.5139L56.6165 56.6108L51.3977 51.392L58.3388 44.4509L62.3689 40.4207C63.2964 39.4932 63.2964 37.9896 62.3689 37.0621L69.8266 44.5198C70.7541 45.4473 70.7541 46.9509 69.8266 47.8784L65.7965 51.9085L58.8554 58.8497L39.0511 78.6539C37.9987 79.7063 36.3555 79.8839 35.1027 79.0805L25.3895 72.8515L17.9318 65.3938L27.645 71.6228C28.8044 72.3663 30.2974 72.268 31.3478 71.4152Z" fill="#FF4B34"/>
<path d="M90.2918 45.7952C90.2918 45.7952 90.3051 40.9617 85.7851 36.8658C85.556 36.6582 85.2071 36.6582 84.9781 36.8658C80.4581 40.9617 80.4714 45.7952 80.4714 45.7952L80.4859 45.7962C80.4773 45.9154 80.4714 46.0354 80.4714 46.1567C80.4714 48.8685 82.6698 51.0669 85.3816 51.0669C88.0934 51.0669 90.2918 48.8685 90.2918 46.1567C90.2918 46.0352 90.2859 45.9154 90.2772 45.7962L90.2918 45.7952Z" fill="#FFD551"/>
<path d="M86.5647 46.1568C86.5647 46.0355 86.5588 45.9155 86.5502 45.7963L86.5647 45.7953C86.5647 45.7953 86.574 42.0701 83.5182 38.3891C83.9432 37.8771 84.4265 37.366 84.9783 36.8659C85.2074 36.6583 85.5562 36.6583 85.7853 36.8659C90.3053 40.9619 90.2918 45.7951 90.2918 45.7951L90.2772 45.7961C90.2859 45.9153 90.2918 46.0353 90.2918 46.1566C90.2918 48.8684 88.0934 51.0668 85.3816 51.0668C84.7218 51.0668 84.0928 50.9358 83.518 50.6998C85.3054 49.9657 86.5647 48.2088 86.5647 46.1568Z" fill="#FFC34C"/>
<path d="M96.4324 27.355C96.4324 27.355 96.4446 22.9057 92.2839 19.1352C92.073 18.944 91.7519 18.944 91.541 19.1352C87.3802 22.9057 87.3925 27.355 87.3925 27.355L87.406 27.356C87.3979 27.4657 87.3925 27.5762 87.3925 27.6878C87.3925 30.1841 89.4162 32.2078 91.9124 32.2078C94.4087 32.2078 96.4324 30.1841 96.4324 27.6878C96.4324 27.576 96.4269 27.4657 96.4189 27.356L96.4324 27.355Z" fill="#FFD551"/>
<path d="M93.0015 27.6878C93.0015 27.576 92.996 27.4657 92.988 27.356L93.0015 27.355C93.0015 27.355 93.0101 23.9258 90.1971 20.5373C90.5884 20.066 91.0332 19.5954 91.5412 19.1352C91.7521 18.944 92.0732 18.944 92.2841 19.1352C96.4451 22.9057 96.4326 27.355 96.4326 27.355L96.4191 27.356C96.4271 27.4657 96.4326 27.5762 96.4326 27.6878C96.4326 30.1841 94.4089 32.2078 91.9126 32.2078C91.3051 32.2078 90.7263 32.0871 90.1971 31.8699C91.8424 31.194 93.0015 29.5768 93.0015 27.6878Z" fill="#FFC34C"/>
<path d="M55.9676 43.8885C54.2202 43.8885 52.8036 42.472 52.8036 40.7245C52.8036 38.977 54.2202 37.5604 55.9676 37.5604C57.7151 37.5604 59.1317 38.977 59.1317 40.7245C59.1317 42.472 57.7151 43.8885 55.9676 43.8885Z" fill="#FF4B34"/>
<path d="M29.1425 69.2965C27.395 69.2965 25.9784 67.8799 25.9784 66.1324C25.9784 64.385 27.395 62.9684 29.1425 62.9684C30.89 62.9684 32.3066 64.385 32.3066 66.1324C32.3066 67.8799 30.89 69.2965 29.1425 69.2965Z" fill="#FF4B34"/>
<path d="M90.1965 30.3157C90.5557 30.3157 90.9126 30.1636 91.163 29.8681C91.6148 29.3346 91.5486 28.536 91.0151 28.0842C89.9994 27.224 90.7643 25.45 90.7721 25.4321C91.0524 24.7951 90.7677 24.0477 90.1323 23.7634C89.4972 23.479 88.753 23.7572 88.4651 24.3909C87.8734 25.6915 87.4003 28.3399 89.3791 30.016C89.6168 30.2172 89.9075 30.3157 90.1965 30.3157Z" fill="#FFDF74"/>
<path d="M83.5175 49.591C83.8768 49.591 84.2337 49.4389 84.4841 49.1431C84.9359 48.6097 84.8696 47.8111 84.3362 47.3594C83.3184 46.4976 84.0822 44.7318 84.0902 44.7141C84.3796 44.0779 84.0985 43.3274 83.4623 43.038C82.8261 42.7483 82.0756 43.0295 81.7862 43.6659C81.1945 44.9666 80.7213 47.6149 82.7004 49.291C82.9381 49.4924 83.2286 49.591 83.5175 49.591Z" fill="#FFDF74"/>
<path d="M31.6714 49.91C31.9954 49.91 32.3192 49.7864 32.5664 49.5394L33.7078 48.398C34.2021 47.9038 34.2021 47.1024 33.7078 46.6082C33.2136 46.114 32.412 46.114 31.918 46.6082L30.7766 47.7496C30.2824 48.2438 30.2824 49.0452 30.7766 49.5394C31.0234 49.7864 31.3474 49.91 31.6714 49.91Z" fill="#FF9079"/>
<path d="M20.2519 61.3295C20.5759 61.3295 20.8997 61.2059 21.1469 60.9589L29.1938 52.9121C29.688 52.4178 29.688 51.6165 29.1938 51.1223C28.6995 50.628 27.8982 50.628 27.404 51.1223L19.3571 59.1691C18.8629 59.6633 18.8629 60.4647 19.3571 60.9589C19.6039 61.2059 19.9279 61.3295 20.2519 61.3295Z" fill="#FF9079"/>
<path d="M36.3821 33.003C36.7325 33.003 37.0811 32.8583 37.3313 32.575L40.3602 29.1448L45.0016 28.231C45.6874 28.096 46.1339 27.4305 45.9989 26.7447C45.8639 26.059 45.1993 25.613 44.5127 25.7474L39.4506 26.7441C39.1778 26.7979 38.9304 26.9398 38.7465 27.1482L35.4339 30.8998C34.9713 31.4237 35.0209 32.2234 35.5449 32.6862C35.7853 32.8986 36.0845 33.003 36.3821 33.003Z" fill="#FF9079"/>
</g>
<defs>
<filter id="filter0_d" x="-4" y="0" width="116" height="116" filterUnits="userSpaceOnUse" color-interpolation-filters="sRGB">
<feFlood flood-opacity="0" result="BackgroundImageFix"/>
<feColorMatrix in="SourceAlpha" type="matrix" values="0 0 0 0 0 0 0 0 0 0 0 0 0 0 0 0 0 0 127 0"/>
<feOffset dy="4"/>
<feGaussianBlur stdDeviation="2"/>
<feColorMatrix type="matrix" values="0 0 0 0 0 0 0 0 0 0 0 0 0 0 0 0 0 0 0.25 0"/>
<feBlend mode="normal" in2="BackgroundImageFix" result="effect1_dropShadow"/>
<feBlend mode="normal" in="SourceGraphic" in2="effect1_dropShadow" result="shape"/>
</filter>
</defs>
</svg>
