<svg width="156" height="105" viewBox="0 0 156 105" fill="none" xmlns="http://www.w3.org/2000/svg">
<g clip-path="url(#clip0)">
<g filter="url(#filter0_d)">
<path d="M95.5739 48.2383C92.5528 48.2383 90.0951 45.7805 90.0951 42.7594V28.906C90.0951 28.1891 89.5118 27.606 88.7949 27.606H82.5769C81.9847 27.606 81.5047 27.1259 81.5047 26.5337C81.5047 25.9414 81.9847 25.4614 82.5769 25.4614H88.7949C90.6942 25.4614 92.2396 27.0067 92.2396 28.906V42.7594C92.2396 44.598 93.7353 46.0937 95.5739 46.0937C97.4125 46.0937 98.9081 44.598 98.9081 42.7594V23.4354C98.9081 22.6171 98.5991 21.8382 98.0379 21.2425L95.1211 18.1463C94.715 17.7153 94.7352 17.0366 95.1663 16.6306C95.5973 16.2246 96.2759 16.2447 96.682 16.6759L99.5988 19.7721C100.536 20.7673 101.053 22.0683 101.053 23.4356V42.7596C101.053 45.7805 98.5948 48.2383 95.5739 48.2383Z" fill="#8C4C17"/>
<path d="M91.1299 13.4303C90.882 13.4303 90.633 13.3449 90.4305 13.1703L87.1606 10.353L82.8095 9.87252C82.221 9.80747 81.7965 9.27765 81.8614 8.6891C81.9264 8.10042 82.4571 7.67616 83.0449 7.74098L87.7264 8.25793C87.9417 8.28164 88.1446 8.37004 88.3087 8.51134L91.8304 11.5457C92.2789 11.9323 92.3293 12.6093 91.9427 13.058C91.7306 13.304 91.4311 13.4303 91.1299 13.4303Z" fill="#8C4C17"/>
<path d="M85.2294 54.4018H52.7272V6.25537C52.7272 4.6104 54.0608 3.27686 55.7057 3.27686H82.2509C83.8958 3.27686 85.2294 4.6104 85.2294 6.25537V54.4018Z" fill="#FF624B"/>
<path d="M80.4791 22.0188H57.4775C56.8195 22.0188 56.2861 21.4854 56.2861 20.8273V8.12946C56.2861 7.47144 56.8195 6.93805 57.4775 6.93805H80.4791C81.1371 6.93805 81.6705 7.47144 81.6705 8.12946V20.8273C81.6705 21.4854 81.1371 22.0188 80.4791 22.0188Z" fill="#FFEACF"/>
<path d="M74.4573 19.292C74.5885 18.7701 74.6474 18.2196 74.6212 17.6512C74.4867 14.7266 72.0865 12.3606 69.1603 12.2687C65.9574 12.1681 63.3293 14.7346 63.3293 17.9149C63.3293 18.3903 63.3886 18.8517 63.4994 19.2927C63.5521 19.5021 63.7443 19.6464 63.9602 19.6464H73.9962C74.2123 19.6463 74.4045 19.5016 74.4573 19.292Z" fill="#FFA730"/>
<path d="M68.9788 16.8497C68.7183 16.8497 68.4601 16.7363 68.2834 16.5179C67.9732 16.1342 68.0327 15.5716 68.4165 15.2612L75.2964 9.69913C75.6801 9.38889 76.2427 9.44846 76.5531 9.83221C76.8633 10.216 76.8038 10.7785 76.42 11.0889L69.5401 16.651C69.3746 16.7847 69.176 16.8497 68.9788 16.8497Z" fill="#FF4B34"/>
<path d="M101.333 14.3727L98.2638 11.5284C98.1868 11.457 98.0887 11.4079 97.9818 11.3874L92.8639 10.4048C92.7947 10.3916 92.7257 10.392 92.6591 10.4022L92.6511 10.394L92.639 10.4059C92.4808 10.4357 92.3399 10.5271 92.2592 10.6644C92.2259 10.721 92.2064 10.7813 92.1974 10.8424L89.1155 13.8891C88.7668 14.2338 88.7624 14.7972 89.1056 15.1475L94.4042 20.5539C94.7474 20.9041 95.3083 20.9086 95.657 20.5638L99.1606 17.1004C99.1943 17.0804 99.2264 17.0578 99.2552 17.031L101.333 15.1056C101.551 14.9033 101.551 14.5752 101.333 14.3727ZM98.863 15.9287L94.4424 11.7667L97.5911 12.3711L100.146 14.7392L98.863 15.9287Z" fill="#FFA730"/>
<path d="M61.6628 3.27686H55.7057C54.0608 3.27686 52.7272 4.6104 52.7272 6.25537V54.4018H58.6843V6.25537C58.6843 4.6104 60.0178 3.27686 61.6628 3.27686Z" fill="#FF4B34"/>
<path d="M58.6843 6.93805H57.4775C56.8195 6.93805 56.2861 7.47144 56.2861 8.12946V20.8273C56.2861 21.4854 56.8195 22.0188 57.4775 22.0188H58.6843V6.93805Z" fill="#FFD59A"/>
<path d="M87.2619 57.7231H50.6947C50.0367 57.7231 49.5033 57.1897 49.5033 56.5317V52.3905C49.5033 51.7325 50.0367 51.1991 50.6947 51.1991H87.2619C87.9199 51.1991 88.4533 51.7325 88.4533 52.3905V56.5317C88.4533 57.1896 87.9199 57.7231 87.2619 57.7231Z" fill="#FF9079"/>
<path d="M55.4603 56.5317V52.3905C55.4603 51.7325 55.9937 51.1991 56.6517 51.1991H50.6947C50.0367 51.1991 49.5033 51.7325 49.5033 52.3905V56.5317C49.5033 57.1897 50.0367 57.7231 50.6947 57.7231H56.6517C55.9937 57.7231 55.4603 57.1897 55.4603 56.5317Z" fill="#FF624B"/>
<path d="M64.4688 35.9486C64.4688 35.9486 64.4565 31.5096 68.6077 27.7478C68.8181 27.5571 69.1385 27.5571 69.3489 27.7478C73.5001 31.5096 73.4878 35.9486 73.4878 35.9486L73.4744 35.9495C73.4824 36.059 73.4878 36.1691 73.4878 36.2806C73.4878 38.7711 71.4689 40.7901 68.9784 40.7901C66.4878 40.7901 64.4689 38.7711 64.4689 36.2806C64.4689 36.1691 64.4744 36.059 64.4822 35.9495L64.4688 35.9486Z" fill="#FFD551"/>
<path d="M67.0899 36.2806C67.0899 36.1691 67.0953 36.059 67.1032 35.9495L67.0899 35.9486C67.0899 35.9486 67.0821 32.2103 70.2888 28.6875C70.0012 28.3717 69.6905 28.0573 69.3488 27.7478C69.1384 27.5571 68.818 27.5571 68.6076 27.7478C64.4564 31.5096 64.4686 35.9486 64.4686 35.9486L64.482 35.9495C64.474 36.059 64.4686 36.1691 64.4686 36.2806C64.4686 38.7711 66.4876 40.7901 68.9781 40.7901C69.4341 40.7901 69.8738 40.7218 70.2887 40.596C68.4376 40.0346 67.0899 38.3153 67.0899 36.2806Z" fill="#FFC34C"/>
<path d="M82.4407 28.9038C82.0459 28.9038 81.7258 28.5838 81.7258 28.1889V26.3314C81.7258 25.9366 82.0459 25.6166 82.4407 25.6166C82.8354 25.6166 83.1555 25.9366 83.1555 26.3314V28.1889C83.1555 28.5838 82.8354 28.9038 82.4407 28.9038Z" fill="#FF9079"/>
<path d="M82.4407 49.2189C82.0459 49.2189 81.7258 48.8989 81.7258 48.5041V30.7383C81.7258 30.3434 82.0459 30.0234 82.4407 30.0234C82.8354 30.0234 83.1555 30.3434 83.1555 30.7383V48.5041C83.1555 48.8989 82.8354 49.2189 82.4407 49.2189Z" fill="#FF9079"/>
<path d="M94.6191 19.1067C94.4285 19.1067 94.2384 19.0311 94.0977 18.8811L90.7575 15.3221C90.4873 15.0342 90.5017 14.5819 90.7896 14.3116C91.0774 14.0416 91.5298 14.0557 91.8 14.3437L95.1402 17.9027C95.4104 18.1905 95.396 18.6429 95.1082 18.9131C94.9702 19.0426 94.7945 19.1067 94.6191 19.1067Z" fill="#FFB74B"/>
<path d="M79.4316 20.3611C79.0369 20.3611 78.7168 20.0411 78.7168 19.6463V9.91895C78.7168 9.52411 79.0369 9.2041 79.4316 9.2041C79.8264 9.2041 80.1465 9.52411 80.1465 9.91895V19.6463C80.1465 20.0411 79.8264 20.3611 79.4316 20.3611Z" fill="#FCF9DE"/>
<path d="M62.0768 45.4911C63.0638 45.4911 63.8639 44.691 63.8639 43.704C63.8639 42.717 63.0638 41.9169 62.0768 41.9169C61.0898 41.9169 60.2897 42.717 60.2897 43.704C60.2897 44.691 61.0898 45.4911 62.0768 45.4911Z" fill="#FF4B34"/>
<path d="M66.2559 48.9531C67.2429 48.9531 68.043 48.153 68.043 47.166C68.043 46.179 67.2429 45.3789 66.2559 45.3789C65.2689 45.3789 64.4688 46.179 64.4688 47.166C64.4688 48.153 65.2689 48.9531 66.2559 48.9531Z" fill="#FF4B34"/>
<path d="M62.0768 11.7061C63.0638 11.7061 63.8639 10.9059 63.8639 9.91894C63.8639 8.93195 63.0638 8.13184 62.0768 8.13184C61.0898 8.13184 60.2897 8.93195 60.2897 9.91894C60.2897 10.9059 61.0898 11.7061 62.0768 11.7061Z" fill="#FFD59A"/>
</g>
</g>
<g filter="url(#filter1_d)">
<path d="M86.36 85.2C86.36 87.4667 85.7333 89.1733 84.48 90.32C83.2533 91.44 81.48 92 79.16 92H73.88V88.96H79.56C80.5467 88.96 81.3467 88.6667 81.96 88.08C82.5733 87.4933 82.88 86.7867 82.88 85.96V81.8C82.88 81 82.6667 80.36 82.24 79.88C81.84 79.3733 81.2267 79.12 80.4 79.12H79.6C77.6267 79.12 76.0667 78.5467 74.92 77.4C73.7733 76.2267 73.2 74.5333 73.2 72.32V70.8C73.2 68.5333 73.8133 66.84 75.04 65.72C76.2933 64.5733 78.08 64 80.4 64H85.72V67.04H80C79.0133 67.04 78.2133 67.3333 77.6 67.92C76.9867 68.5067 76.68 69.2133 76.68 70.04V73.08C76.68 73.9067 76.9467 74.6 77.48 75.16C78.0133 75.6933 78.7067 75.96 79.56 75.96H80.36C82.2533 75.96 83.72 76.5067 84.76 77.6C85.8267 78.6933 86.36 80.3467 86.36 82.56V85.2ZM109.428 92H104.188L101.668 81.16L98.9075 92H93.7875L89.7875 72H93.3075L96.5475 89.44L100.108 75.6H103.508L106.828 89.44L110.068 72H113.388L109.428 92ZM129.672 92C129.325 92 128.939 91.8933 128.512 91.68C128.112 91.4667 127.765 91.1733 127.472 90.8C126.859 91.6 126.045 92 125.032 92H122.272C120.245 92 118.765 91.6 117.832 90.8C116.925 89.9733 116.472 88.5733 116.472 86.6V85.8C116.472 81.6667 118.419 79.6 122.312 79.6H126.472V77.6C126.472 76.7733 126.219 76.1333 125.712 75.68C125.205 75.2267 124.459 75 123.472 75H118.072V72H123.072C125.392 72 127.099 72.5067 128.192 73.52C129.312 74.5333 129.872 76.16 129.872 78.4V88C129.872 88.4 130.019 88.7067 130.312 88.92C130.632 89.1067 131.152 89.2 131.872 89.2V92H129.672ZM124.632 89C125.432 89 125.939 88.8133 126.152 88.44C126.365 88.0667 126.472 87.5867 126.472 87V82.6H122.272C121.579 82.6 121.005 82.8267 120.552 83.28C120.099 83.7333 119.872 84.3067 119.872 85V87C119.872 87.6933 120.032 88.2 120.352 88.52C120.672 88.84 121.179 89 121.872 89H124.632ZM136.661 72H139.861V72.96C140.688 72.32 141.754 72 143.061 72H143.701C146.048 72 147.768 72.5067 148.861 73.52C149.954 74.5067 150.501 76.1333 150.501 78.4V85.6C150.501 87.84 149.941 89.4667 148.821 90.48C147.728 91.4933 146.021 92 143.701 92H140.061V98.8H136.661V72ZM142.661 75C141.781 75 141.128 75.24 140.701 75.72C140.274 76.1733 140.061 76.6667 140.061 77.2V89H144.101C145.088 89 145.834 88.7733 146.341 88.32C146.848 87.8667 147.101 87.2267 147.101 86.4V77.6C147.101 76.7733 146.848 76.1333 146.341 75.68C145.834 75.2267 145.088 75 144.101 75H142.661Z" fill="#FF5B5B"/>
</g>
<g filter="url(#filter2_d)">
<path d="M6.88 66.92V76.48H15.52V79.4H6.88V92H3.4V64H16.52V66.92H6.88ZM31.0897 91.08C30.2097 91.6933 29.143 92 27.8897 92H27.3297C25.1697 92 23.5564 91.4933 22.4897 90.48C21.4497 89.4667 20.9297 87.84 20.9297 85.6V72H24.3297V86.4C24.3297 87.2 24.5564 87.84 25.0097 88.32C25.4897 88.7733 26.1297 89 26.9297 89H28.2897C29.143 89 29.7697 88.7867 30.1697 88.36C30.5964 87.9333 30.8364 87.4533 30.8897 86.92V72H34.2897V92H31.0897V91.08ZM47.1 92C44.7533 92 43.0333 91.5067 41.94 90.52C40.8467 89.5067 40.3 87.8667 40.3 85.6V78.4C40.3 76.1067 40.7933 74.4667 41.78 73.48C42.7667 72.4933 44.4067 72 46.7 72H47.78C49.6733 72 51.1 72.5333 52.06 73.6C53.0467 74.64 53.54 76.1733 53.54 78.2V83.4H43.7V86.4C43.7 87.2267 43.9533 87.8667 44.46 88.32C44.9667 88.7733 45.7133 89 46.7 89H52.26V92H47.1ZM50.22 80.4V77.4C50.22 76.7067 49.9933 76.1333 49.54 75.68C49.0867 75.2267 48.5133 75 47.82 75H46.3C45.34 75 44.66 75.2267 44.26 75.68C43.8867 76.1067 43.7 76.7467 43.7 77.6V80.4H50.22ZM62.5328 92C61.6261 92 60.8261 91.68 60.1328 91.04C59.4661 90.4 59.1328 89.3867 59.1328 88V64H62.5328V87.8C62.5328 88.2267 62.6395 88.5333 62.8528 88.72C63.0661 88.9067 63.4261 89 63.9328 89H64.7328V92H62.5328Z" fill="#FFC909"/>
</g>
<defs>
<filter id="filter0_d" x="48.5033" y="3.27686" width="59.9935" height="62.4463" filterUnits="userSpaceOnUse" color-interpolation-filters="sRGB">
<feFlood flood-opacity="0" result="BackgroundImageFix"/>
<feColorMatrix in="SourceAlpha" type="matrix" values="0 0 0 0 0 0 0 0 0 0 0 0 0 0 0 0 0 0 127 0"/>
<feOffset dx="3" dy="4"/>
<feGaussianBlur stdDeviation="2"/>
<feColorMatrix type="matrix" values="0 0 0 0 0 0 0 0 0 0 0 0 0 0 0 0 0 0 0.25 0"/>
<feBlend mode="normal" in2="BackgroundImageFix" result="effect1_dropShadow"/>
<feBlend mode="normal" in="SourceGraphic" in2="effect1_dropShadow" result="shape"/>
</filter>
<filter id="filter1_d" x="70.2" y="62" width="85.3009" height="42.8" filterUnits="userSpaceOnUse" color-interpolation-filters="sRGB">
<feFlood flood-opacity="0" result="BackgroundImageFix"/>
<feColorMatrix in="SourceAlpha" type="matrix" values="0 0 0 0 0 0 0 0 0 0 0 0 0 0 0 0 0 0 127 0"/>
<feOffset dx="1" dy="2"/>
<feGaussianBlur stdDeviation="2"/>
<feColorMatrix type="matrix" values="0 0 0 0 0 0 0 0 0 0 0 0 0 0 0 0 0 0 0.25 0"/>
<feBlend mode="normal" in2="BackgroundImageFix" result="effect1_dropShadow"/>
<feBlend mode="normal" in="SourceGraphic" in2="effect1_dropShadow" result="shape"/>
</filter>
<filter id="filter2_d" x="0.400002" y="62" width="69.3328" height="36" filterUnits="userSpaceOnUse" color-interpolation-filters="sRGB">
<feFlood flood-opacity="0" result="BackgroundImageFix"/>
<feColorMatrix in="SourceAlpha" type="matrix" values="0 0 0 0 0 0 0 0 0 0 0 0 0 0 0 0 0 0 127 0"/>
<feOffset dx="1" dy="2"/>
<feGaussianBlur stdDeviation="2"/>
<feColorMatrix type="matrix" values="0 0 0 0 0 0 0 0 0 0 0 0 0 0 0 0 0 0 0.25 0"/>
<feBlend mode="normal" in2="BackgroundImageFix" result="effect1_dropShadow"/>
<feBlend mode="normal" in="SourceGraphic" in2="effect1_dropShadow" result="shape"/>
</filter>
<clipPath id="clip0">
<rect width="61" height="61" fill="white" transform="translate(45)"/>
</clipPath>
</defs>
</svg>
