<svg width="74" height="74" viewBox="0 0 74 74" fill="none" xmlns="http://www.w3.org/2000/svg">
<path d="M48.2853 36.9234C48.0716 34.6601 46.2636 32.8748 43.9969 32.6997C34.2742 31.9481 24.5516 31.9481 14.8289 32.6997C12.5623 32.8748 10.7543 34.6601 10.5406 36.9234C9.75301 45.2633 9.75286 53.6032 10.54 61.9431C10.7537 64.2079 12.5608 65.9984 14.8289 66.1737C17.113 66.3503 19.3971 66.4847 21.6812 66.5781C22.9713 66.6308 24.1501 67.3221 24.8253 68.4226L27.6377 73.0064C28.4504 74.331 30.3752 74.331 31.1879 73.0064L34.0003 68.4226C34.6755 67.322 35.8543 66.6308 37.1444 66.5781C39.4286 66.4847 41.7128 66.3502 43.9968 66.1737C46.2649 65.9984 48.072 64.2079 48.2858 61.9431C49.0732 53.6032 49.0729 45.2633 48.2853 36.9234Z" fill="#B5B5B5"/>
<path d="M30.73 73.5331C29.7969 74.2973 28.3228 74.1217 27.6379 73.0065L24.8254 68.4218C24.1498 67.321 22.9712 66.6309 21.6806 66.5782C19.3974 66.4845 17.113 66.3498 14.8285 66.173C12.5612 65.9974 10.7531 64.208 10.5394 61.9432C9.75285 53.6024 9.75285 45.263 10.5407 36.9235C10.7544 34.6602 12.5625 32.8746 14.8285 32.699C20.1286 32.2898 25.43 32.1038 30.7301 32.1408C26.3076 32.1712 21.8865 32.3573 17.4627 32.699C15.1955 32.8746 13.3874 34.6602 13.1736 36.9235C12.3858 45.263 12.3858 53.6024 13.1736 61.9432C13.3874 64.2078 15.1942 65.9974 17.4627 66.173C19.7459 66.3498 22.0303 66.4845 24.3148 66.5782C25.6042 66.6309 26.7827 67.3212 27.4584 68.4218L30.2708 73.0065C30.3986 73.2152 30.5544 73.3906 30.73 73.5331Z" fill="#CACACA"/>
<path d="M32.1022 50.2413C32.1022 53.9339 27.7247 57.545 23.924 59.4878C22.8274 58.9289 21.6851 58.2297 20.6132 57.4301C17.9625 55.4583 15.7458 52.8697 15.7458 50.2413C15.7458 47.3134 17.744 44.9357 20.2211 44.8932C20.2432 44.8923 20.2662 44.8923 20.2892 44.8923C22.2967 44.8923 23.924 46.8088 23.924 49.1712C23.924 46.809 25.5513 44.8923 27.558 44.8923C29.0254 44.8923 30.3285 45.7098 31.1588 46.9791C31.7517 47.8824 32.1022 49.0136 32.1022 50.2413Z" fill="white"/>
<path d="M40.1875 60.6044C39.5707 60.6044 39.0709 60.1044 39.0709 59.4877V45.8093C39.0709 45.1926 39.5708 44.6926 40.1875 44.6926C40.8042 44.6926 41.3042 45.1926 41.3042 45.8093V59.4877C41.3042 60.1044 40.8044 60.6044 40.1875 60.6044Z" fill="white"/>
<path d="M39.0765 4.78745C38.8628 2.52409 37.0548 0.738844 34.7882 0.563672C25.0654 -0.187891 15.3428 -0.187891 5.62017 0.563672C3.35349 0.738844 1.5454 2.52409 1.33164 4.78745C0.544235 13.1273 0.543946 21.4672 1.33106 29.8071C1.54482 32.0719 3.3519 33.8624 5.62003 34.0377C7.90405 34.2143 10.1882 34.3487 12.4723 34.4421C13.7623 34.4948 14.9411 35.1861 15.6164 36.2866L18.4288 40.8704C19.2415 42.195 21.1662 42.195 21.9789 40.8704L24.7914 36.2866C25.4666 35.186 26.6454 34.4948 27.9355 34.4421C30.2197 34.3487 32.5038 34.2142 34.7879 34.0377C37.056 33.8624 38.8631 32.0719 39.0768 29.8071C39.8642 21.4672 39.864 13.1272 39.0765 4.78745Z" fill="#D7D6D3"/>
<path d="M21.5204 41.398C20.5873 42.1621 19.1133 41.9865 18.4283 40.8713L15.6159 36.2866C14.9402 35.1859 13.7617 34.4957 12.471 34.443C10.1879 34.3493 7.90343 34.2146 5.61897 34.0379C3.35171 33.8623 1.54362 32.0728 1.32986 29.808C0.543175 21.4673 0.543175 13.1278 1.33101 4.78851C1.54492 2.52515 3.35286 0.739465 5.61882 0.564004C10.9189 0.154836 16.2203 -0.0311754 21.5204 0.00582464C17.0979 0.0360317 12.6769 0.222188 8.25305 0.564004C5.98579 0.739465 4.1777 2.52515 3.96394 4.78851C3.1761 13.128 3.1761 21.4674 3.96394 29.8082C4.1777 32.0728 5.98449 33.8624 8.25305 34.038C10.5362 34.2148 12.8207 34.3495 15.1051 34.4431C16.3945 34.4959 17.573 35.1862 18.2487 36.2868L21.0611 40.8714C21.1892 41.0799 21.3448 41.2555 21.5204 41.398Z" fill="#A0A0A0"/>
<path d="M12.1741 18.0652C15.01 18.0652 17.3089 15.7663 17.3089 12.9304C17.3089 10.0946 15.01 7.79565 12.1741 7.79565C9.33828 7.79565 7.03937 10.0946 7.03937 12.9304C7.03937 15.7663 9.33828 18.0652 12.1741 18.0652Z" fill="white"/>
<path d="M12.1742 18.0652C16.1006 18.0652 19.2838 21.2483 19.2838 25.1748H5.06451C5.06451 21.2483 8.24767 18.0652 12.1742 18.0652Z" fill="white"/>
<path d="M26.7654 26.2945C23.8185 26.2945 23.6097 26.2248 23.4565 26.1736C23.0753 26.0466 22.7912 25.7603 22.6769 25.3881C22.4739 24.7282 22.7569 24.3575 23.6949 23.1294C24.491 22.087 25.9729 20.1467 28.4548 16.6006C29.2244 15.5007 29.7207 14.5081 29.9302 13.6494L29.99 13.1803C29.9553 11.6221 28.6768 10.3654 27.1103 10.3654C25.7369 10.3654 24.5482 11.3414 24.2842 12.6861C24.1654 13.2914 23.5786 13.6854 22.9733 13.5667C22.3681 13.4479 21.9739 12.861 22.0927 12.2558C22.562 9.86631 24.6723 8.13208 27.1103 8.13208C29.93 8.13208 32.224 10.4261 32.224 13.2457C32.224 13.293 32.221 13.3403 32.215 13.3872L32.1379 13.9915C32.1331 14.0288 32.1266 14.0658 32.1179 14.1022C31.8513 15.2524 31.2343 16.5239 30.2844 17.8813C28.0825 21.0276 26.6574 22.9254 25.797 24.0561C27.3383 24.0632 29.6239 24.049 31.7554 24.0221C31.7601 24.022 31.7648 24.022 31.7697 24.022C32.38 24.022 32.8784 24.5127 32.886 25.1246C32.8938 25.7413 32.4002 26.2475 31.7833 26.2553C29.5593 26.2833 27.9433 26.2945 26.7654 26.2945Z" fill="white"/>
<path d="M73.6445 21.8819C73.4307 19.6186 71.6228 17.8333 69.3561 17.6582C59.6334 16.9066 49.9108 16.9066 40.1881 17.6582C37.9215 17.8333 36.1135 19.6186 35.8997 21.8819C35.1122 30.2218 35.1121 38.5617 35.8992 46.9016C36.1129 49.1664 37.92 50.9568 40.1881 51.1322C42.4722 51.3088 44.7563 51.4432 47.0404 51.5366C48.3304 51.5893 49.5092 52.2806 50.1845 53.3811L52.9969 57.9649C53.8096 59.2895 55.7343 59.2895 56.547 57.9649L59.3595 53.3811C60.0347 52.2805 61.2135 51.5893 62.5036 51.5366C64.7878 51.4432 67.072 51.3086 69.356 51.1322C71.6241 50.9568 73.4312 49.1664 73.6449 46.9016C74.4322 38.5617 74.4319 30.2218 73.6445 21.8819Z" fill="#8E8E8E"/>
<path d="M56.0886 58.4926C55.1555 59.2568 53.6814 59.0812 52.9965 57.9659L50.184 53.3813C49.5083 52.2805 48.3298 51.5904 47.0392 51.5376C44.756 51.444 42.4715 51.3093 40.1871 51.1325C37.9198 50.9569 36.1117 49.1675 35.898 46.9027C35.1114 38.5619 35.1114 30.2224 35.8993 21.883C36.113 19.6196 37.9211 17.8341 40.1871 17.6585C45.4872 17.2493 50.7886 17.0633 56.0887 17.1003C51.6662 17.1307 47.2451 17.3168 42.8213 17.6585C40.554 17.8341 38.746 19.6196 38.5322 21.883C37.7444 30.2224 37.7444 38.5619 38.5322 46.9027C38.746 49.1673 40.5527 50.9569 42.8213 51.1325C45.1045 51.3093 47.3889 51.444 49.6734 51.5376C50.9628 51.5904 52.1413 52.2807 52.8169 53.3813L55.6294 57.9659C55.7573 58.1745 55.9129 58.3501 56.0886 58.4926Z" fill="#6A6C6D"/>
<path d="M55.9974 41.6719L54.315 37.2071C55.2485 35.8961 55.7993 34.2935 55.7993 32.5615C55.7993 28.1314 52.2082 24.5403 47.7782 24.5403C43.3483 24.5403 39.757 28.1314 39.757 32.5615C39.757 36.9914 43.3481 40.5825 47.7782 40.5825C48.9794 40.5825 50.1178 40.3166 51.1408 39.8434L55.9974 41.6719Z" fill="white"/>
<path d="M68.2708 33.106C69.4456 32.1683 70.2004 30.7256 70.2004 29.109C70.2004 26.2894 67.9064 23.9954 65.0868 23.9954C62.6487 23.9954 60.5384 25.7296 60.0691 28.1191C59.9503 28.7243 60.3444 29.3112 60.9497 29.43C61.5555 29.5487 62.1418 29.1547 62.2606 28.5494C62.5247 27.2047 63.7133 26.2287 65.0868 26.2287C66.675 26.2287 67.9671 27.5208 67.9671 29.1089C67.9671 30.697 66.675 31.9892 65.0868 31.9892C64.4699 31.9892 63.9701 32.4892 63.9701 33.1059C63.9701 33.7226 64.4701 34.2225 65.0868 34.2225C66.675 34.2225 67.9671 35.5146 67.9671 37.1029C67.9671 38.691 66.675 39.9831 65.0868 39.9831C63.6578 39.9831 62.4315 38.9182 62.2345 37.5059C62.216 37.373 62.2066 37.2375 62.2066 37.1029C62.2066 36.4862 61.7066 35.9862 61.0899 35.9862C60.4732 35.9862 59.9733 36.4862 59.9733 37.1029C59.9733 37.3405 59.9899 37.5801 60.0227 37.8147C60.3729 40.3242 62.55 42.2166 65.0869 42.2166C67.9066 42.2166 70.2006 39.9226 70.2006 37.1029C70.2004 35.4865 69.4456 34.0438 68.2708 33.106Z" fill="white"/>
</svg>
