<svg width="99" height="102" viewBox="0 0 99 102" fill="none" xmlns="http://www.w3.org/2000/svg">
<g filter="url(#filter0_d)">
<path d="M40.1138 6.73267H27.3621C23.8937 6.73267 21.0718 9.55455 21.0718 13.023V36.4725C21.0718 37.22 21.6778 37.826 22.4253 37.826C23.1728 37.826 23.7788 37.22 23.7788 36.4725V13.023C23.7788 11.0473 25.3864 9.4397 27.3621 9.4397H40.1138C42.0896 9.4397 43.6971 11.0473 43.6971 13.023C43.6971 13.7706 44.3031 14.3765 45.0507 14.3765C45.7982 14.3765 46.4042 13.7706 46.4042 13.023C46.4042 9.55455 43.5823 6.73267 40.1138 6.73267Z" fill="#87796F"/>
<path d="M40.1138 6.15259H27.3621C23.5738 6.15259 20.4917 9.23474 20.4917 13.023V36.4725C20.4917 37.5387 21.3591 38.4061 22.4253 38.4061C23.4915 38.4061 24.3589 37.5387 24.3589 36.4725V13.023C24.3589 11.3671 25.7058 10.0198 27.3621 10.0198H40.1138C41.7697 10.0198 43.1171 11.3671 43.1171 13.023C43.1171 14.0892 43.9845 14.9566 45.0507 14.9566C46.1168 14.9566 46.9843 14.0892 46.9843 13.023C46.9843 9.23474 43.9021 6.15259 40.1138 6.15259ZM45.0507 13.7965C44.6241 13.7965 44.2772 13.4496 44.2772 13.023C44.2772 10.7275 42.4094 8.85962 40.1138 8.85962H27.3621C25.0666 8.85962 23.1987 10.7275 23.1987 13.023V36.4725C23.1987 36.8991 22.8518 37.2459 22.4253 37.2459C21.9987 37.2459 21.6519 36.8991 21.6519 36.4725V13.023C21.6519 9.87437 24.2135 7.31274 27.3621 7.31274H40.1138C43.2625 7.31274 45.8241 9.87437 45.8241 13.023C45.8241 13.4496 45.4772 13.7965 45.0507 13.7965Z" fill="#3A312A"/>
<path d="M89.9665 20.8452H33.0051V39.9859H89.9665V20.8452Z" fill="#FF624B"/>
<path d="M89.9665 20.2651H33.0055C32.6849 20.2651 32.4254 20.5246 32.4254 20.8452V39.9859C32.4254 40.3064 32.6849 40.5659 33.0055 40.5659H89.9665C90.287 40.5659 90.5465 40.3064 90.5465 39.9859V20.8452C90.5465 20.5246 90.287 20.2651 89.9665 20.2651ZM89.3864 39.4058H33.5856V21.4253H89.3864V39.4058Z" fill="#3A312A"/>
<path d="M89.9665 44.9111H33.0051V64.0518H89.9665V44.9111Z" fill="#FF624B"/>
<path d="M89.9665 44.3311H33.0055C32.6849 44.3311 32.4254 44.5905 32.4254 44.9111V64.0522C32.4254 64.3727 32.6849 64.6322 33.0055 64.6322H89.9665C90.287 64.6322 90.5465 64.3727 90.5465 64.0522V44.9111C90.5465 44.5905 90.287 44.3311 89.9665 44.3311ZM89.3864 63.4721H33.5856V45.4912H89.3864V63.4721Z" fill="#3A312A"/>
<path d="M89.9665 68.9805H33.0051V88.1176H89.9665V68.9805Z" fill="#FF624B"/>
<path d="M89.9665 68.4008H33.0055C32.6849 68.4008 32.4254 68.6602 32.4254 68.9808V88.118C32.4254 88.4386 32.6849 88.6981 33.0055 88.6981H89.9665C90.287 88.6981 90.5465 88.4386 90.5465 88.118V68.9808C90.5465 68.6602 90.287 68.4008 89.9665 68.4008ZM89.3864 87.5375H33.5856V69.5605H89.3864V87.5375Z" fill="#3A312A"/>
<path d="M48.0988 11.6753H42.0025C40.7538 11.6753 39.7418 12.6873 39.7418 13.9361V15.9172H50.3595V13.9364C50.3595 12.6877 49.3475 11.6753 48.0988 11.6753Z" fill="#FFA730"/>
<path d="M48.0988 11.0957H42.0025C40.4359 11.0957 39.1617 12.3699 39.1617 13.9365V15.9173C39.1617 16.2379 39.4212 16.4974 39.7418 16.4974H50.3595C50.6801 16.4974 50.9396 16.2379 50.9396 15.9173V13.9365C50.9396 12.3699 49.6654 11.0957 48.0988 11.0957ZM49.7794 15.3372H40.3218V13.9365C40.3218 13.01 41.0759 12.2559 42.0025 12.2559H48.0988C49.0253 12.2559 49.7794 13.01 49.7794 13.9365V15.3372Z" fill="#3A312A"/>
<path d="M90.3203 15.9172H32.6524C31.2915 15.9172 30.1882 17.0205 30.1882 18.3814C30.1882 19.7423 31.2915 20.8456 32.6524 20.8456H90.3203C91.6812 20.8456 92.7845 19.7423 92.7845 18.3814C92.7845 17.0205 91.6812 15.9172 90.3203 15.9172Z" fill="#FFA730"/>
<path d="M90.3203 15.3372H63.8656C63.545 15.3372 63.2856 15.5966 63.2856 15.9172C63.2856 16.2378 63.545 16.4973 63.8656 16.4973H90.3203C91.359 16.4973 92.2044 17.3427 92.2044 18.3818C92.2044 19.4205 91.359 20.2659 90.3203 20.2659H32.6524C31.6133 20.2659 30.7683 19.4205 30.7683 18.3818C30.7683 17.3427 31.6137 16.4973 32.6524 16.4973H58.2215C58.5421 16.4973 58.8016 16.2378 58.8016 15.9172C58.8016 15.5966 58.5421 15.3372 58.2215 15.3372H32.6524C30.9737 15.3372 29.6082 16.703 29.6082 18.3818C29.6082 20.0605 30.9737 21.426 32.6524 21.426H90.3203C91.999 21.426 93.3645 20.0605 93.3645 18.3818C93.3645 16.703 91.999 15.3372 90.3203 15.3372Z" fill="#3A312A"/>
<path d="M90.3203 39.9844H32.6524C31.2915 39.9844 30.1882 41.0877 30.1882 42.4485C30.1882 43.8094 31.2915 44.9127 32.6524 44.9127H90.3203C91.6812 44.9127 92.7845 43.8094 92.7845 42.4485C92.7845 41.0877 91.6812 39.9844 90.3203 39.9844Z" fill="#FFA730"/>
<path d="M90.3203 39.4042H32.6524C30.9737 39.4042 29.6082 40.7697 29.6082 42.4484C29.6082 44.1272 30.9737 45.4931 32.6524 45.4931H90.3203C91.999 45.4931 93.3645 44.1272 93.3645 42.4484C93.3645 40.7697 91.999 39.4042 90.3203 39.4042ZM90.3203 44.3329H32.6524C31.6133 44.3329 30.7683 43.4875 30.7683 42.4484C30.7683 41.4093 31.6137 40.5643 32.6524 40.5643H90.3203C91.359 40.5643 92.2044 41.4097 92.2044 42.4484C92.2044 43.4875 91.3594 44.3329 90.3203 44.3329Z" fill="#3A312A"/>
<path d="M90.3203 64.0514H32.6524C31.2915 64.0514 30.1882 65.1547 30.1882 66.5156C30.1882 67.8764 31.2915 68.9797 32.6524 68.9797H90.3203C91.6812 68.9797 92.7845 67.8764 92.7845 66.5156C92.7845 65.1547 91.6812 64.0514 90.3203 64.0514Z" fill="#FFA730"/>
<path d="M90.3203 63.4713H32.6524C30.9737 63.4713 29.6082 64.8372 29.6082 66.516C29.6082 68.1947 30.9737 69.5602 32.6524 69.5602H90.3203C91.999 69.5602 93.3645 68.1947 93.3645 66.516C93.3645 64.8372 91.999 63.4713 90.3203 63.4713ZM90.3203 68.3997H32.6524C31.6133 68.3997 30.7683 67.5543 30.7683 66.5156C30.7683 65.4768 31.6137 64.6311 32.6524 64.6311H90.3203C91.359 64.6311 92.2044 65.4765 92.2044 66.5156C92.2044 67.5547 91.3594 68.3997 90.3203 68.3997Z" fill="#3A312A"/>
<path d="M90.3203 88.118H32.6524C31.2915 88.118 30.1882 89.2214 30.1882 90.5822C30.1882 91.9431 31.2915 93.0464 32.6524 93.0464H90.3203C91.6812 93.0464 92.7845 91.9431 92.7845 90.5822C92.7845 89.2214 91.6812 88.118 90.3203 88.118Z" fill="#FFA730"/>
<path d="M90.3203 87.538H32.6524C30.9737 87.538 29.6082 88.9039 29.6082 90.5826C29.6082 92.2613 30.9737 93.6269 32.6524 93.6269H90.3203C91.999 93.6269 93.3645 92.2613 93.3645 90.5826C93.3645 88.9039 91.999 87.538 90.3203 87.538ZM90.3203 92.4667H32.6524C31.6133 92.4667 30.7683 91.6213 30.7683 90.5826C30.7683 89.5439 31.6137 88.6981 32.6524 88.6981H90.3203C91.359 88.6981 92.2044 89.5435 92.2044 90.5826C92.2044 91.6217 91.3594 92.4667 90.3203 92.4667Z" fill="#3A312A"/>
<path d="M69.1038 13.2535C68.7832 13.2535 68.5237 13.513 68.5237 13.8336V93.0031C68.5237 93.3237 68.7832 93.5832 69.1038 93.5832C69.4243 93.5832 69.6838 93.3237 69.6838 93.0031V13.8336C69.6838 13.513 69.424 13.2535 69.1038 13.2535Z" fill="#3A312A"/>
<path d="M80.9323 13.2535C80.6117 13.2535 80.3522 13.513 80.3522 13.8336V93.0031C80.3522 93.3237 80.6117 93.5832 80.9323 93.5832C81.2529 93.5832 81.5124 93.3237 81.5124 93.0031V13.8336C81.5124 13.513 81.2525 13.2535 80.9323 13.2535Z" fill="#3A312A"/>
<path d="M80.9323 87.5112H69.1038C68.7832 87.5112 68.5237 87.7707 68.5237 88.0913C68.5237 88.4119 68.7832 88.6714 69.1038 88.6714H80.9323C81.2529 88.6714 81.5124 88.4119 81.5124 88.0913C81.5124 87.7707 81.2525 87.5112 80.9323 87.5112Z" fill="#3A312A"/>
<path d="M80.9323 80.5767H69.1038C68.7832 80.5767 68.5237 80.8361 68.5237 81.1567C68.5237 81.4773 68.7832 81.7368 69.1038 81.7368H80.9323C81.2529 81.7368 81.5124 81.4773 81.5124 81.1567C81.5124 80.8361 81.2525 80.5767 80.9323 80.5767Z" fill="#3A312A"/>
<path d="M80.9323 73.642H69.1038C68.7832 73.642 68.5237 73.9015 68.5237 74.222C68.5237 74.5426 68.7832 74.8021 69.1038 74.8021H80.9323C81.2529 74.8021 81.5124 74.5426 81.5124 74.222C81.5124 73.9018 81.2525 73.642 80.9323 73.642Z" fill="#3A312A"/>
<path d="M80.9323 66.7078H69.1038C68.7832 66.7078 68.5237 66.9673 68.5237 67.2878C68.5237 67.6084 68.7832 67.8679 69.1038 67.8679H80.9323C81.2529 67.8679 81.5124 67.6084 81.5124 67.2878C81.5124 66.9673 81.2525 66.7078 80.9323 66.7078Z" fill="#3A312A"/>
<path d="M80.9323 59.7731H69.1038C68.7832 59.7731 68.5237 60.0326 68.5237 60.3531C68.5237 60.6737 68.7832 60.9332 69.1038 60.9332H80.9323C81.2529 60.9332 81.5124 60.6737 81.5124 60.3531C81.5124 60.0326 81.2525 59.7731 80.9323 59.7731Z" fill="#3A312A"/>
<path d="M80.9323 52.8384H69.1038C68.7832 52.8384 68.5237 53.0979 68.5237 53.4185C68.5237 53.739 68.7832 53.9985 69.1038 53.9985H80.9323C81.2529 53.9985 81.5124 53.739 81.5124 53.4185C81.5124 53.0979 81.2525 52.8384 80.9323 52.8384Z" fill="#3A312A"/>
<path d="M80.9323 45.9038H69.1038C68.7832 45.9038 68.5237 46.1633 68.5237 46.4839C68.5237 46.8045 68.7832 47.064 69.1038 47.064H80.9323C81.2529 47.064 81.5124 46.8045 81.5124 46.4839C81.5124 46.1633 81.2525 45.9038 80.9323 45.9038Z" fill="#3A312A"/>
<path d="M80.9323 38.9691H69.1038C68.7832 38.9691 68.5237 39.2286 68.5237 39.5492C68.5237 39.8698 68.7832 40.1293 69.1038 40.1293H80.9323C81.2529 40.1293 81.5124 39.8698 81.5124 39.5492C81.5124 39.2286 81.2525 38.9691 80.9323 38.9691Z" fill="#3A312A"/>
<path d="M80.9323 32.0349H69.1038C68.7832 32.0349 68.5237 32.2944 68.5237 32.615C68.5237 32.9356 68.7832 33.1951 69.1038 33.1951H80.9323C81.2529 33.1951 81.5124 32.9356 81.5124 32.615C81.5124 32.2944 81.2525 32.0349 80.9323 32.0349Z" fill="#3A312A"/>
<path d="M80.9323 25.0999H69.1038C68.7832 25.0999 68.5237 25.3593 68.5237 25.6799C68.5237 26.0005 68.7832 26.26 69.1038 26.26H80.9323C81.2529 26.26 81.5124 26.0005 81.5124 25.6799C81.5124 25.3597 81.2525 25.0999 80.9323 25.0999Z" fill="#3A312A"/>
<path d="M80.9323 18.1656H69.1038C68.7832 18.1656 68.5237 18.4251 68.5237 18.7457C68.5237 19.0663 68.7832 19.3258 69.1038 19.3258H80.9323C81.2529 19.3258 81.5124 19.0663 81.5124 18.7457C81.5124 18.4251 81.2525 18.1656 80.9323 18.1656Z" fill="#3A312A"/>
<path d="M35.5223 39.9384H9.52433C7.98403 39.9384 6.7326 41.1859 6.7326 42.7301V47.1561V53.0303V90.2543C6.7326 91.7985 7.98403 93.0461 9.52433 93.0461H35.5223C37.063 93.0461 38.314 91.7981 38.314 90.2543V42.7305C38.3144 41.1863 37.063 39.9384 35.5223 39.9384Z" fill="#FF4B34"/>
<path d="M35.5223 39.3586H9.52433C7.66498 39.3586 6.15253 40.8715 6.15253 42.7304V47.1564C6.15253 47.477 6.41201 47.7365 6.7326 47.7365C7.05319 47.7365 7.31268 47.477 7.31268 47.1564V42.7304C7.31268 41.5107 8.305 40.5188 9.52433 40.5188H35.5223C36.742 40.5188 37.7343 41.5107 37.7343 42.7304V90.2547C37.7343 91.4744 36.742 92.4667 35.5223 92.4667H9.52433C8.30462 92.4667 7.31268 91.4744 7.31268 90.2547V53.0307C7.31268 52.7101 7.05319 52.4506 6.7326 52.4506C6.41201 52.4506 6.15253 52.7101 6.15253 53.0307V90.2547C6.15253 92.114 7.66537 93.6269 9.52433 93.6269H35.5223C37.3816 93.6269 38.8945 92.114 38.8945 90.2547V42.7304C38.8945 40.8711 37.3816 39.3586 35.5223 39.3586Z" fill="#3A312A"/>
<path d="M28.3065 34.5536H16.5444C14.7354 34.5536 13.2686 36.0204 13.2686 37.8295V39.9387H31.5824V37.8295C31.5824 36.02 30.1156 34.5536 28.3065 34.5536Z" fill="#FF4B34"/>
<path d="M28.3065 33.9735H16.5444C14.4183 33.9735 12.6885 35.7033 12.6885 37.8295V39.9387C12.6885 40.2592 12.948 40.5187 13.2686 40.5187H31.5824C31.903 40.5187 32.1625 40.2592 32.1625 39.9387V37.8295C32.1625 35.7029 30.4327 33.9735 28.3065 33.9735ZM31.0023 39.3582H13.8486V37.8291C13.8486 36.3426 15.0579 35.1333 16.5444 35.1333H28.3061C29.7927 35.1333 31.0019 36.3426 31.0019 37.8291V39.3582H31.0023Z" fill="#3A312A"/>
<path d="M38.3144 55.837H6.7326V77.2427H38.3144V55.837Z" fill="#87796F"/>
<path d="M38.3144 55.257H6.7326C6.41201 55.257 6.15253 55.5164 6.15253 55.837V77.2427C6.15253 77.5633 6.41201 77.8228 6.7326 77.8228H38.3144C38.635 77.8228 38.8945 77.5633 38.8945 77.2427V55.837C38.8945 55.5168 38.6346 55.257 38.3144 55.257ZM37.7343 76.6626H7.31268V56.4171H37.7343V76.6626Z" fill="#3A312A"/>
<path d="M89.386 21.428H85.1321V39.4027H89.386V21.428Z" fill="#FF4B34"/>
<path d="M89.386 45.4935H85.1321V63.4721H89.386V45.4935Z" fill="#FF4B34"/>
<path d="M89.386 69.559H85.1321V87.5375H89.386V69.559Z" fill="#FF4B34"/>
<path d="M90.3219 16.4973H86.068C87.1044 16.4973 87.9513 17.3442 87.9513 18.3806C87.9513 19.4209 87.1044 20.2678 86.068 20.2678H90.3219C91.3583 20.2678 92.2052 19.4209 92.2052 18.3806C92.2052 17.3442 91.3583 16.4973 90.3219 16.4973Z" fill="#FFB74B"/>
<path d="M90.3219 40.5629H86.068C87.1044 40.5629 87.9513 41.4098 87.9513 42.4501C87.9513 43.4865 87.1044 44.3334 86.068 44.3334H90.3219C91.3583 44.3334 92.2052 43.4865 92.2052 42.4501C92.2052 41.4098 91.3583 40.5629 90.3219 40.5629Z" fill="#FFB74B"/>
<path d="M90.3219 64.6322H86.068C87.1044 64.6322 87.9513 65.4753 87.9513 66.5155C87.9513 67.5558 87.1044 68.3989 86.068 68.3989H90.3219C91.3583 68.3989 92.2052 67.5558 92.2052 66.5155C92.2052 65.4753 91.3583 64.6322 90.3219 64.6322Z" fill="#FFB74B"/>
<path d="M90.3219 88.6978H86.068C87.1044 88.6978 87.9513 89.5447 87.9513 90.5811C87.9513 91.6213 87.1044 92.4683 86.068 92.4683H90.3219C91.3583 92.4683 92.2052 91.6213 92.2052 90.5811C92.2052 89.5447 91.3583 88.6978 90.3219 88.6978Z" fill="#FFB74B"/>
<path d="M35.5238 40.5203H31.3975C32.6157 40.5203 33.6095 41.5103 33.6095 42.7284V55.2581H37.7358V42.7284C37.7358 41.5103 36.742 40.5203 35.5238 40.5203Z" fill="#FF624B"/>
<path d="M33.6095 77.8232V90.2563C33.6095 91.4744 32.6157 92.4683 31.3975 92.4683H35.5238C36.742 92.4683 37.7358 91.4744 37.7358 90.2563V77.8232H33.6095Z" fill="#FF624B"/>
<path d="M37.7359 56.4183H33.6096V76.663H37.7359V56.4183Z" fill="#6B5B51"/>
<path d="M61.5612 46.9639C57.4094 46.9639 54.0314 50.3415 54.0314 54.4937C54.0314 58.6455 57.409 62.0231 61.5612 62.0231C65.713 62.0231 69.0906 58.6455 69.0906 54.4937C69.0906 50.3419 65.713 46.9639 61.5612 46.9639Z" fill="#FCE8CB"/>
<path d="M61.5612 46.384C57.0892 46.384 53.4513 50.0219 53.4513 54.4939C53.4513 58.9655 57.0892 62.6034 61.5612 62.6034C66.0328 62.6034 69.6707 58.9655 69.6707 54.4939C69.6707 50.0219 66.0328 46.384 61.5612 46.384ZM61.5612 61.4429C57.7292 61.4429 54.6114 58.3251 54.6114 54.4935C54.6114 50.6615 57.7292 47.5438 61.5612 47.5438C65.3932 47.5438 68.5105 50.6615 68.5105 54.4935C68.5105 58.3255 65.3932 61.4429 61.5612 61.4429Z" fill="#3A312A"/>
<path d="M22.5788 59.0839C18.427 59.0839 15.0494 62.4615 15.0494 66.6133C15.0494 70.7651 18.427 74.1431 22.5788 74.1431C26.7306 74.1431 30.1086 70.7655 30.1086 66.6133C30.1086 62.4615 26.7306 59.0839 22.5788 59.0839Z" fill="#FCE8CB"/>
<path d="M22.5788 58.5038C18.1072 58.5038 14.4693 62.1416 14.4693 66.6133C14.4693 71.0853 18.1072 74.7232 22.5788 74.7232C27.0504 74.7232 30.6887 71.0853 30.6887 66.6133C30.6887 62.1416 27.0508 58.5038 22.5788 58.5038ZM22.5788 73.563C18.7468 73.563 15.6295 70.4457 15.6295 66.6133C15.6295 62.7813 18.7472 59.6639 22.5788 59.6639C26.4108 59.6639 29.5285 62.7813 29.5285 66.6133C29.5285 70.4453 26.4108 73.563 22.5788 73.563Z" fill="#3A312A"/>
<path d="M61.5612 49.631C60.985 49.631 58.2064 52.6381 58.2064 55.3239C58.2064 58.0096 59.7084 59.3562 61.5612 59.3562C63.414 59.3562 64.916 58.0092 64.916 55.3239C64.9156 52.6381 62.2387 49.631 61.5612 49.631Z" fill="#FFA730"/>
<path d="M61.5608 49.0509C60.4788 49.0509 57.6263 52.5364 57.6263 55.3235C57.6263 58.1256 59.1709 59.9359 61.5608 59.9359C63.9511 59.9359 65.4957 58.1253 65.4957 55.3235C65.4957 52.4672 62.6726 49.0509 61.5608 49.0509ZM61.5608 58.7757C59.8496 58.7757 58.7865 57.4527 58.7865 55.3235C58.7865 53.1029 60.951 50.6438 61.5767 50.2424C62.25 50.6245 64.3355 53.1281 64.3355 55.3235C64.3355 57.4531 63.2724 58.7757 61.5608 58.7757Z" fill="#3A312A"/>
<path d="M22.5788 61.7507C22.0026 61.7507 19.224 64.7579 19.224 67.4436C19.224 70.1294 20.726 71.4759 22.5788 71.4759C24.4316 71.4759 25.9336 70.129 25.9336 67.4436C25.9336 64.7582 23.2567 61.7507 22.5788 61.7507Z" fill="#FFA730"/>
<path d="M22.5788 61.1707C21.4967 61.1707 18.6439 64.6565 18.6439 67.4436C18.6439 70.2454 20.1885 72.056 22.5788 72.056C24.9691 72.056 26.5133 70.2454 26.5133 67.4436C26.5136 64.5873 23.6902 61.1707 22.5788 61.1707ZM22.5788 70.8959C20.8672 70.8959 19.8041 69.5733 19.8041 67.4436C19.8041 65.2227 21.9689 62.7639 22.5943 62.3621C23.2671 62.7442 25.3531 65.2478 25.3531 67.4436C25.3535 69.5729 24.2904 70.8959 22.5788 70.8959Z" fill="#3A312A"/>
<path d="M19.5763 67.7478C19.5763 67.7478 19.5679 64.735 22.3998 62.1818C22.5433 62.0524 22.7618 62.0524 22.9054 62.1818C25.7372 64.735 25.7288 67.7478 25.7288 67.7478L25.7197 67.7485C25.7251 67.8228 25.7288 67.8975 25.7288 67.9732C25.7288 69.6636 24.3516 71.0339 22.6526 71.0339C20.9536 71.0339 19.5764 69.6636 19.5764 67.9732C19.5764 67.8975 19.5801 67.8228 19.5855 67.7485L19.5763 67.7478Z" fill="#FFD551"/>
<path d="M19.5763 67.7478C19.5763 67.7478 19.5679 64.735 22.3998 62.1818C22.5433 62.0524 22.7618 62.0524 22.9054 62.1818C25.7372 64.735 25.7288 67.7478 25.7288 67.7478L25.7197 67.7485C25.7251 67.8228 25.7288 67.8975 25.7288 67.9732C25.7288 69.6636 24.3516 71.0339 22.6526 71.0339C20.9536 71.0339 19.5764 69.6636 19.5764 67.9732C19.5764 67.8975 19.5801 67.8228 19.5855 67.7485L19.5763 67.7478Z" fill="#FFD551"/>
<path d="M21.2018 67.465C21.2018 67.3958 21.2052 67.3275 21.2101 67.2597L21.2018 67.2591C21.2018 67.2591 21.197 64.9408 23.1856 62.7562C23.0073 62.5603 22.8146 62.3653 22.6027 62.1734C22.4722 62.0552 22.2735 62.0552 22.143 62.1734C19.5687 64.5063 19.5763 67.2591 19.5763 67.2591L19.5846 67.2597C19.5796 67.3275 19.5763 67.3958 19.5763 67.465C19.5763 69.0095 20.8283 70.2615 22.3728 70.2615C22.6556 70.2615 22.9283 70.2192 23.1855 70.1411C22.0376 69.793 21.2018 68.7268 21.2018 67.465Z" fill="#FFC34C"/>
<path d="M58.7288 55.4428C58.7288 55.4428 58.7212 52.43 61.2956 49.8767C61.4261 49.7473 61.6248 49.7473 61.7552 49.8767C64.3296 52.43 64.322 55.4428 64.322 55.4428L64.3137 55.4434C64.3186 55.5177 64.322 55.5925 64.322 55.6681C64.322 57.3585 63.07 58.7288 61.5255 58.7288C59.981 58.7288 58.7289 57.3585 58.7289 55.6681C58.7289 55.5925 58.7323 55.5177 58.7372 55.4434L58.7288 55.4428Z" fill="#FFD551"/>
<path d="M60.3543 55.1599C60.3543 55.0908 60.3577 55.0225 60.3626 54.9546L60.3543 54.954C60.3543 54.954 60.3495 52.6357 62.3381 50.4511C62.1598 50.2553 61.9671 50.0603 61.7552 49.8683C61.6247 49.7501 61.426 49.7501 61.2956 49.8683C58.7212 52.2012 58.7288 54.954 58.7288 54.954L58.7371 54.9546C58.7321 55.0225 58.7288 55.0908 58.7288 55.1599C58.7288 56.7044 59.9809 57.9564 61.5253 57.9564C61.8081 57.9564 62.0808 57.9141 62.3381 57.8361C61.1901 57.4879 60.3543 56.4217 60.3543 55.1599Z" fill="#FFC34C"/>
</g>
<defs>
<filter id="filter0_d" x="-4" y="0" width="107" height="107" filterUnits="userSpaceOnUse" color-interpolation-filters="sRGB">
<feFlood flood-opacity="0" result="BackgroundImageFix"/>
<feColorMatrix in="SourceAlpha" type="matrix" values="0 0 0 0 0 0 0 0 0 0 0 0 0 0 0 0 0 0 127 0"/>
<feOffset dy="4"/>
<feGaussianBlur stdDeviation="2"/>
<feColorMatrix type="matrix" values="0 0 0 0 0 0 0 0 0 0 0 0 0 0 0 0 0 0 0.25 0"/>
<feBlend mode="normal" in2="BackgroundImageFix" result="effect1_dropShadow"/>
<feBlend mode="normal" in="SourceGraphic" in2="effect1_dropShadow" result="shape"/>
</filter>
</defs>
</svg>
