<svg width="77" height="77" viewBox="0 0 77 77" fill="none" xmlns="http://www.w3.org/2000/svg">
<path d="M38.5 0C17.237 0 0 17.237 0 38.5C0 59.763 17.237 77 38.5 77C59.763 77 77 59.763 77 38.5C77 17.237 59.763 0 38.5 0ZM61.7812 28.2328C61.7993 28.6873 61.8087 29.1426 61.8087 29.6003C61.8087 46.0464 49.2942 63.0573 28.3518 63.0573C21.9499 63.0573 15.7167 61.2306 10.3263 57.7732C10.2136 57.7016 10.1672 57.5621 10.2121 57.4369C10.257 57.3124 10.3838 57.2352 10.5137 57.2502C11.4181 57.3581 12.3428 57.4117 13.2605 57.4117C18.2413 57.4117 22.9566 55.8717 26.9449 52.95C22.1642 52.5467 18.0554 49.3115 16.5776 44.6962C16.5469 44.6001 16.569 44.4954 16.6352 44.4197C16.7021 44.3441 16.8045 44.311 16.9022 44.3292C18.2271 44.5804 19.5741 44.597 20.8723 44.3859C15.942 42.8537 12.4768 38.2353 12.4768 32.9773L12.4783 32.8244C12.4807 32.7244 12.535 32.633 12.6217 32.5834C12.7076 32.533 12.8147 32.5322 12.9013 32.581C14.1869 33.2947 15.6095 33.7532 17.0692 33.9288C14.2357 31.6704 12.5721 28.247 12.5721 24.5849C12.5721 22.4722 13.1314 20.3957 14.1901 18.58C14.2373 18.4989 14.3208 18.4469 14.4138 18.4398C14.5075 18.4304 14.5981 18.4713 14.6572 18.5438C20.4564 25.657 28.9867 30.0367 38.1085 30.5999C37.9565 29.8343 37.8793 29.045 37.8793 28.2486C37.8793 21.6624 43.2374 16.3051 49.8227 16.3051C53.0603 16.3051 56.1891 17.6356 58.4318 19.9609C60.9596 19.4457 63.3676 18.5162 65.5922 17.1976C65.6938 17.1369 65.8214 17.1464 65.9152 17.2196C66.0065 17.2937 66.0443 17.4166 66.0081 17.53C65.2542 19.8877 63.7844 21.9444 61.8095 23.4293C63.6694 23.1055 65.474 22.5588 67.1905 21.7971C67.3055 21.7443 67.4418 21.7774 67.5245 21.8743C67.6064 21.972 67.6135 22.1114 67.5426 22.217C65.979 24.5573 64.0412 26.581 61.7812 28.2328Z" fill="#1DA1F2"/>
</svg>
