<svg width="43" height="43" viewBox="0 0 43 43" fill="none" xmlns="http://www.w3.org/2000/svg">
<g clip-path="url(#clip0)">
<path d="M21.5 30.4584C16.5604 30.4584 12.5417 26.4396 12.5417 21.5C12.5417 16.5604 16.5604 12.5417 21.5 12.5417C26.4396 12.5417 30.4584 16.5604 30.4584 21.5C30.4584 26.4396 26.4396 30.4584 21.5 30.4584ZM21.5 14.3334C17.5476 14.3334 14.3334 17.5476 14.3334 21.5C14.3334 25.4524 17.5476 28.6667 21.5 28.6667C25.4524 28.6667 28.6667 25.4524 28.6667 21.5C28.6667 17.5476 25.4524 14.3334 21.5 14.3334Z" fill="#426ECA"/>
<path d="M21.5 39.4166C11.6208 39.4166 3.58334 31.3792 3.58334 21.5C3.58334 11.6207 11.6208 3.58331 21.5 3.58331C31.3793 3.58331 39.4167 11.6207 39.4167 21.5C39.4167 31.3792 31.3793 39.4166 21.5 39.4166ZM21.5 5.37498C12.608 5.37498 5.37501 12.6097 5.37501 21.5C5.37501 30.3902 12.608 37.625 21.5 37.625C30.3921 37.625 37.625 30.3902 37.625 21.5C37.625 12.6097 30.3921 5.37498 21.5 5.37498Z" fill="#426ECA"/>
<path d="M21.5 8.95833C21.0055 8.95833 20.6042 8.557 20.6042 8.0625V0.895833C20.6042 0.401333 21.0055 0 21.5 0C21.9945 0 22.3958 0.401333 22.3958 0.895833V8.0625C22.3958 8.557 21.9945 8.95833 21.5 8.95833Z" fill="#426ECA"/>
<path d="M21.5 42.9999C21.0055 42.9999 20.6042 42.5986 20.6042 42.1041V34.9375C20.6042 34.443 21.0055 34.0416 21.5 34.0416C21.9945 34.0416 22.3958 34.443 22.3958 34.9375V42.1041C22.3958 42.5986 21.9945 42.9999 21.5 42.9999Z" fill="#426ECA"/>
<path d="M8.0625 22.3958H0.895833C0.401333 22.3958 0 21.9945 0 21.5C0 21.0055 0.401333 20.6042 0.895833 20.6042H8.0625C8.557 20.6042 8.95833 21.0055 8.95833 21.5C8.95833 21.9945 8.557 22.3958 8.0625 22.3958Z" fill="#426ECA"/>
<path d="M42.1041 22.3958H34.9375C34.443 22.3958 34.0417 21.9945 34.0417 21.5C34.0417 21.0055 34.443 20.6042 34.9375 20.6042H42.1041C42.5986 20.6042 43 21.0055 43 21.5C43 21.9945 42.5986 22.3958 42.1041 22.3958Z" fill="#426ECA"/>
</g>
<defs>
<clipPath id="clip0">
<rect width="43" height="43" fill="white"/>
</clipPath>
</defs>
</svg>
