<svg width="39" height="39" viewBox="0 0 39 39" fill="none" xmlns="http://www.w3.org/2000/svg">
<path d="M33.5769 19.7793C33.4371 19.7793 33.3031 19.7238 33.2042 19.6249C33.1054 19.5261 33.0499 19.392 33.0499 19.2523V17.687C33.0499 17.5472 33.1054 17.4132 33.2042 17.3143C33.3031 17.2155 33.4371 17.16 33.5769 17.16C33.7167 17.16 33.8507 17.2155 33.9496 17.3143C34.0484 17.4132 34.1039 17.5472 34.1039 17.687V19.2523C34.1039 19.392 34.0484 19.5261 33.9496 19.6249C33.8507 19.7238 33.7167 19.7793 33.5769 19.7793Z" fill="#4B6AD2"/>
<path d="M33.5769 34.768L8.60109 34.768C8.46131 34.768 8.32726 34.7125 8.22842 34.6136C8.12958 34.5148 8.07406 34.3808 8.07406 34.241L8.07406 1.5811C8.07406 1.44133 8.12958 1.30728 8.22842 1.20844C8.32726 1.1096 8.46131 1.05408 8.60109 1.05408L26.3724 1.05408C26.5122 1.05411 26.6462 1.10965 26.745 1.2085L33.9495 8.41296C34.0483 8.51177 34.1039 8.6458 34.1039 8.78557V13.9979C34.1039 14.1376 34.0484 14.2717 33.9496 14.3705C33.8507 14.4694 33.7167 14.5249 33.5769 14.5249C33.4371 14.5249 33.3031 14.4694 33.2042 14.3705C33.1054 14.2717 33.0499 14.1376 33.0499 13.9979V9.00375L26.1542 2.10813L9.12811 2.10813L9.12811 33.7139L33.0499 33.7139V28.1644C33.0499 28.0246 33.1054 27.8905 33.2042 27.7917C33.3031 27.6929 33.4371 27.6373 33.5769 27.6373C33.7167 27.6373 33.8507 27.6929 33.9496 27.7917C34.0484 27.8905 34.1039 28.0246 34.1039 28.1644L34.1039 34.241C34.1039 34.3808 34.0484 34.5148 33.9496 34.6136C33.8507 34.7125 33.7167 34.768 33.5769 34.768Z" fill="#4B6AD2"/>
<path d="M33.5769 25.0021C33.4371 25.0021 33.3031 24.9466 33.2042 24.8478C33.1054 24.7489 33.0499 24.6149 33.0499 24.4751V22.9415C33.0499 22.8017 33.1054 22.6676 33.2042 22.5688C33.3031 22.47 33.4371 22.4144 33.5769 22.4144C33.7167 22.4144 33.8507 22.47 33.9496 22.5688C34.0484 22.6676 34.1039 22.8017 34.1039 22.9415V24.4751C34.1039 24.6149 34.0484 24.7489 33.9496 24.8478C33.8507 24.9466 33.7167 25.0021 33.5769 25.0021Z" fill="#4B6AD2"/>
<path d="M30.9196 37.9459L5.42363 37.9459C5.28386 37.9459 5.14981 37.8904 5.05097 37.7916C4.95213 37.6927 4.89661 37.5587 4.89661 37.4189L4.89661 4.23833C4.89661 4.09855 4.95213 3.9645 5.05097 3.86567C5.14981 3.76683 5.28386 3.7113 5.42363 3.7113L8.5995 3.7113C8.73927 3.7113 8.87333 3.76683 8.97216 3.86567C9.071 3.9645 9.12653 4.09855 9.12653 4.23833C9.12653 4.37811 9.071 4.51216 8.97216 4.611C8.87333 4.70983 8.73927 4.76536 8.5995 4.76536L5.95066 4.76536L5.95066 36.8919L30.3926 36.8919L30.3926 34.2425C30.3926 34.1027 30.4481 33.9687 30.547 33.8698C30.6458 33.771 30.7798 33.7155 30.9196 33.7155C31.0594 33.7155 31.1934 33.771 31.2923 33.8698C31.3911 33.9687 31.4466 34.1027 31.4466 34.2425L31.4466 37.4189C31.4466 37.5587 31.3911 37.6927 31.2923 37.7916C31.1934 37.8904 31.0594 37.9459 30.9196 37.9459Z" fill="#4B6AD2"/>
<path d="M33.5764 9.31312L26.3719 9.31312C26.2321 9.31312 26.0981 9.25759 25.9992 9.15876C25.9004 9.05992 25.8449 8.92587 25.8449 8.78609V1.5811C25.8449 1.44133 25.9004 1.30728 25.9992 1.20844C26.0981 1.1096 26.2321 1.05408 26.3719 1.05408C26.5117 1.05408 26.6457 1.1096 26.7446 1.20844C26.8434 1.30728 26.8989 1.44133 26.8989 1.5811V8.25906H33.5764C33.7161 8.25906 33.8502 8.31459 33.949 8.41343C34.0479 8.51226 34.1034 8.64631 34.1034 8.78609C34.1034 8.92587 34.0479 9.05992 33.949 9.15876C33.8502 9.25759 33.7161 9.31312 33.5764 9.31312Z" fill="#4B6AD2"/>
<path d="M29.6279 14.3135L12.5485 14.3135C12.4087 14.3135 12.2747 14.258 12.1758 14.1591C12.077 14.0603 12.0215 13.9263 12.0215 13.7865C12.0215 13.6467 12.077 13.5127 12.1758 13.4138C12.2747 13.315 12.4087 13.2595 12.5485 13.2595L29.6279 13.2595C29.7676 13.2595 29.9017 13.315 30.0005 13.4138C30.0994 13.5127 30.1549 13.6467 30.1549 13.7865C30.1549 13.9263 30.0994 14.0603 30.0005 14.1591C29.9017 14.258 29.7676 14.3135 29.6279 14.3135Z" fill="#4B6AD2"/>
<path d="M29.6279 18.9883L12.5485 18.9883C12.4087 18.9883 12.2747 18.9327 12.1758 18.8339C12.077 18.7351 12.0215 18.601 12.0215 18.4612C12.0215 18.3215 12.077 18.1874 12.1758 18.0886C12.2747 17.9897 12.4087 17.9342 12.5485 17.9342L29.6279 17.9342C29.7676 17.9342 29.9017 17.9897 30.0005 18.0886C30.0994 18.1874 30.1549 18.3215 30.1549 18.4612C30.1549 18.601 30.0994 18.7351 30.0005 18.8339C29.9017 18.9327 29.7676 18.9883 29.6279 18.9883Z" fill="#4B6AD2"/>
<path d="M19.7598 9.63932L12.5485 9.63932C12.4087 9.63932 12.2747 9.58379 12.1758 9.48496C12.077 9.38612 12.0215 9.25207 12.0215 9.11229C12.0215 8.97252 12.077 8.83847 12.1758 8.73963C12.2747 8.64079 12.4087 8.58527 12.5485 8.58527L19.7598 8.58527C19.8996 8.58527 20.0336 8.64079 20.1325 8.73963C20.2313 8.83847 20.2868 8.97252 20.2868 9.11229C20.2868 9.25207 20.2313 9.38612 20.1325 9.48496C20.0336 9.58379 19.8996 9.63932 19.7598 9.63932Z" fill="#4B6AD2"/>
<path d="M29.6279 23.6635L12.5485 23.6635C12.4087 23.6635 12.2747 23.608 12.1758 23.5091C12.077 23.4103 12.0215 23.2762 12.0215 23.1365C12.0215 22.9967 12.077 22.8626 12.1758 22.7638C12.2747 22.665 12.4087 22.6094 12.5485 22.6094L29.6279 22.6094C29.7676 22.6094 29.9017 22.665 30.0005 22.7638C30.0994 22.8626 30.1549 22.9967 30.1549 23.1365C30.1549 23.2762 30.0994 23.4103 30.0005 23.5091C29.9017 23.608 29.7676 23.6635 29.6279 23.6635Z" fill="#4B6AD2"/>
<path d="M29.6279 28.3372L12.5485 28.3372C12.4087 28.3372 12.2747 28.2817 12.1758 28.1828C12.077 28.084 12.0215 27.9499 12.0215 27.8102C12.0215 27.6704 12.077 27.5363 12.1758 27.4375C12.2747 27.3387 12.4087 27.2831 12.5485 27.2831L29.6279 27.2831C29.7676 27.2831 29.9017 27.3387 30.0005 27.4375C30.0994 27.5363 30.1549 27.6704 30.1549 27.8102C30.1549 27.9499 30.0994 28.084 30.0005 28.1828C29.9017 28.2817 29.7676 28.3372 29.6279 28.3372Z" fill="#4B6AD2"/>
</svg>
