<svg width="43" height="43" viewBox="0 0 43 43" fill="none" xmlns="http://www.w3.org/2000/svg">
<g clip-path="url(#clip0)">
<path d="M20.8281 16.7969V18.1406H19.4844V24.8594H20.8281V26.2031H22.1719V24.7358C22.9519 24.4576 23.5156 23.7185 23.5156 22.8438C23.5156 22.3277 23.3208 21.8568 23.001 21.5C23.3208 21.1432 23.5156 20.6723 23.5156 20.1563C23.5156 19.2815 22.9519 18.5424 22.1719 18.2642V16.7969H20.8281ZM21.5 23.5156H20.8281V22.1719H21.5C21.8709 22.1719 22.1719 22.4735 22.1719 22.8438C22.1719 23.214 21.8709 23.5156 21.5 23.5156ZM21.5 20.8281H20.8281V19.4844H21.5C21.8709 19.4844 22.1719 19.786 22.1719 20.1563C22.1719 20.5265 21.8709 20.8281 21.5 20.8281ZM25.3304 26.1776L26.1823 27.217C24.8661 28.296 23.2032 28.8906 21.5 28.8906C17.4251 28.8906 14.1094 25.5749 14.1094 21.5C14.1094 19.7961 14.704 18.1332 15.783 16.817L16.8224 17.6696C15.9396 18.746 15.4531 20.1065 15.4531 21.5C15.4531 24.8338 18.1655 27.5469 21.5 27.5469C22.8935 27.5469 24.254 27.0604 25.3304 26.1776ZM28.8906 21.5C28.8906 23.2039 28.296 24.8668 27.217 26.183L26.1776 25.3304C27.0604 24.254 27.5469 22.8935 27.5469 21.5C27.5469 18.1662 24.8345 15.4531 21.5 15.4531C20.1065 15.4531 18.746 15.9396 17.6696 16.8224L16.8177 15.783C18.1339 14.704 19.7968 14.1094 21.5 14.1094C25.5749 14.1094 28.8906 17.4251 28.8906 21.5ZM14.5804 36.9276L15.4323 37.967C14.1161 39.046 12.4532 39.6406 10.75 39.6406C6.67508 39.6406 3.35937 36.3249 3.35937 32.25C3.35937 30.5461 3.95398 28.8832 5.03302 27.567L6.07241 28.4196C5.18956 29.496 4.70312 30.8565 4.70312 32.25C4.70312 35.5838 7.41548 38.2969 10.75 38.2969C12.1435 38.2969 13.504 37.8104 14.5804 36.9276ZM32.25 0.671875C26.6929 0.671875 22.1719 5.19292 22.1719 10.75C22.1719 10.9778 22.1833 11.2136 22.2028 11.4575C21.9696 11.4414 21.7372 11.4219 21.5 11.4219C19.8116 11.4219 18.2219 11.8438 16.8231 12.5809L15.308 7.65803C15.8012 7.29052 16.125 6.708 16.125 6.04688C16.125 4.93559 15.2207 4.03125 14.1094 4.03125C12.9981 4.03125 12.0938 4.93559 12.0938 6.04688C12.0937 7.12927 12.9524 8.00808 14.0234 8.05377L15.6426 13.3145C15.3765 13.5054 15.1205 13.7089 14.8746 13.9239L9.0253 8.07459C9.2618 7.6755 9.40625 7.21594 9.40625 6.71875C9.40625 5.23659 8.20091 4.03125 6.71875 4.03125C5.23659 4.03125 4.03125 5.23659 4.03125 6.71875C4.03125 8.20091 5.23659 9.40625 6.71875 9.40625C7.21594 9.40625 7.6755 9.2618 8.07527 9.0253L13.9246 14.8746C13.7089 15.1205 13.506 15.3765 13.3145 15.6426L8.05377 14.024C8.00808 12.9531 7.12927 12.0938 6.04687 12.0938C4.93559 12.0938 4.03125 12.9981 4.03125 14.1094C4.03125 15.2207 4.93559 16.125 6.04687 16.125C6.708 16.125 7.29052 15.8012 7.65803 15.308L12.5809 16.8224C11.8438 18.2219 11.4219 19.8116 11.4219 21.5C11.4219 21.7372 11.4414 21.9696 11.4575 22.2035C11.2136 22.1833 10.9778 22.1719 10.75 22.1719C5.19292 22.1719 0.671875 26.6929 0.671875 32.25C0.671875 37.8071 5.19292 42.3281 10.75 42.3281C16.3071 42.3281 20.8281 37.8071 20.8281 32.25C20.8281 32.0222 20.8167 31.7864 20.7972 31.5425C21.0304 31.5586 21.2628 31.5781 21.5 31.5781C23.1884 31.5781 24.7781 31.1562 26.1769 30.4191L27.6913 35.342C27.1988 35.7102 26.875 36.292 26.875 36.9531C26.875 38.0644 27.7793 38.9688 28.8906 38.9688C30.0019 38.9688 30.9062 38.0644 30.9062 36.9531C30.9062 35.8707 30.0469 34.9919 28.976 34.9462L27.3574 29.6855C27.6235 29.4946 27.8795 29.2911 28.1254 29.0754L33.9747 34.9247C33.7382 35.3245 33.5937 35.7841 33.5937 36.2813C33.5937 37.7634 34.7991 38.9688 36.2812 38.9688C37.7634 38.9688 38.9687 37.7634 38.9687 36.2813C38.9687 34.7991 37.7634 33.5938 36.2812 33.5938C35.7841 33.5938 35.3245 33.7382 34.9247 33.9747L29.0754 28.1254C29.2911 27.8795 29.494 27.6235 29.6855 27.3574L34.9462 28.976C34.9919 30.0469 35.8707 30.9063 36.9531 30.9063C38.0644 30.9063 38.9687 30.0019 38.9687 28.8906C38.9687 27.7793 38.0644 26.875 36.9531 26.875C36.292 26.875 35.7095 27.1988 35.342 27.692L30.4191 26.1769C31.1562 24.7781 31.5781 23.1884 31.5781 21.5C31.5781 21.2628 31.5586 21.0304 31.5425 20.7965C31.7864 20.8167 32.0222 20.8281 32.25 20.8281C37.8071 20.8281 42.3281 16.3071 42.3281 10.75C42.3281 5.19292 37.8071 0.671875 32.25 0.671875ZM13.4375 6.04688C13.4375 5.67667 13.7385 5.375 14.1094 5.375C14.4803 5.375 14.7812 5.67667 14.7812 6.04688C14.7812 6.41708 14.4803 6.71875 14.1094 6.71875C13.7385 6.71875 13.4375 6.41708 13.4375 6.04688ZM6.04687 14.7812C5.676 14.7812 5.375 14.4796 5.375 14.1094C5.375 13.7392 5.676 13.4375 6.04687 13.4375C6.41775 13.4375 6.71875 13.7392 6.71875 14.1094C6.71875 14.4796 6.41775 14.7813 6.04687 14.7812ZM29.5625 36.9531C29.5625 37.3233 29.2615 37.625 28.8906 37.625C28.5198 37.625 28.2187 37.3233 28.2187 36.9531C28.2187 36.5829 28.5198 36.2813 28.8906 36.2813C29.2615 36.2813 29.5625 36.5829 29.5625 36.9531ZM36.9531 28.2188C37.324 28.2188 37.625 28.5204 37.625 28.8906C37.625 29.2608 37.324 29.5625 36.9531 29.5625C36.5822 29.5625 36.2812 29.2608 36.2812 28.8906C36.2812 28.5204 36.5822 28.2188 36.9531 28.2188ZM6.71875 8.0625C5.97767 8.0625 5.375 7.45983 5.375 6.71875C5.375 5.97767 5.97767 5.375 6.71875 5.375C7.45983 5.375 8.0625 5.97767 8.0625 6.71875C8.0625 7.45983 7.45983 8.0625 6.71875 8.0625ZM19.4844 32.25C19.4844 37.066 15.566 40.9844 10.75 40.9844C5.934 40.9844 2.01562 37.066 2.01562 32.25C2.01562 27.434 5.934 23.5156 10.75 23.5156C11.0261 23.5156 11.3258 23.5391 11.6389 23.5748C11.7424 24.0659 11.8902 24.5396 12.0622 25.0018C9.95652 24.6323 7.72791 25.1731 6.06837 26.533L6.92031 27.5724C8.54087 26.2434 10.8226 25.8585 12.8106 26.58C13.6868 28.073 14.9338 29.3193 16.4273 30.1941C16.6685 30.8585 16.7969 31.5479 16.7969 32.25C16.7969 33.6435 16.3104 35.004 15.4276 36.0804L16.467 36.933C17.546 35.6168 18.1406 33.9539 18.1406 32.25C18.1406 31.8106 18.0976 31.3752 18.0197 30.9459C18.4752 31.1145 18.9415 31.2597 19.4253 31.3611C19.4602 31.6742 19.4844 31.9732 19.4844 32.25ZM21.5 30.2344C16.684 30.2344 12.7656 26.316 12.7656 21.5C12.7656 16.684 16.684 12.7656 21.5 12.7656C26.316 12.7656 30.2344 16.684 30.2344 21.5C30.2344 26.316 26.316 30.2344 21.5 30.2344ZM36.2812 34.9375C37.0223 34.9375 37.625 35.5402 37.625 36.2813C37.625 37.0223 37.0223 37.625 36.2812 37.625C35.5402 37.625 34.9375 37.0223 34.9375 36.2813C34.9375 35.5402 35.5402 34.9375 36.2812 34.9375ZM32.25 19.4844C31.9739 19.4844 31.6742 19.4609 31.3611 19.4253C31.2597 18.9415 31.1145 18.4752 30.9459 18.0197C31.3752 18.0976 31.8106 18.1406 32.25 18.1406C33.9532 18.1406 35.6161 17.546 36.9323 16.467L36.0804 15.4276C34.4598 16.7559 32.1781 17.1415 30.19 16.42C29.6848 15.5593 29.0573 14.7826 28.3289 14.1087H36.1785L37.1184 8.46764L34.0775 9.33638L32.2473 7.87303L30.4191 9.3357L27.3816 8.46697L28.3209 14.1006C27.7874 13.6088 27.2029 13.1735 26.5733 12.8046C26.3315 12.1415 26.2031 11.4521 26.2031 10.75C26.2031 9.35653 26.6896 7.99598 27.5724 6.91964L26.533 6.06703C25.454 7.38323 24.8594 9.04613 24.8594 10.75C24.8594 11.1894 24.9024 11.6248 24.9803 12.0541C24.5248 11.8855 24.0585 11.7403 23.5748 11.6389C23.5398 11.3258 23.5156 11.0268 23.5156 10.75C23.5156 5.934 27.434 2.01563 32.25 2.01563C37.066 2.01563 40.9844 5.934 40.9844 10.75C40.9844 15.566 37.066 19.4844 32.25 19.4844ZM29.0559 10.3442L30.7175 10.8192L32.2473 9.59437L33.7792 10.8185L35.4441 10.3435L35.0403 12.7656H29.459L29.0559 10.3442ZM39.6406 10.75C39.6406 12.4539 39.046 14.1168 37.967 15.433L36.9276 14.5804C37.8104 13.504 38.2969 12.1435 38.2969 10.75C38.2969 7.41616 35.5845 4.70313 32.25 4.70313C30.8565 4.70313 29.496 5.18956 28.4196 6.07241L27.5677 5.03302C28.8839 3.95398 30.5468 3.35938 32.25 3.35938C36.3249 3.35938 39.6406 6.67508 39.6406 10.75ZM10.75 38.0731L15.6211 31.5781L13.1016 28.2188L8.39844 28.2188L5.87891 31.5781L10.75 38.0731ZM11.4219 32.25H13.4375L11.4219 34.9375V32.25ZM12.0937 30.9063L12.7656 30.0106L13.4375 30.9063H12.0937ZM10.75 30.4581L10.0781 29.5625H11.4219L10.75 30.4581ZM9.40625 30.9062H8.0625L8.73437 30.0106L9.40625 30.9062ZM10.0781 32.25V34.9375L8.0625 32.25H10.0781Z" fill="url(#paint0_linear)"/>
</g>
<defs>
<linearGradient id="paint0_linear" x1="21.5" y1="42.3281" x2="21.5" y2="0.671875" gradientUnits="userSpaceOnUse">
<stop stop-color="#2D3892"/>
<stop offset="1" stop-color="#616FE1"/>
</linearGradient>
<clipPath id="clip0">
<rect width="43" height="43" fill="white"/>
</clipPath>
</defs>
</svg>
