<svg width="98" height="98" viewBox="0 0 98 98" fill="none" xmlns="http://www.w3.org/2000/svg">
<path d="M47.4687 38.2813V41.3438H44.4062V56.6563H47.4687V59.7188H50.5312V56.3745C52.309 55.7406 53.5937 54.0562 53.5937 52.0625C53.5937 50.8865 53.1497 49.8131 52.4208 49C53.1497 48.1869 53.5937 47.1135 53.5937 45.9375C53.5937 43.9438 52.309 42.2594 50.5312 41.6255V38.2813H47.4687ZM49 53.5938H47.4687V50.5313H49C49.8452 50.5313 50.5312 51.2188 50.5312 52.0625C50.5312 52.9062 49.8452 53.5938 49 53.5938ZM49 47.4688H47.4687V44.4063H49C49.8452 44.4063 50.5312 45.0938 50.5312 45.9375C50.5312 46.7812 49.8452 47.4688 49 47.4688ZM57.7297 59.6606L59.6713 62.0294C56.6716 64.4886 52.8817 65.8438 49 65.8438C39.713 65.8438 32.1562 58.287 32.1562 49C32.1562 45.1167 33.5114 41.3269 35.9706 38.3272L38.3394 40.2703C36.3274 42.7234 35.2187 45.8242 35.2187 49C35.2187 56.5981 41.4004 62.7813 49 62.7813C52.1758 62.7813 55.2766 61.6726 57.7297 59.6606ZM65.8437 49C65.8437 52.8833 64.4886 56.6731 62.0294 59.6728L59.6606 57.7297C61.6726 55.2766 62.7812 52.1758 62.7812 49C62.7812 41.4019 56.5996 35.2188 49 35.2188C45.8242 35.2188 42.7234 36.3274 40.2703 38.3394L38.3287 35.9706C41.3284 33.5114 45.1183 32.1563 49 32.1563C58.287 32.1563 65.8438 39.713 65.8437 49ZM33.2297 84.1606L35.1713 86.5294C32.1716 88.9886 28.3817 90.3438 24.5 90.3438C15.213 90.3438 7.65625 82.787 7.65625 73.5C7.65625 69.6167 9.01141 65.8269 11.4706 62.8272L13.8394 64.7703C11.8274 67.2234 10.7187 70.3242 10.7187 73.5C10.7187 81.0981 16.9004 87.2812 24.5 87.2812C27.6758 87.2812 30.7766 86.1726 33.2297 84.1606ZM73.5 1.53125C60.835 1.53125 50.5312 11.835 50.5312 24.5C50.5312 25.0191 50.5573 25.5566 50.6017 26.1124C50.0703 26.0757 49.5405 26.0313 49 26.0313C45.152 26.0313 41.529 26.9929 38.341 28.6727L34.888 17.4532C36.0119 16.6156 36.75 15.288 36.75 13.7813C36.75 11.2486 34.6889 9.1875 32.1562 9.1875C29.6236 9.1875 27.5625 11.2486 27.5625 13.7813C27.5625 16.2481 29.5194 18.251 31.9602 18.3551L35.6506 30.3448C35.0442 30.7797 34.4608 31.2436 33.9003 31.7336L20.5693 18.4026C21.1083 17.493 21.4375 16.4456 21.4375 15.3125C21.4375 11.9346 18.6904 9.1875 15.3125 9.1875C11.9346 9.1875 9.1875 11.9346 9.1875 15.3125C9.1875 18.6904 11.9346 21.4375 15.3125 21.4375C16.4456 21.4375 17.493 21.1083 18.4041 20.5693L31.7352 33.9003C31.2436 34.4608 30.7812 35.0442 30.3448 35.6506L18.3551 31.9618C18.251 29.521 16.2481 27.5625 13.7812 27.5625C11.2486 27.5625 9.1875 29.6236 9.1875 32.1562C9.1875 34.6889 11.2486 36.75 13.7812 36.75C15.288 36.75 16.6156 36.0119 17.4532 34.888L28.6727 38.3394C26.9929 41.529 26.0312 45.152 26.0312 49C26.0312 49.5405 26.0757 50.0703 26.1124 50.6032C25.5566 50.5573 25.0191 50.5313 24.5 50.5313C11.835 50.5312 1.53125 60.835 1.53125 73.5C1.53125 86.165 11.835 96.4688 24.5 96.4688C37.165 96.4688 47.4687 86.165 47.4687 73.5C47.4687 72.9809 47.4427 72.4434 47.3983 71.8876C47.9297 71.9243 48.4595 71.9688 49 71.9688C52.848 71.9688 56.471 71.0071 59.659 69.3273L63.1105 80.5468C61.9881 81.3859 61.25 82.712 61.25 84.2188C61.25 86.7514 63.3111 88.8125 65.8437 88.8125C68.3764 88.8125 70.4375 86.7514 70.4375 84.2188C70.4375 81.7519 68.479 79.749 66.0382 79.6449L62.3494 67.6552C62.9558 67.2203 63.5392 66.7564 64.0997 66.2648L77.4307 79.5959C76.8917 80.507 76.5625 81.5544 76.5625 82.6875C76.5625 86.0654 79.3096 88.8125 82.6875 88.8125C86.0654 88.8125 88.8125 86.0654 88.8125 82.6875C88.8125 79.3096 86.0654 76.5625 82.6875 76.5625C81.5544 76.5625 80.507 76.8917 79.5959 77.4307L66.2648 64.0997C66.7564 63.5392 67.2188 62.9558 67.6552 62.3494L79.6449 66.0382C79.749 68.479 81.7519 70.4375 84.2187 70.4375C86.7514 70.4375 88.8125 68.3764 88.8125 65.8438C88.8125 63.3111 86.7514 61.25 84.2187 61.25C82.712 61.25 81.3844 61.9881 80.5468 63.112L69.3273 59.659C71.0071 56.471 71.9687 52.848 71.9687 49C71.9687 48.4595 71.9243 47.9297 71.8876 47.3968C72.4434 47.4427 72.9809 47.4688 73.5 47.4688C86.165 47.4688 96.4688 37.165 96.4688 24.5C96.4688 11.835 86.165 1.53125 73.5 1.53125V1.53125ZM30.625 13.7813C30.625 12.9375 31.311 12.25 32.1562 12.25C33.0015 12.25 33.6875 12.9375 33.6875 13.7813C33.6875 14.625 33.0015 15.3125 32.1562 15.3125C31.311 15.3125 30.625 14.625 30.625 13.7813ZM13.7812 33.6875C12.936 33.6875 12.25 33 12.25 32.1562C12.25 31.3125 12.936 30.625 13.7812 30.625C14.6265 30.625 15.3125 31.3125 15.3125 32.1562C15.3125 33 14.6265 33.6875 13.7812 33.6875ZM67.375 84.2188C67.375 85.0625 66.689 85.75 65.8437 85.75C64.9985 85.75 64.3125 85.0625 64.3125 84.2188C64.3125 83.375 64.9985 82.6875 65.8437 82.6875C66.689 82.6875 67.375 83.375 67.375 84.2188ZM84.2187 64.3125C85.064 64.3125 85.75 65 85.75 65.8438C85.75 66.6875 85.064 67.375 84.2187 67.375C83.3735 67.375 82.6875 66.6875 82.6875 65.8438C82.6875 65 83.3735 64.3125 84.2187 64.3125ZM15.3125 18.375C13.6235 18.375 12.25 17.0015 12.25 15.3125C12.25 13.6235 13.6235 12.25 15.3125 12.25C17.0015 12.25 18.375 13.6235 18.375 15.3125C18.375 17.0015 17.0015 18.375 15.3125 18.375ZM44.4062 73.5C44.4062 84.476 35.476 93.4062 24.5 93.4062C13.524 93.4062 4.59375 84.476 4.59375 73.5C4.59375 62.524 13.524 53.5938 24.5 53.5938C25.1293 53.5938 25.8123 53.6473 26.5258 53.7285C26.7617 54.8478 27.0985 55.9274 27.4905 56.9809C22.6916 56.1387 17.6124 57.3713 13.8302 60.4706L15.7719 62.8394C19.4653 59.8106 24.6654 58.9332 29.1963 60.5778C31.1931 63.9802 34.0351 66.8207 37.4391 68.8144C37.9888 70.3288 38.2812 71.8998 38.2812 73.5C38.2812 76.6758 37.1726 79.7766 35.1606 82.2297L37.5294 84.1728C39.9886 81.1731 41.3437 77.3833 41.3437 73.5C41.3437 72.4986 41.2457 71.5063 41.0681 70.5278C42.1063 70.9122 43.169 71.2429 44.2715 71.4742C44.3511 72.1877 44.4062 72.8691 44.4062 73.5ZM49 68.9063C38.024 68.9062 29.0937 59.976 29.0937 49C29.0937 38.024 38.024 29.0938 49 29.0938C59.976 29.0938 68.9062 38.024 68.9062 49C68.9062 59.976 59.976 68.9063 49 68.9063ZM82.6875 79.625C84.3765 79.625 85.75 80.9985 85.75 82.6875C85.75 84.3765 84.3765 85.75 82.6875 85.75C80.9985 85.75 79.625 84.3765 79.625 82.6875C79.625 80.9985 80.9985 79.625 82.6875 79.625ZM73.5 44.4063C72.8707 44.4063 72.1877 44.3527 71.4742 44.2715C71.2429 43.169 70.9122 42.1063 70.5278 41.0681C71.5063 41.2457 72.4986 41.3438 73.5 41.3438C77.3817 41.3438 81.1716 39.9886 84.1713 37.5294L82.2297 35.1606C78.5363 38.1878 73.3362 39.0668 68.8052 37.4222C67.6537 35.4607 66.2235 33.6906 64.5636 32.1547H82.4532L84.5954 19.2983L77.665 21.2782L73.4939 17.9432L69.3273 21.2767L62.4046 19.2968L64.5453 32.1363C63.3294 31.0155 61.9972 30.0232 60.5625 29.1826C60.0112 27.6712 59.7187 26.1002 59.7187 24.5C59.7188 21.3242 60.8274 18.2234 62.8394 15.7703L60.4706 13.8272C58.0114 16.8269 56.6562 20.6167 56.6562 24.5C56.6562 25.5014 56.7543 26.4937 56.9319 27.4722C55.8937 27.0878 54.831 26.7571 53.7285 26.5258C53.6489 25.8123 53.5937 25.1309 53.5937 24.5C53.5938 13.524 62.524 4.59375 73.5 4.59375C84.476 4.59375 93.4062 13.524 93.4062 24.5C93.4062 35.476 84.476 44.4063 73.5 44.4063V44.4063ZM66.2204 23.5751L70.0072 24.6577L73.4939 21.8662L76.9851 24.6562L80.7796 23.5736L79.8593 29.0938L67.1392 29.0938L66.2204 23.5751ZM90.3438 24.5C90.3438 28.3833 88.9886 32.1731 86.5294 35.1728L84.1606 33.2297C86.1726 30.7766 87.2812 27.6758 87.2812 24.5C87.2812 16.9019 81.0996 10.7188 73.5 10.7188C70.3242 10.7188 67.2234 11.8274 64.7703 13.8394L62.8287 11.4706C65.8284 9.01141 69.6183 7.65625 73.5 7.65625C82.787 7.65625 90.3438 15.213 90.3438 24.5ZM24.5 86.7713L35.6016 71.9688L29.8594 64.3125H19.1406L13.3984 71.9688L24.5 86.7713ZM26.0312 73.5H30.625L26.0312 79.625L26.0312 73.5ZM27.5625 70.4375L29.0937 68.3963L30.625 70.4375H27.5625ZM24.5 69.4162L22.9687 67.375H26.0312L24.5 69.4162ZM21.4375 70.4375H18.375L19.9062 68.3963L21.4375 70.4375ZM22.9687 73.5L22.9687 79.625L18.375 73.5H22.9687Z" fill="url(#paint0_linear)"/>
<defs>
<linearGradient id="paint0_linear" x1="49" y1="96.4688" x2="49" y2="1.53125" gradientUnits="userSpaceOnUse">
<stop stop-color="#2D3892"/>
<stop offset="1" stop-color="#616FE1"/>
</linearGradient>
</defs>
</svg>
