<svg width="171" height="171" viewBox="0 0 171 171" fill="none" xmlns="http://www.w3.org/2000/svg">
<g filter="url(#filter0_d)">
<path d="M85.5002 14C46.075 14 14 46.0751 14 85.5C14 124.925 46.075 157 85.5002 157C124.925 157 157 124.925 157 85.5C157 46.0751 124.925 14 85.5002 14ZM82.9827 79.8215H88.0176C100.789 79.8215 111.179 90.2112 111.179 102.983C111.179 114.681 102.459 124.375 91.1786 125.922V139.669H79.8217V125.922C68.5416 124.375 59.8218 114.681 59.8218 102.983H71.1787C71.1787 109.491 76.4741 114.787 82.9827 114.787H88.0176C94.5263 114.787 99.8217 109.492 99.8217 102.983C99.8217 96.4735 94.5267 91.1785 88.0176 91.1785H82.9827C70.2119 91.1785 59.8218 80.7888 59.8218 68.0175C59.8218 56.3191 68.5416 46.6248 79.8217 45.0779V31.3315H91.1786V45.0779C102.459 46.6248 111.179 56.3191 111.179 68.0175H99.8217C99.8217 61.5088 94.5267 56.2134 88.0176 56.2134H82.9827C76.4741 56.2134 71.1787 61.5084 71.1787 68.0175C71.1787 74.5265 76.4741 79.8215 82.9827 79.8215Z" fill="#F54886"/>
</g>
<defs>
<filter id="filter0_d" x="-11" y="-11" width="193" height="193" filterUnits="userSpaceOnUse" color-interpolation-filters="sRGB">
<feFlood flood-opacity="0" result="BackgroundImageFix"/>
<feColorMatrix in="SourceAlpha" type="matrix" values="0 0 0 0 0 0 0 0 0 0 0 0 0 0 0 0 0 0 127 0"/>
<feOffset/>
<feGaussianBlur stdDeviation="7"/>
<feColorMatrix type="matrix" values="0 0 0 0 0.960784 0 0 0 0 0.282353 0 0 0 0 0.52549 0 0 0 0.96 0"/>
<feBlend mode="normal" in2="BackgroundImageFix" result="effect1_dropShadow"/>
<feBlend mode="normal" in="SourceGraphic" in2="effect1_dropShadow" result="shape"/>
</filter>
</defs>
</svg>
