<svg width="278" height="287" viewBox="0 0 278 287" fill="none" xmlns="http://www.w3.org/2000/svg">
<path d="M272.39 5.25464V201.604C235.783 201.604 205.618 229.229 201.653 264.805C201.587 265.528 201.5 266.252 201.455 266.974C201.389 267.61 201.346 268.245 201.323 268.902C201.301 269.406 201.28 269.909 201.257 270.413C201.235 271.202 201.214 271.99 201.214 272.779V282.023H4.88803V272.779C4.88803 125.258 124.892 5.25464 272.39 5.25464Z" fill="#FF4A73"/>
<path d="M272.39 5.25464V7.29179C148.333 22.5381 50.2786 123.068 38.8865 248.287C38.1204 256.348 37.7473 264.519 37.7473 272.779V282.023H4.88803V272.779C4.88803 125.258 124.892 5.25464 272.39 5.25464Z" fill="#F973A3"/>
<path d="M272.39 37.9833V201.604C235.783 201.604 205.618 229.229 201.653 264.805C201.587 265.528 201.5 266.252 201.455 266.974C201.389 267.61 201.346 268.245 201.323 268.902C201.301 269.406 201.28 269.909 201.257 270.413C201.235 271.202 201.214 271.99 201.214 272.779V282.023H37.6166V272.779C37.6166 264.498 38.0544 256.327 38.8877 248.287C51.1765 130.275 151.202 37.9833 272.39 37.9833Z" fill="#FFA31D"/>
<path d="M272.39 70.7119V201.604C235.783 201.604 205.618 229.229 201.653 264.805C201.587 265.528 201.5 266.252 201.455 266.974C201.389 267.61 201.346 268.245 201.323 268.902C201.301 269.406 201.28 269.909 201.258 270.413C201.235 271.202 201.214 271.99 201.214 272.779V282.023H70.323V272.779C70.323 265.549 70.6949 258.385 71.4622 251.354C82.1741 149.948 168.202 70.7119 272.39 70.7119Z" fill="#F9D335"/>
<path d="M272.389 103.44V201.604C235.783 201.604 205.618 229.229 201.653 264.805C201.587 265.528 201.5 266.252 201.455 266.974C201.389 267.61 201.346 268.245 201.323 268.902C201.301 269.406 201.28 269.909 201.257 270.413C201.235 271.202 201.214 271.99 201.214 272.779V282.023H103.052V272.779C103.052 267.805 103.27 262.876 103.708 258.014C103.752 257.159 103.84 256.327 103.927 255.494C112.624 170.19 184.851 103.44 272.389 103.44Z" fill="#44C7B6"/>
<path d="M272.39 136.147V201.604C235.783 201.604 205.618 229.229 201.653 264.805C201.587 265.528 201.5 266.252 201.455 266.974C201.389 267.61 201.346 268.245 201.323 268.902C201.301 269.406 201.28 269.909 201.257 270.413C201.235 271.201 201.214 271.99 201.214 272.778V282.023H135.779V272.778C135.779 268.069 136.02 263.425 136.48 258.824C136.503 258.736 136.503 258.671 136.503 258.583C143.623 189.884 201.851 136.147 272.39 136.147Z" fill="#3193F3"/>
<path d="M272.39 168.875V201.604C235.783 201.604 205.618 229.229 201.653 264.805C201.587 265.528 201.5 266.252 201.455 266.974C201.389 267.61 201.346 268.245 201.323 268.902C201.301 269.406 201.28 269.909 201.257 270.413C201.235 271.202 201.214 271.99 201.214 272.779V282.023H168.485V272.779C168.485 268.835 168.704 264.936 169.142 261.124C174.949 209.271 219.047 168.875 272.39 168.875Z" fill="#A442BC"/>
<path d="M272.39 37.9833V40.2829C165.375 55.3326 81.3195 142.784 71.4609 251.354C70.8031 258.408 70.4747 265.549 70.4747 272.779V282.023H37.6166V272.779C37.6166 264.498 38.0544 256.327 38.8877 248.287C51.1765 130.275 151.202 37.9833 272.39 37.9833Z" fill="#F9B04E"/>
<path d="M272.39 70.7119V73.4069C182.09 88.2154 111.77 163.071 103.927 255.495C103.84 256.327 103.752 257.16 103.708 258.015C103.358 262.9 103.182 267.808 103.182 272.78V282.024H70.323V272.78C70.323 265.55 70.6949 258.387 71.4622 251.355C82.1741 149.948 168.202 70.7119 272.39 70.7119Z" fill="#F9E27D"/>
<path d="M272.389 103.44V106.66C199.199 121.097 142.812 182.829 136.503 258.583C136.503 258.671 136.503 258.736 136.48 258.824C136.107 263.425 135.911 268.069 135.911 272.779V282.023H103.052V272.779C103.052 267.805 103.27 262.876 103.708 258.014C103.752 257.159 103.84 256.327 103.927 255.494C112.624 170.19 184.851 103.44 272.389 103.44Z" fill="#4BDBC3"/>
<path d="M272.39 136.147V140.134C216.527 153.979 174.117 202.283 169.143 261.125C168.815 264.959 168.639 268.858 168.639 272.78V282.024H135.779V272.78C135.779 268.07 136.02 263.426 136.48 258.826C136.503 258.737 136.503 258.673 136.503 258.584C143.623 189.884 201.851 136.147 272.39 136.147Z" fill="#35B1FC"/>
<path d="M272.39 168.875V174.198C233.571 187.168 204.873 222.481 201.653 264.804C201.587 265.527 201.5 266.251 201.455 266.973C201.389 267.609 201.346 268.244 201.323 268.901C201.301 269.405 201.28 269.908 201.257 270.412C201.235 271.2 201.214 271.989 201.214 272.777V282.022H168.485V272.777C168.485 268.834 168.704 264.935 169.142 261.123C174.949 209.271 219.047 168.875 272.39 168.875Z" fill="#BD66D3"/>
<path d="M4.888 286.73H201.215C203.815 286.73 205.923 284.623 205.923 282.023C206.167 271.974 205.505 278.869 206.333 265.325C210.083 231.682 238.481 206.31 272.391 206.31C274.99 206.31 277.098 204.203 277.098 201.603C277.098 136.663 277.098 78.89 277.098 5.25348C277.098 2.65379 274.99 0.546021 272.391 0.546021C122.293 0.546021 0.180542 122.669 0.180542 272.777V282.022C0.180542 284.623 2.28831 286.73 4.888 286.73ZM267.682 197.04C227.514 199.496 196.506 232.751 196.506 272.779V277.315H173.193C173.246 274.261 172.971 269.009 173.821 261.648C179.267 213.008 219.208 175.957 267.681 173.692V197.04H267.682ZM267.682 164.277C214.409 166.55 170.445 207.191 164.467 260.585C163.546 268.576 163.833 274.349 163.779 277.315H140.488C140.537 274.367 140.269 268.351 141.15 259.456C141.183 259.232 141.198 259.036 141.204 258.879C148.108 193.144 202.045 143.225 267.683 140.935V164.277H267.682ZM267.682 131.526C234.259 132.636 202.393 145.523 177.5 168.116C153.387 190 135.837 220.979 131.796 258.355C130.842 267.893 131.122 274.401 131.073 277.315H107.758C107.76 277.192 107.704 264.586 108.61 255.972C117.043 173.262 185.018 110.514 267.682 108.213V131.526ZM267.682 98.8025C226.07 99.9229 186.368 115.866 155.426 143.994C120.996 175.293 101.087 219.649 99.0114 257.679C98.1346 267.473 98.3865 274.419 98.3429 277.317H75.0292C75.0857 274.511 74.7326 264.771 76.1413 251.849C86.6025 152.834 168.535 77.7861 267.681 75.4735V98.8025H267.682ZM267.682 66.0586C218.06 67.1837 170.65 86.0653 133.712 119.517C95.8785 153.78 72.107 200.426 66.7817 250.844C65.3071 264.383 65.6696 274.657 65.6154 277.317H42.3229C42.3747 274.796 42.0063 263.878 43.5692 248.776C55.6415 132.85 151.573 45.0527 267.682 42.7378V66.0586ZM9.59547 272.779C9.59547 129.435 124.944 12.5265 267.683 10.0033V33.33C209.877 34.4609 154.626 56.3942 111.639 95.3943C61.6694 140.73 32.9092 204.689 32.9092 272.779V277.315H9.59547V272.779Z" fill="#5F266D"/>
</svg>
