<svg width="252" height="252" viewBox="0 0 252 252" fill="none" xmlns="http://www.w3.org/2000/svg">
<g clip-path="url(#clip0)">
<path d="M112.855 3.60486H86.4673L73.2724 41.8533L86.4673 87.9979H112.855L126.048 41.8533L112.855 3.60486Z" fill="#1FD7C3"/>
<path d="M139.241 3.60486H165.629L178.822 41.8533L165.629 87.9979H139.241L126.048 41.8533L139.241 3.60486Z" fill="#FFB44D"/>
<path d="M82.6182 47.723C80.0669 47.723 77.5636 47.9307 75.1238 48.3248L86.4673 87.9979H112.853L124.36 47.7576C117.31 48.0095 110.485 49.8302 104.332 53.0525C97.6895 49.5726 90.2625 47.723 82.6182 47.723Z" fill="#00BBC9"/>
<path d="M127.736 47.7557L139.241 87.9979H165.629L176.972 48.3248C174.531 47.9307 172.029 47.723 169.478 47.723C161.834 47.723 154.405 49.5726 147.762 53.0525C141.612 49.8302 134.784 48.0076 127.736 47.7557Z" fill="#E7A25D"/>
<path d="M112.855 3.60486H139.241V87.9979H112.855V3.60486Z" fill="#FFE76C"/>
<path d="M66.897 3.60486C63.1306 3.60486 60.0794 6.65797 60.0794 10.4224V87.9979H86.4653V3.60486H66.897Z" fill="#5BD6FD"/>
<path d="M185.199 3.60486H165.629V87.9979H192.017V10.4224C192.017 6.65797 188.964 3.60486 185.199 3.60486Z" fill="#FF7F5A"/>
<path d="M192.017 53.512C185.326 49.8244 177.643 47.723 169.478 47.723C168.188 47.723 166.904 47.7807 165.629 47.8845V87.9979H192.017V53.512Z" fill="#FF5D29"/>
<path d="M139.241 49.6168C134.996 48.3729 130.56 47.723 126.048 47.723C121.534 47.723 117.098 48.3729 112.853 49.6168V87.9979H139.241V49.6168Z" fill="#FFB44D"/>
<path d="M86.4673 47.8845C85.1906 47.7807 83.9083 47.723 82.6163 47.723C74.4529 47.723 66.7701 49.8244 60.0794 53.512V87.9979H86.4653V47.8845H86.4673Z" fill="#00ACFB"/>
<path d="M114.697 94.579C114.697 112.296 100.333 126.658 82.6163 126.658C64.8994 126.658 50.5375 112.296 50.5375 94.579C50.5375 76.8622 64.8994 62.5002 82.6163 62.5002C100.333 62.5002 114.697 76.8622 114.697 94.579Z" fill="#FFB44D"/>
<path d="M100.527 94.579C100.527 104.471 92.5081 112.488 82.6163 112.488C72.7263 112.488 64.7071 104.471 64.7071 94.579C64.7071 84.6872 72.7263 76.6699 82.6163 76.6699C92.5081 76.6699 100.527 84.6872 100.527 94.579Z" fill="#FFE76C"/>
<path d="M201.559 94.579C201.559 112.296 187.195 126.658 169.478 126.658C151.761 126.658 137.399 112.296 137.399 94.579C137.399 76.8622 151.761 62.5002 169.478 62.5002C187.195 62.5002 201.559 76.8622 201.559 94.579Z" fill="#FFB44D"/>
<path d="M187.387 94.579C187.387 104.471 179.37 112.488 169.478 112.488C159.586 112.488 151.569 104.471 151.569 94.579C151.569 84.6872 159.586 76.6699 169.478 76.6699C179.37 76.6699 187.387 84.6872 187.387 94.579Z" fill="#FFE76C"/>
<path d="M158.127 94.579C158.127 112.296 143.765 126.658 126.048 126.658C108.331 126.658 93.9674 112.296 93.9674 94.579C93.9674 76.8622 108.331 62.5002 126.048 62.5002C143.765 62.5002 158.127 76.8622 158.127 94.579Z" fill="#FFE76C"/>
<path d="M143.957 94.579C143.957 104.471 135.94 112.488 126.048 112.488C116.156 112.488 108.139 104.471 108.139 94.579C108.139 84.6872 116.156 76.6699 126.048 76.6699C135.94 76.6699 143.957 84.6872 143.957 94.579Z" fill="#FFB44D"/>
<path d="M223.273 142.781H196.623V162.522H223.273C228.725 162.522 233.143 158.102 233.143 152.651C233.143 147.199 228.725 142.781 223.273 142.781Z" fill="#95BBDB"/>
<path d="M199.376 235.756L193.539 205.37L179.843 207.679L168.59 227.987L180.358 244.047C182.361 246.781 185.547 248.396 188.935 248.396C195.612 248.396 200.636 242.314 199.376 235.756Z" fill="#95BBDB"/>
<path d="M28.8216 142.781H55.4728V162.522H28.8216C23.371 162.522 18.9509 158.102 18.9509 152.651C18.9509 147.199 23.371 142.781 28.8216 142.781Z" fill="#95BBDB"/>
<path d="M52.7197 235.756L58.5567 205.37L72.2534 207.679L83.5045 227.987L71.7362 244.047C69.7348 246.781 66.549 248.396 63.1594 248.396C56.4841 248.396 51.4584 242.314 52.7197 235.756Z" fill="#95BBDB"/>
<path d="M196.541 220.991L193.539 205.37L179.843 207.68L168.59 227.987L175.878 237.935C183.534 233.263 190.486 227.547 196.541 220.991Z" fill="#77A1C2"/>
<path d="M58.5567 205.37L55.5555 220.991C61.6098 227.547 68.5601 233.263 76.2178 237.933L83.5064 227.987L72.2534 207.679L58.5567 205.37Z" fill="#77A1C2"/>
<path d="M30.0848 155.951C30.0848 158.16 30.1655 160.35 30.3135 162.522H55.4728V142.781H30.9807C30.3905 147.109 30.0848 151.5 30.0848 155.951Z" fill="#77A1C2"/>
<path d="M196.623 162.522H221.781C221.929 160.35 222.011 158.16 222.011 155.951C222.011 151.502 221.706 147.109 221.115 142.781H196.623V162.522Z" fill="#77A1C2"/>
<path d="M51.3546 118.264C45.6291 129.59 42.3991 142.393 42.3991 155.951C42.3991 202.149 79.8496 239.6 126.048 239.6C172.247 239.6 209.697 202.149 209.697 155.951C209.697 142.393 206.467 129.59 200.742 118.264L126.048 106.245L51.3546 118.264Z" fill="#95BBDB"/>
<path d="M48.1092 133.039H203.985C204.825 133.039 205.654 132.997 206.475 132.92C205.015 127.819 203.093 122.916 200.741 118.264L126.048 106.245L51.3546 118.264C49.0013 122.916 47.0787 127.819 45.6214 132.92C46.4404 132.997 47.271 133.039 48.1092 133.039Z" fill="#77A1C2"/>
<path d="M203.985 94.2272H48.1092C41.4724 94.2272 36.091 99.6066 36.091 106.245C36.091 112.882 41.4724 118.264 48.1092 118.264H203.985C210.624 118.264 216.003 112.882 216.003 106.245C216.003 99.6066 210.624 94.2272 203.985 94.2272Z" fill="#95BBDB"/>
<path d="M82.8085 148.585V155.741C82.8085 157.781 84.462 159.436 86.5019 159.436C88.5417 159.436 90.1952 157.781 90.1952 155.741V148.585C90.1952 146.543 88.5417 144.89 86.5019 144.89C84.462 144.89 82.8085 146.543 82.8085 148.585Z" fill="black"/>
<path d="M161.899 148.585V155.741C161.899 157.781 163.554 159.436 165.594 159.436C167.634 159.436 169.288 157.781 169.288 155.741V148.585C169.288 146.543 167.634 144.89 165.594 144.89C163.554 144.89 161.899 146.543 161.899 148.585Z" fill="black"/>
<path d="M133.027 152.813C131.329 154.753 128.786 155.868 126.048 155.868C123.308 155.868 120.767 154.753 119.069 152.813C117.725 151.277 115.391 151.119 113.857 152.461C112.321 153.805 112.163 156.139 113.505 157.675C116.606 161.223 121.178 163.257 126.048 163.257C130.918 163.257 135.49 161.223 138.589 157.675C139.931 156.139 139.776 153.805 138.239 152.461C136.703 151.119 134.369 151.277 133.027 152.813Z" fill="black"/>
<g filter="url(#filter0_d)">
<path d="M203.985 98.009C208.576 98.009 212.31 101.745 212.31 106.334C212.31 110.923 208.576 114.659 203.985 114.659H81.2031C79.1633 114.659 77.5098 116.312 77.5098 118.352C77.5098 120.392 79.1633 122.047 81.2031 122.047H198.434C201.622 128.809 203.808 135.881 204.983 143.186C205.983 149.404 206.244 155.645 205.785 161.922C205.375 167.523 204.387 173.054 202.82 178.43C202.251 180.389 203.375 182.439 205.335 183.01C205.679 183.11 206.027 183.158 206.369 183.158C207.971 183.158 209.445 182.11 209.914 180.495C211.266 175.855 212.214 171.109 212.779 166.304H223.273C230.752 166.304 236.837 160.219 236.837 152.74C236.837 145.259 230.752 139.174 223.273 139.174H211.768C210.608 133.241 208.832 127.456 206.438 121.853C213.94 120.671 219.697 114.163 219.697 106.334C219.697 98.0167 213.202 91.1933 205.019 90.6588C204.145 82.9011 200.759 75.8816 195.708 70.4233V10.5109C195.71 4.71617 190.994 0 185.199 0H66.897C61.1003 0 56.3842 4.71617 56.3842 10.5109V70.4233C51.3335 75.8816 47.9497 82.903 47.0749 90.6588C38.8922 91.1933 32.3957 98.0186 32.3957 106.334C32.3957 114.163 38.154 120.673 45.656 121.853C43.2623 127.456 41.4858 133.241 40.3265 139.176H28.8216C21.3426 139.176 15.2576 145.261 15.2576 152.74C15.2576 160.219 21.3426 166.304 28.8216 166.304H39.3094C41.0456 181.06 46.4693 194.701 54.6384 206.277C54.6384 206.277 49.1013 235.097 49.0898 235.151C46.2981 249.684 65.9318 258.309 74.7163 246.319L84.56 232.886C96.909 239.579 111.042 243.383 126.048 243.383C140.623 243.383 154.851 239.777 167.55 232.907C167.55 232.907 177.374 246.313 177.378 246.319C186.189 258.345 205.798 249.69 203.004 235.149L197.463 206.312C200.086 202.589 202.435 198.662 204.46 194.545C205.362 192.715 204.606 190.5 202.776 189.6C200.945 188.699 198.732 189.454 197.831 191.283C191.311 204.535 181.092 215.863 168.599 223.734C155.874 231.754 141.167 235.993 126.048 235.993C84.0525 235.993 49.5166 203.449 46.3327 162.257C45.2849 148.691 47.7728 134.537 53.6598 122.045H66.4279C68.4678 122.045 70.1212 120.39 70.1212 118.35C70.1212 116.31 68.4678 114.657 66.4279 114.657H48.1092C43.52 114.657 39.7863 110.923 39.7863 106.332C39.7863 101.743 43.52 98.009 48.1092 98.009H203.985ZM191.413 213.975C191.413 213.975 195.747 236.529 195.748 236.545C197.112 243.633 187.56 247.703 183.338 241.953L173.921 229.102C174.146 228.954 174.365 228.797 174.59 228.647C180.789 224.501 186.47 219.558 191.413 213.975ZM38.7519 158.917H28.8216C25.4167 158.917 22.6462 156.147 22.6462 152.74C22.6462 149.333 25.4167 146.563 28.8216 146.563H39.2133C38.9634 148.899 38.8019 151.252 38.7384 153.624C38.6904 155.387 38.6942 157.154 38.7519 158.917ZM68.7581 241.953C64.5495 247.696 54.9883 243.61 56.3457 236.545L60.6831 213.975C65.8184 219.778 71.6728 224.84 78.175 229.102C78.175 229.102 68.8004 241.895 68.7581 241.953ZM188.321 10.5109V64.2498C183.273 61.1083 177.514 59.2876 171.483 58.955C171.364 58.9492 169.374 58.8954 169.322 58.8954V7.3886H185.199C186.922 7.3886 188.321 8.79018 188.321 10.5109ZM161.934 59.7009C157.533 60.643 153.305 62.4464 149.567 64.9535C148.973 65.3515 147.781 66.232 147.762 66.2455C146.237 65.0785 144.624 64.0383 142.936 63.1309V7.3886H161.934V59.7009ZM126.048 73.065C115.603 73.065 106.757 80.6632 104.84 90.6223H97.9606C97.9645 90.5935 97.9683 90.5646 97.9722 90.5377C99.7333 78.5925 109.01 69.016 120.778 66.78C124.2 66.1282 127.846 66.1167 131.316 66.78C143.084 69.016 152.359 78.5906 154.122 90.5358C154.126 90.5646 154.13 90.5935 154.134 90.6223H147.254C145.338 80.6632 136.492 73.065 126.048 73.065ZM135.548 60.17C133.096 59.4933 130.58 59.0895 128.013 58.953C126.704 58.8819 125.391 58.8704 124.081 58.953C121.516 59.0895 118.998 59.4933 116.548 60.17V7.3886H135.548V60.17ZM109.16 63.1309C107.47 64.0383 105.857 65.0785 104.334 66.2455C104.315 66.2301 104.294 66.2186 104.274 66.2032C101.362 63.9826 98.1067 62.2138 94.6595 60.9795C93.1926 60.4527 91.6852 60.0259 90.1606 59.7009V7.3886H109.16V63.1309ZM63.7728 10.5109C63.7728 8.79018 65.1743 7.3886 66.897 7.3886H82.772V58.8954C82.7201 58.8954 80.7321 58.9492 80.6129 58.955C74.5817 59.2876 68.8215 61.1083 63.7728 64.2479V10.5109ZM79.9554 66.4089C81.9318 66.2224 84.0179 66.2551 86.027 66.4954C90.5663 67.0395 94.969 68.7084 98.7297 71.3077C98.7797 71.3443 98.8316 71.3789 98.8816 71.4135C97.405 73.1419 96.1034 75.0049 94.9864 76.9698C91.3911 74.4531 87.0883 73.0631 82.6182 73.0631C72.1726 73.0631 63.3267 80.6632 61.4099 90.6204H54.5288C56.3842 77.7677 66.9412 67.6356 79.9554 66.4089ZM82.6163 80.4517C86.0616 80.4517 89.3589 81.7014 91.9275 83.9335C91.9717 83.972 91.6718 84.7872 91.6449 84.8852C91.1181 86.7463 90.7278 88.6862 90.5086 90.6223H68.9984C70.7595 84.7622 76.2351 80.4517 82.6163 80.4517ZM112.43 90.6223C114.191 84.7622 119.667 80.4517 126.048 80.4517C132.429 80.4517 137.905 84.7622 139.666 90.6223H112.43ZM161.586 90.6223C161.543 90.2397 161.176 87.9787 161.166 87.9249C160.907 86.579 160.58 85.2448 160.167 83.9335C162.737 81.7014 166.035 80.4517 169.478 80.4517C175.859 80.4517 181.335 84.7603 183.096 90.6204H161.586V90.6223ZM190.686 90.6223C188.769 80.6632 179.923 73.065 169.478 73.065C165.008 73.065 160.703 74.4551 157.11 76.9698C155.993 75.0068 154.691 73.1438 153.215 71.4135C153.265 71.3789 153.316 71.3443 153.366 71.3077C158.796 67.5567 165.569 65.7879 172.141 66.4089C185.155 67.6356 195.712 77.7677 197.567 90.6223H190.686ZM223.273 146.565C226.679 146.565 229.45 149.335 229.45 152.74C229.45 156.147 226.679 158.917 223.273 158.917H213.344C213.373 157.996 213.475 146.565 212.881 146.565H223.273Z" fill="black"/>
</g>
</g>
<defs>
<filter id="filter0_d" x="11.2576" y="0" width="229.579" height="260" filterUnits="userSpaceOnUse" color-interpolation-filters="sRGB">
<feFlood flood-opacity="0" result="BackgroundImageFix"/>
<feColorMatrix in="SourceAlpha" type="matrix" values="0 0 0 0 0 0 0 0 0 0 0 0 0 0 0 0 0 0 127 0"/>
<feOffset dy="4"/>
<feGaussianBlur stdDeviation="2"/>
<feColorMatrix type="matrix" values="0 0 0 0 0 0 0 0 0 0 0 0 0 0 0 0 0 0 0.25 0"/>
<feBlend mode="normal" in2="BackgroundImageFix" result="effect1_dropShadow"/>
<feBlend mode="normal" in="SourceGraphic" in2="effect1_dropShadow" result="shape"/>
</filter>
<clipPath id="clip0">
<rect width="252" height="252" fill="white"/>
</clipPath>
</defs>
</svg>
