<svg width="469" height="849" viewBox="0 0 469 849" fill="none" xmlns="http://www.w3.org/2000/svg">
<path d="M323.481 261.679C358.83 248.764 394.893 234.64 422.451 209.035C451.231 182.294 468.619 138.282 451.351 102.998C436.846 73.3596 401.104 58.1415 368.197 60.899C335.291 63.6566 305.311 81.4967 280.746 103.533C292.351 73.5381 264.258 38.4239 232.136 36.2125C200.014 34.001 170.255 57.6869 156.999 86.9905C143.742 116.294 144.116 149.933 148.429 181.806C155.724 235.258 173.251 286.811 200.054 333.652C206.61 325.207 214.133 317.557 222.47 310.858C251.793 287.291 288.133 274.593 323.481 261.679Z" fill="url(#paint0_linear)"/>
<path d="M196.995 335.13C161.783 281.544 139.397 220.562 131.573 156.92C127.604 123.875 128.01 87.0749 146.271 57.945C160.394 35.4149 185.858 17.0161 213.501 19.2712C242.672 21.651 270.504 53.3675 259.546 82.9371C258.728 85.1453 261.355 88.0213 263.473 86.1288C290.967 61.5677 326.758 40.5821 364.967 43.9574C399 46.9637 431.742 69.3318 436.195 105.08C440.834 142.314 417.304 177.254 388.671 198.587C356.908 222.252 318.528 234.107 281.899 247.877C245.86 261.425 208.801 277.783 183.254 307.705C171.182 321.505 162.486 337.924 157.855 355.665C153.343 374.018 155.243 392.337 161.709 409.969C168.578 428.698 177.948 446.258 183.801 465.402C189.543 484.317 193.11 503.824 194.431 523.547C197.179 562.878 191.062 602.325 176.532 638.977C149.818 705.739 93.9607 759.435 26.8318 784.847C18.7219 787.908 10.4628 790.559 2.08596 792.789C-1.16099 793.656 0.769049 798.524 3.99654 797.662C38.942 788.119 71.5981 771.611 100.003 749.129C128.409 726.647 151.977 698.655 169.292 666.836C206.96 596.885 210.317 510.018 178.989 437.121C170.79 418.042 160.814 399.224 160.458 377.968C160.132 358.489 167.287 339.343 178.001 323.298C200.947 288.935 238.703 270.174 276.143 255.673C313.574 241.175 352.93 229.706 386.33 206.699C416.062 186.217 440.644 154.2 441.902 116.824C442.675 99.7744 437.306 83.0134 426.77 69.5871C416.046 56.7039 401.708 47.3299 385.605 42.6747C349.762 31.7693 312.683 43.7809 282.711 64.2733C274.898 69.6612 267.442 75.5492 260.39 81.9005L264.317 85.0922C274.208 58.4022 256.262 29.6499 231.699 18.6625C204.987 6.71382 174.777 18.6946 155.239 38.2897C130.834 62.7658 123.646 97.9289 124.418 131.414C125.218 166.15 132.646 201.198 143.163 234.223C154.898 270.979 171.586 305.964 192.766 338.214C194.618 341.036 198.839 337.942 196.995 335.13L196.995 335.13Z" fill="#3F3D56"/>
<defs>
<linearGradient id="paint0_linear" x1="269.274" y1="344.488" x2="315.52" y2="49.0864" gradientUnits="userSpaceOnUse">
<stop stop-color="#BD66D3"/>
<stop offset="0.2" stop-color="#35B1FC"/>
<stop offset="0.4" stop-color="#4BDBC3"/>
<stop offset="0.6" stop-color="#F9E27D"/>
<stop offset="0.8" stop-color="#F9B04E"/>
<stop offset="1" stop-color="#F973A3"/>
</linearGradient>
</defs>
</svg>
