<svg width="178" height="153" viewBox="0 0 178 153" fill="none" xmlns="http://www.w3.org/2000/svg">
<g filter="url(#filter0_d)">
<path d="M156.435 17.0414L170 3.06026V0H123.009L89.5192 89.8084L51.418 0H2.14628V3.06026L17.9917 23.612C19.5359 25.1308 20.3434 27.3515 20.1379 29.5877V110.352C20.6267 113.26 19.7484 116.252 17.85 118.366L3.05176e-05 141.673V144.695H50.6104V141.634L32.7604 118.366C30.8268 116.244 29.913 113.306 30.3024 110.352V40.4932L74.7292 144.733H79.893L118.093 40.4932V123.532C118.093 125.723 118.093 126.173 116.762 127.608L103.02 141.932V145H169.688V141.94L156.443 127.966C155.281 127.02 154.679 125.433 154.927 123.891V21.1166C154.679 19.5673 155.274 17.98 156.435 17.0414Z" fill="white"/>
</g>
<defs>
<filter id="filter0_d" x="3.05176e-05" y="0" width="178" height="153" filterUnits="userSpaceOnUse" color-interpolation-filters="sRGB">
<feFlood flood-opacity="0" result="BackgroundImageFix"/>
<feColorMatrix in="SourceAlpha" type="matrix" values="0 0 0 0 0 0 0 0 0 0 0 0 0 0 0 0 0 0 127 0"/>
<feOffset dx="4" dy="4"/>
<feGaussianBlur stdDeviation="2"/>
<feColorMatrix type="matrix" values="0 0 0 0 0 0 0 0 0 0 0 0 0 0 0 0 0 0 0.25 0"/>
<feBlend mode="normal" in2="BackgroundImageFix" result="effect1_dropShadow"/>
<feBlend mode="normal" in="SourceGraphic" in2="effect1_dropShadow" result="shape"/>
</filter>
</defs>
</svg>
