<svg width="162" height="162" viewBox="0 0 162 162" fill="none" xmlns="http://www.w3.org/2000/svg">
<g clip-path="url(#clip0)">
<g filter="url(#filter0_d)">
<path d="M81 6.19116C39.6841 6.19116 6.19107 39.6842 6.19107 81.0001C6.19107 122.316 39.6841 155.809 81 155.809C122.316 155.809 155.809 122.316 155.809 81.0001C155.809 39.6842 122.316 6.19116 81 6.19116ZM126.237 61.05C126.273 61.9331 126.291 62.8178 126.291 63.7072C126.291 95.6634 101.974 128.717 61.2811 128.717C48.8417 128.717 36.73 125.168 26.256 118.45C26.037 118.311 25.9468 118.039 26.0341 117.796C26.1213 117.554 26.3677 117.404 26.6201 117.433C28.3775 117.643 30.1742 117.747 31.9574 117.747C41.6355 117.747 50.7978 114.755 58.5474 109.078C49.2581 108.294 41.2743 102.008 38.4028 93.0399C38.3432 92.8531 38.3861 92.6497 38.5147 92.5026C38.6447 92.3557 38.8437 92.2914 39.0336 92.3267C41.608 92.8148 44.2253 92.8471 46.7478 92.4369C37.1678 89.4597 30.4346 80.4858 30.4346 70.269L30.4375 69.9719C30.4422 69.7776 30.5477 69.6 30.7162 69.5036C30.8831 69.4057 31.0912 69.4041 31.2594 69.4989C33.7575 70.8857 36.5217 71.7766 39.358 72.1178C33.8523 67.7296 30.6198 61.0776 30.6198 53.9618C30.6198 49.8566 31.7065 45.8218 33.7637 42.2938C33.8554 42.1362 34.0177 42.0351 34.1984 42.0213C34.3804 42.0031 34.5565 42.0825 34.6713 42.2234C45.9397 56.045 62.5148 64.5551 80.2393 65.6495C79.9439 64.1619 79.7939 62.6282 79.7939 61.0807C79.7939 48.2831 90.2052 37.8734 103.001 37.8734C109.292 37.8734 115.371 40.4587 119.729 44.977C124.641 43.9759 129.32 42.1698 133.643 39.6076C133.84 39.4897 134.088 39.5081 134.27 39.6504C134.448 39.7944 134.521 40.0332 134.451 40.2535C132.986 44.8347 130.13 48.8311 126.292 51.7164C129.906 51.0872 133.413 50.0249 136.748 48.5449C136.972 48.4423 137.236 48.5066 137.397 48.6949C137.556 48.8847 137.57 49.1556 137.432 49.3608C134.394 53.9082 130.629 57.8404 126.237 61.05Z" fill="white"/>
</g>
</g>
<defs>
<filter id="filter0_d" x="6.19107" y="6.19116" width="158.618" height="157.618" filterUnits="userSpaceOnUse" color-interpolation-filters="sRGB">
<feFlood flood-opacity="0" result="BackgroundImageFix"/>
<feColorMatrix in="SourceAlpha" type="matrix" values="0 0 0 0 0 0 0 0 0 0 0 0 0 0 0 0 0 0 127 0"/>
<feOffset dx="5" dy="4"/>
<feGaussianBlur stdDeviation="2"/>
<feColorMatrix type="matrix" values="0 0 0 0 0 0 0 0 0 0 0 0 0 0 0 0 0 0 0.25 0"/>
<feBlend mode="normal" in2="BackgroundImageFix" result="effect1_dropShadow"/>
<feBlend mode="normal" in="SourceGraphic" in2="effect1_dropShadow" result="shape"/>
</filter>
<clipPath id="clip0">
<rect width="162" height="162" fill="white"/>
</clipPath>
</defs>
</svg>
