<svg width="97" height="91" viewBox="0 0 97 91" fill="none" xmlns="http://www.w3.org/2000/svg">
<g clip-path="url(#clip0)" filter="url(#filter0_d)">
<path d="M86.8458 38.8191H86.3724V34.0851C86.3724 28.5936 82.3011 24.0489 76.9043 23.2915V17.5159C76.9043 11.551 71.9809 6.62762 66.016 6.62762H15.5511C9.30216 6.62762 4.09471 11.6457 4.00003 17.9893V71.484C4.00003 77.4489 8.92344 82.3723 14.8883 82.3723H75.4841C81.449 82.3723 86.3724 77.4489 86.3724 71.484V66.2766H86.8458C90.2543 66.2766 93 63.5308 93 60.1223V44.9734C93 41.5649 90.2543 38.8191 86.8458 38.8191ZM10.6277 18.1787C10.6277 15.4329 12.9 13.2553 15.5511 13.2553H65.9213C68.2883 13.2553 70.1819 15.1489 70.1819 17.5159V23.1968H15.5511C12.9 23.1968 10.6277 20.9244 10.6277 18.1787ZM86.3724 59.6489H70.75C66.8681 59.6489 63.649 56.4297 63.649 52.5478C63.649 48.6659 66.8681 45.4468 70.75 45.4468H86.3724V59.6489Z" fill="url(#paint0_linear)"/>
<path d="M72.6436 57.2819C75.2582 57.2819 77.3777 55.1624 77.3777 52.5479C77.3777 49.9333 75.2582 47.8138 72.6436 47.8138C70.0291 47.8138 67.9096 49.9333 67.9096 52.5479C67.9096 55.1624 70.0291 57.2819 72.6436 57.2819Z" fill="url(#paint1_linear)"/>
</g>
<defs>
<filter id="filter0_d" x="3.05176e-05" y="0" width="97" height="97" filterUnits="userSpaceOnUse" color-interpolation-filters="sRGB">
<feFlood flood-opacity="0" result="BackgroundImageFix"/>
<feColorMatrix in="SourceAlpha" type="matrix" values="0 0 0 0 0 0 0 0 0 0 0 0 0 0 0 0 0 0 127 0"/>
<feOffset dy="4"/>
<feGaussianBlur stdDeviation="2"/>
<feColorMatrix type="matrix" values="0 0 0 0 0 0 0 0 0 0 0 0 0 0 0 0 0 0 0.25 0"/>
<feBlend mode="normal" in2="BackgroundImageFix" result="effect1_dropShadow"/>
<feBlend mode="normal" in="SourceGraphic" in2="effect1_dropShadow" result="shape"/>
</filter>
<linearGradient id="paint0_linear" x1="48.5" y1="6.62762" x2="48.5" y2="82.3723" gradientUnits="userSpaceOnUse">
<stop stop-color="#F973A3"/>
<stop offset="0.182292" stop-color="#F9B04E"/>
<stop offset="0.385417" stop-color="#F9E27D"/>
<stop offset="0.604167" stop-color="#4BDBC3"/>
<stop offset="0.78125" stop-color="#35B1FC"/>
<stop offset="1" stop-color="#BD66D3"/>
</linearGradient>
<linearGradient id="paint1_linear" x1="72.6436" y1="47.8138" x2="72.6436" y2="57.2819" gradientUnits="userSpaceOnUse">
<stop stop-color="#F973A3"/>
<stop offset="0.182292" stop-color="#F9B04E"/>
<stop offset="0.385417" stop-color="#F9E27D"/>
<stop offset="0.604167" stop-color="#4BDBC3"/>
<stop offset="0.78125" stop-color="#35B1FC"/>
<stop offset="1" stop-color="#BD66D3"/>
</linearGradient>
<clipPath id="clip0">
<rect width="89" height="89" fill="white" transform="translate(4.00003)"/>
</clipPath>
</defs>
</svg>
