<svg width="413" height="407" viewBox="0 0 413 407" fill="none" xmlns="http://www.w3.org/2000/svg">
<g filter="url(#filter0_d)">
<path d="M184.353 393.713L8.56113 217.921L221.921 4.56116L397.713 180.353L184.353 393.713Z" fill="url(#paint0_linear)"/>
<path d="M96.4573 305.818L184.353 393.713L397.713 180.353L309.818 92.4573L96.4573 305.818Z" fill="url(#paint1_linear)"/>
<path d="M406.088 137.447L358.556 89.9149C355.016 86.3745 349.276 86.3745 345.736 89.9149L332.916 102.736C329.375 106.276 329.375 112.016 332.916 115.555L380.448 163.087C383.988 166.628 389.728 166.628 393.268 163.087L406.088 150.267C409.629 146.726 409.629 140.986 406.088 137.447Z" fill="url(#paint2_linear)"/>
<path d="M397.993 129.351L366.651 98.0098C363.697 95.0555 358.906 95.0555 355.951 98.0098L341.011 112.95C338.056 115.904 338.056 120.695 341.011 123.65L372.352 154.992C375.306 157.946 380.097 157.946 383.052 154.992L397.993 140.051C400.948 137.097 400.948 132.306 397.993 129.351Z" fill="url(#paint3_linear)"/>
<path d="M377.887 109.245L386.758 118.116C388.542 119.9 388.542 122.793 386.758 124.578L367.579 143.757C365.795 145.541 362.902 145.541 361.117 143.757L352.246 134.886C350.462 133.102 350.462 130.209 352.246 128.424L371.425 109.245C373.21 107.461 376.103 107.461 377.887 109.245Z" fill="url(#paint4_linear)"/>
<path d="M397.9 180.165L222.109 4.37378L211.672 14.8102V49.8785L369.93 208.136L397.9 180.165Z" fill="url(#paint5_linear)"/>
<path d="M379.908 186.878L215.396 22.3661C210.279 17.2495 210.279 8.95398 215.396 3.83742C220.512 -1.27914 228.808 -1.27914 233.924 3.83742L398.437 168.35C403.553 173.466 403.553 181.762 398.437 186.878C393.32 191.995 385.024 191.995 379.908 186.878Z" fill="url(#paint6_linear)"/>
<path d="M373.008 205.057L197.217 29.2657L186.78 39.7022V74.7705L345.038 233.028L373.008 205.057Z" fill="url(#paint7_linear)"/>
<path d="M355.016 211.77L190.504 47.2581C185.387 42.1415 185.387 33.8459 190.504 28.7294C195.62 23.6128 203.916 23.6128 209.032 28.7294L373.545 193.242C378.661 198.358 378.661 206.654 373.545 211.77C368.428 216.887 360.132 216.887 355.016 211.77Z" fill="url(#paint8_linear)"/>
<path d="M215.234 362.831L39.4425 187.04L29.006 197.477V232.545L187.263 390.802L215.234 362.831Z" fill="url(#paint9_linear)"/>
<path d="M197.242 369.545L32.7294 205.032C27.6128 199.916 27.6128 191.62 32.7294 186.504C37.8459 181.387 46.1415 181.387 51.258 186.504L215.77 351.016C220.887 356.132 220.887 364.428 215.77 369.545C210.654 374.661 202.358 374.661 197.242 369.545Z" fill="url(#paint10_linear)"/>
<path d="M172.35 394.437L7.83742 229.924C2.72086 224.808 2.72086 216.512 7.83742 211.396C12.954 206.279 21.2495 206.279 26.3661 211.396L190.878 375.908C195.995 381.024 195.995 389.32 190.878 394.437C185.762 399.553 177.466 399.553 172.35 394.437Z" fill="url(#paint11_linear)"/>
<path d="M200.636 225.238C213.671 225.238 224.237 214.672 224.237 201.637C224.237 188.603 213.671 178.037 200.636 178.037C187.602 178.037 177.036 188.603 177.036 201.637C177.036 214.672 187.602 225.238 200.636 225.238Z" fill="url(#paint12_linear)"/>
<path d="M200.636 216.43C208.806 216.43 215.429 209.807 215.429 201.638C215.429 193.468 208.806 186.845 200.636 186.845C192.466 186.845 185.843 193.468 185.843 201.638C185.843 209.807 192.466 216.43 200.636 216.43Z" fill="url(#paint13_linear)"/>
<path d="M268.096 192.444L241.389 201.076C238.239 202.095 235.051 199.958 234.574 196.682C234.571 196.66 234.568 196.639 234.564 196.617C233.538 189.58 230.305 182.81 224.885 177.389C219.464 171.969 212.694 168.736 205.657 167.709C205.635 167.706 205.613 167.703 205.591 167.7C202.315 167.222 200.179 164.034 201.198 160.883L209.83 134.176C210.661 131.606 213.305 130.068 215.947 130.635C229.142 133.468 241.712 140.015 251.986 150.288C262.26 160.562 268.806 173.132 271.639 186.327C272.205 188.969 270.667 191.614 268.096 192.444Z" fill="url(#paint14_linear)"/>
<path d="M251.985 252.986C231.876 273.095 202.916 278.941 177.637 270.537C175.058 269.679 173.538 267.006 174.137 264.356L180.322 236.996C181.053 233.762 184.521 232.092 187.587 233.354C187.607 233.362 187.627 233.37 187.647 233.378C200.047 238.437 214.824 235.946 224.885 225.886C225.721 225.049 226.52 224.175 227.262 223.242C227.276 223.225 227.29 223.208 227.304 223.191C229.402 220.63 233.229 220.432 235.419 222.914L253.962 243.941C255.765 245.984 255.703 249.057 253.849 251.053C253.241 251.706 252.621 252.351 251.985 252.986Z" fill="url(#paint15_linear)"/>
<path d="M165.277 221.952L137.918 228.137C135.267 228.736 132.595 227.216 131.737 224.637C123.333 199.358 129.179 170.398 149.288 150.289C149.923 149.654 150.567 149.033 151.221 148.426C153.217 146.571 156.29 146.51 158.333 148.312L179.359 166.856C181.842 169.046 181.644 172.873 179.083 174.97C179.066 174.985 179.049 174.999 179.032 175.012C178.099 175.754 177.225 176.553 176.388 177.389C166.327 187.45 163.837 202.227 168.895 214.627C168.903 214.646 168.911 214.667 168.92 214.686C170.181 217.753 168.511 221.221 165.277 221.952Z" fill="url(#paint16_linear)"/>
</g>
<defs>
<filter id="filter0_d" x="0" y="0" width="412.743" height="406.274" filterUnits="userSpaceOnUse" color-interpolation-filters="sRGB">
<feFlood flood-opacity="0" result="BackgroundImageFix"/>
<feColorMatrix in="SourceAlpha" type="matrix" values="0 0 0 0 0 0 0 0 0 0 0 0 0 0 0 0 0 0 127 0"/>
<feOffset dy="4"/>
<feGaussianBlur stdDeviation="2"/>
<feColorMatrix type="matrix" values="0 0 0 0 0 0 0 0 0 0 0 0 0 0 0 0 0 0 0.25 0"/>
<feBlend mode="normal" in2="BackgroundImageFix" result="effect1_dropShadow"/>
<feBlend mode="normal" in="SourceGraphic" in2="effect1_dropShadow" result="shape"/>
</filter>
<linearGradient id="paint0_linear" x1="115.253" y1="111.208" x2="291.018" y2="286.974" gradientUnits="userSpaceOnUse">
<stop stop-color="#FFD945"/>
<stop offset="0.3043" stop-color="#FFCD3E"/>
<stop offset="0.8558" stop-color="#FFAD2B"/>
<stop offset="1" stop-color="#FFA325"/>
</linearGradient>
<linearGradient id="paint1_linear" x1="215.963" y1="240.19" x2="-5.22491" y2="219.979" gradientUnits="userSpaceOnUse">
<stop stop-color="#E87264" stop-opacity="0"/>
<stop offset="0.6519" stop-color="#F67150" stop-opacity="0.652"/>
<stop offset="1" stop-color="#FF7044"/>
</linearGradient>
<linearGradient id="paint2_linear" x1="375.419" y1="113.328" x2="362.407" y2="142.091" gradientUnits="userSpaceOnUse">
<stop stop-color="#FF7044"/>
<stop offset="0.2346" stop-color="#FE653C"/>
<stop offset="0.6509" stop-color="#FB4628"/>
<stop offset="1" stop-color="#F82814"/>
</linearGradient>
<linearGradient id="paint3_linear" x1="380.885" y1="108.506" x2="351.724" y2="154.408" gradientUnits="userSpaceOnUse">
<stop stop-color="#F82814" stop-opacity="0"/>
<stop offset="0.1249" stop-color="#ED2819" stop-opacity="0.125"/>
<stop offset="0.4524" stop-color="#D42724" stop-opacity="0.452"/>
<stop offset="0.7531" stop-color="#C5272B" stop-opacity="0.753"/>
<stop offset="1" stop-color="#C0272D"/>
</linearGradient>
<linearGradient id="paint4_linear" x1="384.816" y1="117.005" x2="346.054" y2="141.63" gradientUnits="userSpaceOnUse">
<stop stop-color="#F82814" stop-opacity="0"/>
<stop offset="0.1249" stop-color="#ED2819" stop-opacity="0.125"/>
<stop offset="0.4524" stop-color="#D42724" stop-opacity="0.452"/>
<stop offset="0.7531" stop-color="#C5272B" stop-opacity="0.753"/>
<stop offset="1" stop-color="#C0272D"/>
</linearGradient>
<linearGradient id="paint5_linear" x1="274.058" y1="128.169" x2="327.887" y2="74.34" gradientUnits="userSpaceOnUse">
<stop stop-color="#E87264" stop-opacity="0"/>
<stop offset="0.6519" stop-color="#F67150" stop-opacity="0.652"/>
<stop offset="1" stop-color="#FF7044"/>
</linearGradient>
<linearGradient id="paint6_linear" x1="315.601" y1="86.6261" x2="299.792" y2="102.435" gradientUnits="userSpaceOnUse">
<stop stop-color="#8A7889"/>
<stop offset="1" stop-color="#6E566E"/>
</linearGradient>
<linearGradient id="paint7_linear" x1="265.076" y1="137.151" x2="280.493" y2="121.734" gradientUnits="userSpaceOnUse">
<stop stop-color="#E87264" stop-opacity="0"/>
<stop offset="0.6519" stop-color="#F67150" stop-opacity="0.652"/>
<stop offset="1" stop-color="#FF7044"/>
</linearGradient>
<linearGradient id="paint8_linear" x1="290.713" y1="111.514" x2="274.903" y2="127.324" gradientUnits="userSpaceOnUse">
<stop stop-color="#8A7889"/>
<stop offset="1" stop-color="#6E566E"/>
</linearGradient>
<linearGradient id="paint9_linear" x1="91.4193" y1="310.808" x2="145.248" y2="256.978" gradientUnits="userSpaceOnUse">
<stop stop-color="#E87264" stop-opacity="0"/>
<stop offset="0.6519" stop-color="#F67150" stop-opacity="0.652"/>
<stop offset="1" stop-color="#FF7044"/>
</linearGradient>
<linearGradient id="paint10_linear" x1="132.962" y1="269.265" x2="117.153" y2="285.074" gradientUnits="userSpaceOnUse">
<stop stop-color="#8A7889"/>
<stop offset="1" stop-color="#6E566E"/>
</linearGradient>
<linearGradient id="paint11_linear" x1="108.074" y1="294.153" x2="92.265" y2="309.962" gradientUnits="userSpaceOnUse">
<stop stop-color="#8A7889"/>
<stop offset="1" stop-color="#6E566E"/>
</linearGradient>
<linearGradient id="paint12_linear" x1="200.635" y1="176.491" x2="200.635" y2="223.254" gradientUnits="userSpaceOnUse">
<stop stop-color="#FFD945"/>
<stop offset="0.3043" stop-color="#FFCD3E"/>
<stop offset="0.8558" stop-color="#FFAD2B"/>
<stop offset="1" stop-color="#FFA325"/>
</linearGradient>
<linearGradient id="paint13_linear" x1="190.177" y1="191.133" x2="211.093" y2="212.049" gradientUnits="userSpaceOnUse">
<stop stop-color="#8A7889"/>
<stop offset="1" stop-color="#6E566E"/>
</linearGradient>
<linearGradient id="paint14_linear" x1="206.098" y1="137.05" x2="265.176" y2="196.128" gradientUnits="userSpaceOnUse">
<stop stop-color="#8A7889"/>
<stop offset="1" stop-color="#6E566E"/>
</linearGradient>
<linearGradient id="paint15_linear" x1="187.796" y1="228.333" x2="232.186" y2="272.723" gradientUnits="userSpaceOnUse">
<stop stop-color="#8A7889"/>
<stop offset="1" stop-color="#6E566E"/>
</linearGradient>
<linearGradient id="paint16_linear" x1="129.504" y1="170.041" x2="173.894" y2="214.431" gradientUnits="userSpaceOnUse">
<stop stop-color="#8A7889"/>
<stop offset="1" stop-color="#6E566E"/>
</linearGradient>
</defs>
</svg>
