<svg width="1922" height="72" viewBox="0 0 1922 72" fill="none" xmlns="http://www.w3.org/2000/svg">
<path d="M0 0H66L45.4528 72H0V0Z" fill="#FFE70B"/>
<path d="M343.075 0H400.358L379.811 72H323.151L343.075 0Z" fill="#FFE70B"/>
<path d="M455.151 0H512.434L491.887 72H435.226L455.151 0Z" fill="#FFE70B"/>
<path d="M679.302 0H736.585L716.038 72H659.377L679.302 0Z" fill="#FFE70B"/>
<path d="M1015.53 0H1072.81L1052.26 72H995.604L1015.53 0Z" fill="#FFE70B"/>
<path d="M903.453 0H960.736L940.189 72H883.528L903.453 0Z" fill="#FFE70B"/>
<path d="M791.377 0H848.66L828.113 72H771.453L791.377 0Z" fill="#FFE70B"/>
<path d="M567.226 0H624.509L603.962 72H547.302L567.226 0Z" fill="#FFE70B"/>
<path d="M232.245 0H289.528L268.981 72H212.321L232.245 0Z" fill="#FFE70B"/>
<path d="M120.17 0H177.453L156.906 72H100.245L120.17 0Z" fill="#FFE70B"/>
<path d="M1127.7 0H1184.98L1164.43 72H1107.77L1127.7 0Z" fill="#FFE70B"/>
<path d="M1016.92 0H1074.21L1053.66 72H997L1016.92 0Z" fill="#FFE70B"/>
<path d="M1353.7 0H1410.98L1390.43 72H1333.77L1353.7 0Z" fill="#FFE70B"/>
<path d="M1464.7 0H1521.98L1501.43 72H1444.77L1464.7 0Z" fill="#FFE70B"/>
<path d="M1575.7 0H1632.98L1612.43 72H1555.77L1575.7 0Z" fill="#FFE70B"/>
<path d="M1686.7 0H1743.98L1723.43 72H1666.77L1686.7 0Z" fill="#FFE70B"/>
<path d="M1797.7 0H1854.98L1834.43 72H1777.77L1797.7 0Z" fill="#FFE70B"/>
<path d="M1908.7 0H1921.27V72H1888.77L1908.7 0Z" fill="#FFE70B"/>
<path d="M1242.7 0H1299.98L1279.43 72H1222.77L1242.7 0Z" fill="#FFE70B"/>
</svg>
