<svg width="464" height="464" viewBox="0 0 464 464" fill="none" xmlns="http://www.w3.org/2000/svg">
<g clip-path="url(#clip0)">
<g filter="url(#filter0_d)">
<path d="M152.078 119.611C112.871 109.587 70.7031 125.345 54.4805 156.083C52.3359 155.819 50.168 155.689 48 155.692C21.4922 155.692 0 173.189 0 194.769C0 216.349 21.4922 233.846 48 233.846C50.168 233.846 52.3359 233.716 54.4805 233.455C67.1016 257.388 96.0078 272.907 128 272.923C134.586 272.952 141.152 272.271 147.52 270.904C164.215 296.236 196.688 312.032 232 312V58C189.504 58.0254 154.426 85.0657 152.078 119.611Z" fill="#75A834"/>
</g>
<g filter="url(#filter1_d)">
<path d="M416.3 149.179C412.881 149.192 409.473 149.478 406.124 150.025C387.593 123.055 348.315 110.354 312.052 119.611C309.701 85.0657 274.565 58.0254 232 58V312C268.188 311.987 301.312 295.483 317.741 269.276C338.259 275.108 360.812 273.915 380.226 265.968C399.64 258.024 414.254 244.01 420.706 227.139C446.13 225.069 465.122 207.203 463.948 186.463C462.775 165.719 441.846 149.345 416.3 149.179Z" fill="#61961D"/>
</g>
<g filter="url(#filter2_d)">
<path d="M64 432C64 414.328 32 368 32 368C32 368 0 414.328 0 432C0 449.672 14.3281 464 32 464C49.6719 464 64 449.672 64 432Z" fill="#46950D"/>
</g>
<g filter="url(#filter3_d)">
<path d="M96 368C96 385.672 110.328 400 128 400C145.672 400 160 385.672 160 368C160 350.328 128 304 128 304C128 304 96 350.328 96 368Z" fill="#46950D"/>
</g>
<g filter="url(#filter4_d)">
<path d="M400 432C400 449.672 414.328 464 432 464C449.672 464 464 449.672 464 432C464 414.328 432 368 432 368C432 368 400 414.328 400 432Z" fill="#46950D"/>
</g>
<g filter="url(#filter5_d)">
<path d="M368 368C368 350.328 336 304 336 304C336 304 304 350.328 304 368C304 385.672 318.328 400 336 400C353.672 400 368 385.672 368 368Z" fill="#46950D"/>
</g>
<g filter="url(#filter6_d)">
<path d="M232 464C249.672 464 264 449.672 264 432C264 414.328 232 368 232 368C232 368 200 414.328 200 432C200 449.672 214.328 464 232 464Z" fill="#46950D"/>
</g>
<path d="M136.8 211.8C133.92 211.8 131.28 211.08 128.88 209.64C126.533 208.147 124.64 206.2 123.2 203.8C121.813 201.347 121.12 198.653 121.12 195.72V192.04C121.12 191.773 121.253 191.64 121.52 191.64H130.48C130.693 191.64 130.8 191.773 130.8 192.04V195.72C130.8 197.48 131.387 199 132.56 200.28C133.733 201.507 135.147 202.12 136.8 202.12C138.453 202.12 139.867 201.48 141.04 200.2C142.213 198.92 142.8 197.427 142.8 195.72C142.8 193.747 141.52 192.04 138.96 190.6C138.107 190.12 136.773 189.373 134.96 188.36C133.147 187.347 131.44 186.387 129.84 185.48C126.907 183.773 124.72 181.64 123.28 179.08C121.893 176.467 121.2 173.533 121.2 170.28C121.2 167.293 121.92 164.627 123.36 162.28C124.8 159.88 126.693 157.987 129.04 156.6C131.44 155.213 134.027 154.52 136.8 154.52C139.627 154.52 142.213 155.24 144.56 156.68C146.96 158.067 148.853 159.96 150.24 162.36C151.68 164.707 152.4 167.347 152.4 170.28V176.84C152.4 177.053 152.293 177.16 152.08 177.16H143.12C142.907 177.16 142.8 177.053 142.8 176.84L142.72 170.28C142.72 168.413 142.133 166.893 140.96 165.72C139.787 164.547 138.4 163.96 136.8 163.96C135.147 163.96 133.733 164.6 132.56 165.88C131.387 167.107 130.8 168.573 130.8 170.28C130.8 172.04 131.173 173.507 131.92 174.68C132.667 175.853 134.027 176.973 136 178.04C136.267 178.2 136.773 178.493 137.52 178.92C138.32 179.293 139.173 179.747 140.08 180.28C140.987 180.76 141.787 181.187 142.48 181.56C143.227 181.933 143.68 182.173 143.84 182.28C146.507 183.773 148.613 185.613 150.16 187.8C151.707 189.933 152.48 192.573 152.48 195.72C152.48 198.76 151.76 201.507 150.32 203.96C148.933 206.36 147.04 208.28 144.64 209.72C142.293 211.107 139.68 211.8 136.8 211.8ZM172.844 211.8C169.964 211.8 167.324 211.08 164.924 209.64C162.577 208.147 160.684 206.2 159.244 203.8C157.804 201.347 157.084 198.653 157.084 195.72L157.164 170.36C157.164 167.427 157.857 164.76 159.244 162.36C160.684 159.96 162.604 158.04 165.004 156.6C167.404 155.16 170.017 154.44 172.844 154.44C175.724 154.44 178.337 155.16 180.684 156.6C183.03 158.04 184.897 159.96 186.284 162.36C187.724 164.76 188.444 167.427 188.444 170.36L188.524 195.72C188.524 198.653 187.804 201.347 186.364 203.8C184.977 206.2 183.084 208.147 180.684 209.64C178.337 211.08 175.724 211.8 172.844 211.8ZM172.844 202.12C174.444 202.12 175.83 201.48 177.004 200.2C178.23 198.867 178.844 197.373 178.844 195.72L178.764 170.36C178.764 168.6 178.204 167.107 177.084 165.88C175.964 164.653 174.55 164.04 172.844 164.04C171.19 164.04 169.777 164.653 168.604 165.88C167.43 167.053 166.844 168.547 166.844 170.36V195.72C166.844 197.48 167.43 199 168.604 200.28C169.777 201.507 171.19 202.12 172.844 202.12ZM209.326 211.8C206.393 211.8 203.726 211.08 201.326 209.64C198.98 208.147 197.113 206.173 195.726 203.72C194.34 201.267 193.646 198.52 193.646 195.48L193.726 170.52C193.726 167.587 194.393 164.92 195.726 162.52C197.113 160.067 198.98 158.12 201.326 156.68C203.726 155.187 206.393 154.44 209.326 154.44C212.26 154.44 214.9 155.16 217.246 156.6C219.593 158.04 221.46 159.987 222.846 162.44C224.233 164.84 224.926 167.533 224.926 170.52V174.2C224.926 174.413 224.82 174.52 224.606 174.52H215.646C215.433 174.52 215.326 174.413 215.326 174.2V170.52C215.326 168.76 214.74 167.24 213.566 165.96C212.446 164.68 211.033 164.04 209.326 164.04C207.406 164.04 205.94 164.707 204.926 166.04C203.913 167.32 203.406 168.813 203.406 170.52V195.48C203.406 197.453 203.966 199.053 205.086 200.28C206.26 201.507 207.673 202.12 209.326 202.12C211.033 202.12 212.446 201.453 213.566 200.12C214.74 198.733 215.326 197.187 215.326 195.48V191.8C215.326 191.587 215.433 191.48 215.646 191.48H224.686C224.9 191.48 225.006 191.587 225.006 191.8V195.48C225.006 198.52 224.286 201.267 222.846 203.72C221.46 206.173 219.593 208.147 217.246 209.64C214.9 211.08 212.26 211.8 209.326 211.8ZM231.256 211C230.99 211 230.856 210.867 230.856 210.6L230.936 155.64C230.936 155.427 231.043 155.32 231.256 155.32H240.216C240.43 155.32 240.536 155.427 240.536 155.64L240.616 210.6C240.616 210.867 240.51 211 240.296 211H231.256ZM244.933 210.6L254.853 155.64C254.906 155.427 255.04 155.32 255.253 155.32H266.853C267.066 155.32 267.2 155.427 267.253 155.64L276.773 210.6C276.826 210.867 276.72 211 276.453 211H267.573C267.36 211 267.226 210.867 267.173 210.6L266.293 204.76H255.413L254.533 210.6C254.48 210.867 254.346 211 254.133 211H245.253C245.04 211 244.933 210.867 244.933 210.6ZM257.013 196.2H264.693L261.413 173.72L260.933 170.76L260.613 173.72L257.013 196.2ZM282.114 211C281.9 211 281.794 210.867 281.794 210.6L281.874 155.72C281.874 155.453 282.007 155.32 282.274 155.32H291.154C291.42 155.32 291.554 155.453 291.554 155.72L291.474 201.16H307.954C308.22 201.16 308.354 201.293 308.354 201.56V210.6C308.354 210.867 308.22 211 307.954 211H282.114ZM325.159 211.8C322.279 211.8 319.639 211.08 317.239 209.64C314.893 208.147 312.999 206.2 311.559 203.8C310.173 201.347 309.479 198.653 309.479 195.72V192.04C309.479 191.773 309.613 191.64 309.879 191.64H318.839C319.053 191.64 319.159 191.773 319.159 192.04V195.72C319.159 197.48 319.746 199 320.919 200.28C322.093 201.507 323.506 202.12 325.159 202.12C326.813 202.12 328.226 201.48 329.399 200.2C330.573 198.92 331.159 197.427 331.159 195.72C331.159 193.747 329.879 192.04 327.319 190.6C326.466 190.12 325.133 189.373 323.319 188.36C321.506 187.347 319.799 186.387 318.199 185.48C315.266 183.773 313.079 181.64 311.639 179.08C310.253 176.467 309.559 173.533 309.559 170.28C309.559 167.293 310.279 164.627 311.719 162.28C313.159 159.88 315.053 157.987 317.399 156.6C319.799 155.213 322.386 154.52 325.159 154.52C327.986 154.52 330.573 155.24 332.919 156.68C335.319 158.067 337.213 159.96 338.599 162.36C340.039 164.707 340.759 167.347 340.759 170.28V176.84C340.759 177.053 340.653 177.16 340.439 177.16H331.479C331.266 177.16 331.159 177.053 331.159 176.84L331.079 170.28C331.079 168.413 330.493 166.893 329.319 165.72C328.146 164.547 326.759 163.96 325.159 163.96C323.506 163.96 322.093 164.6 320.919 165.88C319.746 167.107 319.159 168.573 319.159 170.28C319.159 172.04 319.533 173.507 320.279 174.68C321.026 175.853 322.386 176.973 324.359 178.04C324.626 178.2 325.133 178.493 325.879 178.92C326.679 179.293 327.533 179.747 328.439 180.28C329.346 180.76 330.146 181.187 330.839 181.56C331.586 181.933 332.039 182.173 332.199 182.28C334.866 183.773 336.973 185.613 338.519 187.8C340.066 189.933 340.839 192.573 340.839 195.72C340.839 198.76 340.119 201.507 338.679 203.96C337.293 206.36 335.399 208.28 332.999 209.72C330.653 211.107 328.039 211.8 325.159 211.8Z" fill="white"/>
</g>
<defs>
<filter id="filter0_d" x="0" y="58" width="240" height="267" filterUnits="userSpaceOnUse" color-interpolation-filters="sRGB">
<feFlood flood-opacity="0" result="BackgroundImageFix"/>
<feColorMatrix in="SourceAlpha" type="matrix" values="0 0 0 0 0 0 0 0 0 0 0 0 0 0 0 0 0 0 127 0"/>
<feOffset dx="4" dy="9"/>
<feGaussianBlur stdDeviation="2"/>
<feColorMatrix type="matrix" values="0 0 0 0 0 0 0 0 0 0 0 0 0 0 0 0 0 0 0.25 0"/>
<feBlend mode="normal" in2="BackgroundImageFix" result="effect1_dropShadow"/>
<feBlend mode="normal" in="SourceGraphic" in2="effect1_dropShadow" result="shape"/>
</filter>
<filter id="filter1_d" x="232" y="58" width="240" height="267" filterUnits="userSpaceOnUse" color-interpolation-filters="sRGB">
<feFlood flood-opacity="0" result="BackgroundImageFix"/>
<feColorMatrix in="SourceAlpha" type="matrix" values="0 0 0 0 0 0 0 0 0 0 0 0 0 0 0 0 0 0 127 0"/>
<feOffset dx="4" dy="9"/>
<feGaussianBlur stdDeviation="2"/>
<feColorMatrix type="matrix" values="0 0 0 0 0 0 0 0 0 0 0 0 0 0 0 0 0 0 0.25 0"/>
<feBlend mode="normal" in2="BackgroundImageFix" result="effect1_dropShadow"/>
<feBlend mode="normal" in="SourceGraphic" in2="effect1_dropShadow" result="shape"/>
</filter>
<filter id="filter2_d" x="0" y="368" width="72" height="109" filterUnits="userSpaceOnUse" color-interpolation-filters="sRGB">
<feFlood flood-opacity="0" result="BackgroundImageFix"/>
<feColorMatrix in="SourceAlpha" type="matrix" values="0 0 0 0 0 0 0 0 0 0 0 0 0 0 0 0 0 0 127 0"/>
<feOffset dx="4" dy="9"/>
<feGaussianBlur stdDeviation="2"/>
<feColorMatrix type="matrix" values="0 0 0 0 0 0 0 0 0 0 0 0 0 0 0 0 0 0 0.25 0"/>
<feBlend mode="normal" in2="BackgroundImageFix" result="effect1_dropShadow"/>
<feBlend mode="normal" in="SourceGraphic" in2="effect1_dropShadow" result="shape"/>
</filter>
<filter id="filter3_d" x="96" y="304" width="72" height="109" filterUnits="userSpaceOnUse" color-interpolation-filters="sRGB">
<feFlood flood-opacity="0" result="BackgroundImageFix"/>
<feColorMatrix in="SourceAlpha" type="matrix" values="0 0 0 0 0 0 0 0 0 0 0 0 0 0 0 0 0 0 127 0"/>
<feOffset dx="4" dy="9"/>
<feGaussianBlur stdDeviation="2"/>
<feColorMatrix type="matrix" values="0 0 0 0 0 0 0 0 0 0 0 0 0 0 0 0 0 0 0.25 0"/>
<feBlend mode="normal" in2="BackgroundImageFix" result="effect1_dropShadow"/>
<feBlend mode="normal" in="SourceGraphic" in2="effect1_dropShadow" result="shape"/>
</filter>
<filter id="filter4_d" x="400" y="368" width="72" height="109" filterUnits="userSpaceOnUse" color-interpolation-filters="sRGB">
<feFlood flood-opacity="0" result="BackgroundImageFix"/>
<feColorMatrix in="SourceAlpha" type="matrix" values="0 0 0 0 0 0 0 0 0 0 0 0 0 0 0 0 0 0 127 0"/>
<feOffset dx="4" dy="9"/>
<feGaussianBlur stdDeviation="2"/>
<feColorMatrix type="matrix" values="0 0 0 0 0 0 0 0 0 0 0 0 0 0 0 0 0 0 0.25 0"/>
<feBlend mode="normal" in2="BackgroundImageFix" result="effect1_dropShadow"/>
<feBlend mode="normal" in="SourceGraphic" in2="effect1_dropShadow" result="shape"/>
</filter>
<filter id="filter5_d" x="304" y="304" width="72" height="109" filterUnits="userSpaceOnUse" color-interpolation-filters="sRGB">
<feFlood flood-opacity="0" result="BackgroundImageFix"/>
<feColorMatrix in="SourceAlpha" type="matrix" values="0 0 0 0 0 0 0 0 0 0 0 0 0 0 0 0 0 0 127 0"/>
<feOffset dx="4" dy="9"/>
<feGaussianBlur stdDeviation="2"/>
<feColorMatrix type="matrix" values="0 0 0 0 0 0 0 0 0 0 0 0 0 0 0 0 0 0 0.25 0"/>
<feBlend mode="normal" in2="BackgroundImageFix" result="effect1_dropShadow"/>
<feBlend mode="normal" in="SourceGraphic" in2="effect1_dropShadow" result="shape"/>
</filter>
<filter id="filter6_d" x="200" y="368" width="72" height="109" filterUnits="userSpaceOnUse" color-interpolation-filters="sRGB">
<feFlood flood-opacity="0" result="BackgroundImageFix"/>
<feColorMatrix in="SourceAlpha" type="matrix" values="0 0 0 0 0 0 0 0 0 0 0 0 0 0 0 0 0 0 127 0"/>
<feOffset dx="4" dy="9"/>
<feGaussianBlur stdDeviation="2"/>
<feColorMatrix type="matrix" values="0 0 0 0 0 0 0 0 0 0 0 0 0 0 0 0 0 0 0.25 0"/>
<feBlend mode="normal" in2="BackgroundImageFix" result="effect1_dropShadow"/>
<feBlend mode="normal" in="SourceGraphic" in2="effect1_dropShadow" result="shape"/>
</filter>
<clipPath id="clip0">
<rect width="464" height="464" fill="white"/>
</clipPath>
</defs>
</svg>
