<svg width="1922" height="805" viewBox="0 0 1922 805" fill="none" xmlns="http://www.w3.org/2000/svg">
<path d="M0.622131 0H66.6221L46.075 72H0.622131V0Z" fill="#FFE70B"/>
<path d="M343.698 0H400.981L380.434 72H323.774L343.698 0Z" fill="#FFE70B"/>
<path d="M455.774 0H513.057L492.509 72H435.849L455.774 0Z" fill="#FFE70B"/>
<path d="M679.925 0H737.208L716.66 72H660L679.925 0Z" fill="#FFE70B"/>
<path d="M1126.92 0H1184.21L1163.66 72H1107L1126.92 0Z" fill="#FFE70B"/>
<path d="M1016.15 0H1073.43L1052.89 72H996.226L1016.15 0Z" fill="#FFE70B"/>
<path d="M904.075 0H961.358L940.811 72H884.151L904.075 0Z" fill="#FFE70B"/>
<path d="M792 0H849.283L828.736 72H772.076L792 0Z" fill="#FFE70B"/>
<path d="M567.849 0H625.132L604.585 72H547.924L567.849 0Z" fill="#FFE70B"/>
<path d="M232.868 0H290.151L269.604 72H212.943L232.868 0Z" fill="#FFE70B"/>
<path d="M120.792 0H178.075L157.528 72H100.868L120.792 0Z" fill="#FFE70B"/>
<path d="M0 733H66L45.4528 805H0V733Z" fill="#FFE70B"/>
<path d="M343.075 733H400.358L379.811 805H323.151L343.075 733Z" fill="#FFE70B"/>
<path d="M455.151 733H512.434L491.887 805H435.226L455.151 733Z" fill="#FFE70B"/>
<path d="M679.302 733H736.585L716.038 805H659.377L679.302 733Z" fill="#FFE70B"/>
<path d="M1015.53 733H1072.81L1052.26 805H995.604L1015.53 733Z" fill="#FFE70B"/>
<path d="M903.453 733H960.736L940.189 805H883.528L903.453 733Z" fill="#FFE70B"/>
<path d="M791.377 733H848.66L828.113 805H771.453L791.377 733Z" fill="#FFE70B"/>
<path d="M567.226 733H624.509L603.962 805H547.302L567.226 733Z" fill="#FFE70B"/>
<path d="M232.245 733H289.528L268.981 805H212.321L232.245 733Z" fill="#FFE70B"/>
<path d="M120.17 733H177.453L156.906 805H100.245L120.17 733Z" fill="#FFE70B"/>
<path d="M1352.92 0H1410.21L1389.66 72H1333L1352.92 0Z" fill="#FFE70B"/>
<path d="M1463.92 0H1521.21L1500.66 72H1444L1463.92 0Z" fill="#FFE70B"/>
<path d="M1574.92 0H1632.21L1611.66 72H1555L1574.92 0Z" fill="#FFE70B"/>
<path d="M1685.92 0H1743.21L1722.66 72H1666L1685.92 0Z" fill="#FFE70B"/>
<path d="M1796.92 0H1854.21L1833.66 72H1777L1796.92 0Z" fill="#FFE70B"/>
<path d="M1907.92 0H1920.5V72H1888L1907.92 0Z" fill="#FFE70B"/>
<path d="M1241.92 0H1299.21L1278.66 72H1222L1241.92 0Z" fill="#FFE70B"/>
<path d="M1127.7 733H1184.98L1164.43 805H1107.77L1127.7 733Z" fill="#FFE70B"/>
<path d="M1016.92 733H1074.21L1053.66 805H997L1016.92 733Z" fill="#FFE70B"/>
<path d="M1353.7 733H1410.98L1390.43 805H1333.77L1353.7 733Z" fill="#FFE70B"/>
<path d="M1464.7 733H1521.98L1501.43 805H1444.77L1464.7 733Z" fill="#FFE70B"/>
<path d="M1575.7 733H1632.98L1612.43 805H1555.77L1575.7 733Z" fill="#FFE70B"/>
<path d="M1686.7 733H1743.98L1723.43 805H1666.77L1686.7 733Z" fill="#FFE70B"/>
<path d="M1797.7 733H1854.98L1834.43 805H1777.77L1797.7 733Z" fill="#FFE70B"/>
<path d="M1908.7 733H1921.27V805H1888.77L1908.7 733Z" fill="#FFE70B"/>
<path d="M1242.7 733H1299.98L1279.43 805H1222.77L1242.7 733Z" fill="#FFE70B"/>
</svg>
