<svg width="372" height="372" viewBox="0 0 372 372" fill="none" xmlns="http://www.w3.org/2000/svg">
<g clip-path="url(#clip0)">
<path d="M213.985 71.1165L19.4513 237.516C11.7981 244.062 14.1048 256.439 23.6025 259.789L265.238 345.011C274.735 348.361 284.296 340.17 282.443 330.271L235.342 78.6486C233.49 68.7591 221.632 64.5767 213.985 71.1165Z" fill="#736E6E"/>
<path d="M280.357 340.097C277.192 344.663 271.205 347.113 265.24 345.01L23.6031 259.786C14.1065 256.437 11.7992 244.065 19.4542 237.515L213.989 71.1165C218.426 67.3183 224.287 67.1376 228.781 69.5844L37.1375 233.508C29.4824 240.058 31.7898 252.43 41.2864 255.779L280.357 340.097Z" fill="#5A5555"/>
<path d="M43.0545 239.818L212.458 94.6902C215.781 91.8435 220.94 93.663 221.742 97.9646L262.618 317.256C263.42 321.556 259.266 325.112 255.142 323.657L44.8613 249.493C40.7362 248.038 39.7326 242.664 43.0545 239.818Z" fill="#F8C511"/>
<path d="M255.138 323.658L44.8632 249.496C40.7366 248.041 39.7333 242.667 43.052 239.818L212.459 94.6923C215.783 91.8454 220.938 93.6637 221.741 97.966L221.859 98.6043L62.91 234.77C59.5913 237.619 60.5946 242.993 64.7213 244.448L262.017 314.032L262.62 317.258C263.417 321.559 259.265 325.114 255.138 323.658Z" fill="#F3D332"/>
<path d="M213.406 204.579L212.348 204.09L178.346 188.354C176.619 187.555 176.15 185.317 177.411 183.892L202.682 155.352C205.464 152.214 205.614 147.382 202.732 144.059C199.723 140.59 194.444 140.242 190.826 143.07L141.91 181.304C134.116 187.118 135.523 200.123 144.534 204.017L145.677 204.546L180.351 220.592C182.044 221.375 182.535 223.55 181.344 224.985L153.216 258.875C150.597 262.025 150.55 266.697 153.307 269.91C156.383 273.495 161.784 273.908 165.37 270.831L216.51 226.947C223.846 220.906 222.193 208.398 213.406 204.579Z" fill="#736E6E"/>
<path d="M189.539 229.079L161.411 262.973C159.095 265.765 158.794 269.745 160.671 272.847C157.982 273.122 155.203 272.118 153.306 269.912C150.552 266.699 150.597 262.027 153.215 258.877L181.342 224.983C182.253 223.888 182.182 222.362 181.344 221.356L188.546 224.685C190.239 225.469 190.732 227.644 189.539 229.079Z" fill="#5A5555"/>
<path d="M153.478 208.153L145.676 204.546L144.536 204.017C135.522 200.121 134.119 187.116 141.912 181.302L190.829 143.068C194.448 140.241 199.724 140.589 202.73 144.06C203.352 144.773 203.829 145.556 204.171 146.382C203.109 146.694 202.084 147.207 201.17 147.92L152.253 186.154C144.884 191.654 145.739 203.58 153.478 208.153Z" fill="#5A5555"/>
<path d="M286.632 329.487L239.531 77.8641C237.583 65.0673 220.76 59.135 211.215 67.8778L164.292 108.015C162.503 109.545 162.293 112.235 163.824 114.024C165.354 115.813 168.045 116.023 169.833 114.492L216.756 74.3555C221.609 69.91 230.161 72.9275 231.153 79.4325L278.254 331.055C279.686 337.485 272.789 343.392 266.656 340.991L25.0204 255.768C18.737 253.79 17.0733 244.863 22.2217 240.754L154.637 127.489C156.426 125.959 156.636 123.269 155.106 121.48C153.578 119.692 150.886 119.481 149.097 121.012L16.6812 234.277C6.55321 242.359 9.82773 259.917 22.1851 263.807L263.82 349.03C275.885 353.754 289.449 342.132 286.632 329.487Z" fill="black"/>
<path d="M208.15 307.083C207.367 309.304 208.531 311.737 210.751 312.52L263.004 330.949C265.97 332.1 269.292 329.256 268.612 326.149L224.128 87.502C223.641 84.3567 219.516 82.9023 217.165 85.0463L32.8088 242.984C30.3299 244.977 31.1332 249.275 34.1641 250.24L191.994 305.905C194.214 306.688 196.648 305.523 197.431 303.303C198.214 301.083 197.05 298.649 194.829 297.866L43.9588 244.655L217.101 96.3249L258.88 320.456L213.587 304.482C211.366 303.698 208.933 304.863 208.15 307.083Z" fill="black"/>
<path d="M150.073 272.685C154.47 278.016 163.005 278.655 168.146 274.065L219.255 230.207C228.974 222.724 226.579 205.227 215.154 200.692L181.869 185.288L205.871 158.18C210.123 153.386 210.158 146.115 205.952 141.266C201.478 136.109 193.682 135.429 188.202 139.713L174.614 150.333C172.76 151.783 172.431 154.461 173.881 156.316C175.329 158.17 178.009 158.5 179.863 157.049L193.451 146.428C195.322 144.966 198.041 145.157 199.513 146.851C200.925 148.48 200.917 150.919 199.491 152.526L174.221 181.067C171.061 184.436 172.311 190.405 176.556 192.223L211.616 208.448C217.458 210.649 218.718 219.999 213.735 223.712L162.595 267.596C160.875 269.135 158.009 268.916 156.542 267.134C155.174 265.539 155.153 263.213 156.497 261.597L184.623 227.708C187.611 224.305 186.301 218.512 182.142 216.724L171.29 211.702C169.144 210.706 166.62 211.644 165.631 213.78C164.643 215.916 165.574 218.449 167.709 219.438L176.885 223.684L149.94 256.151C145.931 260.971 145.987 267.924 150.073 272.685Z" fill="black"/>
<path d="M144.536 184.662L164.177 169.309C166.031 167.86 166.36 165.181 164.91 163.327C163.462 161.473 160.782 161.143 158.928 162.594L139.321 177.919C134.427 181.592 131.951 187.575 132.694 193.934C133.434 200.251 137.206 205.469 142.791 207.905L149.653 211.081C151.751 212.067 154.329 211.149 155.311 209.004C156.3 206.867 155.37 204.334 153.233 203.345C153.11 203.29 146.336 200.174 146.226 200.104C143.707 198.494 141.545 196.222 141.161 192.943C140.768 189.587 142.032 186.491 144.536 184.662Z" fill="black"/>
</g>
<defs>
<clipPath id="clip0">
<rect width="291" height="291" fill="white" transform="translate(96.7897) rotate(19.4273)"/>
</clipPath>
</defs>
</svg>
