<svg width="340" height="354" viewBox="0 0 340 354" fill="none" xmlns="http://www.w3.org/2000/svg">
<circle cx="170" cy="184" r="170" fill="#777777"/>
<path d="M170.5 0H125.822V36.3379C125.822 56.0503 141.852 72.0801 161.564 72.0801H170.5H179.436C199.148 72.0801 215.178 56.0503 215.178 36.3379V0H170.5Z" fill="#384949"/>
<path d="M215.178 36.3379V0H170.5V72.0801H179.436C199.148 72.0801 215.178 56.0503 215.178 36.3379Z" fill="#293939"/>
<path d="M224.113 89.9512H215.178V63.1445H170.5H125.822V89.9512H116.887C92.2526 89.9512 72.209 109.995 72.209 134.629V259.727C72.209 284.361 92.2526 305 116.887 305H170.5H224.113C248.747 305 268.791 284.361 268.791 259.727V134.629C268.791 109.995 248.747 89.9512 224.113 89.9512Z" fill="#B6DE3D"/>
<path d="M268.791 259.727V134.629C268.791 109.995 248.747 89.9512 224.113 89.9512H215.178V63.1445H170.5V305H224.113C248.747 305 268.791 284.361 268.791 259.727Z" fill="#75C34E"/>
<path d="M170.5 143.564C145.866 143.564 125.822 163.608 125.822 188.242V206.113C125.822 217.763 133.292 227.702 143.693 231.393V250.791H170.5H197.307V231.393C207.708 227.702 215.178 217.763 215.178 206.113V188.242C215.178 163.608 195.134 143.564 170.5 143.564Z" fill="#EDF5FF"/>
<path d="M197.307 231.393C207.708 227.702 215.178 217.763 215.178 206.113V188.242C215.178 163.608 195.134 143.564 170.5 143.564V250.791H197.307V231.393Z" fill="#D5E8FE"/>
<path d="M143.693 179.307H161.564V197.178H143.693V179.307Z" fill="#384949"/>
<path d="M179.436 179.307H197.307V197.178H179.436V179.307Z" fill="#293939"/>
<path d="M170.5 54.209H107.951V72.0801H170.5H233.049V54.209H170.5Z" fill="#EDF5FF"/>
<path d="M170.5 54.209H233.049V72.0801H170.5V54.209Z" fill="#D5E8FE"/>
</svg>
