<svg width="97" height="97" viewBox="0 0 97 97" fill="none" xmlns="http://www.w3.org/2000/svg">
<path d="M48.5 95.3834C74.3929 95.3834 95.3833 74.393 95.3833 48.5C95.3833 22.6071 74.3929 1.6167 48.5 1.6167C22.607 1.6167 1.61664 22.6071 1.61664 48.5C1.61664 74.393 22.607 95.3834 48.5 95.3834Z" fill="#FFDC00"/>
<path d="M48.5 1.6167C47.6863 1.6167 46.878 1.63718 46.075 1.67813C71.0028 2.95551 90.5591 23.5396 90.5591 48.5C90.5591 73.4605 71.0028 94.0446 46.075 95.3219C46.879 95.3629 47.6874 95.3834 48.5 95.3834C74.393 95.3834 95.3834 74.393 95.3834 48.5C95.3834 22.6071 74.393 1.6167 48.5 1.6167Z" fill="#FEC108"/>
<path d="M48.5 53.3499V66.7198C46.3754 72.0544 42.0438 76.2068 36.6242 78.1043C31.2047 80.0018 25.2288 79.4581 20.2407 76.6137C25.7846 78.0954 31.6752 76.0928 35.1673 71.5392C38.6594 66.9856 39.0658 60.7772 36.1972 55.8073L36.1002 55.6618L44.2967 50.9249C45.1636 52.4265 46.7661 53.351 48.5 53.3499Z" fill="#37474F"/>
<path d="M76.7593 76.6139C71.7712 79.4583 65.7954 80.0019 60.3758 78.1045C54.9562 76.207 50.6246 72.0545 48.5 66.7199V53.3501C50.1599 53.3573 51.7061 52.5078 52.5902 51.1029L60.7867 55.8397C57.9334 60.8108 58.3506 67.0102 61.8443 71.5541C65.3379 76.098 71.222 78.0942 76.7593 76.6139Z" fill="#607D8B"/>
<path d="M86.7988 59.2346C85.3127 53.6917 80.6348 49.5893 74.9454 48.8392C69.256 48.0891 63.6748 50.839 60.8028 55.8073C60.8028 55.8234 60.7866 55.8234 60.7866 55.8396L52.5901 51.1028C53.0899 50.3269 53.3539 49.4228 53.35 48.4999C53.349 47.6491 53.1261 46.8133 52.7033 46.0749L63.5188 39.8023C69.2746 38.7928 75.1828 40.3706 79.669 44.1153C84.1551 47.86 86.7634 53.3911 86.7988 59.2346Z" fill="#37474F"/>
<path d="M68.3688 26.8206C68.3687 31.5908 66.6464 36.2006 63.5188 39.8024L52.7033 46.0751C51.8364 44.5735 50.2338 43.649 48.5 43.6501V33.9177C54.2419 33.9257 59.4214 30.4691 61.6172 25.1637C63.813 19.8583 62.5914 13.7522 58.5233 9.70007C64.621 13.2452 68.3717 19.7672 68.3688 26.8206Z" fill="#607D8B"/>
<path d="M48.5 33.9177V43.6501C46.7661 43.649 45.1636 44.5735 44.2967 46.0751L33.4812 39.8024C29.6123 35.3466 27.932 29.3976 28.8981 23.5762C29.8642 17.7547 33.3759 12.6674 38.4767 9.70007C34.4086 13.7522 33.187 19.8583 35.3828 25.1637C37.5786 30.4691 42.7581 33.9257 48.5 33.9177Z" fill="#37474F"/>
<path d="M43.65 48.4999C43.651 49.3507 43.8739 50.1866 44.2967 50.9249L36.1002 55.6618C33.1871 50.7551 27.6174 48.0718 21.9648 48.8516C16.3121 49.6314 11.677 53.7225 10.2012 59.2346C10.2366 53.3911 12.8449 47.86 17.331 44.1153C21.8172 40.3706 27.7254 38.7928 33.4812 39.8023L44.2967 46.0749C43.8739 46.8133 43.651 47.6491 43.65 48.4999Z" fill="#607D8B"/>
<path d="M9.19555 40.6835C8.7 40.6838 8.23165 40.4569 7.92482 40.0678C7.61799 39.6786 7.50658 39.1703 7.62254 38.6885C9.74633 29.9719 14.583 22.1548 21.4353 16.3639C22.12 15.8211 23.112 15.9205 23.6754 16.5883C24.2388 17.2562 24.1696 18.2508 23.5192 18.8342C17.1936 24.1818 12.7285 31.3992 10.767 39.4467C10.5915 40.1723 9.94207 40.6835 9.19555 40.6835Z" fill="#F5F5F5"/>
<path d="M48.5 0C21.7142 0 0 21.7142 0 48.5C0 75.2858 21.7142 97 48.5 97C75.2858 97 97 75.2858 97 48.5C96.9697 21.7267 75.2733 0.0302915 48.5 0ZM48.5 93.7667C23.4999 93.7667 3.23333 73.5001 3.23333 48.5C3.23333 23.4999 23.4999 3.23333 48.5 3.23333C73.5001 3.23333 93.7667 23.4999 93.7667 48.5C93.7382 73.4883 73.4883 93.7382 48.5 93.7667Z" fill="black"/>
<path d="M66.909 37.8833C69.8691 32.9669 70.7353 27.0693 69.3141 21.5094C67.8928 15.9495 64.3025 11.1911 59.3462 8.29833C58.643 7.88499 57.7419 8.06036 57.245 8.70731C56.7481 9.35425 56.811 10.27 57.3917 10.843C62.299 15.753 62.2976 23.7114 57.3884 28.6197C52.4792 33.5279 44.5208 33.5279 39.6117 28.6197C34.7025 23.7114 34.701 15.753 39.6084 10.843C40.1802 10.2678 40.2373 9.35796 39.742 8.71577C39.2466 8.07358 38.3521 7.8978 37.6506 8.30479C32.6943 11.1975 29.104 15.9559 27.6828 21.5159C26.2615 27.0758 27.1277 32.9734 30.0878 37.8898H30.0264C18.2353 37.9038 8.66382 47.4276 8.59099 59.2185C8.58145 60.0335 9.1801 60.7282 9.98759 60.8391C10.7951 60.95 11.5588 60.4424 11.7694 59.655C13.5677 52.9499 20.4606 48.9718 27.166 50.769C33.8713 52.5662 37.8507 59.4584 36.0546 66.1641C34.2585 72.8698 27.367 76.8503 20.661 75.0553C19.8743 74.8425 19.0522 75.2484 18.743 76.0024C18.4337 76.7564 18.7341 77.6228 19.4437 78.0236C29.5981 83.8212 42.5254 80.4119 48.5 70.3605C54.4999 80.3821 67.403 83.7808 77.5612 78.0155C78.2696 77.6144 78.5693 76.7492 78.2608 75.9959C77.9522 75.2426 77.1317 74.8362 76.3455 75.0473C69.6406 76.841 62.7508 72.8607 60.9554 66.1562C59.1599 59.4517 63.1384 52.5609 69.8424 50.7638C76.5465 48.9666 83.4383 52.9433 85.2372 59.6469C85.4474 60.4327 86.2087 60.9399 87.0149 60.8312C87.821 60.7226 88.4209 60.0319 88.4155 59.2185C88.3569 51.6017 84.2779 44.5827 77.6889 40.761C74.4155 38.8602 70.6943 37.8669 66.909 37.8833ZM64.3046 19.7314C64.3045 18.9741 64.2505 18.2177 64.1429 17.4681C68.1534 24.1313 67.4767 32.6084 62.4599 38.551L53.1108 43.9733C52.2867 43.1376 51.2523 42.54 50.1167 42.2435V35.4535C58.172 34.6147 64.2944 27.8302 64.3046 19.7314ZM48.5 51.7333C46.7143 51.7333 45.2667 50.2857 45.2667 48.5C45.2667 46.7143 46.7143 45.2666 48.5 45.2666C50.2858 45.2666 51.7334 46.7143 51.7334 48.5C51.7334 50.2857 50.2858 51.7333 48.5 51.7333ZM32.8555 17.46C32.2437 21.7209 33.3935 26.0472 36.0402 29.442C38.6868 32.8369 42.6019 35.0074 46.8834 35.4535V42.2435C45.7485 42.5407 44.7148 43.1382 43.8909 43.9733L34.5385 38.551C29.518 32.6068 28.8412 24.1251 32.8555 17.46ZM16.005 49.2162C15.3492 49.595 14.7209 50.0196 14.1248 50.4869C17.8427 43.775 25.3777 40.124 32.9493 41.3656L42.2694 46.7718C41.9416 47.8972 41.9483 49.0936 42.2888 50.2153L36.603 53.5019C31.818 47.0555 22.9642 45.2133 16.005 49.2162ZM39.1799 75.175C36.3168 76.807 33.0695 77.6442 29.7742 77.6C33.7993 75.9905 36.9868 72.7987 38.5909 68.7714C40.1949 64.7442 40.0748 60.2349 38.2584 56.2988L43.8925 53.0266C44.7158 53.8576 45.7497 54.4489 46.8834 54.7371V66.3771C45.3614 70.0823 42.6517 73.177 39.1799 75.175ZM65.1856 76.5976C65.8411 76.9774 66.5229 77.3097 67.2259 77.5919C63.9316 77.6449 60.6837 76.8101 57.8233 75.175C54.3509 73.1784 51.6401 70.0848 50.1167 66.3803V54.7403C51.1765 54.4682 52.1496 53.9308 52.9442 53.1786L58.6527 56.4766C55.3632 63.8659 58.1822 72.5462 65.1856 76.5928V76.5976ZM82.8704 50.4869C82.2743 50.0196 81.646 49.595 80.9902 49.2162C73.9597 45.1713 65.0092 47.096 60.2629 53.6733L54.6434 50.4222C54.8492 49.8019 54.9583 49.1535 54.9667 48.5C54.965 47.9157 54.884 47.3343 54.7258 46.7718L64.0443 41.3672C71.6164 40.1226 79.1532 43.7735 82.8704 50.4869Z" fill="black"/>
</svg>
