<svg width="257" height="257" viewBox="0 0 257 257" fill="none" xmlns="http://www.w3.org/2000/svg">
<g filter="url(#filter0_d)">
<rect x="4" width="249" height="249" rx="16" fill="#738F05"/>
</g>
<g filter="url(#filter1_d)">
<path d="M184.375 50H175.062V59.3125H184.375C189.518 59.3125 193.688 63.4819 193.688 68.625V180.375C193.688 185.518 189.518 189.688 184.375 189.688H72.625C67.4819 189.688 63.3125 185.518 63.3125 180.375V68.625C63.3125 63.4819 67.4819 59.3125 72.625 59.3125H128.5V50H72.625C62.3388 50 54 58.3388 54 68.625V180.375C54 190.661 62.3388 199 72.625 199H184.375C194.661 199 203 190.661 203 180.375V68.625C203 58.3388 194.661 50 184.375 50Z" fill="white"/>
<path d="M165.75 50H156.438V59.3125H165.75V50Z" fill="white"/>
<path d="M147.125 50H137.812V59.3125H147.125V50Z" fill="white"/>
<path d="M108.217 87.25H86.5938V96.5625H95.9062V152.438H86.5938V161.75H105.219V103.156L128.5 154.379L151.781 103.156V161.75H170.406V152.438H161.094V96.5625H170.406V87.25H148.783L128.5 131.871L108.217 87.25Z" fill="white"/>
</g>
<defs>
<filter id="filter0_d" x="0" y="0" width="257" height="257" filterUnits="userSpaceOnUse" color-interpolation-filters="sRGB">
<feFlood flood-opacity="0" result="BackgroundImageFix"/>
<feColorMatrix in="SourceAlpha" type="matrix" values="0 0 0 0 0 0 0 0 0 0 0 0 0 0 0 0 0 0 127 0"/>
<feOffset dy="4"/>
<feGaussianBlur stdDeviation="2"/>
<feColorMatrix type="matrix" values="0 0 0 0 0 0 0 0 0 0 0 0 0 0 0 0 0 0 0.25 0"/>
<feBlend mode="normal" in2="BackgroundImageFix" result="effect1_dropShadow"/>
<feBlend mode="normal" in="SourceGraphic" in2="effect1_dropShadow" result="shape"/>
</filter>
<filter id="filter1_d" x="50" y="50" width="157" height="157" filterUnits="userSpaceOnUse" color-interpolation-filters="sRGB">
<feFlood flood-opacity="0" result="BackgroundImageFix"/>
<feColorMatrix in="SourceAlpha" type="matrix" values="0 0 0 0 0 0 0 0 0 0 0 0 0 0 0 0 0 0 127 0"/>
<feOffset dy="4"/>
<feGaussianBlur stdDeviation="2"/>
<feColorMatrix type="matrix" values="0 0 0 0 0 0 0 0 0 0 0 0 0 0 0 0 0 0 0.25 0"/>
<feBlend mode="normal" in2="BackgroundImageFix" result="effect1_dropShadow"/>
<feBlend mode="normal" in="SourceGraphic" in2="effect1_dropShadow" result="shape"/>
</filter>
</defs>
</svg>
