<svg width="640" height="648" viewBox="0 0 640 648" fill="none" xmlns="http://www.w3.org/2000/svg">
<g filter="url(#filter0_d)">
<g filter="url(#filter1_d)">
<path d="M337.296 541.043C445.353 541.043 532.95 453.446 532.95 345.39C532.95 237.334 445.353 149.737 337.296 149.737C229.24 149.737 141.643 237.334 141.643 345.39C141.643 453.446 229.24 541.043 337.296 541.043Z" fill="#EDEBDC"/>
<path d="M515.936 234.804C511.234 234.804 507.43 230.995 507.43 226.297V209.284C507.43 204.586 511.234 200.777 515.936 200.777C520.638 200.777 524.443 204.586 524.443 209.284V226.297C524.443 230.995 520.638 234.804 515.936 234.804Z" fill="#5AD521"/>
<path d="M515.936 285.843C511.234 285.843 507.43 282.034 507.43 277.337V260.323C507.43 255.626 511.234 251.817 515.936 251.817C520.638 251.817 524.443 255.626 524.443 260.323V277.337C524.443 282.034 520.638 285.843 515.936 285.843Z" fill="#5AD521"/>
<path d="M498.923 251.817H481.91C477.207 251.817 473.403 248.008 473.403 243.31C473.403 238.612 477.207 234.803 481.91 234.803H498.923C503.625 234.803 507.43 238.612 507.43 243.31C507.43 248.008 503.625 251.817 498.923 251.817Z" fill="#5AD521"/>
<path d="M549.963 251.817H532.95C528.247 251.817 524.443 248.008 524.443 243.31C524.443 238.612 528.247 234.803 532.95 234.803H549.963C554.665 234.803 558.47 238.612 558.47 243.31C558.47 248.008 554.665 251.817 549.963 251.817Z" fill="#5AD521"/>
<path d="M491.027 90.5304C491.027 95.5536 486.956 99.6261 481.933 99.6261C476.91 99.6261 472.839 95.5536 472.839 90.5304C472.839 85.5072 476.91 81.4368 481.933 81.4368C486.956 81.4368 491.027 85.5093 491.027 90.5304Z" fill="#5AD521"/>
<path d="M99.7198 286.184C99.7198 291.207 95.6494 295.279 90.6262 295.279C85.603 295.279 81.5326 291.207 81.5326 286.184C81.5326 281.161 85.603 277.09 90.6262 277.09C95.6494 277.09 99.7198 281.163 99.7198 286.184Z" fill="#5AD521"/>
<path d="M464.896 558.057H133.136V387.319C133.136 359.464 155.717 336.883 183.572 336.883H414.46C442.315 336.883 464.896 359.464 464.896 387.319V558.057Z" fill="#F8B511"/>
<path d="M464.896 566.563H133.136C128.434 566.563 124.63 562.755 124.63 558.057V387.322C124.63 354.82 151.072 328.377 183.57 328.377H414.462C446.96 328.377 473.403 354.82 473.403 387.322V558.057C473.403 562.755 469.598 566.563 464.896 566.563ZM141.643 549.55H456.39V387.322C456.39 364.203 437.581 345.39 414.462 345.39H183.57C160.451 345.39 141.643 364.203 141.643 387.322V549.55Z" fill="#1C1C1C"/>
<path d="M379.829 285.843L422.363 336.883L321.516 422.214C315.226 427.535 307.255 430.457 299.016 430.457C290.777 430.457 282.805 427.537 276.516 422.214L175.669 336.883L218.203 285.843H379.829Z" fill="#FFEC95"/>
<path d="M299.016 438.963C288.783 438.963 278.847 435.325 271.021 428.713L170.178 343.376C166.606 340.36 166.142 335.027 169.132 331.439L211.665 280.399C213.286 278.46 215.678 277.339 218.203 277.339H379.829C382.356 277.339 384.746 278.46 386.367 280.399L428.9 331.439C431.89 335.029 431.427 340.36 427.854 343.376L327.012 428.709C319.188 435.325 309.252 438.963 299.016 438.963ZM187.606 335.846L282.003 415.725C291.507 423.749 306.525 423.753 316.029 415.721L410.426 335.846L375.842 294.35H222.19L187.606 335.846Z" fill="#1C1C1C"/>
<path d="M342.294 328.377H255.741C220.914 328.377 192.685 300.145 192.685 265.321V178.549C192.685 129.75 232.245 90.1899 281.044 90.1899H316.995C365.793 90.1899 405.354 129.75 405.354 178.549V265.321C405.349 300.145 377.118 328.377 342.294 328.377Z" fill="#F8B511"/>
<path d="M342.29 336.883H255.745C216.285 336.883 184.178 304.779 184.178 265.321V178.547C184.178 125.135 227.635 81.6833 281.042 81.6833H316.995C370.402 81.6833 413.858 125.135 413.858 178.547V265.321C413.856 304.779 381.75 336.883 342.29 336.883ZM281.039 98.6967C237.011 98.6967 201.189 134.518 201.189 178.547V265.321C201.189 295.403 225.663 319.87 255.743 319.87H342.287C372.369 319.87 396.841 295.401 396.841 265.321V178.547C396.841 134.518 361.019 98.6967 316.991 98.6967H281.039Z" fill="#1C1C1C"/>
<path d="M120.376 183.763C103.96 183.763 90.6028 170.406 90.6028 153.99C90.6028 137.574 103.96 124.217 120.376 124.217C136.792 124.217 150.15 137.574 150.15 153.99C150.15 170.406 136.792 183.763 120.376 183.763ZM120.376 141.23C113.339 141.23 107.616 146.953 107.616 153.99C107.616 161.027 113.339 166.75 120.376 166.75C127.413 166.75 133.136 161.027 133.136 153.99C133.136 146.953 127.413 141.23 120.376 141.23Z" fill="#1C1C1C"/>
<path d="M350.131 268.83H247.904C236.199 268.83 226.709 259.341 226.709 247.636V212.799C226.709 192.064 243.519 175.257 264.252 175.257H333.781C354.516 175.257 371.323 192.066 371.323 212.799V247.636C371.323 259.341 361.834 268.83 350.131 268.83Z" fill="white"/>
<path d="M350.131 277.337H247.902C231.529 277.337 218.203 264.015 218.203 247.638V212.799C218.203 187.409 238.863 166.752 264.249 166.752H333.781C359.169 166.752 379.827 187.409 379.827 212.799V247.64C379.829 264.017 366.506 277.337 350.131 277.337ZM264.252 183.763C248.244 183.763 235.218 196.789 235.218 212.797V247.638C235.218 254.632 240.909 260.323 247.904 260.323H350.133C357.127 260.323 362.818 254.632 362.818 247.638V212.799C362.818 196.791 349.792 183.766 333.785 183.766H264.252V183.763Z" fill="#1C1C1C"/>
<path d="M331.607 336.883H266.427L260.736 268.83H337.296L331.607 336.883Z" fill="white"/>
<path d="M331.605 345.39H266.427C262.008 345.39 258.32 342 257.954 337.594L252.264 269.54C252.064 267.169 252.861 264.821 254.473 263.069C256.085 261.321 258.361 260.323 260.736 260.323H337.296C339.672 260.323 341.949 261.321 343.559 263.069C345.171 264.821 345.969 267.169 345.769 269.54L340.078 337.594C339.714 342 336.027 345.39 331.605 345.39ZM274.253 328.377H323.781L328.052 277.337H269.983L274.253 328.377Z" fill="#1C1C1C"/>
<path d="M345.803 357.091V319.87C314.613 311.034 283.419 311.034 252.229 319.87V356.147" fill="#9DC1E4"/>
<path d="M345.803 365.598C341.101 365.598 337.296 361.789 337.296 357.091V326.424C311.859 320.244 286.173 320.244 260.736 326.424V356.149C260.736 360.847 256.932 364.656 252.23 364.656C247.527 364.656 243.723 360.847 243.723 356.149V319.87C243.723 316.065 246.249 312.722 249.911 311.687C282.492 302.457 315.538 302.457 348.121 311.687C351.785 312.72 354.309 316.065 354.309 319.87V357.091C354.309 361.789 350.505 365.598 345.803 365.598Z" fill="#1C1C1C"/>
<path d="M345.803 358.433C345.803 365.323 324.855 370.91 299.016 370.91C273.177 370.91 252.229 365.325 252.229 358.433C252.229 351.542 273.177 345.958 299.016 345.958C324.857 345.958 345.803 351.542 345.803 358.433Z" fill="#B5A19C"/>
<path d="M299.016 379.417C286.048 379.417 243.723 377.905 243.723 358.433C243.723 338.965 286.048 337.453 299.016 337.453C311.985 337.453 354.309 338.965 354.309 358.433C354.309 377.905 311.985 379.417 299.016 379.417ZM265.921 358.433C272.45 360.438 283.74 362.403 299.016 362.403C314.292 362.403 325.583 360.438 332.111 358.433C325.583 356.427 314.292 354.467 299.016 354.467C283.74 354.467 272.45 356.427 265.921 358.433ZM338.211 361.225H338.294H338.211Z" fill="#1C1C1C"/>
<path d="M303.269 566.564C298.567 566.564 294.763 562.755 294.763 558.057V430.457C294.763 425.759 298.567 421.95 303.269 421.95C307.972 421.95 311.776 425.759 311.776 430.457V558.057C311.776 562.755 307.972 566.564 303.269 566.564Z" fill="#1C1C1C"/>
<path d="M405.349 566.564C400.647 566.564 396.843 562.755 396.843 558.057V430.457C396.843 425.759 400.647 421.95 405.349 421.95C410.052 421.95 413.856 425.759 413.856 430.457V558.057C413.856 562.755 410.052 566.564 405.349 566.564Z" fill="#1C1C1C"/>
<path d="M192.683 566.564C187.981 566.564 184.176 562.755 184.176 558.057V430.457C184.176 425.759 187.981 421.95 192.683 421.95C197.385 421.95 201.189 425.759 201.189 430.457V558.057C201.189 562.755 197.385 566.564 192.683 566.564Z" fill="#1C1C1C"/>
</g>
</g>
<defs>
<filter id="filter0_d" x="-80" y="-76" width="800" height="800" filterUnits="userSpaceOnUse" color-interpolation-filters="sRGB">
<feFlood flood-opacity="0" result="BackgroundImageFix"/>
<feColorMatrix in="SourceAlpha" type="matrix" values="0 0 0 0 0 0 0 0 0 0 0 0 0 0 0 0 0 0 127 0"/>
<feOffset/>
<feGaussianBlur stdDeviation="40.5"/>
<feColorMatrix type="matrix" values="0 0 0 0 0.0129861 0 0 0 0 0.779167 0 0 0 0 0.0436333 0 0 0 0.25 0"/>
<feBlend mode="normal" in2="BackgroundImageFix" result="effect1_dropShadow"/>
<feBlend mode="normal" in="SourceGraphic" in2="effect1_dropShadow" result="shape"/>
</filter>
<filter id="filter1_d" x="80.5326" y="81.4368" width="484.937" height="496.127" filterUnits="userSpaceOnUse" color-interpolation-filters="sRGB">
<feFlood flood-opacity="0" result="BackgroundImageFix"/>
<feColorMatrix in="SourceAlpha" type="matrix" values="0 0 0 0 0 0 0 0 0 0 0 0 0 0 0 0 0 0 127 0"/>
<feOffset dx="3" dy="7"/>
<feGaussianBlur stdDeviation="2"/>
<feColorMatrix type="matrix" values="0 0 0 0 0 0 0 0 0 0 0 0 0 0 0 0 0 0 0.25 0"/>
<feBlend mode="normal" in2="BackgroundImageFix" result="effect1_dropShadow"/>
<feBlend mode="normal" in="SourceGraphic" in2="effect1_dropShadow" result="shape"/>
</filter>
</defs>
</svg>
