<svg width="257" height="257" viewBox="0 0 257 257" fill="none" xmlns="http://www.w3.org/2000/svg">
<g filter="url(#filter0_d)">
<rect x="4" width="249" height="249" rx="16" fill="#738F05"/>
</g>
<g filter="url(#filter1_d)">
<path d="M179.854 199H168.863C166.529 199 164.637 197.108 164.637 194.774C164.637 192.439 166.529 190.547 168.863 190.547H179.854C187.955 190.547 194.547 183.956 194.547 175.854V73.1462C194.547 65.0446 187.956 58.4528 179.854 58.4528H116.384C114.05 58.4528 112.158 56.5607 112.158 54.2264C112.158 51.8922 114.05 50 116.384 50H179.854C192.617 50 203 60.3831 203 73.1462V175.854C203 188.617 192.617 199 179.854 199Z" fill="white"/>
<path d="M138.305 199H77.1462C64.3831 199 54 188.617 54 175.854V73.1462C54 60.3831 64.3831 50 77.1462 50H86.6578C88.992 50 90.8842 51.8922 90.8842 54.2264C90.8842 56.5607 88.992 58.4528 86.6578 58.4528H77.1462C69.0446 58.4528 62.4528 65.0443 62.4528 73.1462V175.854C62.4528 183.955 69.0443 190.547 77.1462 190.547H138.305C140.639 190.547 142.532 192.439 142.532 194.774C142.532 197.108 140.639 199 138.305 199Z" fill="white"/>
<path d="M156.248 168.413H156.247C154.361 168.413 152.552 167.817 151.018 166.692C150.986 166.668 150.955 166.645 150.925 166.621L128.112 148.876L118.677 157.88C117.168 159.39 115.171 160.22 113.044 160.22C109.534 160.22 106.467 157.974 105.414 154.632C105.396 154.572 105.378 154.513 105.362 154.452L99.8565 133.836L82.4485 128.697C79.3798 127.791 77.3083 125.139 77.173 121.942C77.0374 118.745 78.8772 115.927 81.8598 114.765L168.027 81.1862C169.046 80.789 170.108 80.5879 171.184 80.5879C173.793 80.5879 176.242 81.7607 177.903 83.8054C179.548 85.8294 180.184 88.4616 179.647 91.0266L164.935 161.362C164.081 165.447 160.427 168.413 156.248 168.413ZM156.045 159.895C156.114 159.94 156.176 159.96 156.248 159.96C156.283 159.96 156.594 159.951 156.662 159.632L171.373 89.2959C171.39 89.2168 171.383 89.1851 171.343 89.1353C171.299 89.0812 171.23 89.0401 171.184 89.0401C171.162 89.0401 171.131 89.0477 171.096 89.0617L87.8856 121.488L104.524 126.401C105.936 126.818 107.03 127.941 107.41 129.364L113.28 151.345L124.912 140.245C126.427 138.799 128.772 138.681 130.424 139.967L156.045 159.895Z" fill="white"/>
<path d="M117.929 154.826C118.062 155.256 122.904 149.203 122.956 148.755L120.784 138.123C120.498 136.722 121.005 135.278 122.105 134.364L161.915 101.283C162.873 100.435 161.76 98.9405 160.674 99.6136L113.859 128.167C112.749 128.844 112.176 130.139 112.422 131.415L117.929 154.826Z" fill="white"/>
</g>
<defs>
<filter id="filter0_d" x="0" y="0" width="257" height="257" filterUnits="userSpaceOnUse" color-interpolation-filters="sRGB">
<feFlood flood-opacity="0" result="BackgroundImageFix"/>
<feColorMatrix in="SourceAlpha" type="matrix" values="0 0 0 0 0 0 0 0 0 0 0 0 0 0 0 0 0 0 127 0"/>
<feOffset dy="4"/>
<feGaussianBlur stdDeviation="2"/>
<feColorMatrix type="matrix" values="0 0 0 0 0 0 0 0 0 0 0 0 0 0 0 0 0 0 0.25 0"/>
<feBlend mode="normal" in2="BackgroundImageFix" result="effect1_dropShadow"/>
<feBlend mode="normal" in="SourceGraphic" in2="effect1_dropShadow" result="shape"/>
</filter>
<filter id="filter1_d" x="50" y="50" width="157" height="157" filterUnits="userSpaceOnUse" color-interpolation-filters="sRGB">
<feFlood flood-opacity="0" result="BackgroundImageFix"/>
<feColorMatrix in="SourceAlpha" type="matrix" values="0 0 0 0 0 0 0 0 0 0 0 0 0 0 0 0 0 0 127 0"/>
<feOffset dy="4"/>
<feGaussianBlur stdDeviation="2"/>
<feColorMatrix type="matrix" values="0 0 0 0 0 0 0 0 0 0 0 0 0 0 0 0 0 0 0.25 0"/>
<feBlend mode="normal" in2="BackgroundImageFix" result="effect1_dropShadow"/>
<feBlend mode="normal" in="SourceGraphic" in2="effect1_dropShadow" result="shape"/>
</filter>
</defs>
</svg>
