<svg width="1928" height="679" viewBox="0 0 1928 679" fill="none" xmlns="http://www.w3.org/2000/svg">
<g filter="url(#filter0_d)">
<path d="M1219.35 393.713L1043.56 217.921L1256.92 4.56116L1432.71 180.353L1219.35 393.713Z" fill="url(#paint0_linear)"/>
<path d="M1131.46 305.818L1219.35 393.713L1432.71 180.353L1344.82 92.4573L1131.46 305.818Z" fill="url(#paint1_linear)"/>
<path d="M1441.09 137.447L1393.56 89.9149C1390.02 86.3745 1384.28 86.3745 1380.74 89.9149L1367.92 102.736C1364.38 106.276 1364.38 112.016 1367.92 115.555L1415.45 163.087C1418.99 166.628 1424.73 166.628 1428.27 163.087L1441.09 150.267C1444.63 146.726 1444.63 140.986 1441.09 137.447Z" fill="url(#paint2_linear)"/>
<path d="M1432.99 129.351L1401.65 98.0098C1398.7 95.0555 1393.91 95.0555 1390.95 98.0098L1376.01 112.95C1373.06 115.904 1373.06 120.695 1376.01 123.65L1407.35 154.992C1410.31 157.946 1415.1 157.946 1418.05 154.992L1432.99 140.051C1435.95 137.097 1435.95 132.306 1432.99 129.351Z" fill="url(#paint3_linear)"/>
<path d="M1412.89 109.245L1421.76 118.116C1423.54 119.9 1423.54 122.793 1421.76 124.578L1402.58 143.757C1400.8 145.541 1397.9 145.541 1396.12 143.757L1387.25 134.886C1385.46 133.102 1385.46 130.209 1387.25 128.424L1406.42 109.245C1408.21 107.461 1411.1 107.461 1412.89 109.245Z" fill="url(#paint4_linear)"/>
<path d="M1432.9 180.165L1257.11 4.37378L1246.67 14.8102V49.8785L1404.93 208.136L1432.9 180.165Z" fill="url(#paint5_linear)"/>
<path d="M1414.91 186.878L1250.4 22.3661C1245.28 17.2495 1245.28 8.95398 1250.4 3.83742C1255.51 -1.27914 1263.81 -1.27914 1268.92 3.83742L1433.44 168.35C1438.55 173.466 1438.55 181.762 1433.44 186.878C1428.32 191.995 1420.02 191.995 1414.91 186.878Z" fill="url(#paint6_linear)"/>
<path d="M1408.01 205.057L1232.22 29.2657L1221.78 39.7022V74.7705L1380.04 233.028L1408.01 205.057Z" fill="url(#paint7_linear)"/>
<path d="M1390.02 211.77L1225.5 47.2581C1220.39 42.1415 1220.39 33.8459 1225.5 28.7294C1230.62 23.6128 1238.92 23.6128 1244.03 28.7294L1408.54 193.242C1413.66 198.358 1413.66 206.654 1408.54 211.77C1403.43 216.887 1395.13 216.887 1390.02 211.77Z" fill="url(#paint8_linear)"/>
<path d="M1250.23 362.831L1074.44 187.04L1064.01 197.477V232.545L1222.26 390.802L1250.23 362.831Z" fill="url(#paint9_linear)"/>
<path d="M1232.24 369.545L1067.73 205.032C1062.61 199.916 1062.61 191.62 1067.73 186.504C1072.85 181.387 1081.14 181.387 1086.26 186.504L1250.77 351.016C1255.89 356.132 1255.89 364.428 1250.77 369.545C1245.65 374.661 1237.36 374.661 1232.24 369.545Z" fill="url(#paint10_linear)"/>
<path d="M1207.35 394.437L1042.84 229.924C1037.72 224.808 1037.72 216.512 1042.84 211.396C1047.95 206.279 1056.25 206.279 1061.37 211.396L1225.88 375.908C1230.99 381.024 1230.99 389.32 1225.88 394.437C1220.76 399.553 1212.47 399.553 1207.35 394.437Z" fill="url(#paint11_linear)"/>
<path d="M1235.64 225.238C1248.67 225.238 1259.24 214.672 1259.24 201.637C1259.24 188.603 1248.67 178.037 1235.64 178.037C1222.6 178.037 1212.04 188.603 1212.04 201.637C1212.04 214.672 1222.6 225.238 1235.64 225.238Z" fill="url(#paint12_linear)"/>
<path d="M1235.64 216.43C1243.81 216.43 1250.43 209.807 1250.43 201.638C1250.43 193.468 1243.81 186.845 1235.64 186.845C1227.47 186.845 1220.84 193.468 1220.84 201.638C1220.84 209.807 1227.47 216.43 1235.64 216.43Z" fill="url(#paint13_linear)"/>
<path d="M1303.1 192.444L1276.39 201.076C1273.24 202.095 1270.05 199.958 1269.57 196.682C1269.57 196.66 1269.57 196.639 1269.56 196.617C1268.54 189.58 1265.3 182.81 1259.88 177.389C1254.46 171.969 1247.69 168.736 1240.66 167.709C1240.63 167.706 1240.61 167.703 1240.59 167.7C1237.31 167.222 1235.18 164.034 1236.2 160.883L1244.83 134.176C1245.66 131.606 1248.31 130.068 1250.95 130.635C1264.14 133.468 1276.71 140.015 1286.99 150.288C1297.26 160.562 1303.81 173.132 1306.64 186.327C1307.21 188.969 1305.67 191.614 1303.1 192.444Z" fill="url(#paint14_linear)"/>
<path d="M1286.98 252.986C1266.88 273.095 1237.92 278.941 1212.64 270.537C1210.06 269.679 1208.54 267.006 1209.14 264.356L1215.32 236.996C1216.05 233.762 1219.52 232.092 1222.59 233.354C1222.61 233.362 1222.63 233.37 1222.65 233.378C1235.05 238.437 1249.82 235.946 1259.88 225.886C1260.72 225.049 1261.52 224.175 1262.26 223.242C1262.28 223.225 1262.29 223.208 1262.3 223.191C1264.4 220.63 1268.23 220.432 1270.42 222.914L1288.96 243.941C1290.77 245.984 1290.7 249.057 1288.85 251.053C1288.24 251.706 1287.62 252.351 1286.98 252.986Z" fill="url(#paint15_linear)"/>
<path d="M1200.28 221.952L1172.92 228.137C1170.27 228.736 1167.59 227.216 1166.74 224.637C1158.33 199.358 1164.18 170.398 1184.29 150.289C1184.92 149.654 1185.57 149.033 1186.22 148.426C1188.22 146.571 1191.29 146.51 1193.33 148.312L1214.36 166.856C1216.84 169.046 1216.64 172.873 1214.08 174.97C1214.07 174.985 1214.05 174.999 1214.03 175.012C1213.1 175.754 1212.22 176.553 1211.39 177.389C1201.33 187.45 1198.84 202.227 1203.9 214.627C1203.9 214.646 1203.91 214.667 1203.92 214.686C1205.18 217.753 1203.51 221.221 1200.28 221.952Z" fill="url(#paint16_linear)"/>
</g>
<g filter="url(#filter1_d)">
<path d="M4 283.251L4.158 283.124C24.262 266.959 56.858 266.959 76.963 283.124L77.121 283.251L77.279 283.379C97.383 299.544 129.979 299.544 150.084 283.379L150.242 283.251L150.4 283.124C170.504 266.959 203.1 266.959 223.205 283.124L223.363 283.251L223.521 283.379C243.625 299.544 276.221 299.544 296.326 283.379L296.484 283.251L296.642 283.124C316.746 266.959 349.342 266.959 369.447 283.124L369.605 283.251L369.763 283.379C389.867 299.544 422.463 299.544 442.568 283.379L442.726 283.251L442.884 283.124C462.988 266.959 495.584 266.959 515.689 283.124L516 283.379V679H4L4 283.251Z" fill="#617A02"/>
<path d="M430.447 607.329C447.016 607.329 460.447 596.529 460.447 583.206C460.447 569.883 447.016 559.083 430.447 559.083C413.878 559.083 400.447 569.883 400.447 583.206C400.447 596.529 413.878 607.329 430.447 607.329Z" fill="#617A02"/>
<path d="M356.383 495.203C388.138 495.203 413.88 474.503 413.88 448.969C413.88 423.434 388.138 402.735 356.383 402.735C324.628 402.735 298.886 423.434 298.886 448.969C298.886 474.503 324.628 495.203 356.383 495.203Z" fill="#617A02"/>
<path d="M260 342.453H275V366.577H260V342.453Z" fill="#617A02"/>
<path d="M295.832 584.246H325.832V608.369H295.832V584.246Z" fill="#617A02"/>
<path d="M425.447 373.621H455.447V397.744H425.447V373.621Z" fill="#617A02"/>
<path d="M77 428.547C93.5685 428.547 107 415.115 107 398.547C107 381.978 93.5685 368.547 77 368.547C60.4315 368.547 47 381.978 47 398.547C47 415.115 60.4315 428.547 77 428.547Z" fill="#9EB91B"/>
<path d="M119 616.547C150.48 616.547 176 591.027 176 559.546C176 528.066 150.48 502.547 119 502.547C87.5198 502.547 62 528.066 62 559.546C62 591.027 87.5198 616.547 119 616.547Z" fill="#9EB91B"/>
<path d="M161.498 420.412H191.498V444.536H161.498V420.412Z" fill="#9EB91B"/>
<path d="M202 334H232V358.123H202V334Z" fill="#9EB91B"/>
<path d="M335 584C351.569 584 365 570.569 365 554C365 537.431 351.569 524 335 524C318.431 524 305 537.431 305 554C305 570.569 318.431 584 335 584Z" fill="#9EB91B"/>
<path d="M373 429C404.48 429 430 403.48 430 372C430 340.52 404.48 315 373 315C341.52 315 316 340.52 316 372C316 403.48 341.52 429 373 429Z" fill="#9EB91B"/>
<path d="M275 420H305V444.123H275V420Z" fill="#9EB91B"/>
<path d="M395 449H425V473.123H395V449Z" fill="#9EB91B"/>
<path d="M452 283.251L452.158 283.124C472.262 266.959 504.858 266.959 524.963 283.124L525.121 283.251L525.279 283.379C545.383 299.544 577.979 299.544 598.084 283.379L598.242 283.251L598.4 283.124C618.504 266.959 651.1 266.959 671.205 283.124L671.363 283.251L671.521 283.379C691.625 299.544 724.221 299.544 744.326 283.379L744.484 283.251L744.642 283.124C764.746 266.959 797.342 266.959 817.447 283.124L817.605 283.251L817.763 283.379C837.867 299.544 870.463 299.544 890.568 283.379L890.726 283.251L890.884 283.124C910.988 266.959 943.584 266.959 963.689 283.124L964 283.379V679H452L452 283.251Z" fill="#617A02"/>
<path d="M532 446.547C548.569 446.547 562 433.115 562 416.547C562 399.978 548.569 386.547 532 386.547C515.431 386.547 502 399.978 502 416.547C502 433.115 515.431 446.547 532 446.547Z" fill="#9EB91B"/>
<path d="M574 635C605.48 635 631 609.48 631 578C631 546.52 605.48 521 574 521C542.52 521 517 546.52 517 578C517 609.48 542.52 635 574 635Z" fill="#9EB91B"/>
<path d="M616.498 438.412H646.498V462.536H616.498V438.412Z" fill="#9EB91B"/>
<path d="M657 352H687V376.123H657V352Z" fill="#9EB91B"/>
<path d="M804 578C820.569 578 834 564.569 834 548C834 531.431 820.569 518 804 518C787.431 518 774 531.431 774 548C774 564.569 787.431 578 804 578Z" fill="#9EB91B"/>
<path d="M843 466C874.48 466 900 440.48 900 409C900 377.52 874.48 352 843 352C811.52 352 786 377.52 786 409C786 440.48 811.52 466 843 466Z" fill="#9EB91B"/>
<path d="M735 451H765V475.123H735V451Z" fill="#9EB91B"/>
<path d="M905 340H935V364.123H905V340Z" fill="#9EB91B"/>
<path d="M900 283.251L900.16 283.124C920.515 266.959 953.519 266.959 973.875 283.124L974.035 283.251L974.195 283.379C994.55 299.544 1027.55 299.544 1047.91 283.379L1048.07 283.251L1048.23 283.124C1068.59 266.959 1101.59 266.959 1121.95 283.124L1122.11 283.251L1122.27 283.379C1142.62 299.544 1175.62 299.544 1195.98 283.379L1196.14 283.251L1196.3 283.124C1216.66 266.959 1249.66 266.959 1270.02 283.124L1270.18 283.251L1270.34 283.379C1290.69 299.544 1323.69 299.544 1344.05 283.379L1344.21 283.251L1344.37 283.124C1364.73 266.959 1397.73 266.959 1418.09 283.124L1418.4 283.379V679H900L900 283.251Z" fill="#617A02"/>
<path d="M1331.78 607.329C1348.55 607.329 1362.15 596.529 1362.15 583.206C1362.15 569.883 1348.55 559.083 1331.78 559.083C1315 559.083 1301.4 569.883 1301.4 583.206C1301.4 596.529 1315 607.329 1331.78 607.329Z" fill="#617A02"/>
<path d="M1256.79 495.203C1288.94 495.203 1315 474.503 1315 448.969C1315 423.434 1288.94 402.735 1256.79 402.735C1224.64 402.735 1198.57 423.434 1198.57 448.969C1198.57 474.503 1224.64 495.203 1256.79 495.203Z" fill="#617A02"/>
<path d="M1159.2 342.453H1174.39V366.577H1159.2V342.453Z" fill="#617A02"/>
<path d="M1195.48 584.246H1225.85V608.369H1195.48V584.246Z" fill="#617A02"/>
<path d="M1326.72 373.621H1357.09V397.744H1326.72V373.621Z" fill="#617A02"/>
<path d="M973.912 428.547C990.688 428.547 1004.29 415.115 1004.29 398.547C1004.29 381.978 990.688 368.547 973.912 368.547C957.137 368.547 943.537 381.978 943.537 398.547C943.537 415.115 957.137 428.547 973.912 428.547Z" fill="#9EB91B"/>
<path d="M1016.44 616.547C1048.31 616.547 1074.15 591.027 1074.15 559.546C1074.15 528.066 1048.31 502.547 1016.44 502.547C984.564 502.547 958.725 528.066 958.725 559.546C958.725 591.027 984.564 616.547 1016.44 616.547Z" fill="#9EB91B"/>
<path d="M1059.47 420.412H1089.84V444.536H1059.47V420.412Z" fill="#9EB91B"/>
<path d="M1100.47 334H1130.85V358.123H1100.47V334Z" fill="#9EB91B"/>
<path d="M1235.14 584C1251.91 584 1265.51 570.569 1265.51 554C1265.51 537.431 1251.91 524 1235.14 524C1218.36 524 1204.76 537.431 1204.76 554C1204.76 570.569 1218.36 584 1235.14 584Z" fill="#9EB91B"/>
<path d="M1273.61 429C1305.49 429 1331.32 403.48 1331.32 372C1331.32 340.52 1305.49 315 1273.61 315C1241.74 315 1215.9 340.52 1215.9 372C1215.9 403.48 1241.74 429 1273.61 429Z" fill="#9EB91B"/>
<path d="M1174.39 420H1204.76V444.123H1174.39V420Z" fill="#9EB91B"/>
<path d="M1295.89 449H1326.26V473.123H1295.89V449Z" fill="#9EB91B"/>
<path d="M1354 283.251L1354.18 283.124C1376.56 266.959 1412.85 266.959 1435.23 283.124L1435.4 283.251L1435.58 283.379C1457.96 299.544 1494.25 299.544 1516.63 283.379L1516.81 283.251L1516.98 283.124C1539.37 266.959 1575.65 266.959 1598.04 283.124L1598.21 283.251L1598.39 283.379C1620.77 299.544 1657.06 299.544 1679.44 283.379L1679.62 283.251L1679.79 283.124C1702.17 266.959 1738.46 266.959 1760.85 283.124L1761.02 283.251L1761.2 283.379C1783.58 299.544 1819.87 299.544 1842.25 283.379L1842.43 283.251L1842.6 283.124C1864.98 266.959 1901.27 266.959 1923.65 283.124L1924 283.379V679H1354L1354 283.251Z" fill="#617A02"/>
<path d="M1437.88 446.547C1455.34 446.547 1469.49 433.115 1469.49 416.547C1469.49 399.978 1455.34 386.547 1437.88 386.547C1420.43 386.547 1406.28 399.978 1406.28 416.547C1406.28 433.115 1420.43 446.547 1437.88 446.547Z" fill="#9EB91B"/>
<path d="M1482.13 635C1515.29 635 1542.18 609.48 1542.18 578C1542.18 546.52 1515.29 521 1482.13 521C1448.96 521 1422.08 546.52 1422.08 578C1422.08 609.48 1448.96 635 1482.13 635Z" fill="#9EB91B"/>
<path d="M1526.9 438.412H1558.51V462.536H1526.9V438.412Z" fill="#9EB91B"/>
<path d="M1569.57 352H1601.18V376.123H1569.57V352Z" fill="#9EB91B"/>
<path d="M1724.44 578C1741.89 578 1756.04 564.569 1756.04 548C1756.04 531.431 1741.89 518 1724.44 518C1706.98 518 1692.83 531.431 1692.83 548C1692.83 564.569 1706.98 578 1724.44 578Z" fill="#9EB91B"/>
<path d="M1765.52 466C1798.69 466 1825.58 440.48 1825.58 409C1825.58 377.52 1798.69 352 1765.52 352C1732.36 352 1705.47 377.52 1705.47 409C1705.47 440.48 1732.36 466 1765.52 466Z" fill="#9EB91B"/>
<path d="M1651.74 451H1683.35V475.123H1651.74V451Z" fill="#9EB91B"/>
<path d="M1830.84 340H1862.45V364.123H1830.84V340Z" fill="#9EB91B"/>
</g>
<defs>
<filter id="filter0_d" x="1035" y="0" width="412.743" height="406.274" filterUnits="userSpaceOnUse" color-interpolation-filters="sRGB">
<feFlood flood-opacity="0" result="BackgroundImageFix"/>
<feColorMatrix in="SourceAlpha" type="matrix" values="0 0 0 0 0 0 0 0 0 0 0 0 0 0 0 0 0 0 127 0"/>
<feOffset dy="4"/>
<feGaussianBlur stdDeviation="2"/>
<feColorMatrix type="matrix" values="0 0 0 0 0 0 0 0 0 0 0 0 0 0 0 0 0 0 0.25 0"/>
<feBlend mode="normal" in2="BackgroundImageFix" result="effect1_dropShadow"/>
<feBlend mode="normal" in="SourceGraphic" in2="effect1_dropShadow" result="shape"/>
</filter>
<filter id="filter1_d" x="0" y="257" width="1928" height="422" filterUnits="userSpaceOnUse" color-interpolation-filters="sRGB">
<feFlood flood-opacity="0" result="BackgroundImageFix"/>
<feColorMatrix in="SourceAlpha" type="matrix" values="0 0 0 0 0 0 0 0 0 0 0 0 0 0 0 0 0 0 127 0"/>
<feOffset dy="-10"/>
<feGaussianBlur stdDeviation="2"/>
<feColorMatrix type="matrix" values="0 0 0 0 0.705882 0 0 0 0 0.823529 0 0 0 0 0.254902 0 0 0 0.25 0"/>
<feBlend mode="normal" in2="BackgroundImageFix" result="effect1_dropShadow"/>
<feBlend mode="normal" in="SourceGraphic" in2="effect1_dropShadow" result="shape"/>
</filter>
<linearGradient id="paint0_linear" x1="1150.25" y1="111.208" x2="1326.02" y2="286.974" gradientUnits="userSpaceOnUse">
<stop stop-color="#FFD945"/>
<stop offset="0.3043" stop-color="#FFCD3E"/>
<stop offset="0.8558" stop-color="#FFAD2B"/>
<stop offset="1" stop-color="#FFA325"/>
</linearGradient>
<linearGradient id="paint1_linear" x1="1250.96" y1="240.19" x2="1029.78" y2="219.979" gradientUnits="userSpaceOnUse">
<stop stop-color="#E87264" stop-opacity="0"/>
<stop offset="0.6519" stop-color="#F67150" stop-opacity="0.652"/>
<stop offset="1" stop-color="#FF7044"/>
</linearGradient>
<linearGradient id="paint2_linear" x1="1410.42" y1="113.328" x2="1397.41" y2="142.091" gradientUnits="userSpaceOnUse">
<stop stop-color="#FF7044"/>
<stop offset="0.2346" stop-color="#FE653C"/>
<stop offset="0.6509" stop-color="#FB4628"/>
<stop offset="1" stop-color="#F82814"/>
</linearGradient>
<linearGradient id="paint3_linear" x1="1415.88" y1="108.506" x2="1386.72" y2="154.408" gradientUnits="userSpaceOnUse">
<stop stop-color="#F82814" stop-opacity="0"/>
<stop offset="0.1249" stop-color="#ED2819" stop-opacity="0.125"/>
<stop offset="0.4524" stop-color="#D42724" stop-opacity="0.452"/>
<stop offset="0.7531" stop-color="#C5272B" stop-opacity="0.753"/>
<stop offset="1" stop-color="#C0272D"/>
</linearGradient>
<linearGradient id="paint4_linear" x1="1419.82" y1="117.005" x2="1381.05" y2="141.63" gradientUnits="userSpaceOnUse">
<stop stop-color="#F82814" stop-opacity="0"/>
<stop offset="0.1249" stop-color="#ED2819" stop-opacity="0.125"/>
<stop offset="0.4524" stop-color="#D42724" stop-opacity="0.452"/>
<stop offset="0.7531" stop-color="#C5272B" stop-opacity="0.753"/>
<stop offset="1" stop-color="#C0272D"/>
</linearGradient>
<linearGradient id="paint5_linear" x1="1309.06" y1="128.169" x2="1362.89" y2="74.34" gradientUnits="userSpaceOnUse">
<stop stop-color="#E87264" stop-opacity="0"/>
<stop offset="0.6519" stop-color="#F67150" stop-opacity="0.652"/>
<stop offset="1" stop-color="#FF7044"/>
</linearGradient>
<linearGradient id="paint6_linear" x1="1350.6" y1="86.6261" x2="1334.79" y2="102.435" gradientUnits="userSpaceOnUse">
<stop stop-color="#8A7889"/>
<stop offset="1" stop-color="#6E566E"/>
</linearGradient>
<linearGradient id="paint7_linear" x1="1300.08" y1="137.151" x2="1315.49" y2="121.734" gradientUnits="userSpaceOnUse">
<stop stop-color="#E87264" stop-opacity="0"/>
<stop offset="0.6519" stop-color="#F67150" stop-opacity="0.652"/>
<stop offset="1" stop-color="#FF7044"/>
</linearGradient>
<linearGradient id="paint8_linear" x1="1325.71" y1="111.514" x2="1309.9" y2="127.324" gradientUnits="userSpaceOnUse">
<stop stop-color="#8A7889"/>
<stop offset="1" stop-color="#6E566E"/>
</linearGradient>
<linearGradient id="paint9_linear" x1="1126.42" y1="310.808" x2="1180.25" y2="256.978" gradientUnits="userSpaceOnUse">
<stop stop-color="#E87264" stop-opacity="0"/>
<stop offset="0.6519" stop-color="#F67150" stop-opacity="0.652"/>
<stop offset="1" stop-color="#FF7044"/>
</linearGradient>
<linearGradient id="paint10_linear" x1="1167.96" y1="269.265" x2="1152.15" y2="285.074" gradientUnits="userSpaceOnUse">
<stop stop-color="#8A7889"/>
<stop offset="1" stop-color="#6E566E"/>
</linearGradient>
<linearGradient id="paint11_linear" x1="1143.07" y1="294.153" x2="1127.26" y2="309.962" gradientUnits="userSpaceOnUse">
<stop stop-color="#8A7889"/>
<stop offset="1" stop-color="#6E566E"/>
</linearGradient>
<linearGradient id="paint12_linear" x1="1235.64" y1="176.491" x2="1235.64" y2="223.254" gradientUnits="userSpaceOnUse">
<stop stop-color="#FFD945"/>
<stop offset="0.3043" stop-color="#FFCD3E"/>
<stop offset="0.8558" stop-color="#FFAD2B"/>
<stop offset="1" stop-color="#FFA325"/>
</linearGradient>
<linearGradient id="paint13_linear" x1="1225.18" y1="191.133" x2="1246.09" y2="212.049" gradientUnits="userSpaceOnUse">
<stop stop-color="#8A7889"/>
<stop offset="1" stop-color="#6E566E"/>
</linearGradient>
<linearGradient id="paint14_linear" x1="1241.1" y1="137.05" x2="1300.18" y2="196.128" gradientUnits="userSpaceOnUse">
<stop stop-color="#8A7889"/>
<stop offset="1" stop-color="#6E566E"/>
</linearGradient>
<linearGradient id="paint15_linear" x1="1222.8" y1="228.333" x2="1267.19" y2="272.723" gradientUnits="userSpaceOnUse">
<stop stop-color="#8A7889"/>
<stop offset="1" stop-color="#6E566E"/>
</linearGradient>
<linearGradient id="paint16_linear" x1="1164.5" y1="170.041" x2="1208.89" y2="214.431" gradientUnits="userSpaceOnUse">
<stop stop-color="#8A7889"/>
<stop offset="1" stop-color="#6E566E"/>
</linearGradient>
</defs>
</svg>
