<svg width="257" height="257" viewBox="0 0 257 257" fill="none" xmlns="http://www.w3.org/2000/svg">
<g filter="url(#filter0_d)">
<rect x="4" width="249" height="249" rx="16" fill="#738F05"/>
</g>
<g filter="url(#filter1_d)">
<path d="M71.6821 90.7087C69.4087 90.7087 67.566 88.8659 67.566 86.5925V67.682C67.566 65.4086 69.4087 63.5659 71.6821 63.5659H90.5923C92.8657 63.5659 94.7084 65.4086 94.7084 67.682C94.7084 69.9555 92.8657 71.7982 90.5923 71.7982H75.7979V86.5925C75.7979 88.8659 73.9552 90.7087 71.6821 90.7087Z" fill="white"/>
<path d="M185.318 185.434H166.408C164.134 185.434 162.292 183.591 162.292 181.318C162.292 179.044 164.134 177.202 166.408 177.202H181.202V162.408C181.202 160.134 183.044 158.292 185.318 158.292C187.591 158.292 189.434 160.134 189.434 162.408V181.318C189.434 183.591 187.591 185.434 185.318 185.434Z" fill="white"/>
<path d="M198.884 199H58.1161C55.8427 199 54 197.157 54 194.884V54.1161C54 51.8427 55.8427 50 58.1161 50H198.884C201.157 50 203 51.8427 203 54.1161V194.884C203 197.157 201.157 199 198.884 199ZM62.232 190.768H194.768V58.232H62.232V190.768Z" fill="white"/>
<path d="M110.895 166.557C100.644 166.557 90.5489 163.835 81.7009 158.685C79.4947 157.403 78.4014 154.8 79.0457 152.357C79.6935 149.885 81.9363 148.154 84.4981 148.154L86.7739 148.155C90.3257 148.155 93.8098 147.583 97.1137 146.472C92.6934 143.52 89.2676 139.124 87.6094 133.947C87.2477 132.818 87.2968 131.607 87.7127 130.525C83.3152 126.077 80.7534 119.974 80.8322 113.488C80.852 111.905 81.572 110.464 82.7893 109.51C81.604 106.655 80.9824 103.562 80.9824 100.369C80.9824 96.1634 82.097 92.0275 84.2051 88.4096C85.0557 86.9504 86.569 86.0017 88.252 85.8713C89.9375 85.7389 91.5756 86.4443 92.6402 87.753C96.7336 92.7745 101.657 96.838 107.271 99.8267C111.726 102.198 116.492 103.827 121.484 104.688C121.574 103.228 121.794 101.761 122.142 100.298C124.022 92.3991 130.01 85.9973 137.769 83.5915C140.221 82.8305 142.727 82.4443 145.219 82.4443C151.021 82.4443 156.608 84.5539 160.953 88.3837C161.073 88.489 161.334 88.7381 161.676 89.069C162.072 89.4523 163.12 90.4668 163.775 91.0241C165.169 91.2409 168.113 91.7312 174.704 92.84C176.135 93.0807 177.334 94.0576 177.859 95.4108C178.384 96.7641 178.157 98.2936 177.263 99.4362C176.756 100.083 172.332 105.692 169.066 108.454C169.057 115.205 167.746 122.262 165.275 128.865C164.477 130.994 162.106 132.074 159.977 131.276C157.848 130.48 156.768 128.108 157.565 125.979C159.704 120.267 160.834 114.184 160.834 108.387V108.087C160.834 105.833 161.844 103.72 163.606 102.288C164.343 101.689 165.257 100.774 166.193 99.7627C164.139 99.4213 162.453 99.1446 161.952 99.0686C160.091 98.9167 158.701 97.6452 155.951 94.9839C155.746 94.7854 155.585 94.6283 155.494 94.5451C152.669 92.0551 149.015 90.6763 145.219 90.6763C143.556 90.6763 141.871 90.9376 140.209 91.4539C135.214 93.0027 131.36 97.1217 130.151 102.203C129.683 104.17 129.556 106.13 129.771 108.027C129.923 109.391 129.489 110.754 128.583 111.775C127.546 112.932 126.033 113.533 124.496 113.384C117.043 112.69 109.941 110.574 103.403 107.093C98.3001 104.376 93.6873 100.908 89.6401 96.7492C89.3587 97.9293 89.2146 99.1443 89.2146 100.369C89.2146 104.576 90.8606 108.513 93.8496 111.455C95.1659 112.751 95.4578 114.765 94.5638 116.381C93.6698 117.997 91.809 118.821 90.0114 118.393C89.9209 118.372 89.8304 118.35 89.7402 118.327C91.0195 122.518 94.0347 126.058 98.1456 127.936C99.8917 128.733 100.854 130.632 100.467 132.512C100.151 134.042 99.0082 135.23 97.5583 135.64C99.9415 138.993 103.619 141.364 107.759 142.036C109.427 142.307 110.76 143.569 111.121 145.22C111.481 146.871 110.796 148.574 109.393 149.516C104.912 152.525 99.9272 154.583 94.6913 155.616C99.8847 157.401 105.364 158.325 110.896 158.325C118.632 158.325 125.848 156.799 132.345 153.789C138.281 151.04 143.53 147.105 147.948 142.093C149.451 140.388 152.052 140.224 153.757 141.727C155.462 143.231 155.626 145.832 154.123 147.537C148.946 153.41 142.783 158.026 135.805 161.258C128.217 164.774 119.836 166.557 110.895 166.557ZM125.254 105.187C125.26 105.187 125.266 105.188 125.273 105.188C125.267 105.188 125.26 105.187 125.254 105.187ZM162.337 99.0837C162.338 99.0837 162.34 99.0837 162.341 99.0837C162.34 99.0837 162.338 99.0837 162.337 99.0837ZM86.2573 92.9506C86.2585 92.9523 86.2602 92.9544 86.2614 92.9558C86.2597 92.9538 86.2585 92.9526 86.2573 92.9506ZM162.521 90.8559C162.624 90.862 162.766 90.8765 163.022 90.9114C162.869 90.8841 162.701 90.864 162.521 90.8559Z" fill="white"/>
</g>
<defs>
<filter id="filter0_d" x="0" y="0" width="257" height="257" filterUnits="userSpaceOnUse" color-interpolation-filters="sRGB">
<feFlood flood-opacity="0" result="BackgroundImageFix"/>
<feColorMatrix in="SourceAlpha" type="matrix" values="0 0 0 0 0 0 0 0 0 0 0 0 0 0 0 0 0 0 127 0"/>
<feOffset dy="4"/>
<feGaussianBlur stdDeviation="2"/>
<feColorMatrix type="matrix" values="0 0 0 0 0 0 0 0 0 0 0 0 0 0 0 0 0 0 0.25 0"/>
<feBlend mode="normal" in2="BackgroundImageFix" result="effect1_dropShadow"/>
<feBlend mode="normal" in="SourceGraphic" in2="effect1_dropShadow" result="shape"/>
</filter>
<filter id="filter1_d" x="50" y="50" width="157" height="157" filterUnits="userSpaceOnUse" color-interpolation-filters="sRGB">
<feFlood flood-opacity="0" result="BackgroundImageFix"/>
<feColorMatrix in="SourceAlpha" type="matrix" values="0 0 0 0 0 0 0 0 0 0 0 0 0 0 0 0 0 0 127 0"/>
<feOffset dy="4"/>
<feGaussianBlur stdDeviation="2"/>
<feColorMatrix type="matrix" values="0 0 0 0 0 0 0 0 0 0 0 0 0 0 0 0 0 0 0.25 0"/>
<feBlend mode="normal" in2="BackgroundImageFix" result="effect1_dropShadow"/>
<feBlend mode="normal" in="SourceGraphic" in2="effect1_dropShadow" result="shape"/>
</filter>
</defs>
</svg>
