<svg width="1921" height="72" viewBox="0 0 1921 72" fill="none" xmlns="http://www.w3.org/2000/svg">
<path d="M0.62207 0H66.622L46.0749 72H0.62207V0Z" fill="#FFE70B"/>
<path d="M343.698 0H400.981L380.434 72H323.774L343.698 0Z" fill="#FFE70B"/>
<path d="M455.774 0H513.057L492.509 72H435.849L455.774 0Z" fill="#FFE70B"/>
<path d="M679.925 0H737.208L716.66 72H660L679.925 0Z" fill="#FFE70B"/>
<path d="M1126.92 0H1184.21L1163.66 72H1107L1126.92 0Z" fill="#FFE70B"/>
<path d="M1016.15 0H1073.43L1052.89 72H996.226L1016.15 0Z" fill="#FFE70B"/>
<path d="M904.075 0H961.358L940.811 72H884.151L904.075 0Z" fill="#FFE70B"/>
<path d="M792 0H849.283L828.736 72H772.076L792 0Z" fill="#FFE70B"/>
<path d="M567.849 0H625.132L604.585 72H547.924L567.849 0Z" fill="#FFE70B"/>
<path d="M232.868 0H290.151L269.604 72H212.943L232.868 0Z" fill="#FFE70B"/>
<path d="M120.792 0H178.075L157.528 72H100.868L120.792 0Z" fill="#FFE70B"/>
<path d="M1352.92 0H1410.21L1389.66 72H1333L1352.92 0Z" fill="#FFE70B"/>
<path d="M1463.92 0H1521.21L1500.66 72H1444L1463.92 0Z" fill="#FFE70B"/>
<path d="M1574.92 0H1632.21L1611.66 72H1555L1574.92 0Z" fill="#FFE70B"/>
<path d="M1685.92 0H1743.21L1722.66 72H1666L1685.92 0Z" fill="#FFE70B"/>
<path d="M1796.92 0H1854.21L1833.66 72H1777L1796.92 0Z" fill="#FFE70B"/>
<path d="M1907.92 0H1920.5V72H1888L1907.92 0Z" fill="#FFE70B"/>
<path d="M1241.92 0H1299.21L1278.66 72H1222L1241.92 0Z" fill="#FFE70B"/>
</svg>
