<svg width="531" height="708" viewBox="0 0 531 708" fill="none" xmlns="http://www.w3.org/2000/svg">
<path d="M470.329 361.578H443.883V395.284H470.329V361.578Z" fill="#48709B"/>
<path d="M479.145 387.754H435.067V421.46H479.145V387.754Z" fill="#629ACC"/>
<path d="M523.222 633.546H7.77832V699.257H523.222V633.546Z" fill="#629ACC"/>
<path d="M523.222 633.546H7.77832V664.328H523.222V633.546Z" fill="#48709B"/>
<path d="M523.222 411.944H7.77832V650.845H523.222V411.944Z" fill="#AFB9D2"/>
<path d="M523.222 636.661H7.77832V650.845H523.222V636.661Z" fill="#959CB3"/>
<path d="M523.222 411.944H7.77832V426.129H523.222V411.944Z" fill="#C7CFE2"/>
<path d="M275.523 463.372V483.379C275.523 493.897 291.327 502.425 310.823 502.425C330.318 502.425 346.123 493.897 346.123 483.379V463.372H275.523Z" fill="#629ACC"/>
<path d="M310.823 482.418C330.318 482.418 346.123 473.891 346.123 463.372C346.123 452.854 330.318 444.327 310.823 444.327C291.327 444.327 275.523 452.854 275.523 463.372C275.523 473.891 291.327 482.418 310.823 482.418Z" fill="#0086F4"/>
<path d="M379.718 488.64V508.647C379.718 519.166 395.522 527.693 415.018 527.693C434.514 527.693 450.318 519.166 450.318 508.647V488.64H379.718Z" fill="#629ACC"/>
<path d="M415.019 507.686C434.515 507.686 450.319 499.159 450.319 488.64C450.319 478.122 434.515 469.595 415.019 469.595C395.523 469.595 379.719 478.122 379.719 488.64C379.719 499.159 395.523 507.686 415.019 507.686Z" fill="#E94141"/>
<path d="M275.523 547.307V567.314C275.523 577.833 291.327 586.36 310.823 586.36C330.318 586.36 346.123 577.833 346.123 567.314V547.307H275.523Z" fill="#629ACC"/>
<path d="M310.823 566.353C330.318 566.353 346.123 557.826 346.123 547.307C346.123 536.789 330.318 528.262 310.823 528.262C291.327 528.262 275.523 536.789 275.523 547.307C275.523 557.826 291.327 566.353 310.823 566.353Z" fill="#E94141"/>
<path d="M379.718 572.576V592.582C379.718 603.101 395.522 611.628 415.018 611.628C434.514 611.628 450.318 603.101 450.318 592.582V572.576H379.718Z" fill="#629ACC"/>
<path d="M415.019 591.621C434.515 591.621 450.319 583.094 450.319 572.576C450.319 562.057 434.515 553.53 415.019 553.53C395.523 553.53 379.719 562.057 379.719 572.576C379.719 583.094 395.523 591.621 415.019 591.621Z" fill="#0086F4"/>
<path d="M202.164 527.588C202.164 547.117 172.824 562.953 136.618 562.953C100.423 562.953 71.0731 547.117 71.0731 527.588C71.0731 512.965 87.5217 500.416 110.971 495.033C118.853 493.228 127.513 492.222 136.618 492.222C145.724 492.222 154.394 493.228 162.277 495.033C185.726 500.426 202.164 512.975 202.164 527.588Z" fill="#E94141"/>
<path d="M162.277 495.033V508.225C162.277 522.371 150.765 533.883 136.618 533.883C122.483 533.883 110.971 522.371 110.971 508.225V495.033C118.853 493.228 127.513 492.222 136.618 492.222C145.724 492.222 154.394 493.228 162.277 495.033Z" fill="#C62525"/>
<path d="M148.794 385.82V508.229C148.794 514.951 143.345 520.4 136.624 520.4C129.902 520.4 124.453 514.951 124.453 508.229V385.82H148.794Z" fill="#629ACC"/>
<path d="M148.793 385.82H124.452V404.747H148.793V385.82Z" fill="#48709B"/>
<path d="M136.619 389.691C166.546 389.691 190.806 365.43 190.806 335.504C190.806 305.577 166.546 281.317 136.619 281.317C106.693 281.317 82.4326 305.577 82.4326 335.504C82.4326 365.43 106.693 389.691 136.619 389.691Z" fill="#E94141"/>
<path d="M189.127 348.915C183.164 372.353 161.913 389.694 136.618 389.694C111.323 389.694 90.0729 372.353 84.1096 348.915C95.5489 363.206 114.798 372.581 136.618 372.581C158.439 372.581 177.688 363.206 189.127 348.915Z" fill="#C62525"/>
<path d="M190.278 327.949C181.276 308.763 160.638 295.353 136.618 295.353C112.599 295.353 91.9605 308.763 82.9584 327.949C86.6297 301.597 109.259 281.321 136.618 281.321C163.987 281.321 186.607 301.597 190.278 327.949Z" fill="#F28383"/>
<path d="M523.222 404.166H486.923V387.754C486.923 383.459 483.44 379.976 479.145 379.976H478.107V361.578C478.107 357.282 474.625 353.799 470.329 353.799H464.884V347.048C464.884 334.038 454.3 323.454 441.29 323.454H255.907C251.475 323.454 247.869 319.848 247.869 315.416C247.869 310.984 251.475 307.378 255.907 307.378H441.29C454.3 307.378 464.884 296.794 464.884 283.784V261.746C464.884 257.45 461.402 253.967 457.106 253.967C452.81 253.967 449.328 257.45 449.328 261.746V283.784C449.328 288.216 445.722 291.822 441.29 291.822H255.907C242.897 291.822 232.312 302.407 232.312 315.416C232.312 328.426 242.897 339.01 255.907 339.01H441.29C445.722 339.01 449.328 342.616 449.328 347.048V353.799H443.883C439.587 353.799 436.104 357.282 436.104 361.578V379.976H435.067C430.772 379.976 427.289 383.459 427.289 387.754V404.166H398.342C394.047 404.166 390.564 407.648 390.564 411.944C390.564 416.24 394.047 419.722 398.342 419.722H515.443V510.486C515.443 514.782 518.926 518.264 523.222 518.264C527.517 518.264 531 514.782 531 510.486V411.944C531 407.648 527.517 404.166 523.222 404.166ZM451.661 369.356H462.551V379.976H451.661V369.356ZM442.846 395.533H471.366V404.166H442.846V395.533Z" fill="black"/>
<path d="M523.222 538.154C518.926 538.154 515.443 541.637 515.443 545.932V633.55V643.067H15.5566V633.55V419.722H116.671V486.016C85.0222 491.094 63.2958 507.812 63.2958 527.588C63.2958 551.781 95.5033 570.731 136.619 570.731C177.736 570.731 209.943 551.781 209.943 527.588C209.943 507.698 188.282 491.077 156.568 486.01V419.721H362.896C367.192 419.721 370.674 416.239 370.674 411.943C370.674 407.647 367.192 404.165 362.896 404.165H156.568V394.153C180.975 385.828 198.585 362.691 198.585 335.503C198.585 301.335 170.787 273.538 136.619 273.538C102.452 273.538 74.6542 301.335 74.6542 335.503C74.6542 362.692 92.2633 385.83 116.671 394.153V404.165H7.77832C3.48261 404.165 0 407.647 0 411.943V633.548V650.843V699.252C0 703.548 3.48261 707.031 7.77832 707.031H189.18C193.476 707.031 196.958 703.548 196.958 699.252C196.958 694.957 193.476 691.474 189.18 691.474H135.861V680.737C135.861 676.441 132.379 672.958 128.083 672.958C123.787 672.958 120.305 676.441 120.305 680.737V691.474H110.971V680.737C110.971 676.441 107.488 672.958 103.192 672.958C98.8967 672.958 95.4141 676.441 95.4141 680.737V691.474H86.0801V680.737C86.0801 676.441 82.5975 672.958 78.3018 672.958C74.0061 672.958 70.5234 676.441 70.5234 680.737V691.474H61.1895V680.737C61.1895 676.441 57.7068 672.958 53.4111 672.958C49.1154 672.958 45.6328 676.441 45.6328 680.737V691.474H15.5566V658.624H515.443V691.476H224.626C220.331 691.476 216.848 694.959 216.848 699.254C216.848 703.55 220.331 707.033 224.626 707.033H523.222C527.517 707.033 531 703.55 531 699.254V650.845V633.55V545.932C531 541.635 527.517 538.154 523.222 538.154ZM194.386 527.589C194.386 540.637 170.663 555.175 136.619 555.175C102.576 555.175 78.8525 540.637 78.8525 527.589C78.8525 516.451 94.7161 505.886 116.671 501.8V508.229C116.671 519.229 125.62 528.178 136.619 528.178C147.619 528.178 156.568 519.229 156.568 508.229V501.811C178.294 505.904 194.386 516.559 194.386 527.589ZM90.2109 335.504C90.2109 309.914 111.03 289.095 136.619 289.095C162.209 289.095 183.028 309.914 183.028 335.504C183.028 361.093 162.209 381.912 136.619 381.912C111.03 381.912 90.2109 361.092 90.2109 335.504ZM136.619 397.468C138.097 397.468 139.559 397.397 141.012 397.295V508.228C141.012 510.65 139.041 512.62 136.619 512.62C134.198 512.62 132.227 510.65 132.227 508.228V397.295C133.68 397.397 135.142 397.468 136.619 397.468Z" fill="black"/>
<path d="M353.902 463.372C353.902 448.08 335.383 436.548 310.823 436.548C286.263 436.548 267.743 448.08 267.743 463.372C267.743 463.376 267.743 463.381 267.743 463.386V483.379C267.743 498.671 286.263 510.204 310.822 510.204C335.38 510.204 353.901 498.671 353.901 483.379V463.372H353.902ZM310.823 452.104C327.368 452.104 338.346 458.886 338.346 463.371C338.346 467.857 327.369 474.639 310.823 474.639C294.286 474.639 283.311 467.864 283.301 463.378V463.371C283.301 463.37 283.301 463.368 283.301 463.367C283.307 458.882 294.283 452.104 310.823 452.104ZM310.823 494.646C295.504 494.646 284.966 488.833 283.487 484.411C290.822 488.058 300.261 490.196 310.823 490.196C321.385 490.196 330.824 488.058 338.159 484.411C336.681 488.833 326.142 494.646 310.823 494.646Z" fill="black"/>
<path d="M415.019 535.472C439.578 535.472 458.097 523.94 458.097 508.648V488.641C458.097 473.349 439.578 461.816 415.019 461.816C390.46 461.816 371.94 473.349 371.94 488.641V508.648C371.94 523.939 390.46 535.472 415.019 535.472ZM415.019 519.915C399.7 519.915 389.161 514.102 387.682 509.68C395.017 513.328 404.456 515.465 415.019 515.465C425.581 515.465 435.02 513.328 442.355 509.68C440.876 514.102 430.338 519.915 415.019 519.915ZM415.019 477.373C431.564 477.373 442.541 484.156 442.541 488.641C442.541 493.127 431.564 499.908 415.019 499.908C398.474 499.908 387.496 493.127 387.496 488.641C387.496 484.156 398.474 477.373 415.019 477.373Z" fill="black"/>
<path d="M310.823 594.139C335.381 594.139 353.902 582.608 353.902 567.315V547.308C353.902 532.016 335.383 520.484 310.823 520.484C286.263 520.484 267.743 532.016 267.743 547.308C267.743 547.313 267.743 547.318 267.743 547.322V567.315C267.744 582.607 286.264 594.139 310.823 594.139ZM310.823 578.583C295.504 578.583 284.966 572.77 283.487 568.347C290.822 571.995 300.261 574.132 310.823 574.132C321.385 574.132 330.824 571.995 338.16 568.347C336.681 572.77 326.142 578.583 310.823 578.583ZM310.823 536.039C327.368 536.039 338.346 542.822 338.346 547.307C338.346 551.793 327.369 558.575 310.823 558.575C294.286 558.575 283.311 551.8 283.301 547.314V547.306C283.301 547.305 283.301 547.303 283.301 547.302C283.307 542.818 294.283 536.039 310.823 536.039Z" fill="black"/>
<path d="M371.94 592.583C371.94 607.876 390.459 619.407 415.019 619.407C439.579 619.407 458.097 607.876 458.097 592.583V572.577C458.097 557.284 439.578 545.753 415.019 545.753C390.46 545.753 371.94 557.284 371.94 572.577V592.583ZM415.019 603.851C399.7 603.851 389.161 598.038 387.682 593.615C395.017 597.263 404.456 599.4 415.019 599.4C425.581 599.4 435.02 597.263 442.355 593.615C440.876 598.038 430.338 603.851 415.019 603.851ZM415.019 561.308C431.564 561.308 442.541 568.09 442.541 572.576C442.541 577.061 431.564 583.843 415.019 583.843C398.474 583.843 387.496 577.061 387.496 572.576C387.496 568.09 398.474 561.308 415.019 561.308Z" fill="black"/>
<path d="M29.0391 617.917V618.89C29.0391 623.186 32.5217 626.668 36.8174 626.668C41.1131 626.668 44.5957 623.186 44.5957 618.89V617.917C44.5957 613.621 41.1131 610.139 36.8174 610.139C32.5217 610.139 29.0391 613.621 29.0391 617.917Z" fill="black"/>
<path d="M50.8184 617.917V618.89C50.8184 623.186 54.301 626.668 58.5967 626.668C62.8924 626.668 66.375 623.186 66.375 618.89V617.917C66.375 613.621 62.8924 610.139 58.5967 610.139C54.301 610.139 50.8184 613.621 50.8184 617.917Z" fill="black"/>
<path d="M480.182 441.544V440.571C480.182 436.276 476.699 432.793 472.403 432.793C468.108 432.793 464.625 436.276 464.625 440.571V441.544C464.625 445.84 468.108 449.322 472.403 449.322C476.699 449.322 480.182 445.84 480.182 441.544Z" fill="black"/>
<path d="M501.961 441.544V440.571C501.961 436.276 498.478 432.793 494.183 432.793C489.887 432.793 486.404 436.276 486.404 440.571V441.544C486.404 445.84 489.887 449.322 494.183 449.322C498.478 449.322 501.961 445.84 501.961 441.544Z" fill="black"/>
<line x1="453.749" y1="0.902081" x2="457.047" y2="261.902" stroke="black" stroke-width="15.5"/>
</svg>
