<svg width="88" height="88" viewBox="0 0 88 88" fill="none" xmlns="http://www.w3.org/2000/svg">
<path d="M35.827 87.9001L51.7501 87.9471L51.7971 72.0241L35.874 71.977L35.827 87.9001Z" fill="#34B515"/>
<path d="M53.7182 87.953L69.6413 88L69.6883 72.0769L53.7653 72.0299L53.7182 87.953Z" fill="#34B515"/>
<path d="M69.6413 88L53.738 87.953L53.7849 72.0497" fill="#129B0B"/>
<path d="M51.7501 87.9471L35.8467 87.9002L35.8937 71.9968" fill="#129B0B"/>
<path d="M17.9134 87.8472L33.8365 87.8942L33.8835 71.9711L17.9605 71.9241L17.9134 87.8472Z" fill="#34B515"/>
<path d="M33.8365 87.8942L17.9134 87.8472L17.9605 71.9241" fill="#129B0B"/>
<path d="M2.35074e-05 87.7943L15.9231 87.8413L15.9701 71.9182L0.0470668 71.8712L2.35074e-05 87.7943Z" fill="#34B515"/>
<path d="M15.9231 87.8413L2.35074e-05 87.7943L0.0470668 71.8712" fill="#129B0B"/>
<path d="M71.6653 54.0241L71.6182 69.9471L87.5413 69.9942L87.5883 54.0711L71.6653 54.0241Z" fill="#049CBF"/>
<path d="M71.6124 71.9153L71.5653 87.8384L87.4884 87.8855L87.5354 71.9624L71.6124 71.9153Z" fill="#049CBF"/>
<path d="M71.5653 87.8384L71.6123 71.9351L87.5156 71.9821" fill="#047BA0"/>
<path d="M35.827 87.9001L51.7501 87.9471L51.7971 72.0241L35.874 71.977L35.827 87.9001Z" fill="#34B515"/>
<path d="M53.7182 87.953L69.6413 88L69.6883 72.0769L53.7653 72.0299L53.7182 87.953Z" fill="#34B515"/>
<path d="M69.6413 88L53.738 87.953L53.7849 72.0497" fill="#129B0B"/>
<path d="M51.7501 87.9471L35.8467 87.9002L35.8937 71.9968" fill="#129B0B"/>
<path d="M17.9134 87.8472L33.8365 87.8942L33.8835 71.9711L17.9605 71.9241L17.9134 87.8472Z" fill="#34B515"/>
<path d="M33.8365 87.8942L17.9134 87.8472L17.9605 71.9241" fill="#129B0B"/>
<path d="M2.35074e-05 87.7943L15.9231 87.8413L15.9701 71.9182L0.0470668 71.8712L2.35074e-05 87.7943Z" fill="#34B515"/>
<path d="M15.9231 87.8413L2.35074e-05 87.7943L0.0470668 71.8712" fill="#129B0B"/>
<path d="M53.7183 16.0289L69.6414 16.076L69.6884 0.152894L53.7653 0.10585L53.7183 16.0289Z" fill="#CE351B"/>
<path d="M71.6095 16.0818L87.5326 16.1288L87.5796 0.20575L71.6566 0.158707L71.6095 16.0818Z" fill="#CE351B"/>
<path d="M87.5326 16.1288L71.6293 16.0818L71.6762 0.178497" fill="#A50C00"/>
<path d="M69.6414 16.076L53.738 16.029L53.785 0.12564" fill="#A50C00"/>
<path d="M35.8048 15.976L51.7279 16.023L51.7749 0.0999457L35.8519 0.0529024L35.8048 15.976Z" fill="#CE351B"/>
<path d="M51.7279 16.023L35.8048 15.976L35.8519 0.0529024" fill="#A50C00"/>
<path d="M17.8914 15.9231L33.8145 15.9701L33.8615 0.0470435L17.9384 2.04884e-07L17.8914 15.9231Z" fill="#CE351B"/>
<path d="M33.8145 15.9701L17.8914 15.9231L17.9384 2.04884e-07" fill="#A50C00"/>
<path d="M53.7183 16.0289L69.6414 16.076L69.6884 0.152894L53.7653 0.10585L53.7183 16.0289Z" fill="#CE351B"/>
<path d="M71.6095 16.0818L87.5326 16.1288L87.5796 0.20575L71.6566 0.158707L71.6095 16.0818Z" fill="#CE351B"/>
<path d="M87.5326 16.1288L71.6293 16.0818L71.6762 0.178497" fill="#A50C00"/>
<path d="M69.6414 16.076L53.738 16.029L53.785 0.12564" fill="#A50C00"/>
<path d="M35.8048 15.976L51.7279 16.023L51.7749 0.0999457L35.8519 0.0529024L35.8048 15.976Z" fill="#CE351B"/>
<path d="M51.7279 16.023L35.8048 15.976L35.8519 0.0529024" fill="#A50C00"/>
<path d="M17.8914 15.9231L33.8145 15.9701L33.8615 0.0470435L17.9384 2.04884e-07L17.8914 15.9231Z" fill="#CE351B"/>
<path d="M33.8145 15.9701L17.8914 15.9231L17.9384 2.04884e-07" fill="#A50C00"/>
<path d="M71.6124 71.9153L71.5653 87.8384L87.4884 87.8855L87.5354 71.9624L71.6124 71.9153Z" fill="#049CBF"/>
<path d="M71.5653 87.8384L71.6123 71.9351L87.5156 71.9821" fill="#047BA0"/>
<path d="M71.6182 69.9471L71.6652 54.0438L87.5686 54.0908" fill="#047BA0"/>
<path d="M71.7182 36.1106L71.6711 52.0337L87.5942 52.0807L87.6413 36.1577L71.7182 36.1106Z" fill="#049CBF"/>
<path d="M71.6711 52.0337L71.7182 36.1106L87.6413 36.1577" fill="#047BA0"/>
<path d="M71.7711 18.1972L71.7241 34.1202L87.6471 34.1673L87.6942 18.2442L71.7711 18.1972Z" fill="#049CBF"/>
<path d="M71.7241 34.1202L71.7711 18.1972L87.6942 18.2442" fill="#047BA0"/>
<path d="M0.0998699 35.9798L0.0528259 51.9029L15.9759 51.9499L16.0229 36.0269L0.0998699 35.9798Z" fill="#835EA5"/>
<path d="M0.047044 53.8711L0 69.7942L15.9231 69.8412L15.9701 53.9181L0.047044 53.8711Z" fill="#835EA5"/>
<path d="M0 69.7942L0.0469857 53.8908L15.9503 53.9378" fill="#683C96"/>
<path d="M0.0528259 51.9029L0.0998116 35.9996L16.0032 36.0465" fill="#683C96"/>
<path d="M0.152879 18.0664L0.105835 33.9894L16.0289 34.0365L16.076 18.1134L0.152879 18.0664Z" fill="#835EA5"/>
<path d="M0.105835 33.9894L0.152879 18.0664L16.076 18.1134" fill="#683C96"/>
<path d="M0.205796 0.152924L0.158752 16.076L16.0818 16.123L16.1289 0.199968L0.205796 0.152924Z" fill="#835EA5"/>
<path d="M0.158752 16.076L0.205796 0.152924L16.1289 0.199968" fill="#683C96"/>
<path d="M58 33.1486V28H29V33.1486H40.4242V62H46.5241V33.1486H58Z" fill="white"/>
</svg>
