<svg width="83" height="83" viewBox="0 0 83 83" fill="none" xmlns="http://www.w3.org/2000/svg">
<g clip-path="url(#clip0)">
<path d="M1.16891 15.2929L10.1502 21.1997V58.7814L0.7712 68.0359C-0.874967 69.6648 0.283575 72.4764 2.59374 72.4764H22.8907C25.1974 72.4764 26.3629 69.6683 24.7132 68.0359L15.3342 58.7814V31.4191C24.9519 51.8786 34.3274 71.7882 34.1026 71.3352C35.0502 73.258 38.0486 73.3099 38.8613 71.0758L38.8647 71.0689C38.8647 71.0689 38.8682 71.0654 38.8682 71.062C41.1161 64.8612 45.937 51.5639 45.6292 52.4077C45.8022 51.927 54.0019 28.5245 54.1298 28.1613V61.9596L48.1089 68.0636C46.4938 69.7029 47.6593 72.4799 49.9556 72.4799H80.4063C82.6957 72.4799 83.8646 69.7167 82.2599 68.074L76.4741 62.1499L76.2424 20.8816L82.2288 14.9747C83.875 13.3458 82.7164 10.5342 80.4063 10.5342C77.9785 10.5342 89.2077 10.5308 56.6475 10.5481C53.3344 10.6449 54.4549 13.6225 42.8626 44.3429L28.6488 12.0801C28.2338 11.1394 27.3001 10.5308 26.273 10.5308H2.59374C0.0276584 10.5342 -0.978717 13.8853 1.16891 15.2929ZM8.91212 67.2924L12.7405 63.5124L16.5689 67.2924H8.91212ZM59.3173 15.7217H74.0879C72.4313 17.5719 71.0411 18.1114 71.048 19.8198L71.2935 63.2254C71.3005 64.8716 72.6458 65.4491 74.247 67.2889H56.1599C57.9478 65.2589 59.3208 64.7021 59.3208 63.0214V15.7217H59.3173ZM24.5818 15.7217L40.3311 51.4636L36.0912 63.3845C14.7325 18.025 15.483 17.3126 11.2569 15.7217H24.5818Z" fill="#34B515"/>
</g>
<defs>
<clipPath id="clip0">
<rect width="83" height="83" fill="white"/>
</clipPath>
</defs>
</svg>
