<svg width="297" height="429" viewBox="0 0 297 429" fill="none" xmlns="http://www.w3.org/2000/svg">
<rect x="0.895508" width="295.66" height="428.405" fill="#202020"/>
<path d="M0.710462 120.012L0.679199 130.593L11.2609 130.625L11.2922 120.043L0.710462 120.012Z" fill="#34B515"/>
<path d="M0.675062 131.901L0.643799 142.483L11.2255 142.514L11.2568 131.932L0.675062 131.901Z" fill="#34B515"/>
<path d="M0.643799 142.483L0.675023 131.914L11.2436 131.945" fill="#129B0B"/>
<path d="M0.679199 130.593L0.710424 120.025L11.279 120.056" fill="#129B0B"/>
<path d="M0.74513 108.107L0.713867 118.689L11.2956 118.72L11.3268 108.138L0.74513 108.107Z" fill="#34B515"/>
<path d="M0.713867 118.689L0.74513 108.107L11.3268 108.138" fill="#129B0B"/>
<path d="M0.64388 106.435L11.2256 106.466L11.2568 95.8842L0.675143 95.853L0.64388 106.435Z" fill="#34B515"/>
<path d="M11.2256 106.466L0.64388 106.435L0.675143 95.853" fill="#129B0B"/>
<path d="M11.4299 166.333L11.4612 155.752L0.879476 155.721L0.848212 166.302L11.4299 166.333Z" fill="#049CBF"/>
<path d="M11.4648 154.444L11.4961 143.862L0.914388 143.831L0.883124 154.413L11.4648 154.444Z" fill="#049CBF"/>
<path d="M11.4961 143.862L11.4649 154.431L0.896274 154.4" fill="#047BA0"/>
<path d="M0.710462 120.012L0.679199 130.593L11.2609 130.625L11.2922 120.043L0.710462 120.012Z" fill="#34B515"/>
<path d="M0.675062 131.901L0.643799 142.483L11.2255 142.514L11.2568 131.932L0.675062 131.901Z" fill="#34B515"/>
<path d="M0.643799 142.483L0.675023 131.914L11.2436 131.945" fill="#129B0B"/>
<path d="M0.679199 130.593L0.710424 120.025L11.279 120.056" fill="#129B0B"/>
<path d="M0.74513 108.107L0.713867 118.689L11.2956 118.72L11.3268 108.138L0.74513 108.107Z" fill="#34B515"/>
<path d="M0.713867 118.689L0.74513 108.107L11.3268 108.138" fill="#129B0B"/>
<path d="M0.64388 106.435L11.2256 106.466L11.2568 95.8842L0.675143 95.853L0.64388 106.435Z" fill="#34B515"/>
<path d="M11.2256 106.466L0.64388 106.435L0.675143 95.853" fill="#129B0B"/>
<path d="M262.135 428.463L272.717 428.494L272.748 417.912L262.166 417.881L262.135 428.463Z" fill="#34B515"/>
<path d="M274.025 428.498L284.606 428.529L284.638 417.948L274.056 417.916L274.025 428.498Z" fill="#34B515"/>
<path d="M284.606 428.529L274.038 428.498L274.069 417.929" fill="#129B0B"/>
<path d="M272.717 428.494L262.148 428.463L262.179 417.894" fill="#129B0B"/>
<path d="M250.23 428.428L260.812 428.459L260.843 417.877L250.262 417.846L250.23 428.428Z" fill="#34B515"/>
<path d="M260.812 428.459L250.23 428.428L250.262 417.846" fill="#129B0B"/>
<path d="M248.558 428.529L248.589 417.948L238.008 417.916L237.976 428.498L248.558 428.529Z" fill="#34B515"/>
<path d="M248.589 417.948L248.558 428.529L237.976 428.498" fill="#129B0B"/>
<path d="M262.135 428.463L272.717 428.494L272.748 417.912L262.166 417.881L262.135 428.463Z" fill="#34B515"/>
<path d="M274.025 428.498L284.606 428.529L284.638 417.948L274.056 417.916L274.025 428.498Z" fill="#34B515"/>
<path d="M284.606 428.529L274.038 428.498L274.069 417.929" fill="#129B0B"/>
<path d="M272.717 428.494L262.148 428.463L262.179 417.894" fill="#129B0B"/>
<path d="M250.23 428.428L260.812 428.459L260.843 417.877L250.262 417.846L250.23 428.428Z" fill="#34B515"/>
<path d="M260.812 428.459L250.23 428.428L250.262 417.846" fill="#129B0B"/>
<path d="M248.558 428.529L248.589 417.948L238.008 417.916L237.976 428.498L248.558 428.529Z" fill="#34B515"/>
<path d="M248.589 417.948L248.558 428.529L237.976 428.498" fill="#129B0B"/>
<path d="M131.645 10.7691L142.227 10.8004L142.258 0.218648L131.677 0.187386L131.645 10.7691Z" fill="#34B515"/>
<path d="M143.535 10.8042L154.117 10.8354L154.148 0.253743L143.566 0.222481L143.535 10.8042Z" fill="#34B515"/>
<path d="M154.117 10.8354L143.548 10.8042L143.579 0.235631" fill="#129B0B"/>
<path d="M142.227 10.8004L131.659 10.7691L131.69 0.200535" fill="#129B0B"/>
<path d="M119.741 10.7339L130.323 10.7651L130.354 0.183431L119.772 0.152168L119.741 10.7339Z" fill="#34B515"/>
<path d="M130.323 10.7651L119.741 10.7339L119.772 0.152168" fill="#129B0B"/>
<path d="M107.837 10.6987L118.418 10.73L118.45 0.148275L107.868 0.117012L107.837 10.6987Z" fill="#34B515"/>
<path d="M118.418 10.73L107.837 10.6987L107.868 0.117012" fill="#129B0B"/>
<path d="M131.645 10.7691L142.227 10.8004L142.258 0.218648L131.677 0.187386L131.645 10.7691Z" fill="#34B515"/>
<path d="M143.535 10.8042L154.117 10.8354L154.148 0.253743L143.566 0.222481L143.535 10.8042Z" fill="#34B515"/>
<path d="M154.117 10.8354L143.548 10.8042L143.579 0.235631" fill="#129B0B"/>
<path d="M142.227 10.8004L131.659 10.7691L131.69 0.200535" fill="#129B0B"/>
<path d="M119.741 10.7339L130.323 10.7651L130.354 0.183431L119.772 0.152168L119.741 10.7339Z" fill="#34B515"/>
<path d="M130.323 10.7651L119.741 10.7339L119.772 0.152168" fill="#129B0B"/>
<path d="M107.837 10.6987L118.418 10.73L118.45 0.148275L107.868 0.117012L107.837 10.6987Z" fill="#34B515"/>
<path d="M118.418 10.73L107.837 10.6987L107.868 0.117012" fill="#129B0B"/>
<path d="M36.3425 10.8861L46.9242 10.9174L46.9555 0.335653L36.3738 0.30439L36.3425 10.8861Z" fill="#CE351B"/>
<path d="M48.232 10.9213L58.8137 10.9525L58.845 0.370809L48.2633 0.339546L48.232 10.9213Z" fill="#CE351B"/>
<path d="M58.8137 10.9525L48.2451 10.9213L48.2763 0.352696" fill="#A50C00"/>
<path d="M46.9242 10.9174L36.3556 10.8861L36.3868 0.31754" fill="#A50C00"/>
<path d="M24.4381 10.851L35.0198 10.8823L35.051 0.300557L24.4693 0.269295L24.4381 10.851Z" fill="#CE351B"/>
<path d="M35.0198 10.8823L24.4381 10.851L24.4693 0.269295" fill="#A50C00"/>
<path d="M12.5337 10.8157L23.1154 10.847L23.1466 0.265279L12.5649 0.234016L12.5337 10.8157Z" fill="#CE351B"/>
<path d="M23.1154 10.847L12.5337 10.8157L12.5649 0.234016" fill="#A50C00"/>
<path d="M36.3425 10.8861L46.9242 10.9174L46.9555 0.335653L36.3738 0.30439L36.3425 10.8861Z" fill="#CE351B"/>
<path d="M48.232 10.9213L58.8137 10.9525L58.845 0.370809L48.2633 0.339546L48.232 10.9213Z" fill="#CE351B"/>
<path d="M58.8137 10.9525L48.2451 10.9213L48.2763 0.352696" fill="#A50C00"/>
<path d="M46.9242 10.9174L36.3556 10.8861L36.3868 0.31754" fill="#A50C00"/>
<path d="M24.4381 10.851L35.0198 10.8823L35.051 0.300557L24.4693 0.269295L24.4381 10.851Z" fill="#CE351B"/>
<path d="M35.0198 10.8823L24.4381 10.851L24.4693 0.269295" fill="#A50C00"/>
<path d="M12.5337 10.8157L23.1154 10.847L23.1466 0.265279L12.5649 0.234016L12.5337 10.8157Z" fill="#CE351B"/>
<path d="M23.1154 10.847L12.5337 10.8157L12.5649 0.234016" fill="#A50C00"/>
<path d="M0.844007 215.268L0.812744 225.85L11.3944 225.881L11.4257 215.299L0.844007 215.268Z" fill="#CE351B"/>
<path d="M0.808851 227.158L0.777588 237.739L11.3593 237.771L11.3906 227.189L0.808851 227.158Z" fill="#CE351B"/>
<path d="M0.777588 237.739L0.808812 227.171L11.3774 227.202" fill="#A50C00"/>
<path d="M0.812744 225.85L0.843969 215.281L11.4126 215.312" fill="#A50C00"/>
<path d="M0.879164 203.364L0.8479 213.945L11.4296 213.977L11.4609 203.395L0.879164 203.364Z" fill="#CE351B"/>
<path d="M0.8479 213.945L0.879164 203.364L11.4609 203.395" fill="#A50C00"/>
<path d="M0.91432 191.459L0.883057 202.041L11.4648 202.072L11.496 191.49L0.91432 191.459Z" fill="#CE351B"/>
<path d="M0.883057 202.041L0.91432 191.459L11.496 191.49" fill="#A50C00"/>
<path d="M0.844007 215.268L0.812744 225.85L11.3944 225.881L11.4257 215.299L0.844007 215.268Z" fill="#CE351B"/>
<path d="M0.808851 227.158L0.777588 237.739L11.3593 237.771L11.3906 227.189L0.808851 227.158Z" fill="#CE351B"/>
<path d="M0.777588 237.739L0.808812 227.171L11.3774 227.202" fill="#A50C00"/>
<path d="M0.812744 225.85L0.843969 215.281L11.4126 215.312" fill="#A50C00"/>
<path d="M0.879164 203.364L0.8479 213.945L11.4296 213.977L11.4609 203.395L0.879164 203.364Z" fill="#CE351B"/>
<path d="M0.8479 213.945L0.879164 203.364L11.4609 203.395" fill="#A50C00"/>
<path d="M0.91432 191.459L0.883057 202.041L11.4648 202.072L11.496 191.49L0.91432 191.459Z" fill="#CE351B"/>
<path d="M0.883057 202.041L0.91432 191.459L11.496 191.49" fill="#A50C00"/>
<path d="M11.4648 154.444L11.4961 143.862L0.914388 143.831L0.883124 154.413L11.4648 154.444Z" fill="#049CBF"/>
<path d="M11.4961 143.862L11.4649 154.431L0.896274 154.4" fill="#047BA0"/>
<path d="M11.4612 155.752L11.43 166.32L0.861362 166.289" fill="#047BA0"/>
<path d="M11.3945 178.238L11.4258 167.656L0.844075 167.625L0.812811 178.207L11.3945 178.238Z" fill="#049CBF"/>
<path d="M11.4258 167.656L11.3945 178.238L0.812811 178.207" fill="#047BA0"/>
<path d="M11.3594 190.142L11.3906 179.561L0.808919 179.529L0.777655 190.111L11.3594 190.142Z" fill="#049CBF"/>
<path d="M11.3906 179.561L11.3594 190.142L0.777655 190.111" fill="#047BA0"/>
<path d="M273.273 11.0361L262.691 11.0673L262.66 0.485616L273.241 0.454353L273.273 11.0361Z" fill="#34B515"/>
<path d="M261.383 11.0713L250.801 11.1025L250.77 0.520833L261.351 0.489571L261.383 11.0713Z" fill="#34B515"/>
<path d="M250.801 11.1025L261.37 11.0713L261.338 0.502721" fill="#129B0B"/>
<path d="M262.691 11.0673L273.259 11.0361L273.228 0.467503" fill="#129B0B"/>
<path d="M285.177 11.0009L274.595 11.0322L274.564 0.45046L285.146 0.419197L285.177 11.0009Z" fill="#34B515"/>
<path d="M274.595 11.0322L285.177 11.0009L285.146 0.419197" fill="#129B0B"/>
<path d="M226.951 0.316664L237.532 0.2854L237.563 10.8671L226.982 10.8984L226.951 0.316664Z" fill="#049CBF"/>
<path d="M238.84 0.281386L249.422 0.250122L249.453 10.8318L238.871 10.8631L238.84 0.281386Z" fill="#049CBF"/>
<path d="M249.422 0.250122L238.853 0.281347L238.884 10.8499" fill="#047BA0"/>
<path d="M273.273 11.0361L262.691 11.0673L262.66 0.485616L273.241 0.454353L273.273 11.0361Z" fill="#34B515"/>
<path d="M261.383 11.0713L250.801 11.1025L250.77 0.520833L261.351 0.489571L261.383 11.0713Z" fill="#34B515"/>
<path d="M250.801 11.1025L261.37 11.0713L261.338 0.502721" fill="#129B0B"/>
<path d="M262.691 11.0673L273.259 11.0361L273.228 0.467503" fill="#129B0B"/>
<path d="M285.177 11.0009L274.595 11.0322L274.564 0.45046L285.146 0.419197L285.177 11.0009Z" fill="#34B515"/>
<path d="M274.595 11.0322L285.177 11.0009L285.146 0.419197" fill="#129B0B"/>
<path d="M178.016 10.9023L167.434 10.9335L167.403 0.351827L177.985 0.320564L178.016 10.9023Z" fill="#CE351B"/>
<path d="M166.126 10.9374L155.545 10.9686L155.513 0.386922L166.095 0.355659L166.126 10.9374Z" fill="#CE351B"/>
<path d="M155.545 10.9686L166.113 10.9374L166.082 0.368809" fill="#A50C00"/>
<path d="M167.434 10.9335L178.003 10.9023L177.972 0.333714" fill="#A50C00"/>
<path d="M189.92 10.8671L179.339 10.8984L179.307 0.316671L189.889 0.285408L189.92 10.8671Z" fill="#CE351B"/>
<path d="M179.339 10.8984L189.92 10.8671L189.889 0.285408" fill="#A50C00"/>
<path d="M201.825 10.8319L191.243 10.8632L191.212 0.281453L201.793 0.250191L201.825 10.8319Z" fill="#CE351B"/>
<path d="M191.243 10.8632L201.825 10.8319L201.793 0.250191" fill="#A50C00"/>
<path d="M178.016 10.9023L167.434 10.9335L167.403 0.351827L177.985 0.320564L178.016 10.9023Z" fill="#CE351B"/>
<path d="M166.126 10.9374L155.545 10.9686L155.513 0.386922L166.095 0.355659L166.126 10.9374Z" fill="#CE351B"/>
<path d="M155.545 10.9686L166.113 10.9374L166.082 0.368809" fill="#A50C00"/>
<path d="M167.434 10.9335L178.003 10.9023L177.972 0.333714" fill="#A50C00"/>
<path d="M189.92 10.8671L179.339 10.8984L179.307 0.316671L189.889 0.285408L189.92 10.8671Z" fill="#CE351B"/>
<path d="M179.339 10.8984L189.92 10.8671L189.889 0.285408" fill="#A50C00"/>
<path d="M201.825 10.8319L191.243 10.8632L191.212 0.281453L201.793 0.250191L201.825 10.8319Z" fill="#CE351B"/>
<path d="M191.243 10.8632L201.825 10.8319L201.793 0.250191" fill="#A50C00"/>
<path d="M238.84 0.281386L249.422 0.250122L249.453 10.8318L238.871 10.8631L238.84 0.281386Z" fill="#049CBF"/>
<path d="M249.422 0.250122L238.853 0.281347L238.884 10.8499" fill="#047BA0"/>
<path d="M237.532 0.2854L226.964 0.316625L226.995 10.8852" fill="#047BA0"/>
<path d="M215.046 0.351698L225.628 0.320435L225.659 10.9021L215.077 10.9334L215.046 0.351698Z" fill="#049CBF"/>
<path d="M225.628 0.320435L215.046 0.351698L215.077 10.9334" fill="#047BA0"/>
<path d="M203.142 0.386915L213.723 0.355652L213.755 10.9374L203.173 10.9686L203.142 0.386915Z" fill="#049CBF"/>
<path d="M213.723 0.355652L203.142 0.386915L203.173 10.9686" fill="#047BA0"/>
<path d="M82.7111 0.0664199L72.1294 0.0351562L72.0981 10.6169L82.6798 10.6481L82.7111 0.0664199Z" fill="#049CBF"/>
<path d="M70.8215 0.0312636L60.2397 0L60.2085 10.5817L70.7902 10.613L70.8215 0.0312636Z" fill="#049CBF"/>
<path d="M60.2397 0L70.8083 0.0312249L70.7771 10.5998" fill="#047BA0"/>
<path d="M70.8215 0.0312636L60.2397 0L60.2085 10.5817L70.7902 10.613L70.8215 0.0312636Z" fill="#049CBF"/>
<path d="M60.2397 0L70.8083 0.0312249L70.7771 10.5998" fill="#047BA0"/>
<path d="M72.1294 0.0351562L82.698 0.0663811L82.6668 10.635" fill="#047BA0"/>
<path d="M94.6154 0.101576L84.0337 0.0703125L84.0024 10.652L94.5841 10.6833L94.6154 0.101576Z" fill="#049CBF"/>
<path d="M84.0337 0.0703125L94.6154 0.101576L94.5841 10.6833" fill="#047BA0"/>
<path d="M106.52 0.136793L95.9381 0.10553L95.9068 10.6872L106.489 10.7185L106.52 0.136793Z" fill="#049CBF"/>
<path d="M95.9381 0.10553L106.52 0.136793L106.489 10.7185" fill="#047BA0"/>
<path d="M0.474623 358.204L0.443359 368.786L11.0251 368.817L11.0563 358.236L0.474623 358.204Z" fill="#34B515"/>
<path d="M0.43971 370.094L0.408447 380.676L10.9902 380.707L11.0214 370.125L0.43971 370.094Z" fill="#34B515"/>
<path d="M0.408447 380.676L0.439672 370.107L11.0083 370.138" fill="#129B0B"/>
<path d="M0.443359 368.786L0.474584 358.218L11.0432 358.249" fill="#129B0B"/>
<path d="M0.510023 346.3L0.47876 356.882L11.0605 356.913L11.0917 346.331L0.510023 346.3Z" fill="#34B515"/>
<path d="M0.47876 356.882L0.510023 346.3L11.0917 346.331" fill="#129B0B"/>
<path d="M0.544935 334.395L0.513672 344.977L11.0954 345.008L11.1266 334.427L0.544935 334.395Z" fill="#34B515"/>
<path d="M0.513672 344.977L0.544935 334.395L11.1266 334.427" fill="#129B0B"/>
<path d="M0.474623 358.204L0.443359 368.786L11.0251 368.817L11.0563 358.236L0.474623 358.204Z" fill="#34B515"/>
<path d="M0.43971 370.094L0.408447 380.676L10.9902 380.707L11.0214 370.125L0.43971 370.094Z" fill="#34B515"/>
<path d="M0.408447 380.676L0.439672 370.107L11.0083 370.138" fill="#129B0B"/>
<path d="M0.443359 368.786L0.474584 358.218L11.0432 358.249" fill="#129B0B"/>
<path d="M0.510023 346.3L0.47876 356.882L11.0605 356.913L11.0917 346.331L0.510023 346.3Z" fill="#34B515"/>
<path d="M0.47876 356.882L0.510023 346.3L11.0917 346.331" fill="#129B0B"/>
<path d="M0.544935 334.395L0.513672 344.977L11.0954 345.008L11.1266 334.427L0.544935 334.395Z" fill="#34B515"/>
<path d="M0.513672 344.977L0.544935 334.395L11.1266 334.427" fill="#129B0B"/>
<path d="M0.357679 262.901L0.326416 273.483L10.9081 273.514L10.9394 262.932L0.357679 262.901Z" fill="#CE351B"/>
<path d="M0.322279 274.791L0.291016 285.373L10.8727 285.404L10.904 274.822L0.322279 274.791Z" fill="#CE351B"/>
<path d="M0.291016 285.373L0.32224 274.804L10.8908 274.835" fill="#A50C00"/>
<path d="M0.326416 273.483L0.35764 262.914L10.9262 262.946" fill="#A50C00"/>
<path d="M0.392835 250.997L0.361572 261.578L10.9433 261.61L10.9745 251.028L0.392835 250.997Z" fill="#CE351B"/>
<path d="M0.361572 261.578L0.392835 250.997L10.9745 251.028" fill="#A50C00"/>
<path d="M0.427748 239.092L0.396484 249.674L10.9782 249.705L11.0095 239.124L0.427748 239.092Z" fill="#CE351B"/>
<path d="M0.396484 249.674L0.427748 239.092L11.0095 239.124" fill="#A50C00"/>
<path d="M0.357679 262.901L0.326416 273.483L10.9081 273.514L10.9394 262.932L0.357679 262.901Z" fill="#CE351B"/>
<path d="M0.322279 274.791L0.291016 285.373L10.8727 285.404L10.904 274.822L0.322279 274.791Z" fill="#CE351B"/>
<path d="M0.291016 285.373L0.32224 274.804L10.8908 274.835" fill="#A50C00"/>
<path d="M0.326416 273.483L0.35764 262.914L10.9262 262.946" fill="#A50C00"/>
<path d="M0.392835 250.997L0.361572 261.578L10.9433 261.61L10.9745 251.028L0.392835 250.997Z" fill="#CE351B"/>
<path d="M0.361572 261.578L0.392835 250.997L10.9745 251.028" fill="#A50C00"/>
<path d="M0.427748 239.092L0.396484 249.674L10.9782 249.705L11.0095 239.124L0.427748 239.092Z" fill="#CE351B"/>
<path d="M0.396484 249.674L0.427748 239.092L11.0095 239.124" fill="#A50C00"/>
<path d="M81.5855 428.38L71.0038 428.412L70.9725 417.83L81.5542 417.799L81.5855 428.38Z" fill="#34B515"/>
<path d="M69.6958 428.416L59.1141 428.447L59.0829 417.865L69.6646 417.834L69.6958 428.416Z" fill="#34B515"/>
<path d="M59.1141 428.447L69.6827 428.416L69.6515 417.847" fill="#129B0B"/>
<path d="M71.0038 428.412L81.5724 428.381L81.5412 417.812" fill="#129B0B"/>
<path d="M93.49 428.345L82.9083 428.377L82.8771 417.795L93.4588 417.764L93.49 428.345Z" fill="#34B515"/>
<path d="M82.9083 428.377L93.49 428.345L93.4588 417.764" fill="#129B0B"/>
<path d="M35.2634 417.661L45.8451 417.63L45.8764 428.211L35.2946 428.243L35.2634 417.661Z" fill="#049CBF"/>
<path d="M47.153 417.626L57.7347 417.595L57.766 428.176L47.1843 428.208L47.153 417.626Z" fill="#049CBF"/>
<path d="M57.7347 417.595L47.1661 417.626L47.1974 428.194" fill="#047BA0"/>
<path d="M81.5855 428.38L71.0038 428.412L70.9725 417.83L81.5542 417.799L81.5855 428.38Z" fill="#34B515"/>
<path d="M69.6958 428.416L59.1141 428.447L59.0829 417.865L69.6646 417.834L69.6958 428.416Z" fill="#34B515"/>
<path d="M59.1141 428.447L69.6827 428.416L69.6515 417.847" fill="#129B0B"/>
<path d="M71.0038 428.412L81.5724 428.381L81.5412 417.812" fill="#129B0B"/>
<path d="M93.49 428.345L82.9083 428.377L82.8771 417.795L93.4588 417.764L93.49 428.345Z" fill="#34B515"/>
<path d="M82.9083 428.377L93.49 428.345L93.4588 417.764" fill="#129B0B"/>
<path d="M0.341565 404.575L0.310303 393.993L10.892 393.962L10.9233 404.543L0.341565 404.575Z" fill="#CE351B"/>
<path d="M0.306409 392.685L0.275146 382.104L10.8569 382.072L10.8881 392.654L0.306409 392.685Z" fill="#CE351B"/>
<path d="M0.275146 382.104L0.30637 392.672L10.875 392.641" fill="#A50C00"/>
<path d="M0.310303 393.993L0.341526 404.562L10.9101 404.53" fill="#A50C00"/>
<path d="M0.376477 416.479L0.345215 405.897L10.9269 405.866L10.9582 416.448L0.376477 416.479Z" fill="#CE351B"/>
<path d="M0.345215 405.897L0.376477 416.479L10.9582 416.448" fill="#A50C00"/>
<path d="M0.411877 428.383L0.380615 417.802L10.9623 417.77L10.9936 428.352L0.411877 428.383Z" fill="#CE351B"/>
<path d="M0.380615 417.802L0.411877 428.383L10.9936 428.352" fill="#A50C00"/>
<path d="M0.341565 404.575L0.310303 393.993L10.892 393.962L10.9233 404.543L0.341565 404.575Z" fill="#CE351B"/>
<path d="M0.306409 392.685L0.275146 382.104L10.8569 382.072L10.8881 392.654L0.306409 392.685Z" fill="#CE351B"/>
<path d="M0.275146 382.104L0.30637 392.672L10.875 392.641" fill="#A50C00"/>
<path d="M0.310303 393.993L0.341526 404.562L10.9101 404.53" fill="#A50C00"/>
<path d="M0.376477 416.479L0.345215 405.897L10.9269 405.866L10.9582 416.448L0.376477 416.479Z" fill="#CE351B"/>
<path d="M0.345215 405.897L0.376477 416.479L10.9582 416.448" fill="#A50C00"/>
<path d="M0.411877 428.383L0.380615 417.802L10.9623 417.77L10.9936 428.352L0.411877 428.383Z" fill="#CE351B"/>
<path d="M0.380615 417.802L0.411877 428.383L10.9936 428.352" fill="#A50C00"/>
<path d="M47.153 417.626L57.7347 417.595L57.766 428.176L47.1843 428.208L47.153 417.626Z" fill="#049CBF"/>
<path d="M57.7347 417.595L47.1661 417.626L47.1974 428.194" fill="#047BA0"/>
<path d="M45.8451 417.63L35.2765 417.661L35.3077 428.229" fill="#047BA0"/>
<path d="M23.3591 417.696L33.9408 417.665L33.9721 428.247L23.3904 428.278L23.3591 417.696Z" fill="#049CBF"/>
<path d="M33.9408 417.665L23.3591 417.696L23.3904 428.278" fill="#047BA0"/>
<path d="M11.4545 417.731L22.0363 417.7L22.0675 428.282L11.4858 428.313L11.4545 417.731Z" fill="#049CBF"/>
<path d="M22.0363 417.7L11.4545 417.731L11.4858 428.313" fill="#047BA0"/>
<path d="M11.1772 309.27L11.2085 298.688L0.62679 298.657L0.595526 309.239L11.1772 309.27Z" fill="#049CBF"/>
<path d="M11.2126 297.38L11.2439 286.798L0.662191 286.767L0.630927 297.349L11.2126 297.38Z" fill="#049CBF"/>
<path d="M11.2439 286.798L11.2127 297.367L0.644077 297.336" fill="#047BA0"/>
<path d="M11.2126 297.38L11.2439 286.798L0.662191 286.767L0.630927 297.349L11.2126 297.38Z" fill="#049CBF"/>
<path d="M11.2439 286.798L11.2127 297.367L0.644077 297.336" fill="#047BA0"/>
<path d="M11.2085 298.688L11.1773 309.257L0.608676 309.226" fill="#047BA0"/>
<path d="M11.1421 321.174L11.1733 310.593L0.591634 310.561L0.56037 321.143L11.1421 321.174Z" fill="#049CBF"/>
<path d="M11.1733 310.593L11.1421 321.174L0.56037 321.143" fill="#047BA0"/>
<path d="M11.1069 333.079L11.1382 322.497L0.556478 322.466L0.525214 333.047L11.1069 333.079Z" fill="#049CBF"/>
<path d="M11.1382 322.497L11.1069 333.079L0.525214 333.047" fill="#047BA0"/>
<path d="M286.062 71.5522L286.031 82.1339L296.613 82.1652L296.644 71.5835L286.062 71.5522Z" fill="#049CBF"/>
<path d="M286.027 83.4419L285.996 94.0236L296.578 94.0548L296.609 83.4731L286.027 83.4419Z" fill="#049CBF"/>
<path d="M285.996 94.0236L286.027 83.455L296.596 83.4862" fill="#047BA0"/>
<path d="M286.027 83.4419L285.996 94.0236L296.578 94.0548L296.609 83.4731L286.027 83.4419Z" fill="#049CBF"/>
<path d="M285.996 94.0236L286.027 83.455L296.596 83.4862" fill="#047BA0"/>
<path d="M286.031 82.1339L286.062 71.5653L296.631 71.5965" fill="#047BA0"/>
<path d="M286.098 59.6478L286.066 70.2295L296.648 70.2608L296.679 59.679L286.098 59.6478Z" fill="#049CBF"/>
<path d="M286.066 70.2295L286.098 59.6478L296.679 59.679" fill="#047BA0"/>
<path d="M286.133 47.7434L286.102 58.3251L296.683 58.3563L296.715 47.7746L286.133 47.7434Z" fill="#049CBF"/>
<path d="M286.102 58.3251L286.133 47.7434L296.715 47.7746" fill="#047BA0"/>
<path d="M0.710462 71.9918L0.679199 82.5735L11.2609 82.6047L11.2922 72.023L0.710462 71.9918Z" fill="#049CBF"/>
<path d="M0.675062 83.8814L0.643799 94.4631L11.2255 94.4944L11.2568 83.9127L0.675062 83.8814Z" fill="#049CBF"/>
<path d="M0.643799 94.4631L0.675023 83.8945L11.2436 83.9258" fill="#047BA0"/>
<path d="M0.675062 83.8814L0.643799 94.4631L11.2255 94.4944L11.2568 83.9127L0.675062 83.8814Z" fill="#049CBF"/>
<path d="M0.643799 94.4631L0.675023 83.8945L11.2436 83.9258" fill="#047BA0"/>
<path d="M0.679199 82.5735L0.710424 72.0049L11.279 72.0361" fill="#047BA0"/>
<path d="M0.74513 60.0874L0.713867 70.6691L11.2956 70.7003L11.3268 60.1186L0.74513 60.0874Z" fill="#049CBF"/>
<path d="M0.713867 70.6691L0.74513 60.0874L11.3268 60.1186" fill="#047BA0"/>
<path d="M0.780775 48.1829L0.749512 58.7646L11.3312 58.7959L11.3625 48.2142L0.780775 48.1829Z" fill="#049CBF"/>
<path d="M0.749512 58.7646L0.780775 48.1829L11.3625 48.2142" fill="#047BA0"/>
<path d="M0.710218 24.1446L0.678955 34.7263L11.2607 34.7575L11.2919 24.1758L0.710218 24.1446Z" fill="#835EA5"/>
<path d="M0.675062 36.0342L0.643799 46.6159L11.2255 46.6472L11.2568 36.0655L0.675062 36.0342Z" fill="#835EA5"/>
<path d="M0.643799 46.6159L0.675023 36.0473L11.2436 36.0785" fill="#683C96"/>
<path d="M0.678955 34.7263L0.710179 24.1577L11.2788 24.1889" fill="#683C96"/>
<path d="M0.74513 12.2401L0.713867 22.8218L11.2956 22.8531L11.3268 12.2714L0.74513 12.2401Z" fill="#835EA5"/>
<path d="M0.713867 22.8218L0.74513 12.2401L11.3268 12.2714" fill="#683C96"/>
<path d="M0.780531 0.335714L0.749268 10.9174L11.331 10.9487L11.3622 0.366977L0.780531 0.335714Z" fill="#835EA5"/>
<path d="M0.749268 10.9174L0.780531 0.335714L11.3622 0.366977" fill="#683C96"/>
<path d="M285.811 214.961L285.78 225.543L296.361 225.574L296.393 214.992L285.811 214.961Z" fill="#34B515"/>
<path d="M285.776 226.851L285.745 237.432L296.326 237.464L296.358 226.882L285.776 226.851Z" fill="#34B515"/>
<path d="M285.745 237.432L285.776 226.864L296.344 226.895" fill="#129B0B"/>
<path d="M285.78 225.543L285.811 214.974L296.38 215.005" fill="#129B0B"/>
<path d="M285.846 203.056L285.815 213.638L296.397 213.669L296.428 203.087L285.846 203.056Z" fill="#34B515"/>
<path d="M285.815 213.638L285.846 203.056L296.428 203.087" fill="#129B0B"/>
<path d="M285.745 201.384L296.326 201.415L296.358 190.833L285.776 190.802L285.745 201.384Z" fill="#34B515"/>
<path d="M296.326 201.415L285.745 201.384L285.776 190.802" fill="#129B0B"/>
<path d="M296.531 261.283L296.562 250.701L285.98 250.67L285.949 261.251L296.531 261.283Z" fill="#049CBF"/>
<path d="M296.566 249.393L296.597 238.811L286.015 238.78L285.984 249.362L296.566 249.393Z" fill="#049CBF"/>
<path d="M296.597 238.811L296.566 249.38L285.997 249.349" fill="#047BA0"/>
<path d="M285.811 214.961L285.78 225.543L296.361 225.574L296.393 214.992L285.811 214.961Z" fill="#34B515"/>
<path d="M285.776 226.851L285.745 237.432L296.326 237.464L296.358 226.882L285.776 226.851Z" fill="#34B515"/>
<path d="M285.745 237.432L285.776 226.864L296.344 226.895" fill="#129B0B"/>
<path d="M285.78 225.543L285.811 214.974L296.38 215.005" fill="#129B0B"/>
<path d="M285.846 203.056L285.815 213.638L296.397 213.669L296.428 203.087L285.846 203.056Z" fill="#34B515"/>
<path d="M285.815 213.638L285.846 203.056L296.428 203.087" fill="#129B0B"/>
<path d="M285.745 201.384L296.326 201.415L296.358 190.833L285.776 190.802L285.745 201.384Z" fill="#34B515"/>
<path d="M296.326 201.415L285.745 201.384L285.776 190.802" fill="#129B0B"/>
<path d="M285.945 310.217L285.914 320.799L296.495 320.83L296.527 310.249L285.945 310.217Z" fill="#CE351B"/>
<path d="M285.91 322.107L285.879 332.689L296.46 332.72L296.492 322.138L285.91 322.107Z" fill="#CE351B"/>
<path d="M285.879 332.689L285.91 322.12L296.478 322.151" fill="#A50C00"/>
<path d="M285.914 320.799L285.945 310.23L296.514 310.262" fill="#A50C00"/>
<path d="M285.98 298.313L285.949 308.895L296.53 308.926L296.562 298.344L285.98 298.313Z" fill="#CE351B"/>
<path d="M285.949 308.895L285.98 298.313L296.562 298.344" fill="#A50C00"/>
<path d="M286.015 286.408L285.984 296.99L296.566 297.021L296.597 286.44L286.015 286.408Z" fill="#CE351B"/>
<path d="M285.984 296.99L286.015 286.408L296.597 286.44" fill="#A50C00"/>
<path d="M285.945 310.217L285.914 320.799L296.495 320.83L296.527 310.249L285.945 310.217Z" fill="#CE351B"/>
<path d="M285.91 322.107L285.879 332.689L296.46 332.72L296.492 322.138L285.91 322.107Z" fill="#CE351B"/>
<path d="M285.879 332.689L285.91 322.12L296.478 322.151" fill="#A50C00"/>
<path d="M285.914 320.799L285.945 310.23L296.514 310.262" fill="#A50C00"/>
<path d="M285.98 298.313L285.949 308.895L296.53 308.926L296.562 298.344L285.98 298.313Z" fill="#CE351B"/>
<path d="M285.949 308.895L285.98 298.313L296.562 298.344" fill="#A50C00"/>
<path d="M286.015 286.408L285.984 296.99L296.566 297.021L296.597 286.44L286.015 286.408Z" fill="#CE351B"/>
<path d="M285.984 296.99L286.015 286.408L296.597 286.44" fill="#A50C00"/>
<path d="M296.566 249.393L296.597 238.811L286.015 238.78L285.984 249.362L296.566 249.393Z" fill="#049CBF"/>
<path d="M296.597 238.811L296.566 249.38L285.997 249.349" fill="#047BA0"/>
<path d="M296.562 250.701L296.531 261.27L285.962 261.238" fill="#047BA0"/>
<path d="M296.495 273.187L296.527 262.605L285.945 262.574L285.914 273.156L296.495 273.187Z" fill="#049CBF"/>
<path d="M296.527 262.605L296.495 273.187L285.914 273.156" fill="#047BA0"/>
<path d="M296.46 285.092L296.491 274.51L285.91 274.479L285.878 285.06L296.46 285.092Z" fill="#049CBF"/>
<path d="M296.491 274.51L296.46 285.092L285.878 285.06" fill="#047BA0"/>
<path d="M119.333 428.38L129.915 428.412L129.946 417.83L119.364 417.799L119.333 428.38Z" fill="#34B515"/>
<path d="M131.223 428.416L141.805 428.447L141.836 417.865L131.254 417.834L131.223 428.416Z" fill="#34B515"/>
<path d="M141.805 428.447L131.236 428.416L131.267 417.847" fill="#129B0B"/>
<path d="M129.915 428.412L119.346 428.381L119.378 417.812" fill="#129B0B"/>
<path d="M107.429 428.345L118.01 428.377L118.042 417.795L107.46 417.764L107.429 428.345Z" fill="#34B515"/>
<path d="M118.01 428.377L107.429 428.345L107.46 417.764" fill="#129B0B"/>
<path d="M105.756 428.447L105.788 417.865L95.2059 417.834L95.1746 428.416L105.756 428.447Z" fill="#34B515"/>
<path d="M105.788 417.865L105.756 428.447L95.1746 428.416" fill="#129B0B"/>
<path d="M165.655 417.661L155.073 417.63L155.042 428.211L165.624 428.243L165.655 417.661Z" fill="#049CBF"/>
<path d="M153.766 417.626L143.184 417.595L143.153 428.176L153.734 428.208L153.766 417.626Z" fill="#049CBF"/>
<path d="M143.184 417.595L153.752 417.626L153.721 428.194" fill="#047BA0"/>
<path d="M119.333 428.38L129.915 428.412L129.946 417.83L119.364 417.799L119.333 428.38Z" fill="#34B515"/>
<path d="M131.223 428.416L141.805 428.447L141.836 417.865L131.254 417.834L131.223 428.416Z" fill="#34B515"/>
<path d="M141.805 428.447L131.236 428.416L131.267 417.847" fill="#129B0B"/>
<path d="M129.915 428.412L119.346 428.381L119.378 417.812" fill="#129B0B"/>
<path d="M107.429 428.345L118.01 428.377L118.042 417.795L107.46 417.764L107.429 428.345Z" fill="#34B515"/>
<path d="M118.01 428.377L107.429 428.345L107.46 417.764" fill="#129B0B"/>
<path d="M105.756 428.447L105.788 417.865L95.2059 417.834L95.1746 428.416L105.756 428.447Z" fill="#34B515"/>
<path d="M105.788 417.865L105.756 428.447L95.1746 428.416" fill="#129B0B"/>
<path d="M214.59 428.246L225.171 428.278L225.203 417.696L214.621 417.665L214.59 428.246Z" fill="#CE351B"/>
<path d="M226.479 428.282L237.061 428.313L237.092 417.731L226.511 417.7L226.479 428.282Z" fill="#CE351B"/>
<path d="M237.061 428.313L226.492 428.282L226.524 417.713" fill="#A50C00"/>
<path d="M225.171 428.278L214.603 428.246L214.634 417.678" fill="#A50C00"/>
<path d="M202.685 428.212L213.267 428.243L213.298 417.661L202.716 417.63L202.685 428.212Z" fill="#CE351B"/>
<path d="M213.267 428.243L202.685 428.212L202.716 417.63" fill="#A50C00"/>
<path d="M190.781 428.176L201.363 428.208L201.394 417.626L190.812 417.595L190.781 428.176Z" fill="#CE351B"/>
<path d="M201.363 428.208L190.781 428.176L190.812 417.595" fill="#A50C00"/>
<path d="M214.59 428.246L225.171 428.278L225.203 417.696L214.621 417.665L214.59 428.246Z" fill="#CE351B"/>
<path d="M226.479 428.282L237.061 428.313L237.092 417.731L226.511 417.7L226.479 428.282Z" fill="#CE351B"/>
<path d="M237.061 428.313L226.492 428.282L226.524 417.713" fill="#A50C00"/>
<path d="M225.171 428.278L214.603 428.246L214.634 417.678" fill="#A50C00"/>
<path d="M202.685 428.212L213.267 428.243L213.298 417.661L202.716 417.63L202.685 428.212Z" fill="#CE351B"/>
<path d="M213.267 428.243L202.685 428.212L202.716 417.63" fill="#A50C00"/>
<path d="M190.781 428.176L201.363 428.208L201.394 417.626L190.812 417.595L190.781 428.176Z" fill="#CE351B"/>
<path d="M201.363 428.208L190.781 428.176L190.812 417.595" fill="#A50C00"/>
<path d="M153.766 417.626L143.184 417.595L143.153 428.176L153.734 428.208L153.766 417.626Z" fill="#049CBF"/>
<path d="M143.184 417.595L153.752 417.626L153.721 428.194" fill="#047BA0"/>
<path d="M155.073 417.63L165.642 417.661L165.611 428.229" fill="#047BA0"/>
<path d="M177.56 417.696L166.978 417.665L166.947 428.247L177.528 428.278L177.56 417.696Z" fill="#049CBF"/>
<path d="M166.978 417.665L177.56 417.696L177.528 428.278" fill="#047BA0"/>
<path d="M189.464 417.731L178.882 417.7L178.851 428.282L189.433 428.313L189.464 417.731Z" fill="#049CBF"/>
<path d="M178.882 417.7L189.464 417.731L189.433 428.313" fill="#047BA0"/>
<path d="M285.811 166.941L285.78 177.523L296.361 177.554L296.393 166.972L285.811 166.941Z" fill="#049CBF"/>
<path d="M285.776 178.831L285.745 189.412L296.326 189.444L296.358 178.862L285.776 178.831Z" fill="#049CBF"/>
<path d="M285.745 189.412L285.776 178.844L296.344 178.875" fill="#047BA0"/>
<path d="M285.776 178.831L285.745 189.412L296.326 189.444L296.358 178.862L285.776 178.831Z" fill="#049CBF"/>
<path d="M285.745 189.412L285.776 178.844L296.344 178.875" fill="#047BA0"/>
<path d="M285.78 177.523L285.811 166.954L296.38 166.985" fill="#047BA0"/>
<path d="M285.846 155.037L285.815 165.618L296.397 165.65L296.428 155.068L285.846 155.037Z" fill="#049CBF"/>
<path d="M285.815 165.618L285.846 155.037L296.428 155.068" fill="#047BA0"/>
<path d="M285.881 143.132L285.85 153.714L296.432 153.745L296.463 143.163L285.881 143.132Z" fill="#049CBF"/>
<path d="M285.85 153.714L285.881 143.132L296.463 143.163" fill="#047BA0"/>
<path d="M285.811 119.094L285.78 129.676L296.361 129.707L296.393 119.125L285.811 119.094Z" fill="#835EA5"/>
<path d="M285.776 130.983L285.745 141.565L296.326 141.596L296.358 131.015L285.776 130.983Z" fill="#835EA5"/>
<path d="M285.745 141.565L285.776 130.997L296.344 131.028" fill="#683C96"/>
<path d="M285.78 129.676L285.811 119.107L296.38 119.138" fill="#683C96"/>
<path d="M285.846 107.189L285.815 117.771L296.397 117.802L296.428 107.221L285.846 107.189Z" fill="#835EA5"/>
<path d="M285.815 117.771L285.846 107.189L296.428 107.221" fill="#683C96"/>
<path d="M285.881 95.2849L285.85 105.867L296.432 105.898L296.463 95.3162L285.881 95.2849Z" fill="#835EA5"/>
<path d="M285.85 105.867L285.881 95.2849L296.463 95.3162" fill="#683C96"/>
<path d="M285.56 357.683L285.528 368.265L296.11 368.296L296.141 357.715L285.56 357.683Z" fill="#049CBF"/>
<path d="M285.524 369.573L285.493 380.155L296.075 380.186L296.106 369.604L285.524 369.573Z" fill="#049CBF"/>
<path d="M285.493 380.155L285.524 369.586L296.093 369.617" fill="#047BA0"/>
<path d="M285.524 369.573L285.493 380.155L296.075 380.186L296.106 369.604L285.524 369.573Z" fill="#049CBF"/>
<path d="M285.493 380.155L285.524 369.586L296.093 369.617" fill="#047BA0"/>
<path d="M285.528 368.265L285.56 357.696L296.128 357.728" fill="#047BA0"/>
<path d="M285.595 345.779L285.564 356.36L296.145 356.392L296.177 345.81L285.595 345.779Z" fill="#049CBF"/>
<path d="M285.564 356.36L285.595 345.779L296.177 345.81" fill="#047BA0"/>
<path d="M285.63 333.874L285.599 344.456L296.18 344.487L296.212 333.906L285.63 333.874Z" fill="#049CBF"/>
<path d="M285.599 344.456L285.63 333.874L296.212 333.906" fill="#047BA0"/>
<path d="M285.308 405.225L285.277 415.807L295.859 415.838L295.89 405.256L285.308 405.225Z" fill="#835EA5"/>
<path d="M285.273 417.115L285.242 427.696L295.823 427.728L295.855 417.146L285.273 417.115Z" fill="#835EA5"/>
<path d="M285.242 427.696L285.273 417.128L295.842 417.159" fill="#683C96"/>
<path d="M285.277 415.807L285.308 405.238L295.877 405.269" fill="#683C96"/>
<path d="M285.344 393.321L285.312 403.902L295.894 403.933L295.925 393.352L285.344 393.321Z" fill="#835EA5"/>
<path d="M285.312 403.902L285.344 393.321L295.925 393.352" fill="#683C96"/>
<path d="M285.379 381.416L285.347 391.998L295.929 392.029L295.96 381.447L285.379 381.416Z" fill="#835EA5"/>
<path d="M285.347 391.998L285.379 381.416L295.96 381.447" fill="#683C96"/>
<path d="M286.339 23.8089L286.307 34.3906L296.889 34.4218L296.92 23.8401L286.339 23.8089Z" fill="#835EA5"/>
<path d="M286.307 34.3906L286.339 23.822L296.907 23.8532" fill="#683C96"/>
<path d="M286.418 35.767L286.387 46.3488L296.969 46.38L297 35.7983L286.418 35.767Z" fill="#835EA5"/>
<path d="M286.387 46.3488L286.418 35.7802L296.987 35.8114" fill="#683C96"/>
<path d="M286.374 11.9044L286.343 22.4861L296.924 22.5174L296.956 11.9357L286.374 11.9044Z" fill="#835EA5"/>
<path d="M286.343 22.4861L286.374 11.9044L296.956 11.9357" fill="#683C96"/>
<path d="M286.409 2.02935e-05L286.378 10.5817L296.96 10.613L296.991 0.0312834L286.409 2.02935e-05Z" fill="#835EA5"/>
<path d="M286.378 10.5817L286.409 2.02935e-05L296.991 0.0312834" fill="#683C96"/>
<path d="M61.9681 44.147H70.64V47.0376H61.9681V44.147ZM59.0775 47.0376H61.9681V55.7095H59.0775V47.0376ZM70.64 47.0376H73.5306V49.9282H70.64V47.0376ZM70.64 52.8188H73.5306V55.7095H70.64V52.8188ZM61.9681 55.7095H70.64V58.561H61.9681V55.7095ZM78.8626 44.147H87.5345V47.0376H78.8626V44.147ZM75.972 47.0376H78.8626V55.7095H75.972V47.0376ZM87.5345 47.0376H90.4251V55.7095H87.5345V47.0376ZM78.8626 55.7095H87.5345V58.561H78.8626V55.7095ZM92.8666 44.147H95.7572V47.0376H98.6478V49.9282H95.7572V58.561H92.8666V44.147ZM104.429 44.147H107.32V58.561H104.429V55.7095H101.538V52.8188H104.429V44.147ZM98.6478 49.9282H101.538V52.8188H98.6478V49.9282ZM109.761 44.147H112.652V47.0376H115.542V49.9282H112.652V58.561H109.761V44.147ZM121.324 44.147H124.214V58.561H121.324V55.7095H118.433V52.8188H121.324V44.147ZM115.542 49.9282H118.433V52.8188H115.542V49.9282ZM126.656 44.147H141.109V47.0376H129.546V49.9282H138.218V52.8188H129.546V55.7095H141.109V58.561H126.656V44.147ZM146.441 44.147H155.113V47.0376H146.441V44.147ZM143.55 47.0376H146.441V55.7095H143.55V47.0376ZM155.113 47.0376H158.003V49.9282H155.113V47.0376ZM155.113 52.8188H158.003V55.7095H155.113V52.8188ZM146.441 55.7095H155.113V58.561H146.441V55.7095ZM160.445 44.147H174.898V47.0376H169.117V58.561H166.226V47.0376H160.445V44.147ZM184.175 44.147H187.066V47.0376H184.175V44.147ZM195.738 44.147H198.628V47.0376H195.738V44.147ZM187.066 47.0376H189.956V49.9282H187.066V47.0376ZM192.847 47.0376H195.738V49.9282H192.847V47.0376ZM189.956 49.9282H192.847V58.561H189.956V49.9282ZM203.96 44.147H212.632V47.0376H203.96V44.147ZM201.07 47.0376H203.96V55.7095H201.07V47.0376ZM212.632 47.0376H215.523V55.7095H212.632V47.0376ZM203.96 55.7095H212.632V58.561H203.96V55.7095ZM217.964 44.147H220.855V55.7095H217.964V44.147ZM229.527 44.147H232.417V55.7095H229.527V44.147ZM220.855 55.7095H229.527V58.561H220.855V55.7095ZM234.859 44.147H246.421V47.0376H237.749V49.9282H246.421V52.8188H237.749V58.561H234.859V44.147ZM246.421 47.0376H249.312V49.9282H246.421V47.0376ZM246.421 52.8188H249.312V58.561H246.421V52.8188ZM104.732 70.147H107.622V78.8188H110.513V81.7095H107.622V84.561H104.732V70.147ZM116.294 70.147H119.185V84.561H116.294V81.7095H113.404V78.8188H116.294V70.147ZM110.513 75.9282H113.404V78.8188H110.513V75.9282ZM124.517 70.147H133.189V73.0376H124.517V70.147ZM121.626 73.0376H124.517V75.9282H133.189V73.0376H136.079V84.561H133.189V78.8188H124.517V84.561H121.626V73.0376ZM138.521 70.147H141.411V81.7095H152.974V84.561H138.521V70.147ZM155.415 70.147H158.306V81.7095H169.869V84.561H155.415V70.147ZM172.31 70.147H186.763V73.0376H175.201V75.9282H183.872V78.8188H175.201V81.7095H186.763V84.561H172.31V70.147ZM189.204 70.147H203.658V73.0376H197.876V84.561H194.986V73.0376H189.204V70.147Z" fill="white"/>
<path d="M221.199 111.031L160.663 155.992L171.857 129.465L221.199 111.031Z" fill="#E2761B" stroke="#E2761B" stroke-linecap="round" stroke-linejoin="round"/>
<path d="M81.4481 111.031L141.498 156.418L130.851 129.465L81.4481 111.031Z" fill="#E4761B" stroke="#E4761B" stroke-linecap="round" stroke-linejoin="round"/>
<path d="M199.418 215.251L183.295 239.952L217.792 249.443L227.709 215.798L199.418 215.251Z" fill="#E4761B" stroke="#E4761B" stroke-linecap="round" stroke-linejoin="round"/>
<path d="M75.0598 215.798L84.916 249.443L119.413 239.952L103.29 215.251L75.0598 215.798Z" fill="#E4761B" stroke="#E4761B" stroke-linecap="round" stroke-linejoin="round"/>
<path d="M117.466 173.514L107.853 188.055L142.106 189.576L140.889 152.767L117.466 173.514Z" fill="#E4761B" stroke="#E4761B" stroke-linecap="round" stroke-linejoin="round"/>
<path d="M185.181 173.514L161.454 152.341L160.663 189.576L194.855 188.055L185.181 173.514Z" fill="#E4761B" stroke="#E4761B" stroke-linecap="round" stroke-linejoin="round"/>
<path d="M119.413 239.952L139.977 229.913L122.211 216.042L119.413 239.952Z" fill="#E4761B" stroke="#E4761B" stroke-linecap="round" stroke-linejoin="round"/>
<path d="M162.67 229.913L183.295 239.952L180.436 216.042L162.67 229.913Z" fill="#E4761B" stroke="#E4761B" stroke-linecap="round" stroke-linejoin="round"/>
<path d="M183.295 239.952L162.67 229.913L164.313 243.359L164.131 249.017L183.295 239.952Z" fill="#D7C1B3" stroke="#D7C1B3" stroke-linecap="round" stroke-linejoin="round"/>
<path d="M119.413 239.952L138.578 249.017L138.456 243.359L139.977 229.913L119.413 239.952Z" fill="#D7C1B3" stroke="#D7C1B3" stroke-linecap="round" stroke-linejoin="round"/>
<path d="M138.882 207.159L121.725 202.109L133.832 196.573L138.882 207.159Z" fill="#233447" stroke="#233447" stroke-linecap="round" stroke-linejoin="round"/>
<path d="M163.766 207.159L168.815 196.573L180.983 202.109L163.766 207.159Z" fill="#233447" stroke="#233447" stroke-linecap="round" stroke-linejoin="round"/>
<path d="M119.413 239.952L122.333 215.251L103.29 215.798L119.413 239.952Z" fill="#CD6116" stroke="#CD6116" stroke-linecap="round" stroke-linejoin="round"/>
<path d="M180.375 215.251L183.295 239.952L199.418 215.798L180.375 215.251Z" fill="#CD6116" stroke="#CD6116" stroke-linecap="round" stroke-linejoin="round"/>
<path d="M194.855 188.055L160.663 189.576L163.826 207.159L168.876 196.573L181.044 202.109L194.855 188.055Z" fill="#CD6116" stroke="#CD6116" stroke-linecap="round" stroke-linejoin="round"/>
<path d="M121.725 202.109L133.893 196.573L138.882 207.159L142.106 189.576L107.853 188.055L121.725 202.109Z" fill="#CD6116" stroke="#CD6116" stroke-linecap="round" stroke-linejoin="round"/>
<path d="M107.853 188.055L122.211 216.042L121.725 202.109L107.853 188.055Z" fill="#E4751F" stroke="#E4751F" stroke-linecap="round" stroke-linejoin="round"/>
<path d="M181.044 202.109L180.436 216.042L194.855 188.055L181.044 202.109Z" fill="#E4751F" stroke="#E4751F" stroke-linecap="round" stroke-linejoin="round"/>
<path d="M142.106 189.576L138.882 207.159L142.897 227.906L143.81 200.588L142.106 189.576Z" fill="#E4751F" stroke="#E4751F" stroke-linecap="round" stroke-linejoin="round"/>
<path d="M160.663 189.576L159.02 200.527L159.75 227.906L163.826 207.159L160.663 189.576Z" fill="#E4751F" stroke="#E4751F" stroke-linecap="round" stroke-linejoin="round"/>
<path d="M163.826 207.159L159.75 227.906L162.67 229.913L180.436 216.042L181.044 202.109L163.826 207.159Z" fill="#F6851B" stroke="#F6851B" stroke-linecap="round" stroke-linejoin="round"/>
<path d="M121.725 202.109L122.211 216.042L139.977 229.913L142.897 227.906L138.882 207.159L121.725 202.109Z" fill="#F6851B" stroke="#F6851B" stroke-linecap="round" stroke-linejoin="round"/>
<path d="M164.131 249.017L164.313 243.359L162.792 242.021H139.855L138.456 243.359L138.578 249.017L119.413 239.952L126.105 245.428L139.673 254.858H162.975L176.603 245.428L183.295 239.952L164.131 249.017Z" fill="#C0AD9E" stroke="#C0AD9E" stroke-linecap="round" stroke-linejoin="round"/>
<path d="M162.67 229.913L159.75 227.906H142.897L139.977 229.913L138.456 243.359L139.855 242.021H162.792L164.313 243.359L162.67 229.913Z" fill="#161616" stroke="#161616" stroke-linecap="round" stroke-linejoin="round"/>
<path d="M223.754 158.912L228.926 134.089L221.199 111.031L162.67 154.471L185.181 173.514L217.001 182.823L224.059 174.609L221.017 172.419L225.884 167.978L222.112 165.057L226.979 161.346L223.754 158.912Z" fill="#763D16" stroke="#763D16" stroke-linecap="round" stroke-linejoin="round"/>
<path d="M73.7822 134.089L78.9537 158.912L75.6683 161.346L80.5355 165.057L76.8243 167.978L81.6915 172.419L78.6495 174.609L85.6462 182.823L117.466 173.514L139.977 154.471L81.4482 111.031L73.7822 134.089Z" fill="#763D16" stroke="#763D16" stroke-linecap="round" stroke-linejoin="round"/>
<path d="M217.001 182.823L185.181 173.514L194.855 188.055L180.436 216.042L199.418 215.798H227.709L217.001 182.823Z" fill="#F6851B" stroke="#F6851B" stroke-linecap="round" stroke-linejoin="round"/>
<path d="M117.466 173.514L85.6461 182.823L75.0598 215.798H103.29L122.211 216.042L107.853 188.055L117.466 173.514Z" fill="#F6851B" stroke="#F6851B" stroke-linecap="round" stroke-linejoin="round"/>
<path d="M160.663 189.576L162.67 154.471L171.918 129.465H130.851L139.977 154.471L142.106 189.576L142.836 200.649L142.897 227.906H159.75L159.872 200.649L160.663 189.576Z" fill="#F6851B" stroke="#F6851B" stroke-linecap="round" stroke-linejoin="round"/>
</svg>
