<svg width="90" height="90" viewBox="0 0 90 90" fill="none" xmlns="http://www.w3.org/2000/svg">
<path d="M87 45C87 21.804 68.196 3 45 3C21.804 3 3 21.804 3 45C3 68.196 21.804 87 45 87C68.196 87 87 68.196 87 45Z" fill="#FF6B6B" stroke="white" stroke-width="6"/>
<path d="M36.2814 23C35.9265 23 35.5706 23.0826 35.243 23.2502C34.48 23.6402 34 24.4247 34 25.2815V64.828C34 65.6848 34.48 66.4694 35.2428 66.8594C36.0056 67.2493 36.9226 67.1792 37.6173 66.6776L64.9956 46.9043C65.5896 46.4754 65.9414 45.7873 65.9414 45.0548C65.9414 44.3223 65.5896 43.6342 64.9956 43.2052L37.6173 23.432C37.2211 23.1457 36.7524 23 36.2814 23Z" fill="#F9F9F9"/>
<path d="M34 45.0548V25.2816C34 24.4248 34.48 23.6402 35.2428 23.2502C35.5705 23.0826 35.9265 23 36.2812 23C36.7523 23 37.2211 23.1457 37.6173 23.432L64.9956 43.2052C65.5894 43.6342 65.9414 44.3223 65.9414 45.0548H34Z" fill="white"/>
</svg>
