<svg width="152" height="133" viewBox="0 0 152 133" fill="none" xmlns="http://www.w3.org/2000/svg">
<path d="M38 33.9839V3.05841C38 1.36919 36.6308 0 34.9416 0H28.7007C27.0115 0 25.6423 1.36919 25.6423 3.05841V33.9839H38Z" fill="#BBB2B2"/>
<path d="M25.6423 24.7154H38V33.9839H25.6423V24.7154Z" fill="#918A8A"/>
<path d="M0 37.0423V129.787C0 131.476 1.36919 132.846 3.05841 132.846H148.942C150.631 132.846 152 131.476 152 129.787V37.0423C152 35.3531 150.631 33.9839 148.942 33.9839H3.05841C1.36919 33.9839 0 35.3531 0 37.0423H0Z" fill="#BBB2B2"/>
<path d="M146.439 33.9839V124.195C146.439 125.901 145.056 127.285 143.35 127.285H0V129.787C0 131.476 1.36919 132.846 3.05841 132.846H148.942C150.631 132.846 152 131.476 152 129.787V37.0423C152 35.3531 150.631 33.9839 148.942 33.9839H146.439Z" fill="#918A8A"/>
<path d="M114 33.9839V3.05841C114 1.36919 115.369 0 117.058 0H123.299C124.989 0 126.358 1.36919 126.358 3.05841V33.9839H114Z" fill="#BBB2B2"/>
<path d="M114 24.7154H126.358V33.9839H114V24.7154Z" fill="#918A8A"/>
</svg>
