<svg width="84" height="84" viewBox="0 0 84 84" fill="none" xmlns="http://www.w3.org/2000/svg">
<g clip-path="url(#clip0)">
<path d="M1.4525 39.186L21.994 49.4235C22.7885 49.8155 23.7265 49.7875 24.486 49.343L42.77 38.7135L31.703 48.5205C31.1395 49.021 30.8175 49.735 30.8175 50.4875V74.375C30.8175 76.895 34.034 77.9555 35.5425 75.9535L44.422 64.148L66.381 76.6535C67.921 77.539 69.895 76.65 70.252 74.8895L83.9475 6.63953C84.357 4.58853 82.3165 2.91553 80.4195 3.67853L1.6695 34.391C-0.444496 35.217 -0.580996 38.1745 1.4525 39.186ZM77.8575 10.3145L65.821 70.294L45.0135 58.443C43.8795 57.7955 42.42 58.0825 41.615 59.1465L36.0675 66.521V51.667L65.996 25.151C68.3655 23.0545 65.6425 19.327 62.937 20.916L23.072 44.093L9.1 37.1315L77.8575 10.3145Z" fill="#CE351B"/>
</g>
<defs>
<clipPath id="clip0">
<rect width="84" height="84" fill="white"/>
</clipPath>
</defs>
</svg>
