<svg width="611" height="424" viewBox="0 0 611 424" fill="none" xmlns="http://www.w3.org/2000/svg">
<path d="M94.7007 423.628L136.79 423.753L136.914 381.663L94.825 381.539L94.7007 423.628Z" fill="#34B515"/>
<path d="M141.992 423.768L184.081 423.892L184.206 381.803L142.117 381.679L141.992 423.768Z" fill="#34B515"/>
<path d="M184.081 423.892L142.044 423.768L142.169 381.731" fill="#129B0B"/>
<path d="M136.79 423.753L94.7528 423.628L94.877 381.591" fill="#129B0B"/>
<path d="M47.3501 423.488L89.4392 423.613L89.5636 381.523L47.4744 381.399L47.3501 423.488Z" fill="#34B515"/>
<path d="M89.4392 423.613L47.3501 423.488L47.4744 381.399" fill="#129B0B"/>
<path d="M-0.00010678 423.348L42.0891 423.473L42.2134 381.384L0.124242 381.259L-0.00010678 423.348Z" fill="#34B515"/>
<path d="M42.0891 423.473L-0.00010678 423.348L0.124242 381.259" fill="#129B0B"/>
<path d="M278.948 380.991L236.859 380.867L236.735 422.956L278.824 423.08L278.948 380.991Z" fill="#049CBF"/>
<path d="M231.657 380.851L189.568 380.727L189.443 422.816L231.532 422.94L231.657 380.851Z" fill="#049CBF"/>
<path d="M189.568 380.727L231.605 380.851L231.48 422.888" fill="#047BA0"/>
<path d="M94.7007 423.628L136.79 423.753L136.914 381.663L94.825 381.539L94.7007 423.628Z" fill="#34B515"/>
<path d="M141.992 423.768L184.081 423.892L184.206 381.803L142.117 381.679L141.992 423.768Z" fill="#34B515"/>
<path d="M184.081 423.892L142.044 423.768L142.169 381.731" fill="#129B0B"/>
<path d="M136.79 423.753L94.7528 423.628L94.877 381.591" fill="#129B0B"/>
<path d="M47.3501 423.488L89.4392 423.613L89.5636 381.523L47.4744 381.399L47.3501 423.488Z" fill="#34B515"/>
<path d="M89.4392 423.613L47.3501 423.488L47.4744 381.399" fill="#129B0B"/>
<path d="M-0.00010678 423.348L42.0891 423.473L42.2134 381.384L0.124242 381.259L-0.00010678 423.348Z" fill="#34B515"/>
<path d="M42.0891 423.473L-0.00010678 423.348L0.124242 381.259" fill="#129B0B"/>
<path d="M521.065 42.8345L563.154 42.9588L563.278 0.869614L521.189 0.745265L521.065 42.8345Z" fill="#34B515"/>
<path d="M568.356 42.974L610.445 43.0984L610.57 1.0092L568.481 0.884852L568.356 42.974Z" fill="#34B515"/>
<path d="M610.445 43.0984L568.408 42.9742L568.533 0.937157" fill="#129B0B"/>
<path d="M563.154 42.9588L521.117 42.8346L521.241 0.79757" fill="#129B0B"/>
<path d="M473.714 42.6944L515.803 42.8188L515.928 0.729599L473.838 0.60525L473.714 42.6944Z" fill="#34B515"/>
<path d="M515.803 42.8188L473.714 42.6944L473.838 0.60525" fill="#129B0B"/>
<path d="M426.364 42.5546L468.453 42.679L468.577 0.589767L426.488 0.465419L426.364 42.5546Z" fill="#34B515"/>
<path d="M468.453 42.679L426.364 42.5546L426.488 0.465419" fill="#129B0B"/>
<path d="M521.065 42.8345L563.154 42.9588L563.278 0.869614L521.189 0.745265L521.065 42.8345Z" fill="#34B515"/>
<path d="M568.356 42.974L610.445 43.0984L610.57 1.0092L568.481 0.884852L568.356 42.974Z" fill="#34B515"/>
<path d="M610.445 43.0984L568.408 42.9742L568.533 0.937157" fill="#129B0B"/>
<path d="M563.154 42.9588L521.117 42.8346L521.241 0.79757" fill="#129B0B"/>
<path d="M473.714 42.6944L515.803 42.8188L515.928 0.729599L473.838 0.60525L473.714 42.6944Z" fill="#34B515"/>
<path d="M515.803 42.8188L473.714 42.6944L473.838 0.60525" fill="#129B0B"/>
<path d="M426.364 42.5546L468.453 42.679L468.577 0.589767L426.488 0.465419L426.364 42.5546Z" fill="#34B515"/>
<path d="M468.453 42.679L426.364 42.5546L426.488 0.465419" fill="#129B0B"/>
<path d="M141.993 43.2999L184.082 43.4243L184.206 1.33507L142.117 1.21072L141.993 43.2999Z" fill="#CE351B"/>
<path d="M189.284 43.4396L231.373 43.5639L231.498 1.47472L189.408 1.35037L189.284 43.4396Z" fill="#CE351B"/>
<path d="M231.373 43.5639L189.336 43.4397L189.46 1.40267" fill="#A50C00"/>
<path d="M184.082 43.4243L142.045 43.3001L142.169 1.26302" fill="#A50C00"/>
<path d="M94.6422 43.1601L136.731 43.2845L136.856 1.1953L94.7665 1.07095L94.6422 43.1601Z" fill="#CE351B"/>
<path d="M136.731 43.2845L94.6422 43.1601L94.7665 1.07095" fill="#A50C00"/>
<path d="M47.2919 43.02L89.3811 43.1443L89.5054 1.05516L47.4162 0.930812L47.2919 43.02Z" fill="#CE351B"/>
<path d="M89.3811 43.1443L47.2919 43.02L47.4162 0.930812" fill="#A50C00"/>
<path d="M141.993 43.2999L184.082 43.4243L184.206 1.33507L142.117 1.21072L141.993 43.2999Z" fill="#CE351B"/>
<path d="M189.284 43.4396L231.373 43.5639L231.498 1.47472L189.408 1.35037L189.284 43.4396Z" fill="#CE351B"/>
<path d="M231.373 43.5639L189.336 43.4397L189.46 1.40267" fill="#A50C00"/>
<path d="M184.082 43.4243L142.045 43.3001L142.169 1.26302" fill="#A50C00"/>
<path d="M94.6422 43.1601L136.731 43.2845L136.856 1.1953L94.7665 1.07095L94.6422 43.1601Z" fill="#CE351B"/>
<path d="M136.731 43.2845L94.6422 43.1601L94.7665 1.07095" fill="#A50C00"/>
<path d="M47.2919 43.02L89.3811 43.1443L89.5054 1.05516L47.4162 0.930812L47.2919 43.02Z" fill="#CE351B"/>
<path d="M89.3811 43.1443L47.2919 43.02L47.4162 0.930812" fill="#A50C00"/>
<path d="M473.587 423.096L515.677 423.22L515.801 381.131L473.712 381.006L473.587 423.096Z" fill="#CE351B"/>
<path d="M520.879 423.235L562.968 423.36L563.092 381.271L521.003 381.146L520.879 423.235Z" fill="#CE351B"/>
<path d="M562.968 423.36L520.931 423.236L521.055 381.199" fill="#A50C00"/>
<path d="M515.677 423.22L473.639 423.096L473.764 381.059" fill="#A50C00"/>
<path d="M426.237 422.956L468.326 423.08L468.45 380.991L426.361 380.867L426.237 422.956Z" fill="#CE351B"/>
<path d="M468.326 423.08L426.237 422.956L426.361 380.867" fill="#A50C00"/>
<path d="M378.887 422.816L420.976 422.94L421.1 380.851L379.011 380.727L378.887 422.816Z" fill="#CE351B"/>
<path d="M420.976 422.94L378.887 422.816L379.011 380.727" fill="#A50C00"/>
<path d="M473.587 423.096L515.677 423.22L515.801 381.131L473.712 381.006L473.587 423.096Z" fill="#CE351B"/>
<path d="M520.879 423.235L562.968 423.36L563.092 381.271L521.003 381.146L520.879 423.235Z" fill="#CE351B"/>
<path d="M562.968 423.36L520.931 423.236L521.055 381.199" fill="#A50C00"/>
<path d="M515.677 423.22L473.639 423.096L473.764 381.059" fill="#A50C00"/>
<path d="M426.237 422.956L468.326 423.08L468.45 380.991L426.361 380.867L426.237 422.956Z" fill="#CE351B"/>
<path d="M468.326 423.08L426.237 422.956L426.361 380.867" fill="#A50C00"/>
<path d="M378.887 422.816L420.976 422.94L421.1 380.851L379.011 380.727L378.887 422.816Z" fill="#CE351B"/>
<path d="M420.976 422.94L378.887 422.816L379.011 380.727" fill="#A50C00"/>
<path d="M231.657 380.851L189.568 380.727L189.443 422.816L231.532 422.94L231.657 380.851Z" fill="#049CBF"/>
<path d="M189.568 380.727L231.605 380.851L231.48 422.888" fill="#047BA0"/>
<path d="M236.859 380.867L278.896 380.991L278.772 423.028" fill="#047BA0"/>
<path d="M326.299 381.131L284.21 381.006L284.085 423.096L326.174 423.22L326.299 381.131Z" fill="#049CBF"/>
<path d="M284.21 381.006L326.299 381.131L326.174 423.22" fill="#047BA0"/>
<path d="M373.649 381.271L331.56 381.146L331.436 423.236L373.525 423.36L373.649 381.271Z" fill="#049CBF"/>
<path d="M331.56 381.146L373.649 381.271L373.525 423.36" fill="#047BA0"/>
<path d="M515.389 234.505L473.3 234.63L473.175 192.541L515.264 192.416L515.389 234.505Z" fill="#34B515"/>
<path d="M468.097 234.645L426.008 234.77L425.884 192.68L467.973 192.556L468.097 234.645Z" fill="#34B515"/>
<path d="M426.008 234.77L468.045 234.645L467.921 192.608" fill="#129B0B"/>
<path d="M473.3 234.63L515.337 234.506L515.212 192.469" fill="#129B0B"/>
<path d="M562.739 234.365L520.65 234.49L520.526 192.401L562.615 192.276L562.739 234.365Z" fill="#34B515"/>
<path d="M520.65 234.49L562.739 234.365L562.615 192.276" fill="#129B0B"/>
<path d="M331.141 191.868L373.23 191.744L373.355 233.833L331.265 233.957L331.141 191.868Z" fill="#049CBF"/>
<path d="M378.433 191.728L420.522 191.604L420.646 233.693L378.557 233.817L378.433 191.728Z" fill="#049CBF"/>
<path d="M420.522 191.604L378.485 191.728L378.609 233.765" fill="#047BA0"/>
<path d="M515.389 234.505L473.3 234.63L473.175 192.541L515.264 192.416L515.389 234.505Z" fill="#34B515"/>
<path d="M468.097 234.645L426.008 234.77L425.884 192.68L467.973 192.556L468.097 234.645Z" fill="#34B515"/>
<path d="M426.008 234.77L468.045 234.645L467.921 192.608" fill="#129B0B"/>
<path d="M473.3 234.63L515.337 234.506L515.212 192.469" fill="#129B0B"/>
<path d="M562.739 234.365L520.65 234.49L520.526 192.401L562.615 192.276L562.739 234.365Z" fill="#34B515"/>
<path d="M520.65 234.49L562.739 234.365L562.615 192.276" fill="#129B0B"/>
<path d="M136.502 233.973L94.413 234.097L94.2886 192.008L136.378 191.884L136.502 233.973Z" fill="#CE351B"/>
<path d="M89.2106 234.113L47.1214 234.237L46.9971 192.148L89.0863 192.024L89.2106 234.113Z" fill="#CE351B"/>
<path d="M47.1214 234.237L89.1585 234.113L89.0343 192.076" fill="#A50C00"/>
<path d="M94.413 234.097L136.45 233.973L136.326 191.936" fill="#A50C00"/>
<path d="M183.853 233.833L141.763 233.958L141.639 191.868L183.728 191.744L183.853 233.833Z" fill="#CE351B"/>
<path d="M141.763 233.958L183.853 233.833L183.728 191.744" fill="#A50C00"/>
<path d="M231.203 233.693L189.114 233.818L188.989 191.728L231.078 191.604L231.203 233.693Z" fill="#CE351B"/>
<path d="M189.114 233.818L231.203 233.693L231.078 191.604" fill="#A50C00"/>
<path d="M136.502 233.973L94.413 234.097L94.2886 192.008L136.378 191.884L136.502 233.973Z" fill="#CE351B"/>
<path d="M89.2106 234.113L47.1214 234.237L46.9971 192.148L89.0863 192.024L89.2106 234.113Z" fill="#CE351B"/>
<path d="M47.1214 234.237L89.1585 234.113L89.0343 192.076" fill="#A50C00"/>
<path d="M94.413 234.097L136.45 233.973L136.326 191.936" fill="#A50C00"/>
<path d="M183.853 233.833L141.763 233.958L141.639 191.868L183.728 191.744L183.853 233.833Z" fill="#CE351B"/>
<path d="M141.763 233.958L183.853 233.833L183.728 191.744" fill="#A50C00"/>
<path d="M231.203 233.693L189.114 233.818L188.989 191.728L231.078 191.604L231.203 233.693Z" fill="#CE351B"/>
<path d="M189.114 233.818L231.203 233.693L231.078 191.604" fill="#A50C00"/>
<path d="M378.433 191.728L420.522 191.604L420.646 233.693L378.557 233.817L378.433 191.728Z" fill="#049CBF"/>
<path d="M420.522 191.604L378.485 191.728L378.609 233.765" fill="#047BA0"/>
<path d="M373.23 191.744L331.193 191.868L331.317 233.905" fill="#047BA0"/>
<path d="M283.791 192.008L325.88 191.884L326.004 233.973L283.915 234.097L283.791 192.008Z" fill="#049CBF"/>
<path d="M325.88 191.884L283.791 192.008L283.915 234.097" fill="#047BA0"/>
<path d="M236.44 192.148L278.53 192.024L278.654 234.113L236.565 234.237L236.44 192.148Z" fill="#049CBF"/>
<path d="M278.53 192.024L236.44 192.148L236.565 234.237" fill="#047BA0"/>
<path d="M326.426 0.264245L284.337 0.139893L284.212 42.2291L326.301 42.3534L326.426 0.264245Z" fill="#049CBF"/>
<path d="M279.134 0.124352L237.045 0L236.921 42.0892L279.01 42.2135L279.134 0.124352Z" fill="#049CBF"/>
<path d="M237.045 0L279.082 0.124198L278.958 42.1612" fill="#047BA0"/>
<path d="M279.134 0.124352L237.045 0L236.921 42.0892L279.01 42.2135L279.134 0.124352Z" fill="#049CBF"/>
<path d="M237.045 0L279.082 0.124198L278.958 42.1612" fill="#047BA0"/>
<path d="M284.337 0.139893L326.374 0.264091L326.249 42.3011" fill="#047BA0"/>
<path d="M373.776 0.404076L331.687 0.279724L331.562 42.3689L373.652 42.4933L373.776 0.404076Z" fill="#049CBF"/>
<path d="M331.687 0.279724L373.776 0.404076L373.652 42.4933" fill="#047BA0"/>
<path d="M421.126 0.54403L379.037 0.419678L378.913 42.5089L421.002 42.6332L421.126 0.54403Z" fill="#049CBF"/>
<path d="M379.037 0.419678L421.126 0.54403L421.002 42.6332" fill="#047BA0"/>
<path d="M567.495 333.941L567.371 376.03L609.46 376.155L609.585 334.065L567.495 333.941Z" fill="#049CBF"/>
<path d="M567.356 381.233L567.231 423.322L609.32 423.446L609.445 381.357L567.356 381.233Z" fill="#049CBF"/>
<path d="M567.231 423.322L567.355 381.285L609.392 381.409" fill="#047BA0"/>
<path d="M567.356 381.233L567.231 423.322L609.32 423.446L609.445 381.357L567.356 381.233Z" fill="#049CBF"/>
<path d="M567.231 423.322L567.355 381.285L609.392 381.409" fill="#047BA0"/>
<path d="M567.371 376.03L567.495 333.993L609.532 334.117" fill="#047BA0"/>
<path d="M567.635 286.591L567.511 328.68L609.6 328.804L609.725 286.715L567.635 286.591Z" fill="#049CBF"/>
<path d="M567.511 328.68L567.635 286.591L609.725 286.715" fill="#047BA0"/>
<path d="M567.775 239.24L567.651 281.33L609.74 281.454L609.864 239.365L567.775 239.24Z" fill="#049CBF"/>
<path d="M567.651 281.33L567.775 239.24L609.864 239.365" fill="#047BA0"/>
<path d="M0.264121 286.35L0.139771 328.44L42.229 328.564L42.3533 286.475L0.264121 286.35Z" fill="#049CBF"/>
<path d="M0.124228 333.642L-0.00012207 375.731L42.0891 375.855L42.2134 333.766L0.124228 333.642Z" fill="#049CBF"/>
<path d="M-0.00012207 375.731L0.124074 333.694L42.1611 333.818" fill="#047BA0"/>
<path d="M0.124228 333.642L-0.00012207 375.731L42.0891 375.855L42.2134 333.766L0.124228 333.642Z" fill="#049CBF"/>
<path d="M-0.00012207 375.731L0.124074 333.694L42.1611 333.818" fill="#047BA0"/>
<path d="M0.139771 328.44L0.263967 286.403L42.301 286.527" fill="#047BA0"/>
<path d="M0.404014 239L0.279663 281.089L42.3689 281.213L42.4932 239.124L0.404014 239Z" fill="#049CBF"/>
<path d="M0.279663 281.089L0.404014 239L42.4932 239.124" fill="#047BA0"/>
<path d="M0.543921 191.65L0.419571 233.739L42.5088 233.863L42.6331 191.774L0.543921 191.65Z" fill="#049CBF"/>
<path d="M0.419571 233.739L0.543921 191.65L42.6331 191.774" fill="#047BA0"/>
<path d="M0.263846 96.0361L0.139496 138.125L42.2287 138.25L42.353 96.1604L0.263846 96.0361Z" fill="#835EA5"/>
<path d="M0.124228 143.328L-0.00012207 185.417L42.0891 185.541L42.2134 143.452L0.124228 143.328Z" fill="#835EA5"/>
<path d="M-0.00012207 185.417L0.124074 143.38L42.1611 143.504" fill="#683C96"/>
<path d="M0.139496 138.125L0.263692 96.0882L42.3007 96.2124" fill="#683C96"/>
<path d="M0.403983 48.6857L0.279633 90.7748L42.3688 90.8992L42.4932 48.81L0.403983 48.6857Z" fill="#835EA5"/>
<path d="M0.279633 90.7748L0.403983 48.6857L42.4932 48.81" fill="#683C96"/>
<path d="M0.54386 1.33525L0.41951 43.4244L42.5087 43.5488L42.633 1.4596L0.54386 1.33525Z" fill="#835EA5"/>
<path d="M0.41951 43.4244L0.54386 1.33525L42.633 1.4596" fill="#683C96"/>
<path d="M568.594 144.04L568.47 186.129L610.559 186.253L610.683 144.164L568.594 144.04Z" fill="#835EA5"/>
<path d="M568.47 186.129L568.594 144.092L610.631 144.216" fill="#683C96"/>
<path d="M568.911 191.604L568.786 233.693L610.876 233.817L611 191.728L568.911 191.604Z" fill="#835EA5"/>
<path d="M568.786 233.693L568.911 191.656L610.948 191.78" fill="#683C96"/>
<path d="M568.734 96.6894L568.61 138.779L610.699 138.903L610.823 96.8138L568.734 96.6894Z" fill="#835EA5"/>
<path d="M568.61 138.779L568.734 96.6894L610.823 96.8138" fill="#683C96"/>
<path d="M568.874 49.339L568.75 91.4282L610.839 91.5525L610.963 49.4633L568.874 49.339Z" fill="#835EA5"/>
<path d="M568.75 91.4282L568.874 49.339L610.963 49.4633" fill="#683C96"/>
<path d="M84.7465 99.5684H117.266V106.072H104.258V132H97.7543V106.072H84.7465V99.5684Z" fill="white"/>
<path d="M129.263 99.5684H148.775V106.072H129.263V99.5684ZM122.759 106.072H129.263V125.584H122.759V106.072ZM148.775 106.072H155.279V125.584H148.775V106.072ZM129.263 125.584H148.775V132H129.263V125.584Z" fill="white"/>
<path d="M160.772 99.5684H193.291V106.072H180.284V132H173.78V106.072H160.772V99.5684Z" fill="white"/>
<path d="M205.288 99.5684H224.8V106.072H205.288V99.5684ZM198.785 106.072H205.288V112.576H224.8V106.072H231.304V132H224.8V119.08H205.288V132H198.785V106.072Z" fill="white"/>
<path d="M236.797 99.5684H243.301V125.584H269.317V132H236.797V99.5684Z" fill="white"/>
<path d="M296.695 99.5684H322.71V106.072H296.695V99.5684ZM290.191 106.072H296.695V112.576H290.191V106.072ZM296.695 112.576H316.206V119.08H296.695V112.576ZM316.206 119.08H322.71V125.584H316.206V119.08ZM290.191 125.584H316.206V132H290.191V125.584Z" fill="white"/>
<path d="M328.203 99.5684H334.707V125.584H328.203V99.5684ZM354.219 99.5684H360.723V125.584H354.219V99.5684ZM334.707 125.584H354.219V132H334.707V125.584Z" fill="white"/>
<path d="M366.216 99.5684H392.232V106.072H372.72V112.576H392.232V119.08H372.72V132H366.216V99.5684ZM392.232 106.072H398.736V112.576H392.232V106.072Z" fill="white"/>
<path d="M404.229 99.5684H430.245V106.072H410.733V112.576H430.245V119.08H410.733V132H404.229V99.5684ZM430.245 106.072H436.748V112.576H430.245V106.072Z" fill="white"/>
<path d="M442.242 99.5684H448.745V125.584H474.761V132H442.242V99.5684Z" fill="white"/>
<path d="M480.254 99.5684H486.758V106.072H480.254V99.5684ZM506.27 99.5684H512.774V106.072H506.27V99.5684ZM486.758 106.072H493.262V112.576H486.758V106.072ZM499.766 106.072H506.27V112.576H499.766V106.072ZM493.262 112.576H499.766V132H493.262V112.576Z" fill="white"/>
<path d="M72.3618 291.154H81.7563V338H72.3618V309.943H62.9673V300.549H72.3618V291.154Z" fill="white"/>
<path d="M89.6909 291.154H136.664V300.549H99.0854V309.943H127.269V319.338H89.6909V291.154ZM127.269 319.338H136.664V328.732H127.269V319.338ZM89.6909 328.732H127.269V338H89.6909V328.732Z" fill="white"/>
<path d="M153.993 291.154H182.176V300.549H153.993V291.154ZM144.598 300.549H153.993V328.732H144.598V300.549ZM182.176 300.549H191.571V328.732H182.176V300.549ZM153.993 328.732H182.176V338H153.993V328.732Z" fill="white"/>
<path d="M208.9 291.154H237.083V300.549H208.9V291.154ZM199.505 300.549H208.9V328.732H199.505V300.549ZM237.083 300.549H246.478V328.732H237.083V300.549ZM208.9 328.732H237.083V338H208.9V328.732Z" fill="white"/>
<path d="M263.807 291.154H291.991V300.549H263.807V291.154ZM254.413 300.549H263.807V328.732H254.413V300.549ZM291.991 300.549H301.385V328.732H291.991V300.549ZM263.807 328.732H291.991V338H263.807V328.732Z" fill="white"/>
<path d="M309.32 328.732H318.714V338H309.32V328.732Z" fill="white"/>
<path d="M336.043 291.154H364.227V300.549H336.043V291.154ZM326.649 300.549H336.043V328.732H326.649V300.549ZM364.227 300.549H373.622V328.732H364.227V300.549ZM336.043 328.732H364.227V338H336.043V328.732Z" fill="white"/>
<path d="M390.951 291.154H419.134V300.549H390.951V291.154ZM381.556 300.549H390.951V328.732H381.556V300.549ZM419.134 300.549H428.529V328.732H419.134V300.549ZM390.951 328.732H419.134V338H390.951V328.732Z" fill="white"/>
<path d="M445.858 291.154H474.042V300.549H445.858V291.154ZM436.463 300.549H445.858V328.732H436.463V300.549ZM474.042 300.549H483.436V328.732H474.042V300.549ZM445.858 328.732H474.042V338H445.858V328.732Z" fill="white"/>
<path d="M500.765 291.154H528.949V300.549H500.765V291.154ZM491.371 300.549H500.765V328.732H491.371V300.549ZM528.949 300.549H538.343V328.732H528.949V300.549ZM500.765 328.732H528.949V338H500.765V328.732Z" fill="white"/>
</svg>
