<svg width="98" height="98" viewBox="0 0 98 98" fill="none" xmlns="http://www.w3.org/2000/svg">
<path d="M1.9314 80.0128C11.0046 85.7703 21.5641 88.8124 32.4666 88.8124C48.4324 88.8124 63.063 82.6793 73.6674 71.544C83.8145 60.8865 89.3964 46.5663 89.1187 32.0337C92.9652 28.7425 97.4896 22.4583 97.4896 16.3333C97.4896 13.9853 94.9416 12.4949 92.8754 13.6913C89.2617 15.8147 85.9664 16.37 82.5772 15.4186C75.656 8.67292 65.3537 7.25192 56.6726 11.9314C49.0857 16.0148 44.8676 23.4873 45.2474 31.6539C32.4298 30.09 20.5881 23.6628 12.3316 13.675C10.976 12.0458 8.40348 12.2377 7.32548 14.0833C3.34831 20.8943 3.38915 28.7874 6.84773 35.1615C5.20215 35.4514 4.1854 36.8357 4.1854 38.3343C4.1854 44.741 7.06823 50.6292 11.711 54.6472C10.8453 55.4802 10.5595 56.7174 10.927 57.8199C12.9686 63.9531 17.591 68.7469 23.3689 71.1479C17.0846 74.1492 10.1348 75.1496 3.94856 74.3901C0.747229 73.9573 -0.833021 78.2611 1.9314 80.0128ZM33.3036 72.1973C35.5944 70.4374 34.3776 66.7706 31.5029 66.7093C26.4396 66.6032 21.8295 64.1083 18.9589 60.1842C20.3431 60.0943 21.7764 59.882 23.1402 59.5145C26.2476 58.6733 26.1006 54.1898 22.9442 53.5569C17.2153 52.4054 12.7196 48.2323 11.0331 42.8586C12.5726 43.2383 14.1406 43.4507 15.7045 43.4793C18.8037 43.4956 19.9756 39.5225 17.4481 37.8606C11.7518 34.108 9.32223 27.4808 10.9311 21.2496C20.8781 31.3273 34.3735 37.3992 48.6488 38.0852C50.6946 38.2118 52.2299 36.2885 51.7807 34.3408C49.8411 25.9332 54.537 20.0409 59.5799 17.3255C64.5697 14.6305 72.5812 13.7893 78.7226 20.2328C80.5478 22.1561 86.7055 22.2296 89.8374 21.4987C88.4327 24.1447 86.2726 26.6559 84.2514 28.0688C83.3898 28.6731 82.8957 29.6776 82.9488 30.727C83.6062 44.1408 78.6082 57.4769 69.237 67.3137C59.7963 77.2239 46.7419 82.6833 32.4706 82.6833C26.7948 82.6833 21.2292 81.7605 15.9699 79.9802C22.2582 78.7633 28.2321 76.101 33.3036 72.1973Z" fill="#049CBF"/>
</svg>
