<svg width="451" height="451" viewBox="0 0 451 451" fill="none" xmlns="http://www.w3.org/2000/svg">
<g clip-path="url(#clip0)">
<path d="M8.80772 194.717L225.526 442.169L442.192 194.717H8.80772Z" fill="white"/>
<path d="M8.80772 194.717L225.526 442.169L442.192 194.717H8.80772Z" fill="#78D2FA"/>
<path d="M81.3723 84.5889L8.81857 194.717H442.193L369.971 84.5889H81.3723Z" fill="#78D2FA"/>
<path d="M153.304 194.717L225.526 84.5889L297.748 194.717H153.304Z" fill="white"/>
<path d="M297.748 194.717L369.971 84.5889L442.192 194.717H297.748Z" fill="#C8F5FF"/>
<path d="M9.15037 194.717L81.3711 84.5889L153.594 194.717H9.15037Z" fill="#C8F5FF"/>
<path d="M297.748 194.717H153.304L225.526 441.288L297.748 194.717Z" fill="#C8F5FF"/>
<path d="M88.4488 346.876C88.4488 319.255 66.0574 296.864 38.4363 296.864C66.0574 296.864 88.4488 274.472 88.4488 246.851C88.4488 274.472 110.84 296.864 138.461 296.864C110.841 296.864 88.4488 319.256 88.4488 346.876Z" fill="#7D9BFF"/>
<path d="M406.961 79.2923C406.961 59.835 391.188 44.0615 371.731 44.0615C391.188 44.0615 406.961 28.2879 406.961 8.83063C406.961 28.2879 422.735 44.0615 442.192 44.0615C422.735 44.0624 406.961 59.8359 406.961 79.2923Z" fill="#7D9BFF"/>
<path d="M377.336 79.7583C375.707 77.276 372.939 75.7803 369.971 75.7803H81.372C78.4097 75.7803 75.6464 77.269 74.0169 79.7433L1.67892 189.544C1.3345 190.019 1.03589 190.532 0.786607 191.08C-0.641266 194.228 -0.0951332 197.919 2.18277 200.52L38.8485 242.384C42.054 246.044 47.6175 246.412 51.2775 243.208C54.9366 240.002 55.3048 234.438 52.1002 230.78L28.2315 203.525H146.708L206.242 406.781L138.966 329.965C135.762 326.306 130.196 325.937 126.538 329.142C122.879 332.347 122.511 337.912 125.715 341.571L218.902 447.971C220.573 449.88 222.99 450.976 225.527 450.976C228.066 450.976 230.48 449.88 232.152 447.97L331.363 334.663C334.569 331.003 334.2 325.439 330.539 322.235C326.878 319.03 321.314 319.399 318.111 323.06L244.815 406.77L304.347 203.525H422.774L367.999 266.084C364.794 269.744 365.163 275.308 368.824 278.512C370.495 279.976 372.563 280.694 374.622 280.694C377.073 280.694 379.511 279.676 381.252 277.687L448.819 200.52C451.425 197.543 451.728 193.195 449.558 189.888L377.336 79.7583ZM425.883 185.91H314.057L369.971 100.65L425.883 185.91ZM153.448 178.436L97.6803 93.3966H209.217L153.448 178.436ZM225.526 100.65L281.439 185.91H169.614L225.526 100.65ZM241.836 93.3966H353.662L297.749 178.657L241.836 93.3966ZM81.3544 100.624L137.285 185.91H25.1688L81.3544 100.624ZM225.526 409.955L165.062 203.525H285.991L225.526 409.955Z" fill="#143D8B"/>
<path d="M147.269 296.864C147.269 292 143.325 288.056 138.461 288.056C115.741 288.056 97.2566 269.571 97.2566 246.851C97.2566 241.987 93.3121 238.043 88.4489 238.043C83.5856 238.043 79.6411 241.987 79.6411 246.851C79.6411 269.571 61.1563 288.056 38.4363 288.056C33.5731 288.056 29.6286 292 29.6286 296.864C29.6286 301.728 33.5731 305.671 38.4363 305.671C61.1563 305.671 79.6411 324.156 79.6411 346.876C79.6411 351.74 83.5856 355.684 88.4489 355.684C93.3121 355.684 97.2566 351.74 97.2566 346.876C97.2566 324.156 115.741 305.671 138.461 305.671C143.326 305.671 147.269 301.729 147.269 296.864ZM88.4489 315.944C83.6473 308.208 77.1043 301.666 69.3694 296.864C77.1043 292.062 83.6464 285.52 88.4489 277.783C93.2504 285.519 99.7934 292.061 107.528 296.864C99.7934 301.666 93.2513 308.207 88.4489 315.944Z" fill="#143D8B"/>
<path d="M371.731 52.8701C386.3 52.8701 398.154 64.7238 398.154 79.2932C398.154 84.1573 402.098 88.1009 406.961 88.1009C411.825 88.1009 415.769 84.1573 415.769 79.2932C415.769 64.7238 427.623 52.8701 442.192 52.8701C447.056 52.8701 451 48.9265 451 44.0624C451 39.1983 447.056 35.2547 442.192 35.2547C427.623 35.2547 415.769 23.4009 415.769 8.83152C415.769 3.96741 411.825 0.0238037 406.961 0.0238037C402.098 0.0238037 398.154 3.96741 398.154 8.83152C398.154 23.4009 386.3 35.2547 371.731 35.2547C366.867 35.2547 362.923 39.1983 362.923 44.0624C362.923 48.9265 366.867 52.8701 371.731 52.8701ZM406.961 35.2273C409.475 38.5729 412.451 41.5493 415.796 44.0624C412.451 46.5755 409.474 49.5519 406.961 52.8974C404.448 49.5519 401.472 46.5755 398.126 44.0624C401.472 41.5493 404.448 38.572 406.961 35.2273Z" fill="#143D8B"/>
<path d="M348.569 292.835C346.252 292.835 343.99 293.768 342.342 295.416C340.704 297.054 339.762 299.327 339.762 301.642C339.762 303.958 340.703 306.231 342.342 307.869C343.981 309.508 346.253 310.45 348.569 310.45C350.886 310.45 353.158 309.508 354.795 307.869C356.434 306.231 357.377 303.958 357.377 301.642C357.377 299.327 356.434 297.054 354.795 295.416C353.159 293.768 350.886 292.835 348.569 292.835Z" fill="#143D8B"/>
</g>
<defs>
<clipPath id="clip0">
<rect width="451" height="451" fill="white"/>
</clipPath>
</defs>
</svg>
