<svg width="447" height="461" viewBox="0 0 447 461" fill="none" xmlns="http://www.w3.org/2000/svg">
<path d="M312.689 73.5134C312.689 73.5134 452.845 143.63 445.866 252.886C446.004 256.673 443.81 260.158 440.336 261.672C436.861 263.186 432.815 262.42 430.134 259.741C388.457 210.187 336.801 169.977 278.536 141.733L193.288 99.0848C135.745 69.4243 72.5942 52.2314 7.95691 48.6284C4.18007 48.1059 1.11444 45.3125 0.243981 41.6004C-0.626478 37.8882 0.87782 34.0232 4.02871 31.8763C87.2552 -39.251 227.431 30.8656 227.431 30.8656L312.689 73.5134Z" fill="#DCE0E0"/>
<path d="M299.903 13.818L282.846 5.29418C273.428 0.58558 261.976 4.40144 257.265 13.818L248.731 30.8657L272.186 61.6716L299.893 56.4562L308.474 39.4086C310.735 34.879 311.102 29.6364 309.494 24.8362C307.886 20.0359 304.436 16.072 299.903 13.818Z" fill="#484746"/>
<path d="M67.1851 457.772C53.0575 450.705 47.3332 433.524 54.3994 419.396L206.083 116.142L238.577 115.713L257.245 141.732L105.561 444.986C98.4944 459.114 81.3131 464.838 67.1851 457.772Z" fill="#484746"/>
<path d="M308.331 60.6081L240.14 26.5128C235.432 24.159 229.708 26.0671 227.354 30.7747L193.259 98.9653C190.905 103.673 192.813 109.397 197.521 111.751L265.712 145.846C270.419 148.2 276.144 146.292 278.497 141.584L312.593 73.3938C314.946 68.6862 313.038 62.9619 308.331 60.6081Z" fill="#C8D1D1"/>
</svg>
