<svg width="77" height="77" viewBox="0 0 77 77" fill="none" xmlns="http://www.w3.org/2000/svg">
<g clip-path="url(#clip0)">
<path d="M70.856 15.185L77 9.30729V8.02075H55.7159L40.5469 45.7764L23.2893 8.02075H0.972125V9.30729L8.14917 17.9473C8.84858 18.5858 9.21433 19.5194 9.12129 20.4595V54.4132C9.34267 55.6356 8.94483 56.8933 8.085 57.782L0 67.5803V68.8508H22.9235V67.5642L14.8385 57.782C13.9627 56.8901 13.5488 55.6549 13.7252 54.4132V25.0442L33.8479 68.8668H36.1868L53.4893 25.0442V59.954C53.4893 60.8748 53.4893 61.0641 52.8862 61.6673L46.662 67.6893V68.9791H76.8588V67.6926L70.8593 61.8181C70.3331 61.4203 70.0604 60.7529 70.1727 60.1048V16.8982C70.0604 16.2469 70.3299 15.5796 70.856 15.185Z" fill="#212121"/>
</g>
<defs>
<clipPath id="clip0">
<rect width="77" height="77" fill="white"/>
</clipPath>
</defs>
</svg>
