<svg width="553" height="553" viewBox="0 0 553 553" fill="none" xmlns="http://www.w3.org/2000/svg">
<g clip-path="url(#clip0)">
<path d="M312.474 73.5109C312.474 73.5109 452.631 143.628 445.651 252.883C445.789 256.67 443.595 260.156 440.121 261.67C436.646 263.184 432.6 262.418 429.919 259.738C388.242 210.185 336.586 169.975 278.321 141.73L193.073 99.0824C135.53 69.4218 72.3793 52.229 7.74207 48.6259C3.96522 48.1034 0.899596 45.31 0.0291368 41.5979C-0.841322 37.8858 0.662977 34.0208 3.81386 31.8738C87.0404 -39.2534 227.216 30.8632 227.216 30.8632L312.474 73.5109Z" fill="#DCE0E0"/>
<path d="M299.688 13.8156L282.631 5.29174C273.213 0.583139 261.761 4.39899 257.05 13.8156L248.516 30.8632L271.971 61.6691L299.678 56.4538L308.259 39.4061C310.52 34.8766 310.887 29.634 309.279 24.8337C307.671 20.0335 304.221 16.0695 299.688 13.8156Z" fill="#484746"/>
<path d="M66.9702 457.77C52.8426 450.703 47.1184 433.521 54.1845 419.393L205.869 116.14L238.362 115.71L257.031 141.73L105.347 444.984C98.2796 459.111 81.0983 464.836 66.9702 457.77Z" fill="#484746"/>
<path d="M553 543.466V95.3448C535.373 101.948 521.465 115.856 514.862 133.483C514.862 133.483 486.259 133.483 476.724 152.552C500.025 193.284 503.534 242.404 486.259 286.034C486.259 286.034 514.862 333.707 467.19 362.31C467.19 362.31 448.121 429.052 371.845 381.379C324.691 383.296 283.317 413.386 266.966 457.655C266.966 457.655 219.293 438.586 200.224 486.259C200.224 486.259 114.414 476.724 95.345 553H543.466C548.732 553 553 548.731 553 543.466Z" fill="#0E2A5F"/>
<path d="M472.462 460.995L454.289 455.256C449.271 453.671 443.918 456.454 442.333 461.472L436.593 479.645C435.008 484.663 437.791 490.016 442.81 491.601L460.982 497.341C466.001 498.926 471.354 496.143 472.939 491.124L478.678 472.952C480.263 467.933 477.48 462.58 472.462 460.995Z" fill="#19BCF0"/>
<path d="M325.877 514.495L344.05 508.755C349.068 507.17 351.851 501.817 350.266 496.799L344.527 478.626C342.942 473.608 337.589 470.825 332.57 472.41L314.398 478.15C309.379 479.735 306.596 485.088 308.181 490.106L313.921 508.279C315.506 513.297 320.859 516.08 325.877 514.495Z" fill="#19BCF0"/>
<path d="M390.914 457.655C385.648 457.655 381.38 453.386 381.38 448.121V438.586C381.38 433.32 385.648 429.052 390.914 429.052C396.18 429.052 400.448 433.32 400.448 438.586V448.121C400.448 453.386 396.18 457.655 390.914 457.655Z" fill="#3F5C6C"/>
<path d="M228.828 524.397C224.972 524.396 221.496 522.073 220.021 518.511C218.546 514.948 219.361 510.848 222.087 508.121L231.621 498.587C235.362 494.973 241.309 495.025 244.987 498.703C248.665 502.381 248.716 508.327 245.103 512.069L235.569 521.603C233.781 523.391 231.356 524.396 228.828 524.397Z" fill="#3F5C6C"/>
<path d="M514.862 419.517C512.334 419.517 509.909 418.512 508.121 416.724L498.587 407.189C494.974 403.448 495.025 397.501 498.703 393.824C502.381 390.146 508.328 390.094 512.069 393.707L521.603 403.242C524.329 405.969 525.144 410.069 523.669 413.631C522.194 417.194 518.718 419.517 514.862 419.517Z" fill="#3F5C6C"/>
<path d="M362.31 293.815C352.776 275.041 314.638 293.815 314.638 312.588C314.638 331.361 324.173 350.135 352.776 340.743C381.379 331.352 371.845 312.588 362.31 293.815Z" fill="#19BCF0"/>
<path d="M308.116 60.6056L239.925 26.5103C235.218 24.1565 229.493 26.0647 227.139 30.7722L193.044 98.9628C190.69 103.67 192.598 109.395 197.306 111.749L265.497 145.844C270.204 148.198 275.929 146.29 278.282 141.582L312.378 73.3914C314.732 68.6838 312.823 62.9594 308.116 60.6056Z" fill="#C8D1D1"/>
</g>
<defs>
<clipPath id="clip0">
<rect width="553" height="553" fill="white"/>
</clipPath>
</defs>
</svg>
