<svg width="49" height="83" viewBox="0 0 49 83" fill="none" xmlns="http://www.w3.org/2000/svg">
<path d="M13.593 80.3852C13.593 81.389 14.4143 82.2103 15.4181 82.2103H42.3931C43.3969 82.2103 44.2182 81.389 44.2182 80.3852V76.2057H13.593V80.3852Z" fill="white"/>
<path d="M12.9815 29.9664L12.9908 16.6157C12.9908 15.0735 13.5747 13.6317 14.6425 12.5549C15.8288 11.3685 17.5262 10.6933 19.3148 10.6933C20.711 10.6933 22.0524 11.1222 23.0927 11.8887C24.3521 12.8195 25.1368 14.2248 25.301 15.8309C25.301 15.8675 26.022 22.8303 26.6699 29.063C31.2053 26.3984 34.2623 21.4705 34.2623 15.8309C34.2623 7.36242 27.3999 0.5 18.9314 0.5C10.4629 0.5 3.60048 7.36242 3.60048 15.8309C3.59135 22.1823 7.46059 27.6394 12.9815 29.9664Z" fill="white"/>
<path d="M49 47.3873C49 45.6078 47.8593 44.029 46.162 43.4815C41.0973 41.8298 30.8766 38.5354 29.3161 38.2252C28.8324 38.1339 28.3579 38.0883 27.9016 38.0883C26.6697 38.0883 25.5929 38.4259 24.945 39.0008H24.9358C24.9358 39.0008 24.9358 39.0008 24.9358 38.9917C24.9267 38.9186 22.5724 16.1504 22.5724 16.1139C22.3807 14.2888 20.8659 13.4219 19.3054 13.4219C17.5351 13.4219 15.71 14.5352 15.719 16.6067L15.7008 53.5014C15.7008 53.9394 15.3814 54.3044 14.9433 54.3684C14.9342 54.3684 14.9342 54.3684 14.9251 54.3684C14.8887 54.3775 14.8431 54.3775 14.8065 54.3775C14.7973 54.3775 14.7882 54.3775 14.7791 54.3775C13.538 54.341 10.7365 54.3044 8.00792 50.3531C7.6429 49.8329 7.31438 49.3584 7.01323 48.9203C6.06418 47.5606 4.79572 46.9767 3.60028 46.9767C1.5014 46.9767 -0.387591 48.7925 0.0686866 51.5029C0.725726 55.4542 5.05124 64.6619 13.5745 73.2947H44.1999L47.2933 68.0659C48.3976 66.2133 48.9816 64.0962 48.9816 61.9334L49 47.3873Z" fill="white"/>
</svg>
