<svg width="386" height="173" viewBox="0 0 386 173" fill="none" xmlns="http://www.w3.org/2000/svg">
<path d="M80.9008 24.9594L81.1462 24.9092L81.3716 24.8001L128.196 2.12726L211.472 24.929L211.887 25.0428L212.313 24.9753L293.544 12.0972L332.895 38.1673L333.107 38.3071L333.346 38.39L383.557 55.7708L368.077 109.951L368 110.22V110.5V150.837L333.688 170.376L245.449 150.051L244.916 149.928L244.394 150.094L180.319 170.459L112.261 161.517L111.995 161.482L111.73 161.518L47.1094 170.33L27.7647 134.059L27.7393 134.011L27.7115 133.965L2.14861 91.6881L16.1204 38.21L80.9008 24.9594Z" stroke="white" stroke-width="4"/>
</svg>
