<svg width="77" height="77" viewBox="0 0 77 77" fill="none" xmlns="http://www.w3.org/2000/svg">
<path d="M38.4995 77.0001C59.7623 77.0001 76.9991 59.7632 76.9991 38.5005C76.9991 17.2378 59.7623 0.000976562 38.4995 0.000976562C17.2368 0.000976562 0 17.2378 0 38.5005C0 59.7632 17.2368 77.0001 38.4995 77.0001Z" fill="#41B4E6"/>
<path d="M77 38.5005C77 37.5624 76.9646 36.6328 76.8988 35.7114L60.9425 19.7554L16.0575 37.4111L33.2308 54.5845L33.456 55.3954L33.7476 55.1014L33.7488 55.1026L33.456 55.3954L52.4529 74.3923C66.8182 68.8038 77 54.842 77 38.5005Z" fill="#0091C8"/>
<path d="M34.761 44.1096L52.1598 57.2458L60.9425 19.7554L16.0574 37.4111L29.7154 41.935L54.6416 25.2152L34.761 44.1096Z" fill="white"/>
<path d="M29.7154 41.9349L33.4561 55.3955L34.761 44.1096L54.6416 25.2151L29.7154 41.9349Z" fill="#D2D2D7"/>
<path d="M40.4157 48.3789L33.4561 55.3955L34.761 44.1096L40.4157 48.3789Z" fill="#B9B9BE"/>
</svg>
