<svg width="160" height="161" viewBox="0 0 160 161" fill="none" xmlns="http://www.w3.org/2000/svg">
<g filter="url(#filter0_d)">
<path d="M78.1367 116.581V116.579C73.6769 109.549 64.3625 107.465 57.3322 111.925C53.0005 114.673 50.3634 119.435 50.3328 124.564V124.695C50.3064 133.035 57.0454 139.816 65.3846 139.843C73.7238 139.869 80.5058 133.13 80.5325 124.791C80.5416 121.881 79.7096 119.03 78.1367 116.581ZM75.4992 124.695C75.5068 130.255 71.0061 134.768 65.4465 134.776C59.887 134.783 55.3737 130.282 55.3661 124.723V124.622C55.3922 119.078 59.908 114.605 65.4522 114.631C68.8739 114.647 72.0514 116.405 73.8836 119.294L76.0051 117.938L73.8861 119.297C74.9311 120.904 75.4911 122.778 75.4992 124.695Z" fill="white"/>
<path d="M138.934 23.4935L118.801 3.36034C115.69 0.397938 110.802 0.397938 107.692 3.36034C106.211 4.83415 105.384 6.84054 105.394 8.92966C105.402 9.33799 105.442 9.74537 105.513 10.1477L85.1631 22.585L84.8913 22.3132C82.1749 19.5986 77.7721 19.6002 75.0576 22.3166C73.116 24.2595 72.5 27.1634 73.4859 29.7272L34.0502 53.819C15.6183 65.0671 9.61267 89.018 20.556 107.632C11.4721 109.777 5.04937 117.878 5.03333 127.212V129.728H10.0666V127.212C10.0764 119.449 15.9644 112.955 23.6892 112.187C28.0364 117.67 33.7614 121.899 40.2789 124.443C40.2789 124.529 40.2663 124.612 40.2663 124.695C40.2663 138.594 51.5336 149.862 65.4327 149.862C79.3318 149.862 90.5991 138.594 90.5991 124.695C90.6082 119.863 89.209 115.133 86.5725 111.083C87.252 110.159 87.9063 109.22 88.4927 108.261L112.584 68.8257C113.375 69.134 114.215 69.2944 115.063 69.2988C115.295 69.2988 115.526 69.2988 115.755 69.2636C119.584 68.8855 122.381 65.4751 122.003 61.6464C121.845 60.0442 121.136 58.5465 119.998 57.4077L119.727 57.1359L132.161 36.7838C132.564 36.8546 132.971 36.8943 133.379 36.9021C137.717 36.9024 141.234 33.3861 141.235 29.0483C141.235 26.9649 140.407 24.9666 138.934 23.4935ZM77.6384 140.719C74.1305 143.39 69.8418 144.834 65.4327 144.828C54.3186 144.816 45.3121 135.809 45.2996 124.695C45.2996 124.109 45.3423 123.53 45.3876 122.956C46.3408 112.58 55.0132 104.622 65.4327 104.562C71.7325 104.548 77.6702 107.505 81.4536 112.542C88.1809 121.376 86.4727 133.991 77.6384 140.719ZM84.1968 105.637C83.9124 106.102 83.6003 106.558 83.2908 107.013C78.5906 102.213 72.1512 99.5136 65.4327 99.5287C53.6602 99.6067 43.4942 107.788 40.9005 119.272C28.2915 113.795 20.1338 101.359 20.1332 87.6124C20.1731 75.5804 26.4298 64.4238 36.675 58.1149L76.5965 33.7186L108.593 65.7151L84.1968 105.637ZM116.684 63.42C116.092 64.308 114.892 64.548 114.004 63.9557C113.898 63.8852 113.799 63.8044 113.709 63.7144L113.553 63.5584L78.7533 28.7583L78.5972 28.6022C77.8426 27.8472 77.8426 26.6235 78.5972 25.8689C78.6872 25.7789 78.7857 25.698 78.8917 25.6276C79.6611 25.1214 80.6804 25.2265 81.3303 25.8792L83.0039 27.5528L114.759 59.3078L116.432 60.9813C117.085 61.6309 117.19 62.6505 116.684 63.42ZM116.065 53.4868L88.8248 26.2467L107.838 14.6273L127.684 34.4736L116.065 53.4868ZM135.378 31.0585C134.261 32.1252 132.503 32.1252 131.386 31.0585L111.253 10.9254C110.152 9.82276 110.152 8.03657 111.253 6.93397C112.37 5.86723 114.128 5.86723 115.245 6.93397L135.378 27.0671C136.479 28.1694 136.479 29.9559 135.378 31.0585Z" fill="white"/>
<path d="M143.474 117.8C140.514 115.733 136.991 114.626 133.382 114.629C129.778 114.634 126.263 115.75 123.315 117.825C115.351 112.236 104.364 114.162 98.7759 122.126C93.1874 130.09 95.1133 141.077 103.077 146.665C109.15 150.927 117.242 150.927 123.315 146.665C131.286 152.232 142.261 150.283 147.827 142.312C153.394 134.34 151.445 123.366 143.474 117.8ZM113.249 144.828C106.303 144.82 100.674 139.191 100.666 132.245C100.675 125.305 106.309 119.687 113.249 119.697C120.188 119.707 125.807 125.341 125.797 132.28C125.787 139.206 120.175 144.819 113.249 144.828ZM139.725 143.122C137.799 144.243 135.61 144.832 133.382 144.828C131.164 144.821 128.988 144.223 127.078 143.097C132.128 136.744 132.128 127.746 127.078 121.393C133.078 117.901 140.773 119.934 144.265 125.934C147.758 131.934 145.725 139.63 139.725 143.122Z" fill="white"/>
<path d="M10.0666 134.762H5.03333V139.795H10.0666V134.762Z" fill="white"/>
<path d="M10.0666 144.828H5.03333V149.862H10.0666V144.828Z" fill="white"/>
<path d="M15.0998 139.795H10.0665V144.828H15.0998V139.795Z" fill="white"/>
<path d="M5.03328 139.795H0V144.828H5.03328V139.795Z" fill="white"/>
</g>
<defs>
<filter id="filter0_d" x="0" y="0" width="160" height="162" filterUnits="userSpaceOnUse" color-interpolation-filters="sRGB">
<feFlood flood-opacity="0" result="BackgroundImageFix"/>
<feColorMatrix in="SourceAlpha" type="matrix" values="0 0 0 0 0 0 0 0 0 0 0 0 0 0 0 0 0 0 127 0"/>
<feOffset dx="5" dy="7"/>
<feGaussianBlur stdDeviation="2"/>
<feColorMatrix type="matrix" values="0 0 0 0 0 0 0 0 0 0 0 0 0 0 0 0 0 0 0.25 0"/>
<feBlend mode="normal" in2="BackgroundImageFix" result="effect1_dropShadow"/>
<feBlend mode="normal" in="SourceGraphic" in2="effect1_dropShadow" result="shape"/>
</filter>
</defs>
</svg>
