<svg width="515" height="585" viewBox="0 0 515 585" fill="none" xmlns="http://www.w3.org/2000/svg">
<g id="card">
<g id="whiteCardItem" filter="url(#filter0_d)">
<path d="M145 60.5L457.5 17.5L374.5 471L56 516L145 60.5Z" fill="white"/>
</g>
<g id="upper_card_item">
<g id="pinkCardItem" filter="url(#filter1_d)">
<path d="M407.425 115.566L112.749 3L91.0271 463.521L391.096 579.392L407.425 115.566Z" fill="url(#paint0_linear)"/>
</g>
<path id="Rectangle 20" d="M100 282.5H239V336.5H97L100 282.5Z" fill="white"/>
<path id="Rectangle 21" d="M394.5 479H253.5V425H396.5L394.5 479Z" fill="white"/>
<path id="Deposit" d="M124.575 321C124.458 321 124.4 320.942 124.4 320.825L124.47 296.78C124.47 296.687 124.517 296.64 124.61 296.64L131.155 296.605C132.438 296.582 133.605 296.885 134.655 297.515C135.728 298.145 136.58 298.997 137.21 300.07C137.84 301.12 138.155 302.287 138.155 303.57V313.615C138.155 314.968 137.828 316.205 137.175 317.325C136.522 318.422 135.647 319.297 134.55 319.95C133.453 320.603 132.217 320.942 130.84 320.965L124.575 321ZM128.67 316.695H130.84C131.703 316.695 132.427 316.392 133.01 315.785C133.617 315.178 133.92 314.455 133.92 313.615V303.535C133.92 302.788 133.64 302.147 133.08 301.61C132.543 301.05 131.902 300.782 131.155 300.805L128.705 300.84L128.67 316.695ZM141.049 321C140.955 321 140.909 320.942 140.909 320.825L140.944 296.78C140.944 296.687 140.99 296.64 141.084 296.64H152.319C152.412 296.64 152.459 296.698 152.459 296.815V300.735C152.459 300.828 152.412 300.875 152.319 300.875H145.144V306.335H152.319C152.412 306.335 152.459 306.382 152.459 306.475L152.494 310.43C152.494 310.523 152.447 310.57 152.354 310.57H145.144V316.695H152.354C152.447 316.695 152.494 316.753 152.494 316.87V320.86C152.494 320.953 152.447 321 152.354 321H141.049ZM155.781 321C155.664 321 155.606 320.942 155.606 320.825L155.676 296.78C155.676 296.687 155.723 296.64 155.816 296.64H162.536C164.683 296.64 166.374 297.293 167.611 298.6C168.871 299.907 169.501 301.68 169.501 303.92C169.501 305.577 169.174 307.012 168.521 308.225C167.868 309.438 167.016 310.372 165.966 311.025C164.916 311.678 163.773 312.005 162.536 312.005H159.876V320.825C159.876 320.942 159.818 321 159.701 321H155.781ZM159.876 307.77H162.536C163.283 307.77 163.924 307.42 164.461 306.72C165.021 305.997 165.301 305.063 165.301 303.92C165.301 303.01 165.056 302.263 164.566 301.68C164.076 301.097 163.399 300.805 162.536 300.805L159.876 300.84V307.77ZM178.009 321.35C176.749 321.35 175.594 321.035 174.544 320.405C173.517 319.752 172.689 318.9 172.059 317.85C171.429 316.777 171.114 315.598 171.114 314.315L171.149 303.22C171.149 301.937 171.452 300.77 172.059 299.72C172.689 298.67 173.529 297.83 174.579 297.2C175.629 296.57 176.772 296.255 178.009 296.255C179.269 296.255 180.412 296.57 181.439 297.2C182.465 297.83 183.282 298.67 183.889 299.72C184.519 300.77 184.834 301.937 184.834 303.22L184.869 314.315C184.869 315.598 184.554 316.777 183.924 317.85C183.317 318.9 182.489 319.752 181.439 320.405C180.412 321.035 179.269 321.35 178.009 321.35ZM178.009 317.115C178.709 317.115 179.315 316.835 179.829 316.275C180.365 315.692 180.634 315.038 180.634 314.315L180.599 303.22C180.599 302.45 180.354 301.797 179.864 301.26C179.374 300.723 178.755 300.455 178.009 300.455C177.285 300.455 176.667 300.723 176.154 301.26C175.64 301.773 175.384 302.427 175.384 303.22V314.315C175.384 315.085 175.64 315.75 176.154 316.31C176.667 316.847 177.285 317.115 178.009 317.115ZM193.48 321.35C192.22 321.35 191.065 321.035 190.015 320.405C188.988 319.752 188.16 318.9 187.53 317.85C186.923 316.777 186.62 315.598 186.62 314.315V312.705C186.62 312.588 186.678 312.53 186.795 312.53H190.715C190.808 312.53 190.855 312.588 190.855 312.705V314.315C190.855 315.085 191.112 315.75 191.625 316.31C192.138 316.847 192.757 317.115 193.48 317.115C194.203 317.115 194.822 316.835 195.335 316.275C195.848 315.715 196.105 315.062 196.105 314.315C196.105 313.452 195.545 312.705 194.425 312.075C194.052 311.865 193.468 311.538 192.675 311.095C191.882 310.652 191.135 310.232 190.435 309.835C189.152 309.088 188.195 308.155 187.565 307.035C186.958 305.892 186.655 304.608 186.655 303.185C186.655 301.878 186.97 300.712 187.6 299.685C188.23 298.635 189.058 297.807 190.085 297.2C191.135 296.593 192.267 296.29 193.48 296.29C194.717 296.29 195.848 296.605 196.875 297.235C197.925 297.842 198.753 298.67 199.36 299.72C199.99 300.747 200.305 301.902 200.305 303.185V306.055C200.305 306.148 200.258 306.195 200.165 306.195H196.245C196.152 306.195 196.105 306.148 196.105 306.055L196.07 303.185C196.07 302.368 195.813 301.703 195.3 301.19C194.787 300.677 194.18 300.42 193.48 300.42C192.757 300.42 192.138 300.7 191.625 301.26C191.112 301.797 190.855 302.438 190.855 303.185C190.855 303.955 191.018 304.597 191.345 305.11C191.672 305.623 192.267 306.113 193.13 306.58C193.247 306.65 193.468 306.778 193.795 306.965C194.145 307.128 194.518 307.327 194.915 307.56C195.312 307.77 195.662 307.957 195.965 308.12C196.292 308.283 196.49 308.388 196.56 308.435C197.727 309.088 198.648 309.893 199.325 310.85C200.002 311.783 200.34 312.938 200.34 314.315C200.34 315.645 200.025 316.847 199.395 317.92C198.788 318.97 197.96 319.81 196.91 320.44C195.883 321.047 194.74 321.35 193.48 321.35ZM202.949 321C202.832 321 202.774 320.942 202.774 320.825L202.809 296.78C202.809 296.687 202.856 296.64 202.949 296.64H206.869C206.962 296.64 207.009 296.687 207.009 296.78L207.044 320.825C207.044 320.942 206.997 321 206.904 321H202.949ZM213.623 321C213.529 321 213.483 320.942 213.483 320.825V300.875H208.933C208.816 300.875 208.758 300.817 208.758 300.7L208.793 296.78C208.793 296.687 208.839 296.64 208.933 296.64H222.233C222.349 296.64 222.408 296.687 222.408 296.78V300.7C222.408 300.817 222.361 300.875 222.268 300.875H217.683L217.718 320.825C217.718 320.942 217.671 321 217.578 321H213.623Z" fill="#C4154C"/>
<path id="Earn CRC" d="M267.54 463C267.447 463 267.4 462.942 267.4 462.825L267.435 438.78C267.435 438.687 267.482 438.64 267.575 438.64H278.81C278.903 438.64 278.95 438.698 278.95 438.815V442.735C278.95 442.828 278.903 442.875 278.81 442.875H271.635V448.335H278.81C278.903 448.335 278.95 448.382 278.95 448.475L278.985 452.43C278.985 452.523 278.938 452.57 278.845 452.57H271.635V458.695H278.845C278.938 458.695 278.985 458.753 278.985 458.87V462.86C278.985 462.953 278.938 463 278.845 463H267.54ZM280.565 462.825L284.905 438.78C284.929 438.687 284.987 438.64 285.08 438.64H290.155C290.249 438.64 290.307 438.687 290.33 438.78L294.495 462.825C294.519 462.942 294.472 463 294.355 463H290.47C290.377 463 290.319 462.942 290.295 462.825L289.91 460.27H285.15L284.765 462.825C284.742 462.942 284.684 463 284.59 463H280.705C280.612 463 280.565 462.942 280.565 462.825ZM285.85 456.525H289.21L287.775 446.69L287.565 445.395L287.425 446.69L285.85 456.525ZM296.832 463C296.739 463 296.692 462.942 296.692 462.825L296.762 438.78C296.762 438.687 296.809 438.64 296.902 438.64H303.972C305.232 438.64 306.387 438.955 307.437 439.585C308.51 440.192 309.362 441.02 309.992 442.07C310.622 443.097 310.937 444.263 310.937 445.57C310.937 446.433 310.809 447.215 310.552 447.915C310.295 448.592 309.992 449.175 309.642 449.665C309.292 450.132 308.977 450.482 308.697 450.715C309.957 452.115 310.587 453.76 310.587 455.65L310.622 462.825C310.622 462.942 310.564 463 310.447 463H306.492C306.399 463 306.352 462.965 306.352 462.895V455.65C306.352 454.81 306.049 454.087 305.442 453.48C304.859 452.85 304.135 452.535 303.272 452.535H300.962L300.927 462.825C300.927 462.942 300.88 463 300.787 463H296.832ZM300.962 448.335H303.972C304.695 448.335 305.337 448.067 305.897 447.53C306.457 446.993 306.737 446.34 306.737 445.57C306.737 444.823 306.457 444.182 305.897 443.645C305.36 443.108 304.719 442.84 303.972 442.84H300.962V448.335ZM313.892 463C313.705 463 313.612 462.918 313.612 462.755L313.577 438.92C313.577 438.733 313.67 438.64 313.857 438.64H317.007L322.922 452.43L322.747 438.92C322.747 438.733 322.852 438.64 323.062 438.64H326.527C326.667 438.64 326.737 438.733 326.737 438.92L326.772 462.79C326.772 462.93 326.713 463 326.597 463H323.517L317.462 450.12L317.707 462.72C317.707 462.907 317.602 463 317.392 463H313.892ZM341.447 463.35C340.164 463.35 338.997 463.035 337.947 462.405C336.921 461.752 336.104 460.888 335.497 459.815C334.891 458.742 334.587 457.54 334.587 456.21L334.622 445.29C334.622 444.007 334.914 442.84 335.497 441.79C336.104 440.717 336.921 439.865 337.947 439.235C338.997 438.582 340.164 438.255 341.447 438.255C342.731 438.255 343.886 438.57 344.912 439.2C345.939 439.83 346.756 440.682 347.362 441.755C347.969 442.805 348.272 443.983 348.272 445.29V446.9C348.272 446.993 348.226 447.04 348.132 447.04H344.212C344.119 447.04 344.072 446.993 344.072 446.9V445.29C344.072 444.52 343.816 443.855 343.302 443.295C342.812 442.735 342.194 442.455 341.447 442.455C340.607 442.455 339.966 442.747 339.522 443.33C339.079 443.89 338.857 444.543 338.857 445.29V456.21C338.857 457.073 339.102 457.773 339.592 458.31C340.106 458.847 340.724 459.115 341.447 459.115C342.194 459.115 342.812 458.823 343.302 458.24C343.816 457.633 344.072 456.957 344.072 456.21V454.6C344.072 454.507 344.119 454.46 344.212 454.46H348.167C348.261 454.46 348.307 454.507 348.307 454.6V456.21C348.307 457.54 347.992 458.742 347.362 459.815C346.756 460.888 345.939 461.752 344.912 462.405C343.886 463.035 342.731 463.35 341.447 463.35ZM351.007 463C350.913 463 350.867 462.942 350.867 462.825L350.937 438.78C350.937 438.687 350.983 438.64 351.077 438.64H358.147C359.407 438.64 360.562 438.955 361.612 439.585C362.685 440.192 363.537 441.02 364.167 442.07C364.797 443.097 365.112 444.263 365.112 445.57C365.112 446.433 364.983 447.215 364.727 447.915C364.47 448.592 364.167 449.175 363.817 449.665C363.467 450.132 363.152 450.482 362.872 450.715C364.132 452.115 364.762 453.76 364.762 455.65L364.797 462.825C364.797 462.942 364.738 463 364.622 463H360.667C360.573 463 360.527 462.965 360.527 462.895V455.65C360.527 454.81 360.223 454.087 359.617 453.48C359.033 452.85 358.31 452.535 357.447 452.535H355.137L355.102 462.825C355.102 462.942 355.055 463 354.962 463H351.007ZM355.137 448.335H358.147C358.87 448.335 359.512 448.067 360.072 447.53C360.632 446.993 360.912 446.34 360.912 445.57C360.912 444.823 360.632 444.182 360.072 443.645C359.535 443.108 358.893 442.84 358.147 442.84H355.137V448.335ZM374.021 463.35C372.737 463.35 371.571 463.035 370.521 462.405C369.494 461.752 368.677 460.888 368.071 459.815C367.464 458.742 367.161 457.54 367.161 456.21L367.196 445.29C367.196 444.007 367.487 442.84 368.071 441.79C368.677 440.717 369.494 439.865 370.521 439.235C371.571 438.582 372.737 438.255 374.021 438.255C375.304 438.255 376.459 438.57 377.486 439.2C378.512 439.83 379.329 440.682 379.936 441.755C380.542 442.805 380.846 443.983 380.846 445.29V446.9C380.846 446.993 380.799 447.04 380.706 447.04H376.786C376.692 447.04 376.646 446.993 376.646 446.9V445.29C376.646 444.52 376.389 443.855 375.876 443.295C375.386 442.735 374.767 442.455 374.021 442.455C373.181 442.455 372.539 442.747 372.096 443.33C371.652 443.89 371.431 444.543 371.431 445.29V456.21C371.431 457.073 371.676 457.773 372.166 458.31C372.679 458.847 373.297 459.115 374.021 459.115C374.767 459.115 375.386 458.823 375.876 458.24C376.389 457.633 376.646 456.957 376.646 456.21V454.6C376.646 454.507 376.692 454.46 376.786 454.46H380.741C380.834 454.46 380.881 454.507 380.881 454.6V456.21C380.881 457.54 380.566 458.742 379.936 459.815C379.329 460.888 378.512 461.752 377.486 462.405C376.459 463.035 375.304 463.35 374.021 463.35Z" fill="#C90F3D"/>
</g>
</g>
<defs>
<filter id="filter0_d" x="56" y="17.5" width="410.5" height="508.5" filterUnits="userSpaceOnUse" color-interpolation-filters="sRGB">
<feFlood flood-opacity="0" result="BackgroundImageFix"/>
<feColorMatrix in="SourceAlpha" type="matrix" values="0 0 0 0 0 0 0 0 0 0 0 0 0 0 0 0 0 0 127 0"/>
<feOffset dx="5" dy="6"/>
<feGaussianBlur stdDeviation="2"/>
<feColorMatrix type="matrix" values="0 0 0 0 0 0 0 0 0 0 0 0 0 0 0 0 0 0 0.25 0"/>
<feBlend mode="normal" in2="BackgroundImageFix" result="effect1_dropShadow"/>
<feBlend mode="normal" in="SourceGraphic" in2="effect1_dropShadow" result="shape"/>
</filter>
<filter id="filter1_d" x="0" y="0" width="514.845" height="584.392" filterUnits="userSpaceOnUse" color-interpolation-filters="sRGB">
<feFlood flood-opacity="0" result="BackgroundImageFix"/>
<feColorMatrix in="SourceAlpha" type="matrix" values="0 0 0 0 0 0 0 0 0 0 0 0 0 0 0 0 0 0 127 0"/>
<feOffset dx="7" dy="1"/>
<feGaussianBlur stdDeviation="2"/>
<feColorMatrix type="matrix" values="0 0 0 0 0 0 0 0 0 0 0 0 0 0 0 0 0 0 0.25 0"/>
<feBlend mode="normal" in2="BackgroundImageFix" result="effect1_dropShadow"/>
<feBlend mode="normal" in="SourceGraphic" in2="effect1_dropShadow" result="shape"/>
</filter>
<linearGradient id="paint0_linear" x1="165.009" y1="74.1627" x2="486.731" y2="523.574" gradientUnits="userSpaceOnUse">
<stop offset="0.078125" stop-color="#D5308A"/>
<stop offset="0.520833" stop-color="#BD0A34"/>
<stop offset="0.878595" stop-color="#E2194E"/>
</linearGradient>
</defs>
</svg>
