<svg width="141" height="143" viewBox="0 0 141 143" fill="none" xmlns="http://www.w3.org/2000/svg">
<g filter="url(#filter0_d)">
<path d="M96.0109 90.1965C94.044 89.363 91.7745 90.2821 90.9415 92.2487C86.6824 102.301 76.8923 108.797 65.9999 108.797C55.1076 108.797 45.3174 102.301 41.0584 92.2484C40.2251 90.2818 37.9556 89.3632 35.989 90.1962C34.0224 91.0295 33.1036 93.2993 33.9368 95.2656C39.4102 108.184 51.9956 116.531 65.9999 116.531C80.0043 116.531 92.5897 108.184 98.063 95.2659C98.8963 93.2993 97.9774 91.0297 96.0109 90.1965Z" fill="white"/>
<path d="M116.273 62.3906C116.273 58.9522 116.273 7.38838 116.273 3.86718C116.273 2.65056 115.701 1.5051 114.728 0.774719C113.755 0.0443367 112.495 -0.18589 111.328 0.153649C111.328 0.153649 54.3732 16.3992 52.8866 16.7954C50.392 11.5933 45.0739 7.99218 38.9297 7.99218C36.2036 7.99218 33.5419 8.72798 31.1953 10.1021C28.849 8.72798 26.187 7.99218 23.4609 7.99218C14.9315 7.99218 7.99219 14.9315 7.99219 23.4609C7.99219 26.187 8.72798 28.8487 10.1021 31.1953C8.72798 33.5419 7.99219 36.2038 7.99219 38.9297C7.99219 45.2933 11.8558 50.77 17.3595 53.1419C16.5993 56.1379 16.0983 59.2536 15.8704 62.3906H15.7266C7.24582 62.3906 0 69.2443 0 77.8594C0 86.4765 7.24762 93.3281 15.7266 93.3281H17.0801C22.3317 115.474 42.2712 132 66 132C89.7288 132 109.668 115.474 114.92 93.3281H116.273C124.754 93.3281 132 86.4744 132 77.8594C132 69.2422 124.752 62.3906 116.273 62.3906ZM15.7266 85.5937C11.3943 85.5937 7.73438 82.0519 7.73438 77.8594C7.73438 73.6668 11.3943 70.125 15.7266 70.125V81.7266C15.7266 83.0275 15.7763 84.3173 15.8738 85.5937H15.7266ZM75.8206 18.5215C76.9661 19.8954 77.6016 21.6248 77.6016 23.4609C77.6016 27.5228 74.4537 30.8607 70.4697 31.1695C68.0651 28.3145 65.8817 25.2429 63.9545 21.9682L75.8206 18.5215ZM15.7266 38.9297C15.7266 36.5269 16.8233 34.8049 17.7434 33.7835C19.0688 32.3127 19.0688 30.0782 17.7434 28.6071C16.8236 27.5857 15.7266 25.8637 15.7266 23.4609C15.7266 19.1962 19.1962 15.7266 23.4609 15.7266C25.8638 15.7266 27.5857 16.8233 28.6069 17.7434C30.078 19.0686 32.3124 19.0686 33.7835 17.7434C34.8052 16.8235 36.5269 15.7266 38.9297 15.7266C43.1944 15.7266 46.6641 19.1962 46.6641 23.4609C46.6641 27.7257 43.1944 31.1953 38.9297 31.1953C37.7989 31.1953 36.6607 30.9174 35.5462 30.369C34.0604 29.6381 32.2748 29.9338 31.1043 31.1043C29.9336 32.275 29.6379 34.0609 30.3688 35.5462C30.9174 36.6607 31.1953 37.7989 31.1953 38.9297C31.1953 43.1944 27.7257 46.6641 23.4609 46.6641C19.1962 46.6641 15.7266 43.1944 15.7266 38.9297ZM108.539 81.7268C108.539 105.183 89.4563 124.266 66 124.266C42.544 124.266 23.4609 105.183 23.4609 81.7266V66.2578C23.4609 62.2104 24.0049 58.1334 25.0452 54.3177C32.8335 53.5219 38.9297 46.9244 38.9297 38.9297C47.1415 38.9297 53.8766 32.4967 54.3667 24.4058C54.9708 24.2364 55.5787 24.081 56.19 23.9397C61.2168 33.0541 68.1357 41.0479 76.2462 47.2426C85.2215 54.0978 95.8189 58.8921 106.893 61.107L108.539 61.4362V81.7268ZM108.539 38.9297C104.274 38.9297 100.805 35.46 100.805 31.1953C100.805 26.9306 104.274 23.4609 108.539 23.4609V38.9297ZM108.539 15.7266C100.01 15.7266 93.0703 22.6658 93.0703 31.1953C93.0703 39.7248 100.01 46.6641 108.539 46.6641V53.5484L108.41 53.5226C96.2685 51.0943 85.3238 45.4946 76.4914 37.4364C81.7155 34.9503 85.3359 29.6211 85.3359 23.4609C85.3359 20.9037 84.7156 18.4524 83.5697 16.2705L108.539 9.01776V15.7266ZM116.273 85.5937H116.126C116.224 84.3173 116.273 83.0277 116.273 81.7266V70.125C120.606 70.125 124.266 73.6668 124.266 77.8594C124.266 82.0519 120.606 85.5937 116.273 85.5937Z" fill="white"/>
<path d="M66 77.8594C59.6029 77.8594 54.3984 83.0638 54.3984 89.4609C54.3984 95.858 59.6029 101.062 66 101.062C72.3971 101.062 77.6016 95.858 77.6016 89.4609C77.6016 83.0638 72.3971 77.8594 66 77.8594ZM66 93.3281C63.8676 93.3281 62.1328 91.5933 62.1328 89.4609C62.1328 87.3286 63.8676 85.5938 66 85.5938C68.1324 85.5938 69.8672 87.3286 69.8672 89.4609C69.8672 91.5933 68.1324 93.3281 66 93.3281Z" fill="white"/>
<path d="M50.5312 70.125H46.6641V66.2578C46.6641 64.1221 44.9326 62.3906 42.7969 62.3906C40.6612 62.3906 38.9297 64.1221 38.9297 66.2578V70.125H35.0625C32.9268 70.125 31.1953 71.8565 31.1953 73.9922C31.1953 76.1279 32.9268 77.8594 35.0625 77.8594H38.9297V81.7266C38.9297 83.8623 40.6612 85.5938 42.7969 85.5938C44.9326 85.5938 46.6641 83.8623 46.6641 81.7266V77.8594H50.5312C52.667 77.8594 54.3984 76.1279 54.3984 73.9922C54.3984 71.8565 52.667 70.125 50.5312 70.125Z" fill="white"/>
<path d="M96.9375 70.125H93.0703V66.2578C93.0703 64.1221 91.3388 62.3906 89.2031 62.3906C87.0674 62.3906 85.3359 64.1221 85.3359 66.2578V70.125H81.4688C79.333 70.125 77.6016 71.8565 77.6016 73.9922C77.6016 76.1279 79.333 77.8594 81.4688 77.8594H85.3359V81.7266C85.3359 83.8623 87.0674 85.5938 89.2031 85.5938C91.3388 85.5938 93.0703 83.8623 93.0703 81.7266V77.8594H96.9375C99.0732 77.8594 100.805 76.1279 100.805 73.9922C100.805 71.8565 99.0732 70.125 96.9375 70.125Z" fill="white"/>
</g>
<defs>
<filter id="filter0_d" x="0" y="0" width="141" height="143" filterUnits="userSpaceOnUse" color-interpolation-filters="sRGB">
<feFlood flood-opacity="0" result="BackgroundImageFix"/>
<feColorMatrix in="SourceAlpha" type="matrix" values="0 0 0 0 0 0 0 0 0 0 0 0 0 0 0 0 0 0 127 0"/>
<feOffset dx="5" dy="7"/>
<feGaussianBlur stdDeviation="2"/>
<feColorMatrix type="matrix" values="0 0 0 0 0 0 0 0 0 0 0 0 0 0 0 0 0 0 0.25 0"/>
<feBlend mode="normal" in2="BackgroundImageFix" result="effect1_dropShadow"/>
<feBlend mode="normal" in="SourceGraphic" in2="effect1_dropShadow" result="shape"/>
</filter>
</defs>
</svg>
