<svg width="273" height="273" viewBox="0 0 273 273" fill="none" xmlns="http://www.w3.org/2000/svg">
<g clip-path="url(#clip0)" filter="url(#filter0_d)">
<path d="M199.936 210.647L190.913 218.632C184.881 211.816 185.867 204.602 186.583 199.327C187.243 194.459 187.456 192 185.002 189.228C182.549 186.456 180.079 186.364 175.169 186.43C169.85 186.504 162.565 186.602 156.534 179.787C150.502 172.971 151.488 165.756 152.204 160.482C152.864 155.615 153.077 153.156 150.629 150.389C148.18 147.623 145.708 147.529 140.802 147.599C135.484 147.671 128.2 147.771 122.168 140.956C116.136 134.141 117.123 126.925 117.842 121.656C118.502 116.789 118.716 114.331 116.267 111.564C113.817 108.796 111.345 108.702 106.44 108.773C101.121 108.847 93.8375 108.946 87.8069 102.132C81.7763 95.3178 82.7618 88.1003 83.4791 82.8296C84.139 77.9622 84.3531 75.5044 81.9036 72.7367L90.9262 64.7514C96.9578 71.5664 95.9713 78.7828 95.254 84.0535C94.593 88.9219 94.38 91.3787 96.8295 94.1464C99.279 96.9142 101.749 97.0078 106.656 96.9368C111.974 96.8642 119.259 96.7643 125.29 103.579C131.322 110.394 130.335 117.611 129.616 122.881C128.956 127.749 128.742 130.204 131.193 132.973C133.643 135.742 136.113 135.836 141.019 135.764C146.338 135.69 153.622 135.591 159.653 142.406C165.685 149.221 164.699 156.437 163.983 161.71C163.322 166.579 163.11 169.037 165.558 171.803C168.007 174.57 170.48 174.667 175.385 174.594C180.705 174.521 187.99 174.423 194.022 181.24C200.055 188.056 199.068 195.27 198.353 200.545C197.692 205.413 197.483 207.875 199.936 210.647Z" fill="#FDBF00"/>
<path d="M210.342 161.457L199.698 167.104C194.63 157.554 196.861 149.981 198.488 144.445C199.989 139.334 200.621 136.712 198.564 132.835C196.507 128.958 193.976 128.003 188.907 126.39C183.415 124.637 175.89 122.237 170.822 112.686C165.754 103.135 167.986 95.5623 169.615 90.0331C171.116 84.9224 171.75 82.3019 169.691 78.4231C167.633 74.5443 165.102 73.589 160.034 71.9778C154.541 70.226 147.018 67.8252 141.951 58.2758C136.883 48.7264 139.115 41.1518 140.742 35.6195C142.243 30.5089 143.419 27.6708 140.818 24.0096L139.113 20.5754L146.803 23.5188C151.871 33.0697 154.297 35.486 152.671 41.0176C151.17 46.1282 150.536 48.7494 152.594 52.6282C154.652 56.507 157.183 57.4601 162.252 59.0728C167.743 60.826 175.267 63.2261 180.335 72.777C185.403 82.328 183.171 89.9011 181.544 95.4318C180.044 100.542 179.408 103.161 181.467 107.042C183.526 110.922 186.058 111.875 191.125 113.486C196.618 115.239 204.141 117.64 209.209 127.191C214.277 136.742 212.046 144.314 210.421 149.849C208.912 154.946 208.281 157.573 210.342 161.457Z" fill="#FFC700"/>
<path d="M153.653 187.319L148.816 196.05C145.597 194.267 143.397 194.741 139.121 195.897C134.475 197.149 128.128 198.853 120.212 194.467C112.296 190.081 110.375 183.796 108.973 179.2C107.677 174.958 106.917 172.843 103.703 171.062C100.49 169.282 98.2931 169.758 94.0095 170.908C89.3738 172.158 83.0239 173.869 75.1081 169.484C67.1923 165.098 65.2776 158.807 63.8751 154.213C62.5794 149.97 61.8198 147.856 58.6051 146.075C55.3903 144.294 53.1875 144.766 48.9109 145.922C44.2656 147.165 37.9188 148.871 30.003 144.485L34.8408 135.754C38.0581 137.536 40.259 137.061 44.5349 135.907C49.1714 134.659 55.5212 132.947 63.437 137.333C71.3528 141.719 73.2681 148.008 74.6688 152.603C75.965 156.845 76.724 158.96 79.9388 160.741C83.1535 162.522 85.3493 162.044 89.6329 160.894C94.2765 159.657 100.626 157.938 108.544 162.325C116.462 166.713 118.374 173.002 119.777 177.596C121.073 181.838 121.833 183.953 125.047 185.734C128.26 187.514 130.466 187.042 134.741 185.887C139.384 184.648 145.737 182.933 153.653 187.319Z" fill="#FFDA2D"/>
<path d="M109.413 85.661L110.175 73.1719L122.664 73.9336L121.902 86.4227L109.413 85.661Z" fill="#979FEF"/>
<path d="M214.781 172.359L215.543 159.87L228.032 160.631L227.27 173.12L214.781 172.359Z" fill="#979FEF"/>
<path d="M121.214 243.337L121.976 230.848L134.465 231.61L133.704 244.099L121.214 243.337Z" fill="#979FEF"/>
<path d="M118.417 177.407L119.179 164.918L131.668 165.679L130.906 178.168L118.417 177.407Z" fill="#979FEF"/>
<path d="M157.41 88.6852C158.539 89.9609 159.264 91.5427 159.494 93.2307C159.724 94.9186 159.448 96.6369 158.702 98.1682C157.955 99.6995 156.772 100.975 155.3 101.833C153.829 102.692 152.136 103.095 150.435 102.991C148.735 102.887 147.103 102.282 145.747 101.251C144.391 100.22 143.371 98.8099 142.816 97.1993C142.261 95.5886 142.196 93.8496 142.63 92.2021C143.063 90.5546 143.975 89.0726 145.251 87.9436C146.098 87.1938 147.084 86.6181 148.154 86.2496C149.223 85.881 150.355 85.7268 151.484 85.7957C152.613 85.8645 153.718 86.1552 154.734 86.6509C155.751 87.1467 156.66 87.838 157.41 88.6852Z" fill="#FF7CB9"/>
<path d="M107.822 134.958C108.951 136.234 109.677 137.816 109.907 139.504C110.137 141.192 109.862 142.91 109.115 144.442C108.369 145.973 107.185 147.249 105.713 148.107C104.242 148.966 102.549 149.369 100.848 149.265C99.1478 149.162 97.5162 148.556 96.1599 147.525C94.8036 146.494 93.7836 145.084 93.2288 143.473C92.674 141.862 92.6093 140.123 93.043 138.475C93.4767 136.828 94.3893 135.346 95.6653 134.217C96.5122 133.467 97.4984 132.892 98.5676 132.524C99.6369 132.155 100.768 132.001 101.897 132.07C103.026 132.139 104.13 132.429 105.147 132.925C106.163 133.42 107.072 134.111 107.822 134.958Z" fill="#FF7CB9"/>
<path d="M101.881 198.759C103.01 200.035 103.736 201.617 103.965 203.305C104.195 204.993 103.92 206.711 103.173 208.243C102.426 209.774 101.243 211.049 99.771 211.908C98.2994 212.766 96.6063 213.169 94.9059 213.065C93.2054 212.961 91.574 212.355 90.2178 211.324C88.8617 210.293 87.8417 208.883 87.287 207.272C86.7323 205.662 86.6677 203.922 87.1014 202.275C87.5352 200.627 88.4477 199.146 89.7236 198.017C90.5706 197.267 91.5569 196.692 92.6263 196.323C93.6957 195.955 94.8272 195.801 95.9561 195.87C97.0851 195.939 98.1894 196.229 99.206 196.725C100.223 197.221 101.132 197.912 101.881 198.759Z" fill="#FF7CB9"/>
<path d="M167.856 211.805C168.985 213.081 169.711 214.663 169.941 216.351C170.171 218.039 169.895 219.757 169.149 221.288C168.402 222.819 167.218 224.095 165.747 224.953C164.275 225.812 162.582 226.215 160.882 226.111C159.182 226.007 157.55 225.402 156.194 224.371C154.838 223.34 153.818 221.93 153.263 220.319C152.708 218.709 152.643 216.97 153.076 215.322C153.51 213.675 154.422 212.193 155.698 211.064C157.408 209.55 159.651 208.777 161.931 208.916C164.211 209.055 166.342 210.094 167.856 211.805Z" fill="#FF7CB9"/>
<path d="M236.392 113.245C237.521 114.52 238.246 116.102 238.476 117.79C238.706 119.478 238.431 121.197 237.684 122.728C236.938 124.259 235.754 125.535 234.282 126.393C232.811 127.252 231.118 127.654 229.417 127.551C227.717 127.447 226.086 126.841 224.729 125.81C223.373 124.78 222.353 123.37 221.798 121.759C221.243 120.148 221.178 118.409 221.612 116.762C222.045 115.114 222.958 113.632 224.233 112.503C225.944 110.989 228.186 110.217 230.466 110.356C232.746 110.495 234.878 111.534 236.392 113.245Z" fill="#FF7CB9"/>
<path d="M155.246 35.5629L155.862 25.4689L165.956 26.0846L165.34 36.1786L155.246 35.5629Z" fill="#979FEF"/>
</g>
<defs>
<filter id="filter0_d" x="-4" y="9.15527e-05" width="280.126" height="280.126" filterUnits="userSpaceOnUse" color-interpolation-filters="sRGB">
<feFlood flood-opacity="0" result="BackgroundImageFix"/>
<feColorMatrix in="SourceAlpha" type="matrix" values="0 0 0 0 0 0 0 0 0 0 0 0 0 0 0 0 0 0 127 0"/>
<feOffset dy="4"/>
<feGaussianBlur stdDeviation="2"/>
<feColorMatrix type="matrix" values="0 0 0 0 0 0 0 0 0 0 0 0 0 0 0 0 0 0 0.25 0"/>
<feBlend mode="normal" in2="BackgroundImageFix" result="effect1_dropShadow"/>
<feBlend mode="normal" in="SourceGraphic" in2="effect1_dropShadow" result="shape"/>
</filter>
<clipPath id="clip0">
<rect width="192.78" height="192.78" fill="white" transform="translate(0 127.765) rotate(-41.5099)"/>
</clipPath>
</defs>
</svg>
