<svg width="142" height="55" viewBox="0 0 142 55" fill="none" xmlns="http://www.w3.org/2000/svg">
<path d="M0 0.5H142V54.5H0V0.5Z" fill="white"/>
<path d="M27.575 39C27.4583 39 27.4 38.9417 27.4 38.825L27.47 14.78C27.47 14.6867 27.5167 14.64 27.61 14.64L34.155 14.605C35.4383 14.5817 36.605 14.885 37.655 15.515C38.7283 16.145 39.58 16.9967 40.21 18.07C40.84 19.12 41.155 20.2867 41.155 21.57V31.615C41.155 32.9683 40.8283 34.205 40.175 35.325C39.5217 36.4217 38.6467 37.2967 37.55 37.95C36.4533 38.6033 35.2167 38.9417 33.84 38.965L27.575 39ZM31.67 34.695H33.84C34.7033 34.695 35.4267 34.3917 36.01 33.785C36.6167 33.1783 36.92 32.455 36.92 31.615V21.535C36.92 20.7883 36.64 20.1467 36.08 19.61C35.5433 19.05 34.9017 18.7817 34.155 18.805L31.705 18.84L31.67 34.695ZM44.0488 39C43.9555 39 43.9088 38.9417 43.9088 38.825L43.9438 14.78C43.9438 14.6867 43.9905 14.64 44.0838 14.64H55.3188C55.4121 14.64 55.4588 14.6983 55.4588 14.815V18.735C55.4588 18.8283 55.4121 18.875 55.3188 18.875H48.1438V24.335H55.3188C55.4121 24.335 55.4588 24.3817 55.4588 24.475L55.4938 28.43C55.4938 28.5233 55.4471 28.57 55.3538 28.57H48.1438V34.695H55.3538C55.4471 34.695 55.4938 34.7533 55.4938 34.87V38.86C55.4938 38.9533 55.4471 39 55.3538 39H44.0488ZM58.7811 39C58.6644 39 58.6061 38.9417 58.6061 38.825L58.6761 14.78C58.6761 14.6867 58.7227 14.64 58.8161 14.64H65.5361C67.6827 14.64 69.3744 15.2933 70.6111 16.6C71.8711 17.9067 72.5011 19.68 72.5011 21.92C72.5011 23.5767 72.1744 25.0117 71.5211 26.225C70.8677 27.4383 70.0161 28.3717 68.9661 29.025C67.9161 29.6783 66.7727 30.005 65.5361 30.005H62.8761V38.825C62.8761 38.9417 62.8177 39 62.7011 39H58.7811ZM62.8761 25.77H65.5361C66.2827 25.77 66.9244 25.42 67.4611 24.72C68.0211 23.9967 68.3011 23.0633 68.3011 21.92C68.3011 21.01 68.0561 20.2633 67.5661 19.68C67.0761 19.0967 66.3994 18.805 65.5361 18.805L62.8761 18.84V25.77ZM81.0088 39.35C79.7488 39.35 78.5938 39.035 77.5438 38.405C76.5171 37.7517 75.6888 36.9 75.0588 35.85C74.4288 34.7767 74.1138 33.5983 74.1138 32.315L74.1488 21.22C74.1488 19.9367 74.4521 18.77 75.0588 17.72C75.6888 16.67 76.5288 15.83 77.5788 15.2C78.6288 14.57 79.7721 14.255 81.0088 14.255C82.2688 14.255 83.4121 14.57 84.4388 15.2C85.4655 15.83 86.2821 16.67 86.8888 17.72C87.5188 18.77 87.8338 19.9367 87.8338 21.22L87.8688 32.315C87.8688 33.5983 87.5538 34.7767 86.9238 35.85C86.3171 36.9 85.4888 37.7517 84.4388 38.405C83.4121 39.035 82.2688 39.35 81.0088 39.35ZM81.0088 35.115C81.7088 35.115 82.3155 34.835 82.8288 34.275C83.3655 33.6917 83.6338 33.0383 83.6338 32.315L83.5988 21.22C83.5988 20.45 83.3538 19.7967 82.8638 19.26C82.3738 18.7233 81.7555 18.455 81.0088 18.455C80.2855 18.455 79.6671 18.7233 79.1538 19.26C78.6405 19.7733 78.3838 20.4267 78.3838 21.22V32.315C78.3838 33.085 78.6405 33.75 79.1538 34.31C79.6671 34.8467 80.2855 35.115 81.0088 35.115ZM96.4799 39.35C95.2199 39.35 94.0649 39.035 93.0149 38.405C91.9882 37.7517 91.1599 36.9 90.5299 35.85C89.9232 34.7767 89.6199 33.5983 89.6199 32.315V30.705C89.6199 30.5883 89.6782 30.53 89.7949 30.53H93.7149C93.8082 30.53 93.8549 30.5883 93.8549 30.705V32.315C93.8549 33.085 94.1115 33.75 94.6249 34.31C95.1382 34.8467 95.7565 35.115 96.4799 35.115C97.2032 35.115 97.8215 34.835 98.3349 34.275C98.8482 33.715 99.1049 33.0617 99.1049 32.315C99.1049 31.4517 98.5449 30.705 97.4249 30.075C97.0516 29.865 96.4682 29.5383 95.6749 29.095C94.8815 28.6517 94.1349 28.2317 93.4349 27.835C92.1515 27.0883 91.1949 26.155 90.5649 25.035C89.9582 23.8917 89.6549 22.6083 89.6549 21.185C89.6549 19.8783 89.9699 18.7117 90.5999 17.685C91.2299 16.635 92.0582 15.8067 93.0849 15.2C94.1349 14.5933 95.2665 14.29 96.4799 14.29C97.7165 14.29 98.8482 14.605 99.8749 15.235C100.925 15.8417 101.753 16.67 102.36 17.72C102.99 18.7467 103.305 19.9017 103.305 21.185V24.055C103.305 24.1483 103.258 24.195 103.165 24.195H99.2449C99.1516 24.195 99.1049 24.1483 99.1049 24.055L99.0699 21.185C99.0699 20.3683 98.8132 19.7033 98.2999 19.19C97.7865 18.6767 97.1799 18.42 96.4799 18.42C95.7565 18.42 95.1382 18.7 94.6249 19.26C94.1115 19.7967 93.8549 20.4383 93.8549 21.185C93.8549 21.955 94.0182 22.5967 94.3449 23.11C94.6715 23.6233 95.2665 24.1133 96.1299 24.58C96.2465 24.65 96.4682 24.7783 96.7949 24.965C97.1449 25.1283 97.5182 25.3267 97.9149 25.56C98.3115 25.77 98.6615 25.9567 98.9649 26.12C99.2916 26.2833 99.4899 26.3883 99.5599 26.435C100.727 27.0883 101.648 27.8933 102.325 28.85C103.002 29.7833 103.34 30.9383 103.34 32.315C103.34 33.645 103.025 34.8467 102.395 35.92C101.788 36.97 100.96 37.81 99.9099 38.44C98.8832 39.0467 97.7399 39.35 96.4799 39.35ZM105.949 39C105.832 39 105.774 38.9417 105.774 38.825L105.809 14.78C105.809 14.6867 105.856 14.64 105.949 14.64H109.869C109.962 14.64 110.009 14.6867 110.009 14.78L110.044 38.825C110.044 38.9417 109.997 39 109.904 39H105.949ZM116.623 39C116.529 39 116.483 38.9417 116.483 38.825V18.875H111.933C111.816 18.875 111.758 18.8167 111.758 18.7L111.793 14.78C111.793 14.6867 111.839 14.64 111.933 14.64H125.233C125.349 14.64 125.408 14.6867 125.408 14.78V18.7C125.408 18.8167 125.361 18.875 125.268 18.875H120.683L120.718 38.825C120.718 38.9417 120.671 39 120.578 39H116.623Z" fill="#C4154C"/>
</svg>
