<svg width="144" height="54" viewBox="0 0 144 54" fill="none" xmlns="http://www.w3.org/2000/svg">
<path d="M143.5 54H0.5V0H143.5V54Z" fill="white"/>
<path d="M14.54 38C14.4467 38 14.4 37.9417 14.4 37.825L14.435 13.78C14.435 13.6867 14.4817 13.64 14.575 13.64H25.81C25.9033 13.64 25.95 13.6983 25.95 13.815V17.735C25.95 17.8283 25.9033 17.875 25.81 17.875H18.635V23.335H25.81C25.9033 23.335 25.95 23.3817 25.95 23.475L25.985 27.43C25.985 27.5233 25.9383 27.57 25.845 27.57H18.635V33.695H25.845C25.9383 33.695 25.985 33.7533 25.985 33.87V37.86C25.985 37.9533 25.9383 38 25.845 38H14.54ZM27.5655 37.825L31.9055 13.78C31.9288 13.6867 31.9871 13.64 32.0805 13.64H37.1555C37.2488 13.64 37.3071 13.6867 37.3305 13.78L41.4955 37.825C41.5188 37.9417 41.4721 38 41.3555 38H37.4705C37.3771 38 37.3188 37.9417 37.2955 37.825L36.9105 35.27H32.1505L31.7655 37.825C31.7421 37.9417 31.6838 38 31.5905 38H27.7055C27.6121 38 27.5655 37.9417 27.5655 37.825ZM32.8505 31.525H36.2105L34.7755 21.69L34.5655 20.395L34.4255 21.69L32.8505 31.525ZM43.832 38C43.7387 38 43.692 37.9417 43.692 37.825L43.762 13.78C43.762 13.6867 43.8087 13.64 43.902 13.64H50.972C52.232 13.64 53.387 13.955 54.437 14.585C55.5103 15.1917 56.362 16.02 56.992 17.07C57.622 18.0967 57.937 19.2633 57.937 20.57C57.937 21.4333 57.8087 22.215 57.552 22.915C57.2953 23.5917 56.992 24.175 56.642 24.665C56.292 25.1317 55.977 25.4817 55.697 25.715C56.957 27.115 57.587 28.76 57.587 30.65L57.622 37.825C57.622 37.9417 57.5637 38 57.447 38H53.492C53.3987 38 53.352 37.965 53.352 37.895V30.65C53.352 29.81 53.0487 29.0867 52.442 28.48C51.8587 27.85 51.1353 27.535 50.272 27.535H47.962L47.927 37.825C47.927 37.9417 47.8803 38 47.787 38H43.832ZM47.962 23.335H50.972C51.6953 23.335 52.337 23.0667 52.897 22.53C53.457 21.9933 53.737 21.34 53.737 20.57C53.737 19.8233 53.457 19.1817 52.897 18.645C52.3603 18.1083 51.7187 17.84 50.972 17.84H47.962V23.335ZM60.8918 38C60.7051 38 60.6118 37.9183 60.6118 37.755L60.5768 13.92C60.5768 13.7333 60.6701 13.64 60.8568 13.64H64.0068L69.9218 27.43L69.7468 13.92C69.7468 13.7333 69.8518 13.64 70.0618 13.64H73.5268C73.6668 13.64 73.7368 13.7333 73.7368 13.92L73.7718 37.79C73.7718 37.93 73.7134 38 73.5968 38H70.5168L64.4618 25.12L64.7068 37.72C64.7068 37.9067 64.6018 38 64.3918 38H60.8918ZM88.4474 38.35C87.1641 38.35 85.9974 38.035 84.9474 37.405C83.9208 36.7517 83.1041 35.8883 82.4974 34.815C81.8908 33.7417 81.5874 32.54 81.5874 31.21L81.6224 20.29C81.6224 19.0067 81.9141 17.84 82.4974 16.79C83.1041 15.7167 83.9208 14.865 84.9474 14.235C85.9974 13.5817 87.1641 13.255 88.4474 13.255C89.7308 13.255 90.8858 13.57 91.9124 14.2C92.9391 14.83 93.7558 15.6817 94.3624 16.755C94.9691 17.805 95.2724 18.9833 95.2724 20.29V21.9C95.2724 21.9933 95.2258 22.04 95.1324 22.04H91.2124C91.1191 22.04 91.0724 21.9933 91.0724 21.9V20.29C91.0724 19.52 90.8158 18.855 90.3024 18.295C89.8124 17.735 89.1941 17.455 88.4474 17.455C87.6074 17.455 86.9658 17.7467 86.5224 18.33C86.0791 18.89 85.8574 19.5433 85.8574 20.29V31.21C85.8574 32.0733 86.1024 32.7733 86.5924 33.31C87.1058 33.8467 87.7241 34.115 88.4474 34.115C89.1941 34.115 89.8124 33.8233 90.3024 33.24C90.8158 32.6333 91.0724 31.9567 91.0724 31.21V29.6C91.0724 29.5067 91.1191 29.46 91.2124 29.46H95.1674C95.2608 29.46 95.3074 29.5067 95.3074 29.6V31.21C95.3074 32.54 94.9924 33.7417 94.3624 34.815C93.7558 35.8883 92.9391 36.7517 91.9124 37.405C90.8858 38.035 89.7308 38.35 88.4474 38.35ZM98.0068 38C97.9135 38 97.8668 37.9417 97.8668 37.825L97.9368 13.78C97.9368 13.6867 97.9835 13.64 98.0768 13.64H105.147C106.407 13.64 107.562 13.955 108.612 14.585C109.685 15.1917 110.537 16.02 111.167 17.07C111.797 18.0967 112.112 19.2633 112.112 20.57C112.112 21.4333 111.983 22.215 111.727 22.915C111.47 23.5917 111.167 24.175 110.817 24.665C110.467 25.1317 110.152 25.4817 109.872 25.715C111.132 27.115 111.762 28.76 111.762 30.65L111.797 37.825C111.797 37.9417 111.738 38 111.622 38H107.667C107.573 38 107.527 37.965 107.527 37.895V30.65C107.527 29.81 107.223 29.0867 106.617 28.48C106.033 27.85 105.31 27.535 104.447 27.535H102.137L102.102 37.825C102.102 37.9417 102.055 38 101.962 38H98.0068ZM102.137 23.335H105.147C105.87 23.335 106.512 23.0667 107.072 22.53C107.632 21.9933 107.912 21.34 107.912 20.57C107.912 19.8233 107.632 19.1817 107.072 18.645C106.535 18.1083 105.893 17.84 105.147 17.84H102.137V23.335ZM121.021 38.35C119.737 38.35 118.571 38.035 117.521 37.405C116.494 36.7517 115.677 35.8883 115.071 34.815C114.464 33.7417 114.161 32.54 114.161 31.21L114.196 20.29C114.196 19.0067 114.487 17.84 115.071 16.79C115.677 15.7167 116.494 14.865 117.521 14.235C118.571 13.5817 119.737 13.255 121.021 13.255C122.304 13.255 123.459 13.57 124.486 14.2C125.512 14.83 126.329 15.6817 126.936 16.755C127.542 17.805 127.846 18.9833 127.846 20.29V21.9C127.846 21.9933 127.799 22.04 127.706 22.04H123.786C123.692 22.04 123.646 21.9933 123.646 21.9V20.29C123.646 19.52 123.389 18.855 122.876 18.295C122.386 17.735 121.767 17.455 121.021 17.455C120.181 17.455 119.539 17.7467 119.096 18.33C118.652 18.89 118.431 19.5433 118.431 20.29V31.21C118.431 32.0733 118.676 32.7733 119.166 33.31C119.679 33.8467 120.297 34.115 121.021 34.115C121.767 34.115 122.386 33.8233 122.876 33.24C123.389 32.6333 123.646 31.9567 123.646 31.21V29.6C123.646 29.5067 123.692 29.46 123.786 29.46H127.741C127.834 29.46 127.881 29.5067 127.881 29.6V31.21C127.881 32.54 127.566 33.7417 126.936 34.815C126.329 35.8883 125.512 36.7517 124.486 37.405C123.459 38.035 122.304 38.35 121.021 38.35Z" fill="#C90F3D"/>
</svg>
