<svg width="158" height="169" viewBox="0 0 158 169" fill="none" xmlns="http://www.w3.org/2000/svg">
<g filter="url(#filter0_d)">
<path d="M44.7717 52.6591C46.2259 52.6591 47.4047 51.4803 47.4047 50.0261C47.4047 48.572 46.2259 47.3932 44.7717 47.3932C43.3176 47.3932 42.1388 48.572 42.1388 50.0261C42.1388 51.4803 43.3176 52.6591 44.7717 52.6591Z" fill="white"/>
<path d="M136.925 68.4568V73.7227C136.925 75.1768 135.746 76.3557 134.292 76.3557C132.838 76.3557 131.659 75.1768 131.659 73.7227V31.5955H131.525C130.14 13.7832 115.297 0.0273169 97.4308 0H72.4177C49.8889 0.024684 31.6316 18.2819 31.6069 40.8108V89.5205C31.6069 86.612 29.2495 84.2546 26.341 84.2546H21.0751C18.1667 84.2546 15.8092 86.612 15.8092 89.5205C15.8092 98.2454 22.882 105.318 31.6069 105.318C40.3319 105.318 47.4047 98.2454 47.4047 89.5205V70.9081C47.4086 66.646 50.8673 63.1942 55.1294 63.1985C58.6658 63.2018 61.7474 65.6086 62.6073 69.0387L68.4683 92.4773V107.533C55.1409 113.349 49.0522 128.868 54.8688 142.196C60.6853 155.523 76.2046 161.612 89.5319 155.795C102.859 149.979 108.948 134.459 103.131 121.132C100.475 115.046 95.6177 110.188 89.5319 107.533V82.7116L106.101 99.2808C107.129 100.309 108.796 100.309 109.824 99.2808L120.356 88.749C121.384 87.7208 121.384 86.0542 120.356 85.026L113.547 78.2172C112.519 77.189 112.519 75.5224 113.547 74.4942L121.633 66.4084C123.438 64.5917 125.035 62.5788 126.393 60.4079V73.7227C126.393 78.0852 129.93 81.6216 134.292 81.6216C138.655 81.6216 142.191 78.0852 142.191 73.7227V68.4568H136.925ZM57.9365 131.648C57.9516 122.647 63.6783 114.649 72.1939 111.735C63.6845 123.647 63.6845 139.649 72.1939 151.561C63.6783 148.646 57.9516 140.648 57.9365 131.648ZM79.0001 151.608C68.3834 140.419 68.3834 122.877 79.0001 111.687C89.6169 122.877 89.6169 140.419 79.0001 151.608ZM100.064 131.648C100.049 140.648 94.3219 148.646 85.8063 151.561C94.3157 139.649 94.3157 123.647 85.8063 111.735C94.3216 114.649 100.048 122.647 100.064 131.648ZM126.393 42.2036C126.414 49.8889 123.359 57.2635 117.91 62.6828L109.824 70.7686C106.741 73.8531 106.741 78.8531 109.824 81.9376L114.771 86.8875L107.963 93.6963L88.8632 74.5969C86.4589 72.1927 85.8629 68.52 87.3834 65.479L97.1517 45.9398L92.4414 43.5833L82.6863 63.1225C80.3752 67.7456 80.9936 73.2949 84.266 77.2957V105.318H73.7342V92.1534L67.7153 67.7591C65.9716 60.8038 58.9199 56.5792 51.9649 58.3226C46.1922 59.7697 42.1424 64.9566 42.1388 70.9081V89.5205C42.1388 95.337 37.4235 100.052 31.6069 100.052C25.7904 100.052 21.0751 95.337 21.0751 89.5205H26.341C26.341 92.4289 28.6985 94.7864 31.6069 94.7864C34.5154 94.7864 36.8728 92.4289 36.8728 89.5205V40.8108C36.8946 21.189 52.796 5.28763 72.4177 5.26591H97.4308C113.419 5.28335 126.376 18.2401 126.393 34.2284V42.2036Z" fill="white"/>
<path d="M57.9365 15.7977C52.12 15.7977 47.4047 20.513 47.4047 26.3295H52.6706C52.6706 23.4211 55.0281 21.0636 57.9365 21.0636C60.8449 21.0636 63.2024 23.4211 63.2024 26.3295V36.8614C63.2024 39.7698 60.8449 42.1273 57.9365 42.1273C55.0281 42.1273 52.6706 39.7698 52.6706 36.8614H47.4047C47.4047 42.6779 52.12 47.3932 57.9365 47.3932C63.753 47.3932 68.4683 42.6779 68.4683 36.8614V26.3295C68.4683 20.513 63.753 15.7977 57.9365 15.7977Z" fill="white"/>
</g>
<defs>
<filter id="filter0_d" x="0" y="0" width="167" height="169" filterUnits="userSpaceOnUse" color-interpolation-filters="sRGB">
<feFlood flood-opacity="0" result="BackgroundImageFix"/>
<feColorMatrix in="SourceAlpha" type="matrix" values="0 0 0 0 0 0 0 0 0 0 0 0 0 0 0 0 0 0 127 0"/>
<feOffset dx="5" dy="7"/>
<feGaussianBlur stdDeviation="2"/>
<feColorMatrix type="matrix" values="0 0 0 0 0 0 0 0 0 0 0 0 0 0 0 0 0 0 0.25 0"/>
<feBlend mode="normal" in2="BackgroundImageFix" result="effect1_dropShadow"/>
<feBlend mode="normal" in="SourceGraphic" in2="effect1_dropShadow" result="shape"/>
</filter>
</defs>
</svg>
