<svg width="75" height="80" viewBox="0 0 75 80" fill="none" xmlns="http://www.w3.org/2000/svg">
<path d="M61.8716 49.0591L60.5903 50.3403L52.006 58.9375H44.3185C45.9778 57.5974 47.233 55.8233 47.9444 53.8125H49.9688C50.9882 53.8125 51.9659 53.4075 52.6867 52.6867C53.4075 51.9658 53.8125 50.9882 53.8125 49.9688C53.8125 48.9493 53.4075 47.9717 52.6867 47.2508C51.9659 46.53 50.9882 46.125 49.9688 46.125H48.6875V44.8438H51.25V42.2812H48.7772L49.9688 25.7147C49.9801 25.5394 49.9552 25.3636 49.8957 25.1983C49.8362 25.0329 49.7433 24.8816 49.6228 24.7537C49.5034 24.6249 49.3587 24.5221 49.1978 24.4515C49.0369 24.381 48.8632 24.3443 48.6875 24.3438H25.625C25.4493 24.3443 25.2756 24.381 25.1147 24.4515C24.9538 24.5221 24.8092 24.6249 24.6897 24.7537C24.5692 24.8816 24.4764 25.0329 24.4168 25.1983C24.3573 25.3636 24.3325 25.5394 24.3438 25.7147L25.5353 42.2812H23.0625V44.8438H25.625V46.125H24.3438C23.3243 46.125 22.3467 46.53 21.6258 47.2508C20.905 47.9717 20.5 48.9493 20.5 49.9688C20.5 50.9882 20.905 51.9658 21.6258 52.6867C22.3467 53.4075 23.3243 53.8125 24.3438 53.8125H26.3041C27.0155 55.8233 28.2706 57.5974 29.93 58.9375H22.3066L13.7222 50.3403L12.441 49.0591C11.5201 48.1382 10.2711 47.6208 8.96876 47.6208C7.66644 47.6208 6.41746 48.1382 5.49658 49.0591C4.5757 49.9799 4.05835 51.2289 4.05835 52.5312C4.05835 53.8336 4.5757 55.0826 5.49658 56.0034L6.77783 57.2847L20.5 70.9941V78.1562C20.5 78.4961 20.635 78.822 20.8753 79.0622C21.1156 79.3025 21.4415 79.4375 21.7813 79.4375H52.5313C52.8711 79.4375 53.197 79.3025 53.4372 79.0622C53.6775 78.822 53.8125 78.4961 53.8125 78.1562V70.9941L67.5347 57.2847L68.816 56.0034C69.7368 55.0826 70.2542 53.8336 70.2542 52.5312C70.2542 51.2289 69.7368 49.9799 68.816 49.0591C67.8951 48.1382 66.6461 47.6208 65.3438 47.6208C64.0414 47.6208 62.7925 48.1382 61.8716 49.0591V49.0591ZM66.9966 50.8784C67.2158 51.0942 67.39 51.3515 67.5088 51.6353C67.6277 51.919 67.6889 52.2236 67.6889 52.5312C67.6889 52.8389 67.6277 53.1435 67.5088 53.4272C67.39 53.711 67.2158 53.9683 66.9966 54.1841L66.625 54.5684L63.3066 51.25L63.691 50.8784C63.9068 50.6592 64.164 50.485 64.4478 50.3662C64.7315 50.2473 65.0361 50.1861 65.3438 50.1861C65.6514 50.1861 65.956 50.2473 66.2397 50.3662C66.5235 50.485 66.7808 50.6592 66.9966 50.8784V50.8784ZM39.8853 61.5L37.1563 65.6L34.4272 61.5H39.8853ZM33.3125 64.4469L36.0928 68.6109C36.21 68.7853 36.3683 68.9283 36.5538 69.0271C36.7392 69.1259 36.9461 69.1776 37.1563 69.1776C37.3664 69.1776 37.5733 69.1259 37.7588 69.0271C37.9442 68.9283 38.1025 68.7853 38.2197 68.6109L41 64.4469V76.875H33.3125V64.4469ZM30.75 76.875H28.1875V61.5H30.75V76.875ZM43.5625 61.5H46.125V76.875H43.5625V61.5ZM49.9688 48.6875C50.3086 48.6875 50.6345 48.8225 50.8747 49.0628C51.115 49.303 51.25 49.6289 51.25 49.9688C51.25 50.3086 51.115 50.6345 50.8747 50.8747C50.6345 51.115 50.3086 51.25 49.9688 51.25H48.6106C48.6622 50.8249 48.6878 50.397 48.6875 49.9688V48.6875H49.9688ZM47.3166 26.9062L46.5735 37.1562H27.7391L26.996 26.9062H47.3166ZM27.9185 39.7188H46.3941L46.2147 42.2812H28.0978L27.9185 39.7188ZM24.3438 51.25C24.004 51.25 23.6781 51.115 23.4378 50.8747C23.1975 50.6345 23.0625 50.3086 23.0625 49.9688C23.0625 49.6289 23.1975 49.303 23.4378 49.0628C23.6781 48.8225 24.004 48.6875 24.3438 48.6875H25.625V49.9688C25.6247 50.397 25.6504 50.8249 25.7019 51.25H24.3438ZM28.1875 49.9688V44.8438H46.125V49.9688C46.125 52.3474 45.1801 54.6286 43.4981 56.3106C41.8162 57.9926 39.5349 58.9375 37.1563 58.9375C34.7776 58.9375 32.4964 57.9926 30.8144 56.3106C29.1324 54.6286 28.1875 52.3474 28.1875 49.9688ZM7.31595 50.8784C7.53175 50.6592 7.78903 50.485 8.07279 50.3662C8.35654 50.2473 8.66112 50.1861 8.96876 50.1861C9.27641 50.1861 9.58098 50.2473 9.86474 50.3662C10.1485 50.485 10.4058 50.6592 10.6216 50.8784L11.006 51.25L7.68751 54.5684L7.31595 54.1841C7.09669 53.9683 6.92256 53.711 6.8037 53.4272C6.68484 53.1435 6.62362 52.8389 6.62362 52.5312C6.62362 52.2236 6.68484 51.919 6.8037 51.6353C6.92256 51.3515 7.09669 51.0942 7.31595 50.8784V50.8784ZM22.691 69.5591L9.49408 56.375L12.8125 53.0566L20.8716 61.1284C20.9913 61.2472 21.1333 61.3411 21.2894 61.4049C21.4455 61.4687 21.6126 61.501 21.7813 61.5H25.625V76.875H23.0625V70.4688C23.0635 70.3001 23.0312 70.133 22.9674 69.9769C22.9036 69.8208 22.8097 69.6788 22.691 69.5591V69.5591ZM51.6216 69.5591C51.5028 69.6788 51.4089 69.8208 51.3451 69.9769C51.2814 70.133 51.249 70.3001 51.25 70.4688V76.875H48.6875V61.5H52.5313C52.6999 61.501 52.867 61.4687 53.0231 61.4049C53.1793 61.3411 53.3212 61.2472 53.441 61.1284L61.5 53.0566L64.8185 56.375L51.6216 69.5591Z" fill="#AC0F40"/>
<path d="M37.1563 12.8125C38.4233 12.8125 39.6619 12.4368 40.7154 11.7329C41.7689 11.0289 42.59 10.0284 43.0749 8.85782C43.5597 7.68723 43.6866 6.39915 43.4394 5.15646C43.1922 3.91376 42.5821 2.77228 41.6862 1.87635C40.7902 0.98042 39.6487 0.370284 38.4061 0.123097C37.1634 -0.124089 35.8753 0.00277573 34.7047 0.48765C33.5341 0.972524 32.5336 1.79363 31.8296 2.84713C31.1257 3.90063 30.75 5.13922 30.75 6.40625C30.75 8.1053 31.4249 9.73475 32.6263 10.9362C33.8278 12.1376 35.4572 12.8125 37.1563 12.8125ZM37.1563 2.5625C37.9165 2.5625 38.6596 2.78793 39.2917 3.21029C39.9238 3.63265 40.4165 4.23296 40.7074 4.93531C40.9983 5.63767 41.0745 6.41052 40.9261 7.15613C40.7778 7.90175 40.4118 8.58664 39.8742 9.1242C39.3366 9.66175 38.6517 10.0278 37.9061 10.1761C37.1605 10.3245 36.3877 10.2483 35.6853 9.95742C34.983 9.66649 34.3826 9.17383 33.9603 8.54173C33.5379 7.90963 33.3125 7.16647 33.3125 6.40625C33.3125 5.38683 33.7175 4.40915 34.4383 3.68831C35.1592 2.96747 36.1368 2.5625 37.1563 2.5625Z" fill="#AC0F40"/>
<path d="M37.1563 12.8125C38.4233 12.8125 39.6619 12.4368 40.7154 11.7329C41.7689 11.0289 42.59 10.0284 43.0749 8.85782C43.5597 7.68723 43.6866 6.39915 43.4394 5.15646C43.1922 3.91376 42.5821 2.77228 41.6862 1.87635C40.7902 0.98042 39.6487 0.370284 38.4061 0.123097C37.1634 -0.124089 35.8753 0.00277573 34.7047 0.48765C33.5341 0.972524 32.5336 1.79363 31.8296 2.84713C31.1257 3.90063 30.75 5.13922 30.75 6.40625C30.75 8.1053 31.4249 9.73475 32.6263 10.9362C33.8278 12.1376 35.4572 12.8125 37.1563 12.8125ZM37.1563 2.5625C37.9165 2.5625 38.6596 2.78793 39.2917 3.21029C39.9238 3.63265 40.4165 4.23296 40.7074 4.93531C40.9983 5.63767 41.0745 6.41052 40.9261 7.15613C40.7778 7.90175 40.4118 8.58664 39.8742 9.1242C39.3366 9.66175 38.6517 10.0278 37.9061 10.1761C37.1605 10.3245 36.3877 10.2483 35.6853 9.95742C34.983 9.66649 34.3826 9.17383 33.9603 8.54173C33.5379 7.90963 33.3125 7.16647 33.3125 6.40625C33.3125 5.38683 33.7175 4.40915 34.4383 3.68831C35.1592 2.96747 36.1368 2.5625 37.1563 2.5625Z" stroke="white"/>
<path d="M57.6563 20.5C58.9233 20.5 60.1619 20.1243 61.2154 19.4204C62.2689 18.7164 63.09 17.7159 63.5749 16.5453C64.0597 15.3747 64.1866 14.0866 63.9394 12.844C63.6922 11.6013 63.0821 10.4598 62.1862 9.56385C61.2902 8.66792 60.1487 8.05778 58.9061 7.8106C57.6634 7.56341 56.3753 7.69028 55.2047 8.17515C54.0341 8.66002 53.0336 9.48113 52.3296 10.5346C51.6257 11.5881 51.25 12.8267 51.25 14.0938C51.25 15.7928 51.9249 17.4223 53.1263 18.6237C54.3278 19.8251 55.9572 20.5 57.6563 20.5ZM57.6563 10.25C58.4165 10.25 59.1596 10.4754 59.7917 10.8978C60.4238 11.3201 60.9165 11.9205 61.2074 12.6228C61.4983 13.3252 61.5745 14.098 61.4261 14.8436C61.2778 15.5892 60.9118 16.2741 60.3742 16.8117C59.8366 17.3493 59.1517 17.7153 58.4061 17.8636C57.6605 18.012 56.8877 17.9358 56.1853 17.6449C55.483 17.354 54.8826 16.8613 54.4603 16.2292C54.0379 15.5971 53.8125 14.854 53.8125 14.0938C53.8125 13.0743 54.2175 12.0967 54.9383 11.3758C55.6592 10.655 56.6368 10.25 57.6563 10.25Z" fill="#AC0F40"/>
<path d="M57.6563 20.5C58.9233 20.5 60.1619 20.1243 61.2154 19.4204C62.2689 18.7164 63.09 17.7159 63.5749 16.5453C64.0597 15.3747 64.1866 14.0866 63.9394 12.844C63.6922 11.6013 63.0821 10.4598 62.1862 9.56385C61.2902 8.66792 60.1487 8.05778 58.9061 7.8106C57.6634 7.56341 56.3753 7.69028 55.2047 8.17515C54.0341 8.66002 53.0336 9.48113 52.3296 10.5346C51.6257 11.5881 51.25 12.8267 51.25 14.0938C51.25 15.7928 51.9249 17.4223 53.1263 18.6237C54.3278 19.8251 55.9572 20.5 57.6563 20.5ZM57.6563 10.25C58.4165 10.25 59.1596 10.4754 59.7917 10.8978C60.4238 11.3201 60.9165 11.9205 61.2074 12.6228C61.4983 13.3252 61.5745 14.098 61.4261 14.8436C61.2778 15.5892 60.9118 16.2741 60.3742 16.8117C59.8366 17.3493 59.1517 17.7153 58.4061 17.8636C57.6605 18.012 56.8877 17.9358 56.1853 17.6449C55.483 17.354 54.8826 16.8613 54.4603 16.2292C54.0379 15.5971 53.8125 14.854 53.8125 14.0938C53.8125 13.0743 54.2175 12.0967 54.9383 11.3758C55.6592 10.655 56.6368 10.25 57.6563 10.25Z" stroke="white"/>
<path d="M67.9063 24.3438C66.6392 24.3438 65.4006 24.7195 64.3471 25.4234C63.2936 26.1273 62.4725 27.1278 61.9877 28.2984C61.5028 29.469 61.3759 30.7571 61.6231 31.9998C61.8703 33.2425 62.4804 34.384 63.3764 35.2799C64.2723 36.1758 65.4138 36.786 66.6565 37.0332C67.8991 37.2803 69.1872 37.1535 70.3578 36.6686C71.5284 36.1837 72.5289 35.3626 73.2329 34.3091C73.9368 33.2556 74.3125 32.017 74.3125 30.75C74.3125 29.051 73.6376 27.4215 72.4362 26.2201C71.2348 25.0187 69.6053 24.3438 67.9063 24.3438ZM67.9063 34.5937C67.146 34.5937 66.4029 34.3683 65.7708 33.946C65.1387 33.5236 64.646 32.9233 64.3551 32.2209C64.0642 31.5186 63.988 30.7457 64.1364 30.0001C64.2847 29.2545 64.6508 28.5696 65.1883 28.0321C65.7259 27.4945 66.4108 27.1284 67.1564 26.9801C67.902 26.8318 68.6748 26.9079 69.3772 27.1988C70.0795 27.4898 70.6799 27.9824 71.1022 28.6145C71.5246 29.2466 71.75 29.9898 71.75 30.75C71.75 31.7694 71.345 32.7471 70.6242 33.4679C69.9034 34.1888 68.9257 34.5937 67.9063 34.5937Z" fill="#AC0F40"/>
<path d="M67.9063 24.3438C66.6392 24.3438 65.4006 24.7195 64.3471 25.4234C63.2936 26.1273 62.4725 27.1278 61.9877 28.2984C61.5028 29.469 61.3759 30.7571 61.6231 31.9998C61.8703 33.2425 62.4804 34.384 63.3764 35.2799C64.2723 36.1758 65.4138 36.786 66.6565 37.0332C67.8991 37.2803 69.1872 37.1535 70.3578 36.6686C71.5284 36.1837 72.5289 35.3626 73.2329 34.3091C73.9368 33.2556 74.3125 32.017 74.3125 30.75C74.3125 29.051 73.6376 27.4215 72.4362 26.2201C71.2348 25.0187 69.6053 24.3438 67.9063 24.3438ZM67.9063 34.5937C67.146 34.5937 66.4029 34.3683 65.7708 33.946C65.1387 33.5236 64.646 32.9233 64.3551 32.2209C64.0642 31.5186 63.988 30.7457 64.1364 30.0001C64.2847 29.2545 64.6508 28.5696 65.1883 28.0321C65.7259 27.4945 66.4108 27.1284 67.1564 26.9801C67.902 26.8318 68.6748 26.9079 69.3772 27.1988C70.0795 27.4898 70.6799 27.9824 71.1022 28.6145C71.5246 29.2466 71.75 29.9898 71.75 30.75C71.75 31.7694 71.345 32.7471 70.6242 33.4679C69.9034 34.1888 68.9257 34.5937 67.9063 34.5937Z" stroke="white"/>
<path d="M16.6562 20.5C17.9233 20.5 19.1619 20.1243 20.2154 19.4204C21.2689 18.7164 22.09 17.7159 22.5749 16.5453C23.0597 15.3747 23.1866 14.0866 22.9394 12.844C22.6922 11.6013 22.0821 10.4598 21.1862 9.56385C20.2902 8.66792 19.1487 8.05778 17.906 7.8106C16.6634 7.56341 15.3753 7.69028 14.2047 8.17515C13.0341 8.66002 12.0336 9.48113 11.3296 10.5346C10.6257 11.5881 10.25 12.8267 10.25 14.0938C10.25 15.7928 10.9249 17.4223 12.1263 18.6237C13.3278 19.8251 14.9572 20.5 16.6562 20.5ZM16.6562 10.25C17.4165 10.25 18.1596 10.4754 18.7917 10.8978C19.4238 11.3201 19.9165 11.9205 20.2074 12.6228C20.4983 13.3252 20.5745 14.098 20.4261 14.8436C20.2778 15.5892 19.9117 16.2741 19.3742 16.8117C18.8366 17.3493 18.1517 17.7153 17.4061 17.8636C16.6605 18.012 15.8877 17.9358 15.1853 17.6449C14.483 17.354 13.8826 16.8613 13.4603 16.2292C13.0379 15.5971 12.8125 14.854 12.8125 14.0938C12.8125 13.0743 13.2175 12.0967 13.9383 11.3758C14.6592 10.655 15.6368 10.25 16.6562 10.25Z" fill="#AC0F40"/>
<path d="M16.6562 20.5C17.9233 20.5 19.1619 20.1243 20.2154 19.4204C21.2689 18.7164 22.09 17.7159 22.5749 16.5453C23.0597 15.3747 23.1866 14.0866 22.9394 12.844C22.6922 11.6013 22.0821 10.4598 21.1862 9.56385C20.2902 8.66792 19.1487 8.05778 17.906 7.8106C16.6634 7.56341 15.3753 7.69028 14.2047 8.17515C13.0341 8.66002 12.0336 9.48113 11.3296 10.5346C10.6257 11.5881 10.25 12.8267 10.25 14.0938C10.25 15.7928 10.9249 17.4223 12.1263 18.6237C13.3278 19.8251 14.9572 20.5 16.6562 20.5ZM16.6562 10.25C17.4165 10.25 18.1596 10.4754 18.7917 10.8978C19.4238 11.3201 19.9165 11.9205 20.2074 12.6228C20.4983 13.3252 20.5745 14.098 20.4261 14.8436C20.2778 15.5892 19.9117 16.2741 19.3742 16.8117C18.8366 17.3493 18.1517 17.7153 17.4061 17.8636C16.6605 18.012 15.8877 17.9358 15.1853 17.6449C14.483 17.354 13.8826 16.8613 13.4603 16.2292C13.0379 15.5971 12.8125 14.854 12.8125 14.0938C12.8125 13.0743 13.2175 12.0967 13.9383 11.3758C14.6592 10.655 15.6368 10.25 16.6562 10.25Z" stroke="white"/>
<path d="M12.8125 30.75C12.8125 29.483 12.4368 28.2444 11.7329 27.1909C11.0289 26.1374 10.0284 25.3163 8.85782 24.8314C7.68723 24.3465 6.39915 24.2197 5.15646 24.4668C3.91376 24.714 2.77228 25.3242 1.87635 26.2201C0.98042 27.116 0.370284 28.2575 0.123097 29.5002C-0.124089 30.7429 0.00277573 32.031 0.48765 33.2016C0.972524 34.3722 1.79363 35.3727 2.84713 36.0766C3.90063 36.7805 5.13922 37.1562 6.40625 37.1562C8.1053 37.1562 9.73475 36.4813 10.9362 35.2799C12.1376 34.0785 12.8125 32.449 12.8125 30.75ZM2.5625 30.75C2.5625 29.9898 2.78794 29.2466 3.21029 28.6145C3.63265 27.9824 4.23296 27.4898 4.93531 27.1988C5.63767 26.9079 6.41052 26.8318 7.15613 26.9801C7.90175 27.1284 8.58664 27.4945 9.1242 28.0321C9.66175 28.5696 10.0278 29.2545 10.1761 30.0001C10.3245 30.7457 10.2483 31.5186 9.95742 32.2209C9.66649 32.9233 9.17383 33.5236 8.54173 33.946C7.90963 34.3683 7.16647 34.5937 6.40625 34.5937C5.38683 34.5937 4.40915 34.1888 3.68831 33.4679C2.96747 32.7471 2.5625 31.7694 2.5625 30.75Z" fill="#AC0F40"/>
<path d="M12.8125 30.75C12.8125 29.483 12.4368 28.2444 11.7329 27.1909C11.0289 26.1374 10.0284 25.3163 8.85782 24.8314C7.68723 24.3465 6.39915 24.2197 5.15646 24.4668C3.91376 24.714 2.77228 25.3242 1.87635 26.2201C0.98042 27.116 0.370284 28.2575 0.123097 29.5002C-0.124089 30.7429 0.00277573 32.031 0.48765 33.2016C0.972524 34.3722 1.79363 35.3727 2.84713 36.0766C3.90063 36.7805 5.13922 37.1562 6.40625 37.1562C8.1053 37.1562 9.73475 36.4813 10.9362 35.2799C12.1376 34.0785 12.8125 32.449 12.8125 30.75ZM2.5625 30.75C2.5625 29.9898 2.78794 29.2466 3.21029 28.6145C3.63265 27.9824 4.23296 27.4898 4.93531 27.1988C5.63767 26.9079 6.41052 26.8318 7.15613 26.9801C7.90175 27.1284 8.58664 27.4945 9.1242 28.0321C9.66175 28.5696 10.0278 29.2545 10.1761 30.0001C10.3245 30.7457 10.2483 31.5186 9.95742 32.2209C9.66649 32.9233 9.17383 33.5236 8.54173 33.946C7.90963 34.3683 7.16647 34.5937 6.40625 34.5937C5.38683 34.5937 4.40915 34.1888 3.68831 33.4679C2.96747 32.7471 2.5625 31.7694 2.5625 30.75Z" stroke="white"/>
<path d="M37.1562 53.8125C36.4766 53.8125 35.8249 53.5425 35.3443 53.062C34.8637 52.5814 34.5938 51.9296 34.5938 51.25H32.0312C32.0312 52.6092 32.5712 53.9128 33.5323 54.8739C34.4935 55.835 35.797 56.375 37.1562 56.375C38.5155 56.375 39.819 55.835 40.7802 54.8739C41.7413 53.9128 42.2812 52.6092 42.2812 51.25H39.7188C39.7188 51.9296 39.4488 52.5814 38.9682 53.062C38.4877 53.5425 37.8359 53.8125 37.1562 53.8125Z" fill="#AC0F40"/>
<path d="M37.1562 53.8125C36.4766 53.8125 35.8249 53.5425 35.3443 53.062C34.8637 52.5814 34.5938 51.9296 34.5938 51.25H32.0312C32.0312 52.6092 32.5712 53.9128 33.5323 54.8739C34.4935 55.835 35.797 56.375 37.1562 56.375C38.5155 56.375 39.819 55.835 40.7802 54.8739C41.7413 53.9128 42.2812 52.6092 42.2812 51.25H39.7188C39.7188 51.9296 39.4488 52.5814 38.9682 53.062C38.4877 53.5425 37.8359 53.8125 37.1562 53.8125Z" stroke="white"/>
</svg>
