<svg width="162" height="164" viewBox="0 0 162 164" fill="none" xmlns="http://www.w3.org/2000/svg">
<g filter="url(#filter0_d)">
<path d="M149.641 122.656H135.495C134.644 121.704 133.559 120.99 132.348 120.584C131.136 120.178 129.84 120.095 128.587 120.343C127.334 120.59 126.167 121.16 125.201 121.996C124.235 122.832 123.503 123.905 123.078 125.109H93.2188V117.75C93.2188 117.703 83.6651 95.7332 83.6651 95.7332L88.0464 86.9706C89.8301 83.3925 90.7609 79.4498 90.7657 75.4517V68.6875C90.7657 68.6801 90.7657 68.6731 90.7657 68.666C90.7657 68.6354 90.7626 68.6029 90.7611 68.5713C90.7611 68.5602 90.7611 68.5492 90.7592 68.5385C92.4355 68.7975 94.1073 69.0782 95.7746 69.3805C95.8692 69.7037 96.0294 70.004 96.2453 70.2625C96.4611 70.5211 96.7279 70.7323 97.0291 70.883L100.578 72.6567V73.5938C100.578 74.2444 100.837 74.8683 101.297 75.3284C101.757 75.7884 102.381 76.0469 103.031 76.0469H110.391C110.846 76.0469 111.293 75.92 111.68 75.6805C112.068 75.441 112.381 75.0984 112.585 74.6909L113.328 73.204L146.636 80.8918C146.949 80.9643 147.275 80.9742 147.592 80.9211C147.91 80.8679 148.214 80.7527 148.487 80.582C148.761 80.4113 148.998 80.1885 149.185 79.9262C149.372 79.6639 149.505 79.3674 149.578 79.0535C149.65 78.7396 149.66 78.4145 149.607 78.0968C149.554 77.779 149.439 77.4749 149.268 77.2017C149.097 76.9284 148.874 76.6915 148.612 76.5044C148.35 76.3174 148.053 76.1838 147.739 76.1113L115.297 68.6231C115.291 68.3811 115.248 68.1413 115.172 67.9117L112.844 60.9295V46.6094C112.844 46.2056 112.744 45.808 112.554 45.4519C112.363 45.0959 112.088 44.7924 111.752 44.5684L97.0328 34.7559C96.7662 34.578 96.4673 34.4542 96.153 34.3913L85.8594 32.3325V22.8208L88.7725 18.4539C89.4692 17.4085 89.8871 16.2023 89.9865 14.9499C90.0859 13.6975 89.8635 12.4405 89.3405 11.2982C88.8175 10.1559 88.0112 9.16624 86.9981 8.42321C85.9851 7.68018 84.7989 7.20842 83.5523 7.05274L66.5386 4.92618C66.1935 4.88306 65.8433 4.9138 65.511 5.01635C65.1787 5.1189 64.872 5.29093 64.6113 5.52102C64.3505 5.75111 64.1417 6.03401 63.9986 6.35095C63.8555 6.66789 63.7814 7.01163 63.7813 7.35938V9.23326C63.7758 10.9703 64.1726 12.6851 64.9405 14.2432C65.7083 15.8013 66.8265 17.1606 68.2073 18.2145L66.3604 23.7554C66.2163 24.1876 66.1954 24.6514 66.3001 25.0948C66.4047 25.5382 66.6307 25.9437 66.9529 26.2659L68.6875 28.0003V31.8906C68.6875 32.5412 68.946 33.1652 69.406 33.6252C69.8661 34.0853 70.4901 34.3438 71.1407 34.3438H73.5938V35.5703L70.1594 38.1461C68.0576 39.7302 66.3801 41.8094 65.2762 44.1986C65.1103 44.2988 64.957 44.4185 64.8196 44.5552L55.4057 53.9691H36.7969C36.4748 53.9691 36.1558 54.0325 35.8581 54.1558C35.5605 54.279 35.2901 54.4597 35.0623 54.6875L30.156 59.5938C29.7549 59.9948 29.5052 60.5223 29.4493 61.0867C29.3934 61.6511 29.5348 62.2174 29.8494 62.6893L30.4875 63.6466C22.9472 64.8029 15.4788 66.387 8.11835 68.3913L6.71394 68.7743C6.39817 68.8544 6.10152 68.9966 5.8413 69.1926C5.58108 69.3886 5.3625 69.6344 5.19832 69.9158C5.03415 70.1972 4.92765 70.5084 4.88507 70.8314C4.84248 71.1544 4.86465 71.4826 4.95028 71.7969C5.03591 72.1112 5.18328 72.4053 5.3838 72.6621C5.58433 72.9188 5.83398 73.133 6.11819 73.2923C6.4024 73.4515 6.71547 73.5525 7.03914 73.5894C7.36282 73.6263 7.6906 73.5984 8.00336 73.5073L9.40839 73.1243C17.3269 70.969 25.3728 69.3125 33.4987 68.1644L34.7559 70.0484C35.0876 70.5458 35.5896 70.905 36.1674 71.0584C36.7453 71.2118 37.3593 71.1489 37.8941 70.8815L42.2824 68.6875H58.875C59.3594 68.6875 59.8329 68.5441 60.2359 68.2754L63.7813 65.9118V67.7547C61.2441 70.6089 51.5525 81.5112 47.0724 86.5429C45.1921 88.6546 44.1541 91.3841 44.1563 94.2117V94.273C44.1559 95.4688 44.3487 96.6568 44.7273 97.7911L50.9686 116.507L47.9654 118.01C47.5581 118.214 47.2155 118.527 46.976 118.914C46.7365 119.301 46.6096 119.748 46.6094 120.203V125.109H34.3438C34.2065 125.11 34.0696 125.123 33.9344 125.146C33.5147 123.936 32.7862 122.857 31.8211 122.015C30.8559 121.173 29.6877 120.598 28.4319 120.346C27.1761 120.095 25.8764 120.176 24.6615 120.581C23.4465 120.986 22.3585 121.701 21.5051 122.656H7.35942C6.70881 122.656 6.08485 122.915 5.6248 123.375C5.16475 123.835 4.90629 124.459 4.90629 125.109V149.641C4.90629 150.291 5.16475 150.915 5.6248 151.375C6.08485 151.835 6.70881 152.094 7.35942 152.094H22.0782C22.7288 152.094 23.3527 151.835 23.8128 151.375C24.2728 150.915 24.5313 150.291 24.5313 149.641V134.5C25.4454 134.824 26.4144 134.963 27.3827 134.911C28.351 134.859 29.2995 134.616 30.1734 134.196C31.0473 133.775 31.8295 133.186 32.475 132.463C33.1205 131.739 33.6165 130.895 33.9344 129.979C34.0696 130.002 34.2065 130.015 34.3438 130.016H123.078C123.4 130.927 123.898 131.766 124.544 132.485C125.191 133.203 125.972 133.788 126.844 134.204C127.716 134.62 128.662 134.861 129.627 134.912C130.592 134.963 131.558 134.823 132.469 134.5V149.641C132.469 150.291 132.727 150.915 133.187 151.375C133.647 151.835 134.271 152.094 134.922 152.094H149.641C150.291 152.094 150.915 151.835 151.375 151.375C151.835 150.915 152.094 150.291 152.094 149.641V125.109C152.094 124.459 151.835 123.835 151.375 123.375C150.915 122.915 150.291 122.656 149.641 122.656ZM19.625 147.187H9.81254V127.562H19.625V147.187ZM26.9844 130.016C26.4992 130.016 26.0249 129.872 25.6215 129.602C25.2181 129.333 24.9037 128.95 24.718 128.501C24.5324 128.053 24.4838 127.56 24.5784 127.084C24.6731 126.608 24.9067 126.171 25.2498 125.828C25.5929 125.485 26.03 125.251 26.5058 125.157C26.9817 125.062 27.4749 125.11 27.9232 125.296C28.3714 125.482 28.7546 125.796 29.0241 126.2C29.2937 126.603 29.4375 127.077 29.4375 127.562C29.4368 128.213 29.1781 128.836 28.7182 129.296C28.2583 129.756 27.6348 130.015 26.9844 130.016ZM71.1407 120.203V125.109H68.6875C68.6875 125.109 68.6832 117.661 68.6808 117.616C68.6808 117.585 61.6415 96.2125 61.6415 96.2125L66.4491 90.6059C65.9568 93.4515 66.3196 96.3792 67.4916 99.0185L75.3076 116.604L72.4978 118.009C72.0902 118.213 71.7473 118.526 71.5076 118.913C71.2678 119.301 71.1408 119.747 71.1407 120.203ZM88.3739 58.8152L90.1395 49.9824L98.125 53.1764V60.9295L96.9018 64.5991C94.4515 64.1517 91.9812 63.7475 89.5173 63.3915L88.3739 58.8152ZM105.484 71.1406C105.484 70.6851 105.358 70.2385 105.118 69.851C104.879 69.4635 104.536 69.1504 104.128 68.9466L101.125 67.4441L102.346 63.7813H108.623L110.195 68.4992L108.875 71.1406H105.484ZM82.9439 11.9203C83.3607 11.9725 83.7572 12.1303 84.0958 12.3788C84.4345 12.6273 84.704 12.9582 84.8788 13.3401C85.0536 13.722 85.1279 14.1423 85.0946 14.561C85.0613 14.9797 84.9216 15.383 84.6887 15.7325L83.0251 18.2276L80.2347 15.4372C80.0069 15.2094 79.7365 15.0287 79.4388 14.9055C79.1412 14.7822 78.8222 14.7187 78.5 14.7188H71.7687C70.9575 14.2287 70.2658 13.564 69.7438 12.773C69.2219 11.9821 68.8828 11.0846 68.7513 10.1461L82.9439 11.9203ZM72.8753 25.2497L71.4954 23.8698L72.9088 19.625H77.4838L79.3813 21.5225L80.9532 23.0943V32.5757L78.5 33.3932V31.8906C78.5 31.24 78.2416 30.6161 77.7815 30.156C77.3215 29.696 76.6975 29.4375 76.0469 29.4375H73.5938V26.9844C73.5938 26.6622 73.5304 26.3432 73.4071 26.0456C73.2838 25.748 73.1031 25.4775 72.8753 25.2497ZM73.1032 42.0711L77.1999 38.9986L83.5639 36.8772L94.7149 39.1071L107.938 47.9221V58.875H103.031V51.5156C103.031 51.0253 102.884 50.5463 102.61 50.1403C102.335 49.7343 101.944 49.42 101.489 49.2379L89.2236 44.3317C88.8893 44.1979 88.5297 44.1394 88.1703 44.1603C87.8109 44.1811 87.4605 44.2808 87.144 44.4523C86.8275 44.6238 86.5525 44.8628 86.3388 45.1525C86.125 45.4421 85.9775 45.7752 85.9069 46.1283L83.4538 58.3939C83.3827 58.75 83.3915 59.1175 83.4796 59.4699L85.1707 66.2344H68.6875V50.9023C68.6916 49.1893 69.0924 47.5005 69.8585 45.9683C70.6246 44.4361 71.7352 43.1022 73.1032 42.0711ZM41.7032 63.7813C41.3223 63.7812 40.9466 63.8699 40.606 64.0404L37.6368 65.5251L35.0472 61.6409L37.8128 58.875H44.1563V63.7813H41.7032ZM58.1324 63.7813H49.0625V58.875H56.4219C56.7441 58.875 57.0631 58.8116 57.3607 58.6883C57.6583 58.565 57.9288 58.3843 58.1566 58.1565L63.7813 52.5318V60.0154L58.1324 63.7813ZM49.0625 94.273V94.2117C49.0609 92.5871 49.6568 91.0188 50.7368 89.8052C55.1524 84.845 64.6347 74.1794 67.3359 71.1406H85.8594V75.4517C85.8556 78.6883 85.1021 81.88 83.658 84.7766L78.7591 94.5747C78.5972 94.8985 78.5089 95.2541 78.5006 95.6161C78.4924 95.978 78.5643 96.3373 78.7113 96.6681L86.9906 115.297H80.0946L71.9741 97.026C71.4497 95.846 71.167 94.573 71.1427 93.282C71.1184 91.991 71.3529 90.7082 71.8324 89.5093L75.8718 79.411C76.0872 78.8716 76.1041 78.2732 75.9197 77.7224C75.7352 77.1716 75.3613 76.7042 74.8645 76.4032C74.3676 76.1023 73.7801 75.9874 73.2066 76.0791C72.633 76.1707 72.1105 76.4629 71.7322 76.9036L57.0134 94.0755C56.7378 94.3971 56.5501 94.7847 56.4687 95.2004C56.3873 95.6161 56.4149 96.0458 56.5489 96.4477L62.8307 115.297H55.7366L49.3818 96.2395C49.1702 95.6054 49.0624 94.9414 49.0625 94.273ZM51.5157 125.109V121.719L54.548 120.203H63.7813V125.109H51.5157ZM76.0469 125.109V121.719L79.0793 120.203H88.3125V125.109H76.0469ZM130.016 130.016C129.53 130.016 129.056 129.872 128.653 129.602C128.249 129.333 127.935 128.95 127.749 128.501C127.564 128.053 127.515 127.56 127.61 127.084C127.704 126.608 127.938 126.171 128.281 125.828C128.624 125.485 129.061 125.251 129.537 125.157C130.013 125.062 130.506 125.11 130.954 125.296C131.403 125.482 131.786 125.796 132.055 126.2C132.325 126.603 132.469 127.077 132.469 127.562C132.468 128.213 132.209 128.836 131.749 129.296C131.29 129.756 130.666 130.015 130.016 130.016ZM147.188 147.187H137.375V127.562H147.188V147.187Z" fill="white"/>
</g>
<defs>
<filter id="filter0_d" x="0" y="0" width="166" height="168" filterUnits="userSpaceOnUse" color-interpolation-filters="sRGB">
<feFlood flood-opacity="0" result="BackgroundImageFix"/>
<feColorMatrix in="SourceAlpha" type="matrix" values="0 0 0 0 0 0 0 0 0 0 0 0 0 0 0 0 0 0 127 0"/>
<feOffset dx="5" dy="7"/>
<feGaussianBlur stdDeviation="2"/>
<feColorMatrix type="matrix" values="0 0 0 0 0 0 0 0 0 0 0 0 0 0 0 0 0 0 0.25 0"/>
<feBlend mode="normal" in2="BackgroundImageFix" result="effect1_dropShadow"/>
<feBlend mode="normal" in="SourceGraphic" in2="effect1_dropShadow" result="shape"/>
</filter>
</defs>
</svg>
