<svg width="137" height="139" viewBox="0 0 137 139" fill="none" xmlns="http://www.w3.org/2000/svg">
<g filter="url(#filter0_d)">
<path d="M120.656 68.1471C119.5 68.3617 118.428 68.8987 117.564 69.696C116.7 70.4933 116.079 71.5186 115.772 72.6537C114.43 72.1 112.936 72.0394 111.554 72.4826C110.172 72.9258 108.991 73.8443 108.221 75.075C107.299 74.5405 106.253 74.2561 105.188 74.25C103.546 74.25 101.973 74.9019 100.812 76.0623C99.6519 77.2227 99 78.7965 99 80.4375V88.0956C98.5246 88.4064 98.0823 88.7651 97.68 89.166L85.2679 99.5115C83.7526 100.654 82.5263 102.136 81.6875 103.838C80.8486 105.54 80.4205 107.415 80.4375 109.313V125.813C80.4375 126.36 80.6548 126.884 81.0416 127.271C81.4284 127.658 81.953 127.875 82.5 127.875H101.063C101.61 127.875 102.134 127.658 102.521 127.271C102.908 126.884 103.125 126.36 103.125 125.813V120.687L116.698 110.993C116.972 110.797 117.194 110.537 117.346 110.237L127.658 89.6115C127.801 89.3246 127.876 89.0082 127.875 88.6875V74.25C127.875 73.35 127.679 72.4608 127.301 71.6444C126.922 70.8279 126.37 70.104 125.682 69.5229C124.995 68.9419 124.189 68.5177 123.321 68.2801C122.453 68.0425 121.544 67.9971 120.656 68.1471ZM111.375 78.375C111.375 77.828 111.592 77.3034 111.979 76.9166C112.366 76.5298 112.891 76.3125 113.438 76.3125C113.985 76.3125 114.509 76.5298 114.896 76.9166C115.283 77.3034 115.5 77.828 115.5 78.375V83.7087L111.375 87.8337V78.375ZM103.125 80.4375C103.125 79.8905 103.342 79.3659 103.729 78.9791C104.116 78.5923 104.641 78.375 105.188 78.375C105.735 78.375 106.259 78.5923 106.646 78.9791C107.033 79.3659 107.25 79.8905 107.25 80.4375V88.1286C106.026 87.3162 104.594 86.8723 103.125 86.8498V80.4375ZM123.75 88.2008L113.885 107.933L99.8601 117.946C99.5935 118.137 99.3764 118.39 99.2269 118.682C99.0773 118.974 98.9995 119.297 99 119.625V123.75H84.5625V109.313C84.5468 108.011 84.8462 106.725 85.4352 105.564C86.0242 104.403 86.8853 103.402 87.945 102.647L100.458 92.2082C100.79 91.8269 101.2 91.5211 101.66 91.3116C102.12 91.1021 102.62 90.9937 103.125 90.9937C103.631 90.9937 104.13 91.1021 104.59 91.3116C105.05 91.5211 105.46 91.8269 105.792 92.2082L106.396 92.8125L97.5418 101.667L100.458 104.583L119.021 86.0207C119.408 85.634 119.625 85.1095 119.625 84.5625V74.4707C119.606 73.9566 119.765 73.4518 120.075 73.0412C120.385 72.6306 120.827 72.3393 121.327 72.2164C121.626 72.1651 121.933 72.1799 122.225 72.2597C122.518 72.3395 122.79 72.4824 123.022 72.6784C123.25 72.8719 123.433 73.1127 123.559 73.3841C123.685 73.6555 123.75 73.9509 123.75 74.25V88.2008Z" fill="white"/>
<path d="M14.6541 110.234C14.8057 110.535 15.0279 110.795 15.3017 110.991L28.875 120.687V125.813C28.875 126.36 29.0923 126.884 29.4791 127.271C29.8659 127.658 30.3905 127.875 30.9375 127.875H49.5C50.047 127.875 50.5716 127.658 50.9584 127.271C51.3452 126.884 51.5625 126.36 51.5625 125.813V109.313C51.578 107.407 51.1455 105.524 50.3001 103.816C49.4546 102.108 48.2198 100.622 46.695 99.4785L34.4582 89.2918C34.0148 88.8541 33.526 88.4648 33 88.1307V80.4375C33 78.7965 32.3481 77.2227 31.1877 76.0623C30.0273 74.9019 28.4535 74.25 26.8125 74.25C25.7466 74.2561 24.7008 74.5405 23.7786 75.075C23.0091 73.8425 21.8276 72.9227 20.444 72.479C19.0604 72.0352 17.5643 72.0964 16.2216 72.6516C15.915 71.5177 15.2945 70.4935 14.4316 69.6966C13.5687 68.8997 12.4984 68.3626 11.3438 68.1471C10.4563 67.9971 9.5469 68.0425 8.67885 68.2801C7.81079 68.5177 7.00502 68.9419 6.31773 69.5229C5.63044 70.104 5.07819 70.8279 4.69947 71.6444C4.32076 72.4608 4.12471 73.35 4.125 74.25V88.6875C4.1215 89.0067 4.1921 89.3223 4.33125 89.6095L14.6541 110.234ZM24.75 80.4375C24.75 79.8905 24.9673 79.3659 25.3541 78.9791C25.7409 78.5923 26.2655 78.375 26.8125 78.375C27.3595 78.375 27.8841 78.5923 28.2709 78.9791C28.6577 79.3659 28.875 79.8905 28.875 80.4375V86.8663C27.4067 86.8801 25.9739 87.3193 24.75 88.1307V80.4375ZM16.5 78.375C16.5 77.828 16.7173 77.3034 17.1041 76.9166C17.4909 76.5298 18.0155 76.3125 18.5625 76.3125C19.1095 76.3125 19.6341 76.5298 20.0209 76.9166C20.4077 77.3034 20.625 77.828 20.625 78.375V87.8337L16.5 83.7087V78.375ZM8.25 74.25C8.25015 73.9509 8.31534 73.6555 8.44106 73.3841C8.56678 73.1127 8.75002 72.8719 8.97807 72.6784C9.21008 72.4828 9.48196 72.3401 9.77477 72.2603C10.0676 72.1805 10.3743 72.1655 10.6734 72.2164C11.173 72.3393 11.6149 72.6306 11.9248 73.0412C12.2347 73.4518 12.3937 73.9566 12.375 74.4707V84.5625C12.3751 85.1095 12.5925 85.634 12.9793 86.0207L31.5418 104.583L34.4582 101.667L25.6039 92.8125L26.2082 92.2082C26.5553 91.8208 26.9821 91.5132 27.4594 91.3066C27.9367 91.0999 28.4531 90.9991 28.9731 91.0111C29.493 91.023 30.0043 91.1475 30.4715 91.3758C30.9388 91.6042 31.3511 91.9311 31.68 92.334L44.0179 102.614C45.0865 103.371 45.9557 104.376 46.5513 105.543C47.1468 106.709 47.4509 108.003 47.4375 109.313V123.75H33V119.625C33 119.297 32.9216 118.973 32.7713 118.681C32.621 118.389 32.4031 118.137 32.1358 117.946L18.1108 107.933L8.25 88.2008V74.25Z" fill="white"/>
<path d="M37.125 63.9375C40.3884 63.9375 43.5785 62.9698 46.2919 61.1568C49.0053 59.3437 51.1202 56.7668 52.369 53.7518C53.6179 50.7368 53.9446 47.4192 53.308 44.2185C52.6713 41.0178 51.0998 38.0778 48.7923 35.7702C46.4847 33.4627 43.5447 31.8912 40.344 31.2546C37.1433 30.6179 33.8257 30.9446 30.8107 32.1935C27.7957 33.4423 25.2188 35.5572 23.4058 38.2706C21.5927 40.984 20.625 44.1741 20.625 47.4375C20.6299 51.8121 22.3699 56.0061 25.4632 59.0993C28.5564 62.1926 32.7504 63.9326 37.125 63.9375ZM37.125 35.0625C39.5725 35.0625 41.9651 35.7883 44.0002 37.1481C46.0352 38.5079 47.6214 40.4406 48.558 42.7018C49.4946 44.963 49.7397 47.4512 49.2622 49.8517C48.7847 52.2523 47.6061 54.4573 45.8754 56.188C44.1448 57.9186 41.9398 59.0972 39.5392 59.5747C37.1387 60.0522 34.6505 59.8072 32.3893 58.8705C30.1281 57.9339 28.1953 56.3477 26.8356 54.3127C25.4758 52.2776 24.75 49.8851 24.75 47.4375C24.7533 44.1565 26.0581 41.0107 28.3782 38.6907C30.6982 36.3706 33.844 35.0658 37.125 35.0625Z" fill="white"/>
<path d="M49.5 20.625C49.5 23.8884 50.4677 27.0785 52.2808 29.7919C54.0938 32.5053 56.6707 34.6202 59.6857 35.869C62.7007 37.1179 66.0183 37.4446 69.219 36.808C72.4197 36.1713 75.3597 34.5998 77.6673 32.2923C79.9748 29.9847 81.5463 27.0447 82.183 23.844C82.8196 20.6433 82.4929 17.3257 81.244 14.3107C79.9952 11.2957 77.8803 8.71879 75.1669 6.90575C72.4535 5.09271 69.2634 4.125 66 4.125C61.6254 4.12991 57.4315 5.86988 54.3382 8.96316C51.2449 12.0564 49.5049 16.2504 49.5 20.625ZM78.375 20.625C78.375 23.0725 77.6492 25.4651 76.2894 27.5002C74.9297 29.5352 72.9969 31.1214 70.7357 32.058C68.4745 32.9946 65.9863 33.2397 63.5858 32.7622C61.1852 32.2847 58.9802 31.1061 57.2496 29.3754C55.5189 27.6448 54.3403 25.4398 53.8628 23.0392C53.3853 20.6387 53.6304 18.1505 54.567 15.8893C55.5036 13.6281 57.0898 11.6953 59.1248 10.3356C61.1599 8.97578 63.5525 8.25 66 8.25C69.281 8.25328 72.4268 9.55812 74.7468 11.8782C77.0669 14.1982 78.3717 17.344 78.375 20.625Z" fill="white"/>
<path d="M109.313 57.75C109.313 54.4866 108.345 51.2965 106.532 48.5831C104.719 45.8697 102.142 43.7548 99.1268 42.506C96.1118 41.2571 92.7942 40.9304 89.5935 41.5671C86.3928 42.2037 83.4528 43.7752 81.1453 46.0827C78.8377 48.3903 77.2662 51.3303 76.6296 54.531C75.9929 57.7317 76.3196 61.0493 77.5685 64.0643C78.8173 67.0793 80.9322 69.6562 83.6456 71.4693C86.359 73.2823 89.5491 74.25 92.8125 74.25C97.1871 74.2451 101.381 72.5051 104.474 69.4118C107.568 66.3186 109.308 62.1246 109.313 57.75ZM80.4375 57.75C80.4375 55.3025 81.1633 52.9099 82.5231 50.8748C83.8829 48.8398 85.8156 47.2536 88.0768 46.317C90.338 45.3804 92.8262 45.1353 95.2268 45.6128C97.6273 46.0903 99.8323 47.2689 101.563 48.9996C103.294 50.7302 104.472 52.9353 104.95 55.3358C105.427 57.7363 105.182 60.2245 104.246 62.4857C103.309 64.747 101.723 66.6797 99.6877 68.0394C97.6526 69.3992 95.2601 70.125 92.8125 70.125C89.5315 70.1217 86.3857 68.8169 84.0657 66.4968C81.7456 64.1768 80.4408 61.0311 80.4375 57.75Z" fill="white"/>
<path d="M12.375 45.375H16.5C16.5 36.3969 21.5676 32.7937 21.7841 32.6452L19.4803 29.2215C19.1916 29.4154 12.375 34.089 12.375 45.375Z" fill="white"/>
<path d="M17.4322 26.5897L15.576 22.9041C12.6888 24.5201 10.2921 26.8865 8.63943 29.7529C6.98676 32.6193 6.13957 35.8791 6.18747 39.1875H10.3125C10.2643 36.6429 10.8994 34.1319 12.1517 31.9162C13.4039 29.7005 15.2274 27.8611 17.4322 26.5897Z" fill="white"/>
<path d="M88.6875 76.3125C81.8482 76.3125 78.1914 69.267 78.1543 69.1969L74.4666 71.0532C74.6625 71.4306 79.2722 80.4375 88.6875 80.4375V76.3125Z" fill="white"/>
<path d="M86.6249 84.5625C84.5597 84.5701 82.521 84.0972 80.67 83.1812C78.8189 82.2652 77.2064 80.9311 75.9597 79.2845L72.5339 81.5822C74.1614 83.788 76.2847 85.5804 78.7324 86.8146C81.1801 88.0489 83.8837 88.6904 86.6249 88.6875V84.5625Z" fill="white"/>
<path d="M96.9375 33L96.9231 37.125C101.131 37.5747 105.024 39.563 107.854 42.7082L110.771 39.7918C107.177 35.8698 102.238 33.445 96.9375 33Z" fill="white"/>
<path d="M113.784 38.2697L117.216 35.9803C112.701 29.2091 103.993 26.9672 103.626 26.8744L102.622 30.8756C102.696 30.8942 110.166 32.8433 113.784 38.2697Z" fill="white"/>
<path d="M43.3125 49.5H39.1875V53.625H43.3125V49.5Z" fill="white"/>
<path d="M35.0625 45.375H30.9375V49.5H35.0625V45.375Z" fill="white"/>
<path d="M70.125 12.375H66V16.5H70.125V12.375Z" fill="white"/>
</g>
<defs>
<filter id="filter0_d" x="0" y="0" width="141" height="143" filterUnits="userSpaceOnUse" color-interpolation-filters="sRGB">
<feFlood flood-opacity="0" result="BackgroundImageFix"/>
<feColorMatrix in="SourceAlpha" type="matrix" values="0 0 0 0 0 0 0 0 0 0 0 0 0 0 0 0 0 0 127 0"/>
<feOffset dx="5" dy="7"/>
<feGaussianBlur stdDeviation="2"/>
<feColorMatrix type="matrix" values="0 0 0 0 0 0 0 0 0 0 0 0 0 0 0 0 0 0 0.25 0"/>
<feBlend mode="normal" in2="BackgroundImageFix" result="effect1_dropShadow"/>
<feBlend mode="normal" in="SourceGraphic" in2="effect1_dropShadow" result="shape"/>
</filter>
</defs>
</svg>
