<svg width="602" height="607" viewBox="0 0 602 607" fill="none" xmlns="http://www.w3.org/2000/svg">
<g filter="url(#filter0_d)">
<path d="M133.663 281.2C125.654 284.887 118.117 289.521 111.211 295.002C110.347 295.357 109.602 295.952 109.064 296.716C108.526 297.48 108.217 298.382 108.174 299.316C108.131 300.249 108.356 301.176 108.822 301.986C109.287 302.796 109.974 303.457 110.803 303.89C117.962 309.908 125.607 315.324 133.659 320.081L134.226 320.421C142.033 325.124 150.205 329.193 158.664 332.588C159.438 333.107 160.343 333.397 161.274 333.425C162.206 333.452 163.126 333.217 163.93 332.744C164.734 332.272 165.388 331.583 165.817 330.755C166.246 329.928 166.433 328.996 166.356 328.068C167.923 319.383 168.444 310.542 167.908 301.734" fill="#FF2969"/>
</g>
<g filter="url(#filter1_d)">
<path d="M130.8 323.513L131.45 323.903C139.706 328.902 148.357 333.216 157.317 336.804C158.726 337.397 160.245 337.684 161.773 337.646C163.302 337.608 164.805 337.245 166.182 336.582C167.44 335.716 168.497 334.589 169.283 333.279C170.068 331.969 170.564 330.506 170.735 328.988C172.367 319.926 172.915 310.702 172.367 301.51C172.298 300.344 171.769 299.252 170.895 298.476C170.021 297.7 168.875 297.303 167.709 297.372C166.542 297.441 165.451 297.97 164.675 298.844C163.899 299.717 163.501 300.863 163.57 302.03C164.085 310.491 163.586 318.983 162.086 327.325C161.987 327.887 161.842 328.438 161.651 328.976C161.515 328.791 161.017 328.749 160.134 328.456C151.979 325.157 144.096 321.221 136.56 316.683C128.567 312.036 120.99 306.706 113.916 300.754C113.479 300.364 113.08 299.932 112.726 299.465C113.176 299.201 113.595 298.887 113.976 298.53C120.62 293.256 127.871 288.796 135.574 285.243C136.636 284.755 137.46 283.864 137.864 282.768C138.269 281.672 138.222 280.46 137.733 279.398C137.245 278.337 136.354 277.513 135.258 277.108C134.162 276.703 132.95 276.75 131.888 277.239C123.564 281.081 115.726 285.899 108.54 291.593C107.174 292.349 106.024 293.442 105.202 294.77C104.379 296.097 103.91 297.613 103.841 299.173C103.771 300.733 104.103 302.284 104.804 303.679C105.506 305.074 106.553 306.266 107.847 307.141C115.037 313.218 122.714 318.694 130.8 323.513Z" fill="#323C6B"/>
</g>
<g filter="url(#filter2_d)">
<path d="M8.97611 417.637C9.57538 417.997 10.2516 418.208 10.9489 418.255C11.6462 418.301 12.3445 418.181 12.9863 417.905C28.0715 411.387 37.1452 396.682 45.1572 383.714L46.2899 381.825C54.468 368.597 63.9094 355.952 77.5587 352.959C83.2663 352.036 89.0746 351.909 94.817 352.583C104.023 354.108 113.474 352.886 121.989 349.069C126.563 345.989 130.471 342.02 133.481 337.4C136.492 332.78 138.543 327.602 139.514 322.173C139.811 321.043 139.648 319.84 139.059 318.83C138.47 317.82 137.504 317.086 136.374 316.788C135.243 316.49 134.041 316.653 133.03 317.242C132.02 317.831 131.286 318.797 130.988 319.928C130.355 324.216 128.852 328.33 126.571 332.017C124.29 335.703 121.279 338.884 117.723 341.365C110.66 344.259 102.924 345.101 95.4038 343.792C88.8319 343.046 82.1874 343.236 75.6691 344.358C58.8258 348.035 47.602 363.052 38.8243 377.195L37.6871 379.091C30.0074 391.539 22.0543 404.409 9.52385 409.819C8.77932 410.14 8.13779 410.66 7.66994 411.322C7.20209 411.985 6.92607 412.763 6.87225 413.572C6.81843 414.381 6.9889 415.189 7.36491 415.907C7.74091 416.626 8.30786 417.226 9.0033 417.643L8.97611 417.637Z" fill="#323C6B"/>
</g>
<g filter="url(#filter3_d)">
<path d="M311.312 224.782C326.053 201.11 330.789 172.554 324.478 145.391C318.168 118.228 301.329 94.6838 277.663 79.9343C253.504 66.0158 224.807 62.2601 197.88 69.4927C170.953 76.7253 148 94.3542 134.066 118.504C103.71 169.131 100.119 265.083 149.061 294.429C198.002 323.775 280.943 275.431 311.312 224.782Z" fill="#FF296A"/>
</g>
<g filter="url(#filter4_d)">
<path d="M134.066 118.453C111.141 156.687 103.514 220.634 122.05 262.362C117.93 225.02 125.372 187.313 143.369 154.336C157.308 130.181 180.268 112.548 207.201 105.313C234.135 98.0773 262.839 101.831 287.007 115.749C304.415 126.191 318.237 141.68 326.637 160.16C325.5 143.843 320.457 128.038 311.933 114.077C303.409 100.116 291.654 88.4089 277.658 79.9417C253.509 66.0103 224.815 62.2411 197.888 69.463C170.96 76.685 148.003 94.3068 134.066 118.453Z" fill="#E01955"/>
</g>
<g filter="url(#filter5_d)">
<path d="M146.796 298.207C199.515 329.818 285.23 276.831 315.083 227.043C330.392 202.363 335.29 172.619 328.702 144.334C322.114 116.048 304.579 91.5291 279.94 76.1531C254.77 61.6637 224.882 57.7467 196.828 65.2611C168.775 72.7756 144.846 91.1081 130.288 116.239C100.435 166.027 94.0759 266.596 146.796 298.207ZM275.41 83.7093C298.047 97.8822 314.141 120.453 320.162 146.473C326.184 172.493 321.643 199.839 307.534 222.517C279.353 269.516 198.167 318.737 151.334 290.655C104.5 262.574 109.671 167.774 137.852 120.774C151.207 97.6483 173.185 80.7607 198.971 73.8129C224.756 66.8651 252.244 70.4239 275.41 83.7093Z" fill="#323C6B"/>
<path d="M144.223 69.8705C144.973 70.3207 145.841 70.5372 146.715 70.4923C147.589 70.4473 148.43 70.1431 149.13 69.6183C167.697 55.6913 189.67 47.019 212.744 44.5116C213.32 44.4519 213.878 44.2794 214.386 44.0041C214.895 43.7287 215.345 43.3558 215.709 42.9068C216.074 42.4577 216.347 41.9412 216.512 41.3867C216.677 40.8322 216.731 40.2507 216.671 39.6753C216.612 39.0999 216.439 38.5419 216.164 38.0331C215.888 37.5243 215.516 37.0748 215.066 36.7101C214.617 36.3454 214.101 36.0728 213.546 35.9077C212.992 35.7427 212.41 35.6885 211.835 35.7482C187.176 38.4157 163.692 47.6772 143.85 62.559C143.272 62.9923 142.809 63.5612 142.503 64.2156C142.196 64.87 142.055 65.5897 142.092 66.3114C142.13 67.0331 142.344 67.7345 142.716 68.3538C143.088 68.9732 143.607 69.4915 144.227 69.863L144.223 69.8705Z" fill="#323C6B"/>
<path d="M124.239 88.3783C125.143 88.9167 126.209 89.1142 127.246 88.9348C128.282 88.7555 129.22 88.2113 129.89 87.4006C130.949 86.1144 132.033 84.8539 133.165 83.6524C133.566 83.2356 133.882 82.7437 134.094 82.2049C134.305 81.6661 134.409 81.0909 134.398 80.5122C134.387 79.9334 134.263 79.3624 134.031 78.8318C133.8 78.3012 133.466 77.8213 133.05 77.4196C132.633 77.0179 132.141 76.7023 131.602 76.4907C131.063 76.2791 130.488 76.1757 129.909 76.1864C129.331 76.1971 128.76 76.3216 128.229 76.553C127.698 76.7844 127.219 77.118 126.817 77.5348C125.516 78.8814 124.296 80.3172 123.089 81.7817C122.682 82.2739 122.387 82.8487 122.225 83.4662C122.062 84.0837 122.035 84.7293 122.147 85.358C122.259 85.9868 122.505 86.5838 122.871 87.1076C123.236 87.6315 123.711 88.0697 124.262 88.3919L124.239 88.3783Z" fill="#323C6B"/>
</g>
<g filter="url(#filter6_d)">
<path d="M228.666 376.416C216.944 377.338 205.365 379.659 194.179 383.331C192.934 383.377 191.726 383.777 190.697 384.485C189.668 385.192 188.86 386.177 188.37 387.323C187.879 388.47 187.726 389.73 187.927 390.957C188.129 392.183 188.678 393.325 189.509 394.247C195.628 405.059 202.635 415.341 210.459 424.989L210.971 425.628C218.514 435.096 226.81 443.938 235.779 452.07C236.502 453.075 237.496 453.853 238.646 454.317C239.796 454.78 241.055 454.909 242.279 454.688C243.503 454.468 244.642 453.908 245.565 453.072C246.488 452.235 247.158 451.157 247.497 449.962C253.518 439.832 258.307 429.027 261.762 417.776" fill="#E4194E"/>
</g>
<g filter="url(#filter7_d)">
<path d="M204.909 428.247L205.493 428.977C213.544 439.124 222.405 448.6 231.988 457.31C233.381 458.855 235.139 460.023 237.098 460.706C239.056 461.389 241.15 461.564 243.184 461.215C245.218 460.866 247.126 460.005 248.728 458.711C250.33 457.418 251.574 455.734 252.343 453.819C258.551 443.267 263.469 431.995 266.992 420.245C267.44 418.753 267.278 417.138 266.539 415.755C265.801 414.372 264.548 413.334 263.055 412.87C261.562 412.406 259.952 412.553 258.579 413.28C257.207 414.006 256.183 415.252 255.735 416.744C252.5 427.568 247.979 437.952 242.269 447.675C241.889 448.331 241.454 448.953 240.968 449.534C240.466 449.019 239.908 448.561 239.306 448.169C230.598 440.199 222.526 431.559 215.165 422.327C207.384 412.667 200.347 402.432 194.114 391.711C193.751 391.019 193.452 390.294 193.222 389.548C193.912 389.419 194.587 389.22 195.235 388.952C205.966 385.49 217.086 383.334 228.356 382.529C229.91 382.418 231.35 381.693 232.36 380.513C233.37 379.333 233.866 377.795 233.741 376.236C233.615 374.678 232.877 373.228 231.69 372.204C230.503 371.18 228.963 370.668 227.409 370.778C215.219 371.648 203.191 373.978 191.581 377.716C189.524 378.017 187.583 378.842 185.944 380.113C184.305 381.383 183.023 383.057 182.22 384.974C181.417 386.892 181.12 388.988 181.357 391.063C181.595 393.138 182.358 395.123 183.575 396.828C189.823 407.859 196.958 418.368 204.909 428.247Z" fill="#E333BD"/>
</g>
<g filter="url(#filter8_d)">
<path d="M7.71072 489.548C8.2988 490.283 9.05227 490.869 9.9089 491.257C10.7655 491.644 11.7007 491.823 12.6373 491.778C34.684 490.692 52.9582 476.433 69.0811 463.866L71.3005 462.09C87.7404 449.315 105.501 437.87 124.055 440.537C131.679 442.064 139.059 444.647 145.982 448.211C156.868 454.473 169.333 457.399 181.824 456.625C189.014 454.905 195.777 451.754 201.711 447.359C207.645 442.963 212.628 437.413 216.366 431.037C216.811 430.402 217.126 429.685 217.294 428.926C217.462 428.168 217.478 427.383 217.343 426.616C217.208 425.849 216.923 425.115 216.505 424.457C216.087 423.798 215.545 423.228 214.908 422.778C214.271 422.328 213.553 422.008 212.794 421.835C212.036 421.662 211.252 421.641 210.487 421.772C209.722 421.902 208.991 422.183 208.336 422.597C207.681 423.012 207.114 423.552 206.669 424.186C203.883 429.283 200.083 433.75 195.503 437.313C190.923 440.876 185.658 443.461 180.032 444.908C169.795 445.213 159.662 442.62 150.797 437.426C142.871 433.386 134.42 430.49 125.696 428.825C102.717 425.519 81.6358 439.044 64.03 452.721L61.7921 454.512C46.3213 466.572 30.3255 479.053 11.9918 479.965C10.9053 480.018 9.85613 480.369 8.95993 480.982C8.06372 481.594 7.35524 482.443 6.91241 483.436C6.46958 484.428 6.30962 485.526 6.45018 486.607C6.59072 487.689 7.02632 488.712 7.70899 489.565L7.71072 489.548Z" fill="#323C6B"/>
</g>
<g filter="url(#filter9_d)">
<path d="M477.182 388.329C492.081 377.227 504.598 363.244 513.986 347.214C523.374 331.184 529.44 313.435 531.824 295.025C534.208 276.615 532.861 257.92 527.862 240.055C522.863 222.191 514.316 205.522 502.729 191.041C491.142 176.561 476.753 164.567 460.419 155.772C444.085 146.978 426.141 141.564 407.656 139.853C389.172 138.142 370.524 140.169 352.826 145.813C335.127 151.457 318.74 160.603 304.641 172.705C242.931 222.086 193.596 340.742 241.241 400.283C288.885 459.824 415.444 437.732 477.182 388.329Z" fill="#E333BD"/>
</g>
<g filter="url(#filter10_d)">
<path d="M304.85 172.458C258.439 209.596 219.181 286.002 223.023 346.944C235.176 298.306 261.991 254.605 299.835 221.765C314.04 209.99 330.429 201.133 348.066 195.7C365.703 190.267 384.242 188.363 402.625 190.099C421.008 191.835 438.875 197.175 455.205 205.816C471.535 214.456 486.009 226.227 497.8 240.456C514.695 261.626 524.849 287.376 526.944 314.367C533.071 293.411 534.077 271.282 529.878 249.84C525.679 228.399 516.398 208.271 502.815 191.149C478.992 162.427 444.759 144.325 407.638 140.821C370.517 137.316 333.546 148.695 304.85 172.458Z" fill="#D520AD"/>
</g>
<g filter="url(#filter11_d)">
<path d="M236.266 404.256C287.764 468.612 420.396 441.931 481.254 393.232C496.792 381.608 509.837 366.982 519.615 350.225C529.393 333.467 535.703 314.92 538.17 295.687C540.637 276.453 539.211 256.926 533.977 238.265C528.742 219.605 519.806 202.192 507.7 187.063C495.594 171.935 480.565 159.398 463.507 150.199C446.448 141 427.708 135.327 408.402 133.516C389.095 131.706 369.616 133.795 351.123 139.661C332.629 145.526 315.499 155.046 300.75 167.657C239.884 216.346 184.768 339.9 236.266 404.256ZM498.498 194.419C520.321 222.807 529.983 258.701 525.368 294.236C520.752 329.771 502.235 362.047 473.875 383.992C416.416 429.97 291.253 454.018 245.506 396.847C199.758 339.677 250.674 222.843 308.133 176.865C335.764 154.005 371.318 143.017 407.002 146.307C442.686 149.598 475.588 166.899 498.498 194.419Z" fill="#323C6B"/>
</g>
<g filter="url(#filter12_d)">
<path d="M338.723 402.015C338.831 403.837 339.677 405.478 341.077 406.578C342.477 407.679 344.317 408.15 346.196 407.889C347.376 407.691 351.918 407.324 353.603 407.108C354.601 407.071 355.6 406.829 356.533 406.396C357.467 405.964 358.315 405.352 359.022 404.599C359.73 403.847 360.281 402.971 360.639 402.028C360.998 401.086 361.156 400.098 361.104 399.129C361.051 398.16 360.79 397.231 360.335 396.403C359.881 395.575 359.245 394.867 358.467 394.323C357.69 393.78 356.789 393.414 355.823 393.25C354.857 393.085 353.848 393.125 352.861 393.368C351.467 393.595 347.06 393.853 345.454 394.149C344.521 394.272 343.605 394.574 342.76 395.037C341.915 395.5 341.157 396.116 340.53 396.848C339.904 397.58 339.422 398.413 339.112 399.3C338.801 400.187 338.669 401.11 338.723 402.015Z" fill="white"/>
</g>
<g filter="url(#filter13_d)">
<path d="M376.371 399.991C377.205 401.035 378.313 401.825 379.57 402.274C380.826 402.722 382.181 402.811 383.481 402.529C409.348 397.255 433.699 386.309 454.786 370.477C459.689 366.513 464.252 362.146 468.427 357.419C469.05 356.72 469.529 355.904 469.835 355.018C470.142 354.132 470.271 353.193 470.216 352.255C470.16 351.317 469.92 350.398 469.51 349.551C469.1 348.704 468.528 347.945 467.826 347.317C467.124 346.69 466.307 346.207 465.42 345.894C464.533 345.582 463.595 345.448 462.658 345.499C461.722 345.549 460.805 345.785 459.961 346.19C459.117 346.596 458.362 347.165 457.74 347.864C454.091 352.005 450.102 355.831 445.814 359.303C426.444 373.78 404.092 383.769 380.36 388.556C378.524 388.965 376.927 390.085 375.918 391.671C374.909 393.258 374.569 395.183 374.972 397.027C375.2 398.11 375.68 399.125 376.371 399.991Z" fill="#56305E"/>
</g>
<g filter="url(#filter14_d)">
<path d="M203.103 473.637C193.935 471.136 184.501 469.743 175.001 469.489C174.041 469.184 173.014 469.159 172.041 469.417C171.067 469.676 170.188 470.207 169.506 470.949C168.824 471.69 168.368 472.611 168.191 473.602C168.015 474.594 168.125 475.615 168.509 476.547C170.255 486.475 172.819 496.242 176.176 505.748L176.408 506.421C179.599 515.712 183.531 524.732 188.167 533.393C188.447 534.358 188.993 535.224 189.744 535.892C190.494 536.56 191.418 537.003 192.408 537.17C193.399 537.336 194.417 537.22 195.344 536.834C196.271 536.447 197.071 535.807 197.651 534.987C204.959 528.899 211.512 521.958 217.169 514.311" fill="#F84733"/>
</g>
<g filter="url(#filter15_d)">
<path d="M171.404 506.564L171.671 507.336C175.028 517.182 179.186 526.737 184.102 535.904C184.735 537.456 185.754 538.822 187.061 539.872C188.367 540.922 189.92 541.622 191.572 541.906C193.224 542.19 194.922 542.048 196.504 541.495C198.087 540.942 199.503 539.995 200.618 538.744C208.243 532.391 215.084 525.152 220.994 517.178C221.745 516.167 222.063 514.899 221.879 513.653C221.788 513.036 221.576 512.443 221.256 511.908C220.936 511.373 220.513 510.906 220.013 510.534C219.512 510.163 218.943 509.893 218.338 509.741C217.733 509.589 217.104 509.558 216.487 509.649C215.87 509.74 215.277 509.952 214.742 510.272C214.207 510.592 213.74 511.015 213.368 511.516C207.933 518.859 201.641 525.528 194.625 531.381C194.155 531.776 193.653 532.131 193.124 532.443C192.882 531.918 192.582 531.422 192.23 530.963C187.779 522.591 183.994 513.881 180.911 504.914C177.526 495.541 174.959 485.892 173.24 476.076C173.151 475.451 173.12 474.819 173.15 474.188C173.705 474.283 174.268 474.314 174.83 474.281C183.97 474.527 193.047 475.864 201.87 478.264C202.472 478.428 203.1 478.472 203.718 478.393C204.337 478.314 204.934 478.115 205.476 477.805C206.017 477.496 206.492 477.083 206.874 476.59C207.256 476.096 207.537 475.533 207.701 474.931C207.865 474.33 207.909 473.701 207.83 473.083C207.751 472.464 207.552 471.867 207.242 471.326C206.933 470.784 206.52 470.309 206.026 469.927C205.533 469.545 204.97 469.264 204.368 469.1C194.833 466.506 185.022 465.058 175.144 464.787C173.492 464.465 171.785 464.573 170.186 465.099C168.588 465.625 167.151 466.553 166.013 467.793C164.876 469.034 164.075 470.545 163.688 472.183C163.301 473.821 163.341 475.531 163.804 477.149C165.527 487.146 168.068 496.984 171.404 506.564Z" fill="#323C6B"/>
</g>
<g filter="url(#filter16_d)">
<path d="M5.61436 499.949C5.86035 500.661 6.27221 501.304 6.8159 501.825C7.35959 502.347 8.01952 502.731 8.74116 502.947C25.7147 508.01 43.3919 502.148 58.9898 496.986L61.2335 496.21C77.1486 490.947 93.7034 487.041 107.05 494.022C112.405 497.21 117.29 501.127 121.565 505.662C128.115 513.314 136.777 518.864 146.466 521.619C152.378 522.238 158.355 521.664 164.042 519.93C169.728 518.197 175.009 515.339 179.571 511.527C180.6 510.8 181.298 509.693 181.511 508.451C181.724 507.209 181.435 505.933 180.707 504.904C179.98 503.876 178.873 503.178 177.631 502.965C176.389 502.752 175.113 503.041 174.084 503.768C170.59 506.873 166.498 509.231 162.06 510.696C157.621 512.162 152.93 512.705 148.274 512.292C140.434 509.796 133.46 505.132 128.159 498.84C123.249 493.671 117.628 489.227 111.467 485.641C94.9426 476.997 75.308 481.586 58.2649 487.218L56.0122 487.997C41.0488 492.961 25.5676 498.083 11.4627 493.877C10.6255 493.627 9.73542 493.612 8.89046 493.835C8.04549 494.058 7.27845 494.51 6.67377 495.141C6.06911 495.772 5.65027 496.557 5.4634 497.411C5.27653 498.265 5.32889 499.153 5.6147 499.979L5.61436 499.949Z" fill="#323C6B"/>
</g>
<g filter="url(#filter17_d)">
<path d="M388.875 550.009C417.442 540.668 441.13 520.365 454.731 493.563C468.332 466.762 470.732 435.656 461.405 407.085C451.09 378.855 429.987 355.876 402.735 343.202C375.483 330.527 344.313 329.194 316.079 339.495C255.947 360.289 186.534 437.055 206.636 495.185C226.738 553.315 328.726 570.809 388.875 550.009Z" fill="#F84733"/>
</g>
<g filter="url(#filter18_d)">
<path d="M316.084 339.453C270.851 355.095 220.417 402.479 206.71 449.722C229.134 416.142 261.317 390.248 298.919 375.533C327.16 365.235 358.333 366.571 385.59 379.246C412.846 391.921 433.955 414.899 444.278 443.131C451.409 463.8 452.13 486.14 446.346 507.226C456.683 492.955 463.441 476.41 466.053 458.983C468.665 441.556 467.053 423.756 461.353 407.082C451.04 378.863 429.949 355.891 402.711 343.211C375.474 330.531 344.317 329.179 316.084 339.453Z" fill="#DE2C18"/>
</g>
<g filter="url(#filter19_d)">
<path d="M202.166 496.73C223.82 559.347 331.292 574.945 390.427 554.496C420.163 544.714 444.805 523.538 458.952 495.614C473.098 467.689 475.594 435.294 465.892 405.533C455.135 376.137 433.16 352.207 404.787 338.988C376.413 325.769 343.955 324.341 314.53 335.017C255.395 355.466 180.529 434.157 202.166 496.73ZM456.926 408.633C465.806 436.016 463.466 465.803 450.419 491.464C437.371 517.124 414.681 536.564 387.323 545.521C331.5 564.825 230.359 549.259 211.123 493.633C191.888 438.007 261.807 363.286 317.63 343.982C344.677 334.129 374.527 335.402 400.636 347.521C426.746 359.641 446.985 381.618 456.917 408.636L456.926 408.633Z" fill="#323C6B"/>
</g>
<g filter="url(#filter20_d)">
<path d="M449.411 543.635C449.646 544.317 450.035 544.936 450.548 545.442C451.44 546.33 452.647 546.827 453.905 546.825C455.163 546.824 456.368 546.323 457.257 545.433C482.688 520.145 497.973 486.416 500.224 450.623C500.299 449.366 499.872 448.13 499.037 447.187C498.201 446.245 497.025 445.673 495.768 445.597C494.511 445.522 493.275 445.949 492.332 446.785C491.39 447.62 490.818 448.796 490.742 450.053C488.634 483.537 474.328 515.087 450.53 538.736C449.904 539.366 449.468 540.159 449.27 541.025C449.072 541.891 449.121 542.795 449.411 543.635Z" fill="#323C6B"/>
</g>
<defs>
<filter id="filter0_d" x="101.25" y="263.448" width="81.9273" height="73.6469" filterUnits="userSpaceOnUse" color-interpolation-filters="sRGB">
<feFlood flood-opacity="0" result="BackgroundImageFix"/>
<feColorMatrix in="SourceAlpha" type="matrix" values="0 0 0 0 0 0 0 0 0 0 0 0 0 0 0 0 0 0 127 0"/>
<feOffset dy="-7"/>
<feGaussianBlur stdDeviation="2"/>
<feColorMatrix type="matrix" values="0 0 0 0 0 0 0 0 0 0 0 0 0 0 0 0 0 0 0.25 0"/>
<feBlend mode="normal" in2="BackgroundImageFix" result="effect1_dropShadow"/>
<feBlend mode="normal" in="SourceGraphic" in2="effect1_dropShadow" result="shape"/>
</filter>
<filter id="filter1_d" x="95.2924" y="257.457" width="93.8055" height="85.6129" filterUnits="userSpaceOnUse" color-interpolation-filters="sRGB">
<feFlood flood-opacity="0" result="BackgroundImageFix"/>
<feColorMatrix in="SourceAlpha" type="matrix" values="0 0 0 0 0 0 0 0 0 0 0 0 0 0 0 0 0 0 127 0"/>
<feOffset dy="-7"/>
<feGaussianBlur stdDeviation="2"/>
<feColorMatrix type="matrix" values="0 0 0 0 0 0 0 0 0 0 0 0 0 0 0 0 0 0 0.25 0"/>
<feBlend mode="normal" in2="BackgroundImageFix" result="effect1_dropShadow"/>
<feBlend mode="normal" in="SourceGraphic" in2="effect1_dropShadow" result="shape"/>
</filter>
<filter id="filter2_d" x="1.21973" y="273.868" width="146.232" height="177.477" filterUnits="userSpaceOnUse" color-interpolation-filters="sRGB">
<feFlood flood-opacity="0" result="BackgroundImageFix"/>
<feColorMatrix in="SourceAlpha" type="matrix" values="0 0 0 0 0 0 0 0 0 0 0 0 0 0 0 0 0 0 127 0"/>
<feOffset dy="-7"/>
<feGaussianBlur stdDeviation="2"/>
<feColorMatrix type="matrix" values="0 0 0 0 0 0 0 0 0 0 0 0 0 0 0 0 0 0 0.25 0"/>
<feBlend mode="normal" in2="BackgroundImageFix" result="effect1_dropShadow"/>
<feBlend mode="normal" in="SourceGraphic" in2="effect1_dropShadow" result="shape"/>
</filter>
<filter id="filter3_d" x="56.4291" y="15.7946" width="313.881" height="331.783" filterUnits="userSpaceOnUse" color-interpolation-filters="sRGB">
<feFlood flood-opacity="0" result="BackgroundImageFix"/>
<feColorMatrix in="SourceAlpha" type="matrix" values="0 0 0 0 0 0 0 0 0 0 0 0 0 0 0 0 0 0 127 0"/>
<feOffset dy="-7"/>
<feGaussianBlur stdDeviation="2"/>
<feColorMatrix type="matrix" values="0 0 0 0 0 0 0 0 0 0 0 0 0 0 0 0 0 0 0.25 0"/>
<feBlend mode="normal" in2="BackgroundImageFix" result="effect1_dropShadow"/>
<feBlend mode="normal" in="SourceGraphic" in2="effect1_dropShadow" result="shape"/>
</filter>
<filter id="filter4_d" x="63.4065" y="15.7886" width="289.658" height="309.777" filterUnits="userSpaceOnUse" color-interpolation-filters="sRGB">
<feFlood flood-opacity="0" result="BackgroundImageFix"/>
<feColorMatrix in="SourceAlpha" type="matrix" values="0 0 0 0 0 0 0 0 0 0 0 0 0 0 0 0 0 0 127 0"/>
<feOffset dy="-7"/>
<feGaussianBlur stdDeviation="2"/>
<feColorMatrix type="matrix" values="0 0 0 0 0 0 0 0 0 0 0 0 0 0 0 0 0 0 0.25 0"/>
<feBlend mode="normal" in2="BackgroundImageFix" result="effect1_dropShadow"/>
<feBlend mode="normal" in="SourceGraphic" in2="effect1_dropShadow" result="shape"/>
</filter>
<filter id="filter5_d" x="50.3876" y="0.930603" width="325.961" height="352.685" filterUnits="userSpaceOnUse" color-interpolation-filters="sRGB">
<feFlood flood-opacity="0" result="BackgroundImageFix"/>
<feColorMatrix in="SourceAlpha" type="matrix" values="0 0 0 0 0 0 0 0 0 0 0 0 0 0 0 0 0 0 127 0"/>
<feOffset dy="-7"/>
<feGaussianBlur stdDeviation="2"/>
<feColorMatrix type="matrix" values="0 0 0 0 0 0 0 0 0 0 0 0 0 0 0 0 0 0 0.25 0"/>
<feBlend mode="normal" in2="BackgroundImageFix" result="effect1_dropShadow"/>
<feBlend mode="normal" in="SourceGraphic" in2="effect1_dropShadow" result="shape"/>
</filter>
<filter id="filter6_d" x="178.971" y="351.798" width="97.6948" height="107.449" filterUnits="userSpaceOnUse" color-interpolation-filters="sRGB">
<feFlood flood-opacity="0" result="BackgroundImageFix"/>
<feColorMatrix in="SourceAlpha" type="matrix" values="0 0 0 0 0 0 0 0 0 0 0 0 0 0 0 0 0 0 127 0"/>
<feOffset dy="-7"/>
<feGaussianBlur stdDeviation="2"/>
<feColorMatrix type="matrix" values="0 0 0 0 0 0 0 0 0 0 0 0 0 0 0 0 0 0 0.25 0"/>
<feBlend mode="normal" in2="BackgroundImageFix" result="effect1_dropShadow"/>
<feBlend mode="normal" in="SourceGraphic" in2="effect1_dropShadow" result="shape"/>
</filter>
<filter id="filter7_d" x="170.022" y="343.645" width="114.599" height="124.552" filterUnits="userSpaceOnUse" color-interpolation-filters="sRGB">
<feFlood flood-opacity="0" result="BackgroundImageFix"/>
<feColorMatrix in="SourceAlpha" type="matrix" values="0 0 0 0 0 0 0 0 0 0 0 0 0 0 0 0 0 0 127 0"/>
<feOffset dy="-7"/>
<feGaussianBlur stdDeviation="2"/>
<feColorMatrix type="matrix" values="0 0 0 0 0 0 0 0 0 0 0 0 0 0 0 0 0 0 0.25 0"/>
<feBlend mode="normal" in2="BackgroundImageFix" result="effect1_dropShadow"/>
<feBlend mode="normal" in="SourceGraphic" in2="effect1_dropShadow" result="shape"/>
</filter>
<filter id="filter8_d" x="0" y="346.634" width="225.954" height="211.87" filterUnits="userSpaceOnUse" color-interpolation-filters="sRGB">
<feFlood flood-opacity="0" result="BackgroundImageFix"/>
<feColorMatrix in="SourceAlpha" type="matrix" values="0 0 0 0 0 0 0 0 0 0 0 0 0 0 0 0 0 0 127 0"/>
<feOffset dy="-7"/>
<feGaussianBlur stdDeviation="2"/>
<feColorMatrix type="matrix" values="0 0 0 0 0 0 0 0 0 0 0 0 0 0 0 0 0 0 0.25 0"/>
<feBlend mode="normal" in2="BackgroundImageFix" result="effect1_dropShadow"/>
<feBlend mode="normal" in="SourceGraphic" in2="effect1_dropShadow" result="shape"/>
</filter>
<filter id="filter9_d" x="150.919" y="72.1652" width="442.132" height="435.994" filterUnits="userSpaceOnUse" color-interpolation-filters="sRGB">
<feFlood flood-opacity="0" result="BackgroundImageFix"/>
<feColorMatrix in="SourceAlpha" type="matrix" values="0 0 0 0 0 0 0 0 0 0 0 0 0 0 0 0 0 0 127 0"/>
<feOffset dy="-7"/>
<feGaussianBlur stdDeviation="2"/>
<feColorMatrix type="matrix" values="0 0 0 0 0 0 0 0 0 0 0 0 0 0 0 0 0 0 0.25 0"/>
<feBlend mode="normal" in2="BackgroundImageFix" result="effect1_dropShadow"/>
<feBlend mode="normal" in="SourceGraphic" in2="effect1_dropShadow" result="shape"/>
</filter>
<filter id="filter10_d" x="165.833" y="72.1652" width="410.511" height="403.181" filterUnits="userSpaceOnUse" color-interpolation-filters="sRGB">
<feFlood flood-opacity="0" result="BackgroundImageFix"/>
<feColorMatrix in="SourceAlpha" type="matrix" values="0 0 0 0 0 0 0 0 0 0 0 0 0 0 0 0 0 0 127 0"/>
<feOffset dy="-7"/>
<feGaussianBlur stdDeviation="2"/>
<feColorMatrix type="matrix" values="0 0 0 0 0 0 0 0 0 0 0 0 0 0 0 0 0 0 0.25 0"/>
<feBlend mode="normal" in2="BackgroundImageFix" result="effect1_dropShadow"/>
<feBlend mode="normal" in="SourceGraphic" in2="effect1_dropShadow" result="shape"/>
</filter>
<filter id="filter11_d" x="141.97" y="63.216" width="460.03" height="453.892" filterUnits="userSpaceOnUse" color-interpolation-filters="sRGB">
<feFlood flood-opacity="0" result="BackgroundImageFix"/>
<feColorMatrix in="SourceAlpha" type="matrix" values="0 0 0 0 0 0 0 0 0 0 0 0 0 0 0 0 0 0 127 0"/>
<feOffset dy="-7"/>
<feGaussianBlur stdDeviation="2"/>
<feColorMatrix type="matrix" values="0 0 0 0 0 0 0 0 0 0 0 0 0 0 0 0 0 0 0.25 0"/>
<feBlend mode="normal" in2="BackgroundImageFix" result="effect1_dropShadow"/>
<feBlend mode="normal" in="SourceGraphic" in2="effect1_dropShadow" result="shape"/>
</filter>
<filter id="filter12_d" x="331.903" y="375.846" width="36.0406" height="38.4446" filterUnits="userSpaceOnUse" color-interpolation-filters="sRGB">
<feFlood flood-opacity="0" result="BackgroundImageFix"/>
<feColorMatrix in="SourceAlpha" type="matrix" values="0 0 0 0 0 0 0 0 0 0 0 0 0 0 0 0 0 0 127 0"/>
<feOffset dy="-7"/>
<feGaussianBlur stdDeviation="2"/>
<feColorMatrix type="matrix" values="0 0 0 0 0 0 0 0 0 0 0 0 0 0 0 0 0 0 0.25 0"/>
<feBlend mode="normal" in2="BackgroundImageFix" result="effect1_dropShadow"/>
<feBlend mode="normal" in="SourceGraphic" in2="effect1_dropShadow" result="shape"/>
</filter>
<filter id="filter13_d" x="367.897" y="318.162" width="110.214" height="102.089" filterUnits="userSpaceOnUse" color-interpolation-filters="sRGB">
<feFlood flood-opacity="0" result="BackgroundImageFix"/>
<feColorMatrix in="SourceAlpha" type="matrix" values="0 0 0 0 0 0 0 0 0 0 0 0 0 0 0 0 0 0 127 0"/>
<feOffset dy="-7"/>
<feGaussianBlur stdDeviation="2"/>
<feColorMatrix type="matrix" values="0 0 0 0 0 0 0 0 0 0 0 0 0 0 0 0 0 0 0.25 0"/>
<feBlend mode="normal" in2="BackgroundImageFix" result="effect1_dropShadow"/>
<feBlend mode="normal" in="SourceGraphic" in2="effect1_dropShadow" result="shape"/>
</filter>
<filter id="filter14_d" x="160.504" y="449.26" width="65.2931" height="90.1842" filterUnits="userSpaceOnUse" color-interpolation-filters="sRGB">
<feFlood flood-opacity="0" result="BackgroundImageFix"/>
<feColorMatrix in="SourceAlpha" type="matrix" values="0 0 0 0 0 0 0 0 0 0 0 0 0 0 0 0 0 0 127 0"/>
<feOffset dy="-7"/>
<feGaussianBlur stdDeviation="2"/>
<feColorMatrix type="matrix" values="0 0 0 0 0 0 0 0 0 0 0 0 0 0 0 0 0 0 0.25 0"/>
<feBlend mode="normal" in2="BackgroundImageFix" result="effect1_dropShadow"/>
<feBlend mode="normal" in="SourceGraphic" in2="effect1_dropShadow" result="shape"/>
</filter>
<filter id="filter15_d" x="154.464" y="443.291" width="77.3818" height="102.227" filterUnits="userSpaceOnUse" color-interpolation-filters="sRGB">
<feFlood flood-opacity="0" result="BackgroundImageFix"/>
<feColorMatrix in="SourceAlpha" type="matrix" values="0 0 0 0 0 0 0 0 0 0 0 0 0 0 0 0 0 0 127 0"/>
<feOffset dy="-7"/>
<feGaussianBlur stdDeviation="2"/>
<feColorMatrix type="matrix" values="0 0 0 0 0 0 0 0 0 0 0 0 0 0 0 0 0 0 0.25 0"/>
<feBlend mode="normal" in2="BackgroundImageFix" result="effect1_dropShadow"/>
<feBlend mode="normal" in="SourceGraphic" in2="effect1_dropShadow" result="shape"/>
</filter>
<filter id="filter16_d" x="0.0625" y="430.874" width="187.694" height="135.887" filterUnits="userSpaceOnUse" color-interpolation-filters="sRGB">
<feFlood flood-opacity="0" result="BackgroundImageFix"/>
<feColorMatrix in="SourceAlpha" type="matrix" values="0 0 0 0 0 0 0 0 0 0 0 0 0 0 0 0 0 0 127 0"/>
<feOffset dy="-7"/>
<feGaussianBlur stdDeviation="2"/>
<feColorMatrix type="matrix" values="0 0 0 0 0 0 0 0 0 0 0 0 0 0 0 0 0 0 0.25 0"/>
<feBlend mode="normal" in2="BackgroundImageFix" result="effect1_dropShadow"/>
<feBlend mode="normal" in="SourceGraphic" in2="effect1_dropShadow" result="shape"/>
</filter>
<filter id="filter17_d" x="166.232" y="290.812" width="335.576" height="309.644" filterUnits="userSpaceOnUse" color-interpolation-filters="sRGB">
<feFlood flood-opacity="0" result="BackgroundImageFix"/>
<feColorMatrix in="SourceAlpha" type="matrix" values="0 0 0 0 0 0 0 0 0 0 0 0 0 0 0 0 0 0 127 0"/>
<feOffset dy="-7"/>
<feGaussianBlur stdDeviation="2"/>
<feColorMatrix type="matrix" values="0 0 0 0 0 0 0 0 0 0 0 0 0 0 0 0 0 0 0.25 0"/>
<feBlend mode="normal" in2="BackgroundImageFix" result="effect1_dropShadow"/>
<feBlend mode="normal" in="SourceGraphic" in2="effect1_dropShadow" result="shape"/>
</filter>
<filter id="filter18_d" x="180.329" y="290.793" width="314.353" height="284.307" filterUnits="userSpaceOnUse" color-interpolation-filters="sRGB">
<feFlood flood-opacity="0" result="BackgroundImageFix"/>
<feColorMatrix in="SourceAlpha" type="matrix" values="0 0 0 0 0 0 0 0 0 0 0 0 0 0 0 0 0 0 127 0"/>
<feOffset dy="-7"/>
<feGaussianBlur stdDeviation="2"/>
<feColorMatrix type="matrix" values="0 0 0 0 0 0 0 0 0 0 0 0 0 0 0 0 0 0 0.25 0"/>
<feBlend mode="normal" in2="BackgroundImageFix" result="effect1_dropShadow"/>
<feBlend mode="normal" in="SourceGraphic" in2="effect1_dropShadow" result="shape"/>
</filter>
<filter id="filter19_d" x="160.215" y="284.784" width="347.631" height="321.702" filterUnits="userSpaceOnUse" color-interpolation-filters="sRGB">
<feFlood flood-opacity="0" result="BackgroundImageFix"/>
<feColorMatrix in="SourceAlpha" type="matrix" values="0 0 0 0 0 0 0 0 0 0 0 0 0 0 0 0 0 0 127 0"/>
<feOffset dy="-7"/>
<feGaussianBlur stdDeviation="2"/>
<feColorMatrix type="matrix" values="0 0 0 0 0 0 0 0 0 0 0 0 0 0 0 0 0 0 0.25 0"/>
<feBlend mode="normal" in2="BackgroundImageFix" result="effect1_dropShadow"/>
<feBlend mode="normal" in="SourceGraphic" in2="effect1_dropShadow" result="shape"/>
</filter>
<filter id="filter20_d" x="419.963" y="433.297" width="109.454" height="114.82" filterUnits="userSpaceOnUse" color-interpolation-filters="sRGB">
<feFlood flood-opacity="0" result="BackgroundImageFix"/>
<feColorMatrix in="SourceAlpha" type="matrix" values="0 0 0 0 0 0 0 0 0 0 0 0 0 0 0 0 0 0 127 0"/>
<feOffset dy="-7"/>
<feGaussianBlur stdDeviation="2"/>
<feColorMatrix type="matrix" values="0 0 0 0 0 0 0 0 0 0 0 0 0 0 0 0 0 0 0.25 0"/>
<feBlend mode="normal" in2="BackgroundImageFix" result="effect1_dropShadow"/>
<feBlend mode="normal" in="SourceGraphic" in2="effect1_dropShadow" result="shape"/>
</filter>
</defs>
</svg>
