<svg width="76" height="80" viewBox="0 0 76 80" fill="none" xmlns="http://www.w3.org/2000/svg">
<path d="M62.7153 49.3403L61.4341 50.6216L52.8497 59.2188H45.1622C46.8216 57.8786 48.0767 56.1046 48.7881 54.0938H50.8125C51.8319 54.0938 52.8096 53.6888 53.5305 52.9679C54.2513 52.2471 54.6563 51.2694 54.6563 50.25C54.6563 49.2306 54.2513 48.2529 53.5305 47.5321C52.8096 46.8112 51.8319 46.4062 50.8125 46.4062H49.5313V45.125H52.0938V42.5625H49.621L50.8125 25.9959C50.8238 25.8206 50.7989 25.6448 50.7394 25.4795C50.6799 25.3142 50.587 25.1629 50.4666 25.035C50.3471 24.9062 50.2024 24.8033 50.0415 24.7328C49.8806 24.6623 49.7069 24.6256 49.5313 24.625H26.4688C26.2931 24.6256 26.1194 24.6623 25.9585 24.7328C25.7976 24.8033 25.6529 24.9062 25.5335 25.035C25.413 25.1629 25.3201 25.3142 25.2606 25.4795C25.2011 25.6448 25.1762 25.8206 25.1875 25.9959L26.3791 42.5625H23.9063V45.125H26.4688V46.4062H25.1875C24.1681 46.4062 23.1904 46.8112 22.4696 47.5321C21.7487 48.2529 21.3438 49.2306 21.3438 50.25C21.3438 51.2694 21.7487 52.2471 22.4696 52.9679C23.1904 53.6888 24.1681 54.0938 25.1875 54.0938H27.1478C27.8592 56.1046 29.1144 57.8786 30.7738 59.2188H23.1503L14.566 50.6216L13.2847 49.3403C12.3638 48.4194 11.1148 47.9021 9.81251 47.9021C8.51019 47.9021 7.26121 48.4194 6.34033 49.3403C5.41945 50.2612 4.9021 51.5102 4.9021 52.8125C4.9021 54.1148 5.41945 55.3638 6.34033 56.2847L7.62158 57.5659L21.3438 71.2753V78.4375C21.3438 78.7773 21.4788 79.1032 21.719 79.3435C21.9593 79.5838 22.2852 79.7188 22.625 79.7188H53.375C53.7148 79.7188 54.0407 79.5838 54.281 79.3435C54.5213 79.1032 54.6563 78.7773 54.6563 78.4375V71.2753L68.3785 57.5659L69.6597 56.2847C70.5806 55.3638 71.0979 54.1148 71.0979 52.8125C71.0979 51.5102 70.5806 50.2612 69.6597 49.3403C68.7388 48.4194 67.4898 47.9021 66.1875 47.9021C64.8852 47.9021 63.6362 48.4194 62.7153 49.3403ZM67.8403 51.1597C68.0596 51.3755 68.2337 51.6328 68.3526 51.9165C68.4714 52.2003 68.5327 52.5049 68.5327 52.8125C68.5327 53.1201 68.4714 53.4247 68.3526 53.7085C68.2337 53.9922 68.0596 54.2495 67.8403 54.4653L67.4688 54.8497L64.1503 51.5312L64.5347 51.1597C64.7505 50.9404 65.0078 50.7663 65.2915 50.6474C65.5753 50.5286 65.8799 50.4674 66.1875 50.4674C66.4952 50.4674 66.7997 50.5286 67.0835 50.6474C67.3673 50.7663 67.6245 50.9404 67.8403 51.1597ZM40.7291 61.7812L38 65.8813L35.271 61.7812H40.7291ZM34.1563 64.7281L36.9366 68.8922C37.0538 69.0666 37.2121 69.2095 37.3975 69.3083C37.583 69.4071 37.7899 69.4588 38 69.4588C38.2101 69.4588 38.4171 69.4071 38.6025 69.3083C38.788 69.2095 38.9463 69.0666 39.0635 68.8922L41.8438 64.7281V77.1562H34.1563V64.7281ZM31.5938 77.1562H29.0313V61.7812H31.5938V77.1562ZM44.4063 61.7812H46.9688V77.1562H44.4063V61.7812ZM50.8125 48.9688C51.1523 48.9688 51.4782 49.1037 51.7185 49.344C51.9588 49.5843 52.0938 49.9102 52.0938 50.25C52.0938 50.5898 51.9588 50.9157 51.7185 51.156C51.4782 51.3963 51.1523 51.5312 50.8125 51.5312H49.4544C49.5059 51.1061 49.5316 50.6782 49.5313 50.25V48.9688H50.8125ZM48.1603 27.1875L47.4172 37.4375H28.5828L27.8397 27.1875H48.1603ZM28.7622 40H47.2378L47.0585 42.5625H28.9416L28.7622 40ZM25.1875 51.5312C24.8477 51.5312 24.5218 51.3963 24.2815 51.156C24.0413 50.9157 23.9063 50.5898 23.9063 50.25C23.9063 49.9102 24.0413 49.5843 24.2815 49.344C24.5218 49.1037 24.8477 48.9688 25.1875 48.9688H26.4688V50.25C26.4684 50.6782 26.4941 51.1061 26.5456 51.5312H25.1875ZM29.0313 50.25V45.125H46.9688V50.25C46.9688 52.6287 46.0238 54.9099 44.3419 56.5919C42.6599 58.2738 40.3787 59.2188 38 59.2188C35.6214 59.2188 33.3401 58.2738 31.6581 56.5919C29.9762 54.9099 29.0313 52.6287 29.0313 50.25ZM8.1597 51.1597C8.3755 50.9404 8.63278 50.7663 8.91654 50.6474C9.20029 50.5286 9.50487 50.4674 9.81251 50.4674C10.1202 50.4674 10.4247 50.5286 10.7085 50.6474C10.9923 50.7663 11.2495 50.9404 11.4653 51.1597L11.8497 51.5312L8.53126 54.8497L8.1597 54.4653C7.94044 54.2495 7.76631 53.9922 7.64745 53.7085C7.52859 53.4247 7.46737 53.1201 7.46737 52.8125C7.46737 52.5049 7.52859 52.2003 7.64745 51.9165C7.76631 51.6328 7.94044 51.3755 8.1597 51.1597ZM23.5347 69.8403L10.3378 56.6562L13.6563 53.3378L21.7153 61.4097C21.835 61.5284 21.977 61.6224 22.1331 61.6861C22.2892 61.7499 22.4564 61.7822 22.625 61.7812H26.4688V77.1562H23.9063V70.75C23.9072 70.5814 23.8749 70.4142 23.8112 70.2581C23.7474 70.102 23.6534 69.96 23.5347 69.8403ZM52.4653 69.8403C52.3466 69.96 52.2526 70.102 52.1889 70.2581C52.1251 70.4142 52.0928 70.5814 52.0938 70.75V77.1562H49.5313V61.7812H53.375C53.5436 61.7822 53.7108 61.7499 53.8669 61.6861C54.023 61.6224 54.165 61.5284 54.2847 61.4097L62.3438 53.3378L65.6622 56.6562L52.4653 69.8403Z" fill="white"/>
<path d="M38 13.0938C39.267 13.0938 40.5056 12.718 41.5591 12.0141C42.6126 11.3102 43.4337 10.3097 43.9186 9.13907C44.4035 7.96848 44.5303 6.6804 44.2832 5.43771C44.036 4.19501 43.4258 3.05353 42.5299 2.1576C41.634 1.26167 40.4925 0.651534 39.2498 0.404347C38.0071 0.157161 36.719 0.284026 35.5484 0.7689C34.3778 1.25377 33.3773 2.07488 32.6734 3.12838C31.9695 4.18188 31.5938 5.42047 31.5938 6.6875C31.5938 8.38655 32.2687 10.016 33.4701 11.2174C34.6715 12.4188 36.301 13.0938 38 13.0938ZM38 2.84375C38.7602 2.84375 39.5034 3.06918 40.1355 3.49154C40.7676 3.9139 41.2602 4.51421 41.5512 5.21656C41.8421 5.91892 41.9182 6.69177 41.7699 7.43738C41.6216 8.183 41.2555 8.86789 40.7179 9.40545C40.1804 9.943 39.4955 10.3091 38.7499 10.4574C38.0043 10.6057 37.2314 10.5296 36.5291 10.2387C35.8267 9.94774 35.2264 9.45508 34.804 8.82298C34.3817 8.19088 34.1563 7.44772 34.1563 6.6875C34.1563 5.66808 34.5612 4.6904 35.2821 3.96956C36.0029 3.24872 36.9806 2.84375 38 2.84375Z" fill="white"/>
<path d="M58.5 20.7813C59.767 20.7813 61.0056 20.4055 62.0591 19.7016C63.1126 18.9977 63.9337 17.9972 64.4186 16.8266C64.9035 15.656 65.0303 14.3679 64.7832 13.1252C64.536 11.8825 63.9258 10.741 63.0299 9.8451C62.134 8.94917 60.9925 8.33903 59.7498 8.09185C58.5071 7.84466 57.219 7.97153 56.0484 8.4564C54.8778 8.94127 53.8773 9.76238 53.1734 10.8159C52.4695 11.8694 52.0938 13.108 52.0938 14.375C52.0938 16.074 52.7687 17.7035 53.9701 18.9049C55.1715 20.1063 56.801 20.7813 58.5 20.7813ZM58.5 10.5313C59.2602 10.5313 60.0034 10.7567 60.6355 11.179C61.2676 11.6014 61.7602 12.2017 62.0512 12.9041C62.3421 13.6064 62.4182 14.3793 62.2699 15.1249C62.1216 15.8705 61.7555 16.5554 61.2179 17.0929C60.6804 17.6305 59.9955 17.9966 59.2499 18.1449C58.5043 18.2932 57.7314 18.2171 57.0291 17.9262C56.3267 17.6352 55.7264 17.1426 55.304 16.5105C54.8817 15.8784 54.6563 15.1352 54.6563 14.375C54.6563 13.3556 55.0612 12.3779 55.7821 11.6571C56.5029 10.9362 57.4806 10.5313 58.5 10.5313Z" fill="white"/>
<path d="M68.75 24.625C67.483 24.625 66.2444 25.0007 65.1909 25.7046C64.1374 26.4086 63.3163 27.4091 62.8314 28.5797C62.3465 29.7503 62.2197 31.0384 62.4668 32.281C62.714 33.5237 63.3242 34.6652 64.2201 35.5611C65.116 36.4571 66.2575 37.0672 67.5002 37.3144C68.7429 37.5616 70.031 37.4347 71.2016 36.9498C72.3722 36.465 73.3727 35.6439 74.0766 34.5904C74.7805 33.5369 75.1563 32.2983 75.1563 31.0312C75.1563 29.3322 74.4813 27.7028 73.2799 26.5013C72.0785 25.2999 70.449 24.625 68.75 24.625ZM68.75 34.875C67.9898 34.875 67.2466 34.6496 66.6145 34.2272C65.9824 33.8049 65.4898 33.2045 65.1988 32.5022C64.9079 31.7998 64.8318 31.027 64.9801 30.2814C65.1284 29.5358 65.4945 28.8509 66.0321 28.3133C66.5696 27.7757 67.2545 27.4097 68.0001 27.2614C68.7457 27.113 69.5186 27.1892 70.2209 27.4801C70.9233 27.771 71.5236 28.2637 71.946 28.8958C72.3683 29.5279 72.5938 30.271 72.5938 31.0312C72.5938 32.0507 72.1888 33.0283 71.4679 33.7492C70.7471 34.47 69.7694 34.875 68.75 34.875Z" fill="white"/>
<path d="M17.5 20.7813C18.767 20.7813 20.0056 20.4055 21.0591 19.7016C22.1126 18.9977 22.9337 17.9972 23.4186 16.8266C23.9035 15.656 24.0303 14.3679 23.7832 13.1252C23.536 11.8825 22.9258 10.741 22.0299 9.8451C21.134 8.94917 19.9925 8.33903 18.7498 8.09185C17.5071 7.84466 16.219 7.97153 15.0484 8.4564C13.8778 8.94127 12.8773 9.76238 12.1734 10.8159C11.4695 11.8694 11.0938 13.108 11.0938 14.375C11.0938 16.074 11.7687 17.7035 12.9701 18.9049C14.1715 20.1063 15.801 20.7813 17.5 20.7813ZM17.5 10.5313C18.2602 10.5313 19.0034 10.7567 19.6355 11.179C20.2676 11.6014 20.7602 12.2017 21.0512 12.9041C21.3421 13.6064 21.4182 14.3793 21.2699 15.1249C21.1216 15.8705 20.7555 16.5554 20.2179 17.0929C19.6804 17.6305 18.9955 17.9966 18.2499 18.1449C17.5043 18.2932 16.7314 18.2171 16.0291 17.9262C15.3267 17.6352 14.7264 17.1426 14.304 16.5105C13.8817 15.8784 13.6562 15.1352 13.6562 14.375C13.6562 13.3556 14.0612 12.3779 14.7821 11.6571C15.5029 10.9362 16.4806 10.5313 17.5 10.5313Z" fill="white"/>
<path d="M13.6563 31.0313C13.6563 29.7642 13.2805 28.5256 12.5766 27.4721C11.8727 26.4186 10.8722 25.5975 9.70157 25.1126C8.53098 24.6278 7.2429 24.5009 6.00021 24.7481C4.75751 24.9953 3.61603 25.6054 2.7201 26.5013C1.82417 27.3973 1.21403 28.5388 0.966847 29.7815C0.719661 31.0241 0.846526 32.3122 1.3314 33.4828C1.81627 34.6534 2.63738 35.6539 3.69088 36.3579C4.74438 37.0618 5.98297 37.4375 7.25 37.4375C8.94905 37.4375 10.5785 36.7626 11.7799 35.5612C12.9813 34.3597 13.6563 32.7303 13.6563 31.0313ZM3.40625 31.0313C3.40625 30.271 3.63169 29.5279 4.05404 28.8958C4.4764 28.2637 5.07671 27.771 5.77906 27.4801C6.48142 27.1892 7.25427 27.113 7.99988 27.2614C8.7455 27.4097 9.43039 27.7758 9.96795 28.3133C10.5055 28.8509 10.8716 29.5358 11.0199 30.2814C11.1682 31.027 11.0921 31.7998 10.8012 32.5022C10.5102 33.2045 10.0176 33.8049 9.38548 34.2272C8.75338 34.6496 8.01022 34.875 7.25 34.875C6.23058 34.875 5.2529 34.47 4.53206 33.7492C3.81122 33.0283 3.40625 32.0507 3.40625 31.0313Z" fill="white"/>
<path d="M38 54.0938C37.3204 54.0938 36.6686 53.8238 36.188 53.3432C35.7075 52.8627 35.4375 52.2109 35.4375 51.5312H32.875C32.875 52.8905 33.415 54.194 34.3761 55.1552C35.3372 56.1163 36.6408 56.6562 38 56.6562C39.3592 56.6562 40.6628 56.1163 41.6239 55.1552C42.585 54.194 43.125 52.8905 43.125 51.5312H40.5625C40.5625 52.2109 40.2925 52.8627 39.812 53.3432C39.3314 53.8238 38.6796 54.0938 38 54.0938Z" fill="white"/>
</svg>
