<svg width="164" height="164" viewBox="0 0 164 164" fill="none" xmlns="http://www.w3.org/2000/svg">
<path d="M154.391 0H9.60938C4.31077 0 0 4.31077 0 9.60938V154.391C0 159.689 4.31077 164 9.60938 164H154.391C159.689 164 164 159.689 164 154.391V9.60938C164 4.31077 159.689 0 154.391 0ZM157.594 154.391C157.594 156.157 156.157 157.594 154.391 157.594H9.60938C7.84317 157.594 6.40625 156.157 6.40625 154.391V9.60938C6.40625 7.84317 7.84317 6.40625 9.60938 6.40625H154.391C156.157 6.40625 157.594 7.84317 157.594 9.60938V154.391Z" fill="white"/>
<path d="M129.003 80.6963C128.407 80.1002 127.58 79.7578 126.738 79.7578C125.892 79.7578 125.069 80.1005 124.473 80.6963C123.874 81.2921 123.535 82.1185 123.535 82.9609C123.535 83.8034 123.874 84.6298 124.473 85.2252C125.069 85.8213 125.892 86.1641 126.738 86.1641C127.58 86.1641 128.407 85.8213 129.003 85.2252C129.598 84.6298 129.941 83.8034 129.941 82.9609C129.941 82.1185 129.598 81.2924 129.003 80.6963Z" fill="white"/>
<path d="M129.94 113.329V99.4036C129.94 97.6349 128.506 96.2005 126.737 96.2005C124.968 96.2005 123.534 97.6349 123.534 99.4036V114.565C123.534 115.361 123.83 116.128 124.365 116.717L128.902 121.719H101.104L105.876 116.242C106.384 115.659 106.664 114.912 106.664 114.138V58.4238C106.664 58.197 106.64 57.976 106.595 57.7627L112.053 43.8294H129.094L124.472 48.4512C123.872 49.0521 123.534 49.8666 123.534 50.7161V65.0235C123.534 66.7923 124.968 68.2266 126.737 68.2266C128.506 68.2266 129.94 66.7923 129.94 65.0235V52.0432L139.092 42.8915C140.008 41.9754 140.282 40.5978 139.786 39.4008C139.29 38.2041 138.122 37.4235 136.827 37.4235H109.867C108.519 37.4235 107.367 38.2579 106.895 39.4376C106.891 39.4453 106.888 39.4504 106.885 39.4584L87.528 88.8756L64.7268 39.6541C64.2025 38.5215 63.0683 37.7969 61.8203 37.7969H29.4688C28.2045 37.7969 27.0584 38.5407 26.5433 39.6954C26.0283 40.8502 26.241 42.1996 27.0856 43.1404L41.8008 59.5244V104.265L26.9613 122.929C26.1961 123.891 26.0494 125.206 26.5837 126.314C27.1183 127.421 28.2394 128.125 29.4688 128.125H61.3933C62.6381 128.125 63.7701 127.404 64.2963 126.276C64.8226 125.148 64.6474 123.817 63.8476 122.864L48.207 104.217V72.6329L73.4429 126.285C73.9711 127.408 75.1002 128.125 76.3414 128.125H76.8484C78.1665 128.125 79.3501 127.318 79.8308 126.09L100.258 73.941V112.938L91.6501 122.818C90.8253 123.765 90.6295 125.106 91.1494 126.249C91.6696 127.392 92.8093 128.125 94.0649 128.125H136.133C137.4 128.125 138.548 127.378 139.061 126.219C139.575 125.061 139.356 123.708 138.505 122.77L129.94 113.329ZM54.5258 121.719H36.1079L45.0702 110.446L54.5258 121.719ZM76.3494 117.414L47.9024 56.934C47.7695 56.6512 47.5959 56.3895 47.387 56.1569L36.6511 44.2032H59.7738L84.1384 96.7995C84.1881 96.9068 84.2428 97.0099 84.3024 97.1089L76.3494 117.414Z" fill="white"/>
<path d="M102.34 15.375H76.2344C74.4653 15.375 73.0312 16.8094 73.0312 18.5781C73.0312 20.3469 74.4653 21.7812 76.2344 21.7812H102.34C104.109 21.7812 105.543 20.3469 105.543 18.5781C105.543 16.8094 104.109 15.375 102.34 15.375Z" fill="white"/>
<path d="M61.698 15.375H61.6602C59.8911 15.375 58.457 16.8094 58.457 18.5781C58.457 20.3469 59.8911 21.7812 61.6602 21.7812H61.698C63.467 21.7812 64.9011 20.3469 64.9011 18.5781C64.9011 16.8094 63.467 15.375 61.698 15.375Z" fill="white"/>
</svg>
