<svg width="57" height="57" viewBox="0 0 57 57" fill="none" xmlns="http://www.w3.org/2000/svg">
<g clip-path="url(#clip0)">
<path d="M8.33142 25.8685C7.89102 27.0432 8.2349 28.3683 9.19177 29.18C11.0047 30.9941 14.733 37.5431 16.5785 42.1579C17.8379 45.3054 20.6033 48.3947 22.7014 50.4328C23.6044 51.3214 24.1113 52.5361 24.1087 53.8034V54.1507C24.1087 55.7245 25.3842 57 26.958 57H42.1531C43.7269 57 45.0024 55.7245 45.0024 54.1507V51.2332C44.9937 50.9919 45.0855 50.7576 45.2559 50.5867C48.7612 47.3813 48.8012 42.0305 48.8012 41.8045V26.7697C48.8364 24.736 47.3031 23.0166 45.2789 22.8201C44.5181 22.7701 43.7599 22.9505 43.103 23.3374V21.8606C43.1109 20.4921 42.3779 19.2265 41.1867 18.5522C39.9959 17.8779 38.5335 17.9005 37.364 18.6118C37.2423 17.3306 36.4728 16.2011 35.3255 15.619C34.1778 15.0369 32.8122 15.0825 31.7062 15.7407V14.1678C34.0634 12.8301 35.5155 10.3252 35.5055 7.61496C35.5055 3.41882 32.1036 0.017395 27.9075 0.017395C23.7113 0.017395 20.3099 3.41882 20.3099 7.61496C20.2999 10.3252 21.7519 12.8301 24.1087 14.1678V29.4582C24.1356 30.5794 23.983 31.6971 23.6565 32.7701C23.5548 33.087 23.2953 33.3287 22.9718 33.4083C22.6675 33.4852 22.3449 33.4004 22.1171 33.1839C21.3754 32.4766 20.7164 31.6871 20.1534 30.8307C18.5053 28.3652 14.3583 23.76 11.7624 23.76C10.3043 23.7296 8.9631 24.5539 8.33142 25.8685ZM22.2093 7.61496C22.2093 4.46786 24.7604 1.91679 27.9075 1.91679C31.0546 1.91679 33.6056 4.46786 33.6056 7.61496C33.6148 9.24003 32.9227 10.7899 31.7062 11.8681V7.61496C31.7062 5.51689 30.0055 3.81618 27.9075 3.81618C25.8094 3.81618 24.1087 5.51689 24.1087 7.61496V11.8681C22.8927 10.7899 22.2002 9.24003 22.2093 7.61496ZM18.5701 31.8849C19.2139 32.8614 19.9669 33.7613 20.8142 34.5677C21.5128 35.2285 22.501 35.4863 23.4335 35.2507C24.3839 35.0138 25.1468 34.3069 25.4564 33.3778C25.8494 32.1093 26.0359 30.7859 26.0081 29.4582V7.61496C26.0081 6.56593 26.8584 5.71557 27.9075 5.71557C28.9565 5.71557 29.8069 6.56593 29.8069 7.61496V27.5588C29.8069 28.0835 30.232 28.5087 30.7568 28.5087C31.2811 28.5087 31.7062 28.0835 31.7062 27.5588V19.0118C31.7062 17.9627 32.557 17.1124 33.6056 17.1124C34.6547 17.1124 35.5055 17.9627 35.5055 19.0118V27.5588C35.5055 28.0835 35.9306 28.5087 36.4549 28.5087C36.9797 28.5087 37.4049 28.0835 37.4049 27.5588V21.8606C37.4049 20.8116 38.2552 19.9612 39.3043 19.9612C40.3533 19.9612 41.2036 20.8116 41.2036 21.8606V28.5087C41.2036 29.033 41.6288 29.4582 42.1531 29.4582C42.6779 29.4582 43.103 29.033 43.103 28.5087V26.6093C43.1017 26.1055 43.3026 25.622 43.6604 25.2673C44.0521 24.879 44.5916 24.6778 45.142 24.7147C46.168 24.8486 46.927 25.7355 46.9018 26.7697V41.8045C46.9018 41.851 46.8536 46.5532 43.973 49.186C43.41 49.7168 43.0943 50.4593 43.103 51.2332V54.1507C43.103 54.6755 42.6779 55.1006 42.1531 55.1006H26.958C26.4332 55.1006 26.0081 54.6755 26.0081 54.1507V53.8034C26.0094 52.0231 25.2942 50.3172 24.0243 49.0699C22.4154 47.5079 19.5378 44.439 18.3431 41.4515C16.3885 36.568 12.5215 29.8238 10.5347 27.837C10.0826 27.3853 9.93127 26.9671 10.0852 26.595C10.4295 25.9985 11.0738 25.639 11.7624 25.6594C13.0532 25.6594 16.5528 28.8591 18.5701 31.8849Z" fill="white"/>
<path d="M44.0525 40.855C44.5772 40.855 45.0024 40.4298 45.0024 39.9051V34.2069C45.0024 33.6826 44.5772 33.2574 44.0525 33.2574C43.5282 33.2574 43.103 33.6826 43.103 34.2069V39.9051C43.103 40.4298 43.5282 40.855 44.0525 40.855Z" fill="white"/>
<path d="M43.103 46.5532C43.3548 46.5532 43.5965 46.4532 43.7743 46.2749C44.4968 45.6063 44.9363 44.6864 45.0024 43.7039C45.0016 43.1909 44.5886 42.7739 44.0756 42.7679C43.5569 42.7579 43.1252 43.1639 43.103 43.6821C43.0317 44.1642 42.7944 44.6064 42.4314 44.932C42.1601 45.2037 42.0788 45.6119 42.2257 45.9667C42.3727 46.3219 42.7187 46.5532 43.103 46.5532Z" fill="white"/>
<path d="M28.8574 53.2012H29.8069C30.3316 53.2012 30.7568 52.7761 30.7568 52.2513C30.7568 51.727 30.3316 51.3018 29.8069 51.3018H28.8574C28.3326 51.3018 27.9075 51.727 27.9075 52.2513C27.9075 52.7761 28.3326 53.2012 28.8574 53.2012Z" fill="white"/>
<path d="M33.6056 53.2012H40.2537C40.7784 53.2012 41.2036 52.7761 41.2036 52.2513C41.2036 51.727 40.7784 51.3018 40.2537 51.3018H33.6056C33.0813 51.3018 32.6561 51.727 32.6561 52.2513C32.6561 52.7761 33.0813 53.2012 33.6056 53.2012Z" fill="white"/>
<path d="M20.3099 15.7247C20.689 15.7247 21.0316 15.4999 21.182 15.1521C21.3324 14.8043 21.262 14.4004 21.0025 14.1244C17.7119 10.6464 17.5332 5.26039 20.5864 1.57203C20.8121 1.31161 20.879 0.949473 20.7616 0.625589C20.6438 0.301706 20.3599 0.0669444 20.0195 0.0121668C19.6791 -0.0426107 19.3361 0.09129 19.1226 0.362135C15.4604 4.78782 15.6725 11.2498 19.6178 15.4256C19.7974 15.6164 20.0478 15.7247 20.3099 15.7247Z" fill="white"/>
<path d="M36.7713 13.2088C36.9952 13.3236 37.2561 13.3449 37.4956 13.2675C37.7356 13.1901 37.9347 13.021 38.0495 12.7967C40.1258 8.75355 39.5919 3.86182 36.6922 0.362135C36.4792 0.09129 36.1357 -0.0426107 35.7953 0.0121668C35.4554 0.0669444 35.1715 0.301706 35.0537 0.625589C34.9358 0.949473 35.0028 1.31161 35.2289 1.57203C37.6452 4.48741 38.0899 8.56269 36.3601 11.9306C36.1205 12.3971 36.3049 12.9692 36.7713 13.2088Z" fill="white"/>
</g>
<defs>
<clipPath id="clip0">
<rect width="57" height="57" fill="white"/>
</clipPath>
</defs>
</svg>
