<svg width="540" height="544" viewBox="0 0 540 544" fill="none" xmlns="http://www.w3.org/2000/svg">
<path d="M421.713 248.122C428.987 251.47 435.833 255.679 442.104 260.657C442.889 260.979 443.566 261.52 444.054 262.214C444.543 262.908 444.823 263.727 444.862 264.574C444.901 265.422 444.697 266.264 444.274 267C443.851 267.735 443.227 268.335 442.475 268.729C435.973 274.194 429.03 279.113 421.717 283.433L421.202 283.742C414.112 288.014 406.69 291.709 399.008 294.792C398.305 295.263 397.483 295.527 396.637 295.552C395.79 295.577 394.954 295.363 394.225 294.934C393.495 294.506 392.901 293.879 392.511 293.128C392.121 292.377 391.951 291.53 392.021 290.687C390.598 282.8 390.125 274.77 390.612 266.77" fill="#D8307E"/>
<path d="M424.313 286.551L423.723 286.905C416.225 291.445 408.368 295.363 400.23 298.621C398.951 299.16 397.571 299.421 396.183 299.386C394.795 299.352 393.43 299.022 392.179 298.42C391.037 297.633 390.077 296.61 389.363 295.42C388.65 294.231 388.2 292.901 388.044 291.523C386.562 283.293 386.065 274.915 386.562 266.568C386.625 265.508 387.106 264.517 387.899 263.812C388.692 263.107 389.733 262.746 390.793 262.809C391.852 262.871 392.843 263.352 393.548 264.146C394.253 264.939 394.614 265.98 394.552 267.039C394.084 274.724 394.537 282.436 395.899 290.013C395.989 290.523 396.121 291.024 396.294 291.512C396.418 291.344 396.871 291.306 397.672 291.04C405.079 288.044 412.238 284.469 419.083 280.348C426.342 276.127 433.223 271.287 439.648 265.88C440.045 265.526 440.407 265.134 440.728 264.71C440.319 264.47 439.939 264.185 439.593 263.86C433.559 259.071 426.973 255.02 419.977 251.794C419.013 251.35 418.265 250.541 417.898 249.546C417.53 248.55 417.573 247.449 418.017 246.485C418.461 245.521 419.269 244.773 420.265 244.405C421.26 244.038 422.361 244.081 423.325 244.525C430.885 248.014 438.004 252.39 444.53 257.56C445.771 258.247 446.815 259.24 447.562 260.446C448.309 261.651 448.735 263.028 448.798 264.445C448.861 265.861 448.56 267.271 447.923 268.538C447.286 269.805 446.335 270.887 445.16 271.681C438.63 277.2 431.658 282.174 424.313 286.551Z" fill="#323C6B"/>
<path d="M534.955 372.034C534.41 372.361 533.796 372.553 533.163 372.596C532.53 372.638 531.895 372.529 531.312 372.278C517.612 366.358 509.371 353.003 502.095 341.226L501.066 339.51C493.639 327.496 485.064 316.012 472.667 313.294C467.484 312.455 462.209 312.34 456.993 312.952C448.632 314.337 440.049 313.227 432.315 309.761C428.161 306.963 424.612 303.359 421.878 299.163C419.144 294.967 417.281 290.264 416.4 285.334C416.129 284.307 416.278 283.215 416.813 282.298C417.347 281.38 418.225 280.713 419.251 280.443C420.278 280.172 421.37 280.321 422.288 280.855C423.205 281.39 423.872 282.267 424.143 283.294C424.718 287.189 426.083 290.926 428.154 294.274C430.226 297.622 432.961 300.511 436.19 302.763C442.604 305.392 449.631 306.157 456.46 304.968C462.429 304.29 468.464 304.463 474.384 305.482C489.681 308.821 499.874 322.46 507.846 335.304L508.879 337.027C515.854 348.332 523.077 360.021 534.457 364.934C535.133 365.226 535.716 365.698 536.141 366.3C536.566 366.901 536.816 367.608 536.865 368.343C536.914 369.077 536.759 369.811 536.418 370.464C536.076 371.116 535.561 371.661 534.93 372.04L534.955 372.034Z" fill="#323C6B"/>
<path d="M260.371 196.883C246.984 175.384 242.683 149.449 248.414 124.779C254.144 100.11 269.438 78.7267 290.932 65.3312C312.873 52.6903 338.936 49.2793 363.391 55.848C387.846 62.4167 408.692 78.4274 421.347 100.361C448.916 146.34 452.178 233.485 407.729 260.136C363.28 286.788 287.953 242.882 260.371 196.883Z" fill="#D8307E"/>
<path d="M421.347 100.314C442.168 135.039 449.095 193.115 432.26 231.013C436.002 197.099 429.243 162.853 412.898 132.903C400.238 110.965 379.387 94.9513 354.925 88.38C330.464 81.8088 304.395 85.218 282.446 97.8585C266.635 107.342 254.082 121.409 246.453 138.193C247.486 123.373 252.066 109.019 259.808 96.3396C267.549 83.6604 278.225 73.0279 290.936 65.338C312.868 52.6854 338.928 49.2621 363.384 55.8212C387.84 62.3802 408.689 78.3844 421.347 100.314Z" fill="#C71A6A"/>
<path d="M409.786 263.568C361.906 292.277 284.06 244.153 256.947 198.936C243.043 176.521 238.595 149.508 244.578 123.819C250.561 98.1298 266.487 75.8616 288.863 61.8971C311.723 48.7377 338.868 45.1803 364.346 52.0049C389.825 58.8296 411.557 75.4792 424.778 98.3032C451.891 143.521 457.666 234.858 409.786 263.568ZM292.978 68.7596C272.419 81.6315 257.803 102.13 252.334 125.762C246.864 149.394 250.989 174.23 263.803 194.825C289.397 237.51 363.13 282.213 405.665 256.709C448.199 231.205 443.503 145.107 417.909 102.422C405.78 81.4191 385.819 66.0817 362.4 59.7717C338.982 53.4616 314.017 56.6938 292.978 68.7596Z" fill="#323C6B"/>
<path d="M412.123 56.1912C411.441 56.6 410.653 56.7966 409.859 56.7558C409.066 56.715 408.302 56.4387 407.666 55.9621C390.803 43.3136 370.847 35.4373 349.891 33.16C349.369 33.1058 348.862 32.9492 348.4 32.6991C347.938 32.449 347.53 32.1104 347.198 31.7025C346.867 31.2947 346.62 30.8256 346.47 30.322C346.32 29.8185 346.271 29.2903 346.325 28.7677C346.379 28.2451 346.536 27.7383 346.786 27.2762C347.036 26.8142 347.374 26.4059 347.782 26.0747C348.19 25.7435 348.659 25.4959 349.163 25.346C349.666 25.1961 350.194 25.1469 350.717 25.2011C373.112 27.6238 394.441 36.0351 412.461 49.5508C412.986 49.9443 413.407 50.461 413.685 51.0553C413.963 51.6497 414.091 52.3033 414.058 52.9587C414.024 53.6142 413.829 54.2512 413.491 54.8137C413.153 55.3762 412.682 55.8469 412.119 56.1843L412.123 56.1912Z" fill="#323C6B"/>
<path d="M430.272 73C429.451 73.489 428.483 73.6683 427.542 73.5055C426.6 73.3426 425.748 72.8483 425.14 72.112C424.178 70.9439 423.193 69.7992 422.166 68.7079C421.801 68.3294 421.514 67.8827 421.322 67.3933C421.13 66.904 421.036 66.3816 421.046 65.8559C421.055 65.3303 421.168 64.8117 421.379 64.3298C421.589 63.8479 421.892 63.4121 422.27 63.0473C422.649 62.6825 423.096 62.3958 423.585 62.2036C424.074 62.0114 424.597 61.9175 425.122 61.9272C425.648 61.9369 426.166 62.0501 426.648 62.2602C427.13 62.4703 427.566 62.7733 427.931 63.1519C429.112 64.3749 430.22 65.6789 431.317 67.0089C431.686 67.4559 431.954 67.978 432.102 68.5388C432.249 69.0997 432.273 69.6859 432.172 70.257C432.071 70.828 431.847 71.3702 431.515 71.846C431.183 72.3218 430.752 72.7197 430.251 73.0123L430.272 73Z" fill="#323C6B"/>
<path d="M335.431 334.597C346.077 335.435 356.593 337.543 366.752 340.877C367.883 340.92 368.98 341.283 369.915 341.925C370.85 342.568 371.583 343.462 372.028 344.503C372.474 345.545 372.613 346.69 372.43 347.804C372.247 348.917 371.748 349.954 370.994 350.791C365.437 360.611 359.072 369.95 351.966 378.711L351.502 379.292C344.651 387.891 337.117 395.921 328.971 403.307C328.314 404.219 327.412 404.926 326.368 405.347C325.323 405.768 324.179 405.885 323.068 405.685C321.956 405.485 320.921 404.976 320.083 404.216C319.245 403.457 318.637 402.478 318.329 401.392C312.86 392.193 308.51 382.379 305.373 372.16" fill="#E4194E"/>
<path d="M357.007 381.671L356.477 382.333C349.165 391.549 341.117 400.155 332.414 408.066C331.149 409.469 329.552 410.53 327.774 411.15C325.995 411.77 324.093 411.929 322.246 411.613C320.398 411.296 318.666 410.513 317.211 409.338C315.756 408.163 314.626 406.635 313.927 404.895C308.29 395.311 303.823 385.074 300.623 374.403C300.216 373.048 300.364 371.582 301.034 370.325C301.705 369.069 302.843 368.127 304.199 367.705C305.555 367.284 307.017 367.417 308.264 368.077C309.511 368.737 310.44 369.869 310.847 371.223C313.785 381.054 317.891 390.485 323.076 399.315C323.422 399.911 323.817 400.476 324.258 401.004C324.714 400.536 325.221 400.12 325.768 399.764C333.676 392.526 341.008 384.678 347.693 376.294C354.759 367.521 361.151 358.225 366.811 348.489C367.141 347.86 367.413 347.202 367.621 346.524C366.995 346.407 366.382 346.226 365.794 345.983C356.047 342.838 345.948 340.88 335.713 340.149C334.302 340.049 332.994 339.39 332.076 338.318C331.159 337.247 330.708 335.85 330.822 334.434C330.936 333.019 331.606 331.702 332.685 330.772C333.763 329.842 335.162 329.377 336.573 329.477C347.644 330.267 358.568 332.383 369.112 335.778C370.98 336.051 372.743 336.801 374.231 337.955C375.72 339.109 376.884 340.629 377.614 342.37C378.343 344.111 378.613 346.015 378.397 347.9C378.182 349.785 377.488 351.587 376.383 353.135C370.708 363.154 364.228 372.698 357.007 381.671Z" fill="#323C6B"/>
<path d="M536.104 437.344C535.57 438.012 534.885 438.544 534.107 438.896C533.329 439.248 532.48 439.411 531.629 439.37C511.607 438.383 495.01 425.434 480.367 414.02L478.351 412.407C463.42 400.805 447.29 390.41 430.439 392.832C423.515 394.219 416.813 396.565 410.525 399.802C400.639 405.489 389.318 408.146 377.973 407.443C371.443 405.882 365.301 403.02 359.912 399.028C354.523 395.036 349.997 389.995 346.602 384.204C346.198 383.628 345.912 382.977 345.759 382.288C345.607 381.599 345.592 380.885 345.715 380.189C345.838 379.492 346.096 378.826 346.476 378.228C346.855 377.63 347.348 377.112 347.926 376.703C348.505 376.295 349.157 376.004 349.846 375.847C350.535 375.69 351.247 375.671 351.942 375.79C352.636 375.908 353.3 376.163 353.895 376.54C354.49 376.916 355.004 377.406 355.409 377.983C357.939 382.611 361.39 386.668 365.55 389.904C369.71 393.14 374.491 395.488 379.601 396.802C388.898 397.079 398.101 394.724 406.152 390.007C413.35 386.338 421.026 383.708 428.949 382.196C449.818 379.193 468.965 391.476 484.954 403.898L486.987 405.524C501.037 416.478 515.565 427.813 532.216 428.641C533.202 428.689 534.155 429.008 534.969 429.565C535.783 430.121 536.427 430.892 536.829 431.793C537.231 432.695 537.376 433.691 537.249 434.674C537.121 435.656 536.725 436.585 536.105 437.359L536.104 437.344Z" fill="#323C6B"/>
<path d="M109.728 345.417C96.1961 335.334 84.8284 322.634 76.3024 308.076C67.7763 293.517 62.2666 277.398 60.1014 260.677C57.9363 243.957 59.1601 226.979 63.6999 210.754C68.2397 194.529 76.0025 179.39 86.5258 166.239C97.0491 153.088 110.117 142.195 124.952 134.207C139.786 126.22 156.083 121.303 172.871 119.749C189.659 118.195 206.595 120.036 222.669 125.162C238.742 130.288 253.625 138.595 266.431 149.586C322.476 194.434 367.282 302.198 324.011 356.273C280.74 410.349 165.799 390.284 109.728 345.417Z" fill="#E4194E"/>
<path d="M266.241 149.362C308.391 183.09 344.046 252.483 340.556 307.831C329.519 263.657 305.165 223.968 270.796 194.143C257.894 183.449 243.01 175.405 226.992 170.47C210.974 165.536 194.136 163.807 177.44 165.383C160.745 166.96 144.518 171.81 129.687 179.657C114.856 187.504 101.711 198.195 91.0028 211.118C75.6583 230.344 66.4366 253.731 64.534 278.244C58.9696 259.212 58.0556 239.114 61.8689 219.641C65.6822 200.167 74.1114 181.887 86.448 166.336C108.084 140.252 139.175 123.811 172.888 120.628C206.601 117.445 240.178 127.78 266.241 149.362Z" fill="#CA1242"/>
<path d="M328.529 359.882C281.758 418.331 161.301 394.098 106.029 349.87C91.9179 339.312 80.0698 326.029 71.1898 310.81C62.3097 295.591 56.5789 278.747 54.3382 261.279C52.0975 243.811 53.3926 226.076 58.1465 209.128C62.9004 192.18 71.016 176.366 82.0108 162.626C93.0056 148.886 106.655 137.5 122.148 129.146C137.64 120.791 154.66 115.639 172.194 113.995C189.728 112.35 207.419 114.248 224.215 119.575C241.011 124.901 256.569 133.548 269.964 145.001C325.243 189.221 375.299 301.433 328.529 359.882ZM90.3683 169.307C70.5486 195.088 61.7731 227.688 65.965 259.961C70.1569 292.234 86.9743 321.547 112.731 341.477C164.916 383.235 278.589 405.076 320.137 353.153C361.686 301.23 315.443 195.121 263.259 153.364C238.164 132.603 205.874 122.623 173.466 125.611C141.057 128.6 111.175 144.313 90.3683 169.307Z" fill="#323C6B"/>
<path d="M235.477 357.846C235.379 359.502 234.61 360.992 233.339 361.991C232.068 362.991 230.396 363.419 228.69 363.182C227.618 363.001 223.493 362.669 221.963 362.472C221.056 362.439 220.149 362.218 219.302 361.826C218.454 361.433 217.683 360.877 217.041 360.194C216.398 359.51 215.898 358.715 215.572 357.859C215.247 357.003 215.103 356.106 215.151 355.226C215.198 354.345 215.436 353.502 215.848 352.75C216.261 351.998 216.839 351.354 217.545 350.861C218.251 350.368 219.069 350.035 219.946 349.886C220.824 349.736 221.74 349.773 222.637 349.993C223.902 350.199 227.905 350.434 229.364 350.703C230.211 350.814 231.043 351.088 231.811 351.509C232.578 351.93 233.266 352.489 233.835 353.153C234.404 353.818 234.842 354.575 235.124 355.381C235.406 356.187 235.526 357.025 235.477 357.846Z" fill="white"/>
<path d="M201.285 356.009C200.527 356.956 199.521 357.674 198.379 358.082C197.238 358.489 196.008 358.569 194.827 358.314C171.334 353.523 149.219 343.582 130.068 329.203C125.615 325.604 121.47 321.637 117.679 317.345C117.113 316.71 116.678 315.969 116.4 315.164C116.121 314.359 116.004 313.506 116.054 312.654C116.105 311.802 116.323 310.968 116.695 310.198C117.068 309.429 117.587 308.74 118.225 308.17C118.862 307.6 119.604 307.161 120.41 306.878C121.215 306.594 122.067 306.472 122.918 306.518C123.769 306.564 124.601 306.778 125.367 307.146C126.134 307.515 126.82 308.032 127.385 308.667C130.699 312.427 134.321 315.902 138.216 319.055C155.808 332.203 176.108 341.275 197.662 345.623C199.329 345.994 200.779 347.011 201.696 348.452C202.612 349.893 202.921 351.642 202.555 353.316C202.348 354.3 201.913 355.222 201.285 356.009Z" fill="#323C6B"/>
<path d="M358.647 422.894C366.973 420.623 375.542 419.358 384.17 419.126C385.041 418.849 385.974 418.827 386.858 419.062C387.742 419.297 388.541 419.779 389.16 420.452C389.78 421.126 390.194 421.962 390.354 422.862C390.515 423.763 390.415 424.691 390.066 425.536C388.48 434.554 386.152 443.424 383.103 452.057L382.892 452.668C379.994 461.107 376.422 469.298 372.212 477.165C371.958 478.041 371.462 478.828 370.781 479.434C370.099 480.041 369.26 480.443 368.361 480.595C367.461 480.746 366.537 480.64 365.694 480.289C364.852 479.939 364.126 479.357 363.599 478.612C356.962 473.083 351.011 466.779 345.873 459.834" fill="#AC50F5"/>
<path d="M387.437 452.798L387.195 453.499C384.145 462.442 380.37 471.119 375.904 479.445C375.329 480.855 374.404 482.095 373.217 483.049C372.03 484.002 370.62 484.638 369.12 484.896C367.619 485.154 366.078 485.025 364.64 484.523C363.203 484.021 361.917 483.161 360.904 482.024C353.979 476.255 347.767 469.68 342.399 462.438C341.717 461.52 341.428 460.368 341.595 459.237C341.678 458.676 341.87 458.138 342.161 457.652C342.452 457.166 342.836 456.742 343.29 456.404C343.745 456.067 344.262 455.822 344.811 455.684C345.36 455.546 345.932 455.517 346.492 455.6C347.052 455.683 347.591 455.875 348.077 456.166C348.563 456.457 348.987 456.841 349.324 457.295C354.261 463.965 359.975 470.022 366.347 475.337C366.774 475.696 367.23 476.019 367.711 476.302C367.93 475.825 368.203 475.374 368.522 474.958C372.565 467.354 376.002 459.444 378.802 451.3C381.877 442.787 384.208 434.024 385.769 425.109C385.85 424.542 385.878 423.967 385.851 423.395C385.347 423.48 384.836 423.508 384.325 423.478C376.025 423.702 367.78 424.916 359.768 427.096C359.221 427.245 358.651 427.285 358.089 427.213C357.527 427.142 356.985 426.96 356.493 426.679C356.001 426.398 355.569 426.023 355.223 425.575C354.876 425.128 354.621 424.616 354.472 424.069C354.323 423.523 354.283 422.952 354.354 422.39C354.426 421.829 354.607 421.286 354.888 420.795C355.169 420.303 355.545 419.871 355.992 419.524C356.44 419.178 356.952 418.923 357.499 418.774C366.159 416.417 375.069 415.102 384.04 414.856C385.54 414.564 387.091 414.662 388.543 415.14C389.994 415.618 391.299 416.46 392.333 417.587C393.366 418.713 394.093 420.086 394.444 421.573C394.796 423.061 394.759 424.614 394.339 426.083C392.775 435.163 390.466 444.098 387.437 452.798Z" fill="#323C6B"/>
<path d="M538.008 446.791C537.784 447.437 537.41 448.021 536.916 448.495C536.423 448.968 535.823 449.318 535.168 449.514C519.753 454.112 503.698 448.788 489.532 444.099L487.494 443.395C473.04 438.615 458.005 435.068 445.884 441.407C441.02 444.303 436.583 447.861 432.701 451.979C426.752 458.929 418.885 463.97 410.086 466.471C404.716 467.033 399.288 466.512 394.123 464.938C388.959 463.363 384.163 460.768 380.02 457.306C379.085 456.645 378.451 455.64 378.258 454.512C378.064 453.384 378.327 452.226 378.988 451.291C379.648 450.357 380.653 449.723 381.781 449.53C382.909 449.336 384.068 449.599 385.002 450.259C388.176 453.079 391.892 455.22 395.923 456.551C399.954 457.883 404.215 458.376 408.443 458C415.564 455.733 421.897 451.498 426.712 445.783C431.171 441.089 436.276 437.053 441.872 433.797C456.879 425.945 474.712 430.113 490.19 435.229L492.236 435.936C505.826 440.444 519.886 445.096 532.696 441.276C533.457 441.049 534.265 441.036 535.032 441.238C535.8 441.44 536.496 441.851 537.046 442.424C537.595 442.997 537.975 443.71 538.145 444.486C538.315 445.261 538.267 446.068 538.007 446.818L538.008 446.791Z" fill="#323C6B"/>
<path d="M189.928 492.255C163.984 483.772 142.47 465.332 130.118 440.991C117.765 416.65 115.585 388.399 124.057 362.451C133.424 336.812 152.59 315.943 177.341 304.432C202.091 292.921 230.4 291.71 256.042 301.066C310.654 319.951 373.695 389.67 355.439 442.464C337.183 495.257 244.556 511.146 189.928 492.255Z" fill="#AD50F5"/>
<path d="M256.038 301.027C297.119 315.233 342.923 358.267 355.372 401.174C335.006 370.677 305.777 347.16 271.627 333.795C245.979 324.443 217.667 325.656 192.912 337.167C168.158 348.679 148.987 369.548 139.611 395.188C133.135 413.959 132.48 434.25 137.733 453.399C128.345 440.438 122.207 425.412 119.835 409.585C117.463 393.758 118.927 377.592 124.103 362.448C133.47 336.82 152.625 315.957 177.362 304.44C202.1 292.924 230.396 291.697 256.038 301.027Z" fill="#A060B5"/>
<path d="M359.498 443.867C339.833 500.737 242.226 514.903 188.519 496.331C161.513 487.446 139.132 468.215 126.284 442.854C113.436 417.492 111.17 388.071 119.982 361.041C129.751 334.344 149.708 312.611 175.478 300.605C201.247 288.6 230.725 287.303 257.449 296.998C311.156 315.57 379.15 387.038 359.498 443.867ZM128.124 363.857C120.059 388.727 122.185 415.779 134.034 439.084C145.884 462.389 166.491 480.045 191.338 488.18C242.037 505.712 333.894 491.574 351.364 441.054C368.834 390.534 305.332 322.673 254.633 305.141C230.07 296.192 202.96 297.348 179.247 308.355C155.534 319.362 137.153 339.322 128.133 363.86L128.124 363.857Z" fill="#323C6B"/>
<path d="M134.949 486.466C134.736 487.086 134.383 487.648 133.916 488.108C133.107 488.914 132.011 489.366 130.868 489.364C129.726 489.363 128.631 488.908 127.823 488.1C104.727 465.133 90.8449 434.5 88.8009 401.992C88.7323 400.851 89.1201 399.728 89.8791 398.872C90.638 398.016 91.7059 397.497 92.8478 397.428C93.9897 397.36 95.112 397.747 95.968 398.506C96.8239 399.265 97.3434 400.333 97.412 401.475C99.3271 431.885 112.32 460.539 133.933 482.017C134.501 482.59 134.898 483.31 135.078 484.096C135.258 484.883 135.213 485.704 134.949 486.466Z" fill="#323C6B"/>
</svg>
