<svg width="149" height="160" viewBox="0 0 149 160" fill="none" xmlns="http://www.w3.org/2000/svg">
<g clip-path="url(#clip0)" filter="url(#filter0_d)">
<path d="M129.123 109.276V99.3447H126.641C119.486 99.3559 113.068 103.746 110.465 110.41C105.578 102.033 96.615 96.8762 86.9164 96.8619H81.9508C72.3571 96.8511 64.5823 89.0763 64.5715 79.4826V62.1032C64.5603 53.7255 59.8639 46.0578 52.4059 42.2411C63.3919 36.6192 67.7401 23.1561 62.1182 12.1702C56.4963 1.18428 43.0332 -3.16398 32.0473 2.45793C21.0614 8.07984 16.7131 21.5429 22.335 32.5289C24.4724 36.7058 27.8703 40.1038 32.0473 42.2411C24.5894 46.0578 19.8929 53.7255 19.8817 62.1032V94.3792C19.9584 110.495 31.8753 124.101 47.8401 126.3C49.8797 133.856 56.7455 139.095 64.5715 139.069H67.0543V129.138C67.0431 128.306 66.9708 127.476 66.8383 126.655H109.261V131.621C109.272 141.214 117.047 148.989 126.641 149H129.123V139.069C129.114 132.959 125.896 127.303 120.65 124.172C125.896 121.042 129.113 115.386 129.123 109.276ZM48.2051 6.08215C55.0429 8.59129 59.5932 15.0952 59.606 22.379C59.5932 29.6628 55.0429 36.1667 48.2051 38.6759C54.4635 28.7125 54.4635 16.0455 48.2051 6.08215ZM42.2266 6.21622C49.8689 15.6364 49.8689 29.1216 42.2266 38.5418C34.5843 29.1219 34.5843 15.6364 42.2266 6.21622ZM24.8473 22.379C24.86 15.0952 29.4103 8.59129 36.2481 6.08215C29.9894 16.0455 29.9894 28.7125 36.2481 38.6759C29.41 36.167 24.86 29.6628 24.8473 22.379ZM62.0887 133.855C57.027 132.838 53.134 128.776 52.3315 123.676C52.2207 123.019 52.1626 122.355 52.1577 121.69V116.972C56.4184 117.853 59.9092 120.896 61.3638 124.997C61.8398 126.326 62.085 127.726 62.0887 129.138V133.855ZM65.3635 121.69C65.2915 121.538 65.1947 121.404 65.1152 121.258C64.9414 120.917 64.7478 120.592 64.5541 120.264C64.3058 119.85 64.0576 119.445 63.772 119.058C63.5486 118.748 63.3177 118.45 63.0769 118.154C62.7764 117.787 62.4636 117.437 62.1359 117.096C61.8727 116.823 61.6071 116.56 61.3265 116.307C60.9764 115.989 60.609 115.691 60.2341 115.403C59.9386 115.175 59.6457 114.949 59.3378 114.743C58.9381 114.472 58.5185 114.246 58.0964 113.998C57.7811 113.822 57.4708 113.638 57.1431 113.482C56.6862 113.263 56.2145 113.087 55.7403 112.908C55.42 112.786 55.1072 112.66 54.7795 112.548C54.2407 112.382 53.6846 112.267 53.1259 112.153C52.8404 112.096 52.5673 112.012 52.2793 111.967C51.4178 111.832 50.547 111.762 49.6749 111.759H47.1921V121.208C34.2774 118.775 24.9044 107.521 24.8473 94.3792V62.1032C24.8473 52.5049 32.6282 44.7239 42.2266 44.7239C51.825 44.7239 59.606 52.5049 59.606 62.1032V79.4826C59.6196 91.8176 69.6158 101.814 81.9508 101.827H86.9164C98.2915 101.841 107.846 110.386 109.125 121.69H65.3635ZM124.158 139.069V143.786C118.382 142.598 114.234 137.518 114.227 131.621V126.903C120.003 128.091 124.15 133.172 124.158 139.069ZM124.158 109.276C124.15 115.173 120.003 120.254 114.227 121.441V116.724C114.234 110.827 118.382 105.746 124.158 104.559V109.276Z" fill="white"/>
<path d="M49.6748 67.0688V69.5516C49.6748 70.9227 48.5632 72.0343 47.192 72.0343C45.8209 72.0343 44.7093 70.9227 44.7093 69.5516V62.1033H39.7438V69.5516C39.7438 70.9227 38.6321 72.0343 37.261 72.0343C35.8899 72.0343 34.7782 70.9227 34.7782 69.5516V67.0688H29.8127V69.5516C29.7947 73.6472 33.1002 76.9822 37.1958 77.0005C39.0563 77.0089 40.852 76.3174 42.2265 75.0633C45.2524 77.8235 49.9429 77.6081 52.7032 74.5823C53.957 73.2078 54.6484 71.4121 54.6403 69.5516V67.0688H49.6748Z" fill="white"/>
<path d="M32.2955 59.6205C33.6667 59.6205 34.7783 58.5089 34.7783 57.1377C34.7783 55.7665 33.6667 54.655 32.2955 54.655C30.9243 54.655 29.8127 55.7665 29.8127 57.1377C29.8127 58.5089 30.9243 59.6205 32.2955 59.6205Z" fill="white"/>
<path d="M52.1576 59.6205C53.5288 59.6205 54.6403 58.5089 54.6403 57.1377C54.6403 55.7665 53.5288 54.655 52.1576 54.655C50.7864 54.655 49.6748 55.7665 49.6748 57.1377C49.6748 58.5089 50.7864 59.6205 52.1576 59.6205Z" fill="white"/>
</g>
<defs>
<filter id="filter0_d" x="0" y="0" width="158" height="160" filterUnits="userSpaceOnUse" color-interpolation-filters="sRGB">
<feFlood flood-opacity="0" result="BackgroundImageFix"/>
<feColorMatrix in="SourceAlpha" type="matrix" values="0 0 0 0 0 0 0 0 0 0 0 0 0 0 0 0 0 0 127 0"/>
<feOffset dx="5" dy="7"/>
<feGaussianBlur stdDeviation="2"/>
<feColorMatrix type="matrix" values="0 0 0 0 0 0 0 0 0 0 0 0 0 0 0 0 0 0 0.25 0"/>
<feBlend mode="normal" in2="BackgroundImageFix" result="effect1_dropShadow"/>
<feBlend mode="normal" in="SourceGraphic" in2="effect1_dropShadow" result="shape"/>
</filter>
<clipPath id="clip0">
<rect width="149" height="149" fill="white"/>
</clipPath>
</defs>
</svg>
