<svg width="164" height="164" viewBox="0 0 164 164" fill="none" xmlns="http://www.w3.org/2000/svg">
<g clip-path="url(#clip0)">
<path d="M123.641 16.9766C123.641 18.7458 122.207 20.1797 120.438 20.1797C118.668 20.1797 117.234 18.7458 117.234 16.9766C117.234 15.2073 118.668 13.7734 120.438 13.7734C122.207 13.7734 123.641 15.2073 123.641 16.9766Z" fill="white"/>
<path d="M127.282 45.383L32.7896 82.219C31.5596 82.6982 30.7488 83.8843 30.7501 85.2056C30.7513 86.5257 31.5621 87.7106 32.7933 88.1885L51.2175 95.3468C53.3271 100.619 62.8852 124.524 63.0366 124.884C63.9249 126.986 66.6563 127.503 68.2492 125.905L82.5193 111.635L108.835 132.554C110.677 134.018 113.455 133.06 113.96 130.723L131.577 49.0428C132.101 46.5955 129.698 44.4434 127.282 45.383ZM93.5413 65.4113L53.3784 89.3134L42.7856 85.1981L93.5413 65.4113ZM103.008 67.2331L70.2323 97.1285C69.8069 97.5176 69.4566 98.0694 69.2977 98.665C69.2964 98.6675 69.2952 98.6712 69.2952 98.6738L65.3676 113.474L57.6651 94.2169L103.008 67.2331ZM74.2312 105.049L77.4719 107.624L72.1317 112.964L74.2312 105.049ZM108.784 124.33C102.669 119.469 82.996 103.834 77.3268 99.3281L123.202 57.4848L108.784 124.33Z" fill="white"/>
<path d="M147.984 0H16.0157C7.18457 0 6.10352e-05 7.18451 6.10352e-05 16.0156V147.984C6.10352e-05 156.815 7.18457 164 16.0157 164H147.984C156.816 164 164 156.815 164 147.984V16.0156C164 7.18451 156.816 0 147.984 0ZM157.594 147.984C157.594 153.283 153.283 157.594 147.984 157.594H16.0157C10.7168 157.594 6.40631 153.283 6.40631 147.984V16.0156C6.40631 10.7167 10.7168 6.40625 16.0157 6.40625H147.984C153.283 6.40625 157.594 10.7167 157.594 16.0156V147.984Z" fill="white"/>
<path d="M43.5626 20.1797H107.625C109.394 20.1797 110.828 18.7458 110.828 16.9766C110.828 15.2073 109.394 13.7734 107.625 13.7734H43.5626C41.7933 13.7734 40.3594 15.2073 40.3594 16.9766C40.3594 18.7458 41.7933 20.1797 43.5626 20.1797Z" fill="white"/>
</g>
<defs>
<clipPath id="clip0">
<rect width="164" height="164" fill="white"/>
</clipPath>
</defs>
</svg>
